<svg width="352" height="175" viewBox="0 0 352 175" fill="none" xmlns="http://www.w3.org/2000/svg">
<g clip-path="url(#clip0_161_11474)">
<path d="M303.989 144.194C303.989 69.4555 243.402 8.86792 168.663 8.86792C93.9247 8.86792 33.337 69.4555 33.337 144.194" stroke="#11AFB4" stroke-opacity="0.31" stroke-width="0.902573" stroke-dasharray="6.77 6.77"/>
<line x1="32.6034" y1="143.517" x2="303.989" y2="143.517" stroke="#11AFB4" stroke-opacity="0.31" stroke-width="1.35386" stroke-dasharray="6.77 6.77"/>
<line x1="87.7974" y1="35.245" x2="144.642" y2="114.46" stroke="#11AFB4" stroke-opacity="0.31" stroke-width="1.35386" stroke-dasharray="6.77 6.77"/>
<path d="M259.584 43.8037L205.5 116" stroke="#11AFB4" stroke-opacity="0.31" stroke-width="1.35386" stroke-dasharray="6.77 6.77"/>
<rect x="145.677" y="114.677" width="60.2581" height="60.2581" rx="3.83594" stroke="#11AFB4" stroke-opacity="0.31" stroke-width="1.35386" stroke-dasharray="6.77 6.77"/>
<g filter="url(#filter0_d_161_11474)">
<rect x="155.461" y="125.857" width="42" height="42" rx="21" fill="white"/>
</g>
<g filter="url(#filter1_d_161_11474)">
<rect x="12" y="123" width="42" height="42" rx="21" fill="white"/>
</g>
<path d="M33.0006 150.588C36.6334 150.588 39.5889 147.632 39.5889 143.999C39.5889 140.367 36.6334 137.411 33.0006 137.411C29.3671 137.411 26.411 140.367 26.411 143.999C26.411 147.632 29.3672 150.588 33.0006 150.588ZM32.2975 140.302V139.961C32.2975 139.775 32.3716 139.596 32.5035 139.464C32.6353 139.332 32.8142 139.258 33.0006 139.258C33.1871 139.258 33.366 139.332 33.4978 139.464C33.6297 139.596 33.7038 139.775 33.7038 139.961V140.304C34.3608 140.486 34.9203 140.916 35.2196 141.501C35.3045 141.667 35.32 141.86 35.2627 142.037C35.2054 142.215 35.0799 142.362 34.9139 142.447C34.7479 142.532 34.5549 142.548 34.3775 142.49C34.2 142.433 34.0526 142.307 33.9677 142.141C33.8036 141.821 33.4235 141.614 32.999 141.614C32.4334 141.614 31.9555 141.999 31.9555 142.455C31.9555 142.977 32.1222 143.097 33.1451 143.312C33.6388 143.416 34.1493 143.523 34.5884 143.813C35.1603 144.19 35.4505 144.772 35.4505 145.544C35.4505 146.558 34.713 147.418 33.7038 147.696V148.037C33.7038 148.224 33.6297 148.403 33.4978 148.535C33.366 148.667 33.1871 148.741 33.0006 148.741C32.8142 148.741 32.6353 148.667 32.5035 148.535C32.3716 148.403 32.2975 148.224 32.2975 148.037V147.696C31.6399 147.514 31.0798 147.084 30.7802 146.498C30.6957 146.332 30.6805 146.139 30.738 145.962C30.7954 145.785 30.9208 145.638 31.0866 145.553C31.2523 145.468 31.445 145.453 31.6223 145.51C31.7995 145.567 31.9469 145.692 32.0321 145.857C32.1962 146.178 32.5756 146.385 32.999 146.385C33.5754 146.385 34.0444 146.008 34.0444 145.544C34.0444 145.023 33.8778 144.903 32.8557 144.688C32.3618 144.584 31.851 144.477 31.4119 144.187C30.8397 143.81 30.5494 143.227 30.5494 142.455C30.5494 141.44 31.2877 140.58 32.2976 140.302H32.2975ZM42.0451 148.403C41.0542 150.439 39.4055 152.081 37.3656 153.063C35.3258 154.046 33.0141 154.311 30.8046 153.817C28.5951 153.322 26.617 152.097 25.1904 150.339C23.7637 148.581 22.972 146.393 22.9432 144.129L22.5753 144.497C22.443 144.627 22.2648 144.699 22.0793 144.699C21.8938 144.698 21.7161 144.624 21.585 144.493C21.4538 144.361 21.3798 144.184 21.379 143.998C21.3783 143.813 21.4509 143.634 21.5809 143.502L23.1475 141.936C23.2794 141.804 23.4582 141.73 23.6447 141.73C23.8312 141.73 24.01 141.804 24.1419 141.936L25.7085 143.502C25.8394 143.634 25.9127 143.813 25.9123 143.999C25.9119 144.185 25.8378 144.363 25.7064 144.494C25.5749 144.626 25.3967 144.7 25.2107 144.7C25.0248 144.701 24.8462 144.628 24.7142 144.497L24.3495 144.132C24.4207 148.842 28.273 152.652 32.9993 152.652C36.3358 152.652 39.3176 150.788 40.7811 147.787C40.8213 147.703 40.8776 147.628 40.9467 147.567C41.0159 147.505 41.0965 147.458 41.184 147.428C41.2715 147.397 41.3641 147.384 41.4565 147.39C41.549 147.395 41.6394 147.419 41.7227 147.46C41.8059 147.5 41.8803 147.557 41.9416 147.626C42.0029 147.696 42.0498 147.777 42.0798 147.864C42.1098 147.952 42.1221 148.045 42.1162 148.137C42.1102 148.229 42.086 148.32 42.0451 148.403ZM44.419 144.497L42.8524 146.063C42.7205 146.195 42.5417 146.269 42.3552 146.269C42.1687 146.269 41.9899 146.195 41.858 146.063L40.2914 144.497C40.2256 144.431 40.1734 144.354 40.1377 144.268C40.102 144.183 40.0835 144.091 40.0833 143.999C40.0831 143.906 40.1012 143.814 40.1365 143.729C40.1718 143.643 40.2237 143.566 40.2892 143.5C40.3547 143.435 40.4324 143.383 40.518 143.347C40.6036 143.312 40.6953 143.294 40.7879 143.294C40.8805 143.294 40.9722 143.313 41.0576 143.349C41.143 143.384 41.2206 143.436 41.2857 143.502L41.6504 143.867C41.5792 139.157 37.7262 135.348 32.9993 135.348C29.6632 135.348 26.6819 137.212 25.2188 140.212C25.1366 140.379 24.9916 140.506 24.8157 140.567C24.6398 140.627 24.4472 140.615 24.2801 140.533C24.113 140.452 23.9849 140.307 23.924 140.132C23.863 139.956 23.8741 139.763 23.9548 139.596C24.9459 137.56 26.5947 135.919 28.6345 134.937C30.6743 133.954 32.9858 133.689 35.1951 134.183C37.4045 134.678 39.3825 135.903 40.8091 137.661C42.2358 139.419 43.0277 141.606 43.0567 143.87L43.4247 143.502C43.5569 143.372 43.7352 143.3 43.9207 143.3C44.1062 143.301 44.2838 143.375 44.415 143.506C44.5462 143.637 44.6202 143.815 44.6209 144.001C44.6217 144.186 44.5491 144.364 44.419 144.497Z" fill="#17C359"/>
<g filter="url(#filter2_d_161_11474)">
<rect x="281" y="123" width="42" height="42" rx="21" fill="white"/>
</g>
<g clip-path="url(#clip1_161_11474)">
<path d="M296.783 135.043H298.805V148.564H304.195V135.043H306.217L301.5 131L296.783 135.043ZM308.912 143.174H310.26L306.891 139.132L305.543 140.748V148.564H308.912V143.174ZM297.457 148.564V140.748L296.109 139.132L292.74 143.174H294.088V148.564H297.457ZM305.623 149.912L307.644 154H313L309.586 149.912H305.623ZM298.884 149.912L296.863 154H306.137L304.116 149.912H298.884ZM297.378 149.912H293.414L290 154H295.356L297.378 149.912Z" fill="#6FB2E0"/>
</g>
<g filter="url(#filter3_d_161_11474)">
<rect x="239" y="20" width="42" height="42" rx="21" fill="white" shape-rendering="crispEdges"/>
<path d="M258.854 41.7058C258.854 40.9175 259.285 40.2117 259.982 39.8633L261.815 38.9283C262.108 38.7817 262.429 38.7083 262.75 38.7083H265.271V34.5833C265.271 33.19 264.143 32.0625 262.75 32.0625H254.5C253.107 32.0625 251.979 33.19 251.979 34.5833V46.5C251.979 47.8933 253.107 49.0208 254.5 49.0208H260.788C259.545 47.6832 258.854 45.9246 258.854 44.0983V41.7058ZM254.5 34.8125H260.917C261.099 34.8125 261.274 34.8849 261.403 35.0139C261.532 35.1428 261.604 35.3177 261.604 35.5C261.604 35.6823 261.532 35.8572 261.403 35.9861C261.274 36.1151 261.099 36.1875 260.917 36.1875H254.5C254.318 36.1875 254.143 36.1151 254.014 35.9861C253.885 35.8572 253.812 35.6823 253.812 35.5C253.812 35.3177 253.885 35.1428 254.014 35.0139C254.143 34.8849 254.318 34.8125 254.5 34.8125ZM257.25 41.6875H254.5C254.318 41.6875 254.143 41.6151 254.014 41.4861C253.885 41.3572 253.812 41.1823 253.812 41C253.812 40.8177 253.885 40.6428 254.014 40.5139C254.143 40.3849 254.318 40.3125 254.5 40.3125H257.25C257.432 40.3125 257.607 40.3849 257.736 40.5139C257.865 40.6428 257.937 40.8177 257.937 41C257.937 41.1823 257.865 41.3572 257.736 41.4861C257.607 41.6151 257.432 41.6875 257.25 41.6875ZM258.167 38.9375H254.5C254.318 38.9375 254.143 38.8651 254.014 38.7361C253.885 38.6072 253.812 38.4323 253.812 38.25C253.812 38.0677 253.885 37.8928 254.014 37.7639C254.143 37.6349 254.318 37.5625 254.5 37.5625H258.167C258.349 37.5625 258.524 37.6349 258.653 37.7639C258.782 37.8928 258.854 38.0677 258.854 38.25C258.854 38.4323 258.782 38.6072 258.653 38.7361C258.524 38.8651 258.349 38.9375 258.167 38.9375ZM268.562 41.088L266.728 40.1576C266.632 40.1088 266.525 40.0834 266.417 40.0833H262.75C262.642 40.0835 262.535 40.109 262.438 40.1576L260.605 41.088C260.492 41.1456 260.397 41.2333 260.33 41.3416C260.264 41.4498 260.229 41.5743 260.229 41.7013V44.1011C260.229 46.5367 261.751 48.7486 264.019 49.6057C264.383 49.7443 264.786 49.744 265.151 49.6047C267.416 48.7486 268.937 46.5367 268.937 44.1011V41.7013C268.938 41.5743 268.902 41.4498 268.836 41.3416C268.77 41.2333 268.675 41.1456 268.562 41.088ZM266.472 43.9682L264.822 45.8152C264.757 45.8873 264.678 45.9448 264.589 45.9843C264.501 46.0237 264.405 46.0441 264.308 46.0441C264.211 46.0441 264.116 46.0237 264.027 45.9843C263.939 45.9448 263.86 45.8873 263.795 45.8152L262.695 44.5833C262.635 44.5158 262.589 44.4372 262.559 44.352C262.529 44.2667 262.516 44.1763 262.522 44.0862C262.527 43.996 262.55 43.9077 262.589 43.8263C262.628 43.745 262.683 43.6722 262.75 43.612C262.818 43.5519 262.896 43.5056 262.982 43.4759C263.067 43.4461 263.157 43.4335 263.248 43.4386C263.338 43.4438 263.426 43.4666 263.507 43.5059C263.589 43.5452 263.661 43.6001 263.722 43.6675L264.309 44.3247L265.446 43.0515C265.567 42.9154 265.738 42.833 265.92 42.8226C266.102 42.8122 266.281 42.8746 266.417 42.996C266.553 43.1175 266.636 43.288 266.646 43.4702C266.656 43.6523 266.594 43.8311 266.473 43.9672L266.472 43.9682Z" fill="#FC8FB9"/>
</g>
<g filter="url(#filter4_d_161_11474)">
<rect x="69" y="15" width="42" height="42" rx="21" fill="white"/>
</g>
<circle cx="173.868" cy="8.8678" r="5.8678" fill="url(#paint0_linear_161_11474)"/>
<circle cx="123.868" cy="84.8678" r="5.8678" fill="url(#paint1_linear_161_11474)"/>
<circle cx="250.868" cy="142.868" r="5.8678" fill="url(#paint2_linear_161_11474)"/>
<path fill-rule="evenodd" clip-rule="evenodd" d="M166 150.188V140.427C166 139.874 166.295 139.364 166.773 139.088L175.227 134.207C175.705 133.931 176.295 133.931 176.773 134.207L182.031 137.243V141.351C182.031 141.441 181.992 141.527 181.923 141.585L178.933 144.148C178.733 144.32 178.423 144.177 178.423 143.913V138.709C178.423 138.538 178.284 138.4 178.113 138.4H176.67C176.499 138.4 176.361 138.538 176.361 138.709V141.351C176.361 141.441 176.321 141.527 176.253 141.585L173.263 144.148C173.063 144.32 172.753 144.177 172.753 143.913V141.802C172.753 141.631 172.614 141.493 172.443 141.493H171C170.829 141.493 170.691 141.631 170.691 141.802V149.431C170.691 149.602 170.829 149.74 171 149.74H172.443C172.614 149.74 172.753 149.602 172.753 149.431V147.255C172.753 147.164 172.793 147.077 172.863 147.019L175.852 144.499C176.053 144.329 176.361 144.472 176.361 144.735V152.524C176.361 152.695 176.499 152.833 176.67 152.833L178.113 152.833C178.284 152.833 178.423 152.695 178.423 152.524V147.305C178.423 147.215 178.462 147.129 178.531 147.07L181.52 144.508C181.721 144.336 182.031 144.478 182.031 144.743V153.372L176.773 156.407C176.295 156.683 175.705 156.683 175.227 156.407L166.773 151.527C166.295 151.251 166 150.74 166 150.188ZM184.093 152.181L185.227 151.527C185.705 151.251 186 150.74 186 150.188V140.427C186 139.874 185.705 139.364 185.227 139.088L184.093 138.433V152.181Z" fill="url(#paint3_linear_161_11474)"/>
<g clip-path="url(#clip2_161_11474)">
<path d="M85.8334 36.8333V44.3333C85.8334 44.5543 85.7456 44.7662 85.5893 44.9225C85.433 45.0788 85.2211 45.1666 85 45.1666H81.6667C81.4457 45.1666 81.2337 45.0788 81.0775 44.9225C80.9212 44.7662 80.8334 44.5543 80.8334 44.3333V36.8333C80.8334 36.6122 80.9212 36.4003 81.0775 36.244C81.2337 36.0877 81.4457 35.9999 81.6667 35.9999H85C85.2211 35.9999 85.433 36.0877 85.5893 36.244C85.7456 36.4003 85.8334 36.6122 85.8334 36.8333ZM91.6667 26.8333H88.3334C88.1124 26.8333 87.9004 26.921 87.7441 27.0773C87.5878 27.2336 87.5 27.4456 87.5 27.6666V44.3333C87.5 44.5543 87.5878 44.7662 87.7441 44.9225C87.9004 45.0788 88.1124 45.1666 88.3334 45.1666H91.6667C91.8877 45.1666 92.0997 45.0788 92.256 44.9225C92.4122 44.7662 92.5 44.5543 92.5 44.3333V27.6666C92.5 27.4456 92.4122 27.2336 92.256 27.0773C92.0997 26.921 91.8877 26.8333 91.6667 26.8333ZM98.3334 30.9999H95C94.779 30.9999 94.5671 31.0877 94.4108 31.244C94.2545 31.4003 94.1667 31.6122 94.1667 31.8333V44.3333C94.1667 44.5543 94.2545 44.7662 94.4108 44.9225C94.5671 45.0788 94.779 45.1666 95 45.1666H98.3334C98.5544 45.1666 98.7664 45.0788 98.9226 44.9225C99.0789 44.7662 99.1667 44.5543 99.1667 44.3333V31.8333C99.1667 31.6122 99.0789 31.4003 98.9226 31.244C98.7664 31.0877 98.5544 30.9999 98.3334 30.9999Z" fill="#F6BD68"/>
</g>
</g>
<defs>
<filter id="filter0_d_161_11474" x="137.86" y="110.062" width="77.2004" height="77.2004" filterUnits="userSpaceOnUse" color-interpolation-filters="sRGB">
<feFlood flood-opacity="0" result="BackgroundImageFix"/>
<feColorMatrix in="SourceAlpha" type="matrix" values="0 0 0 0 0 0 0 0 0 0 0 0 0 0 0 0 0 0 127 0" result="hardAlpha"/>
<feMorphology radius="4.96415" operator="erode" in="SourceAlpha" result="effect1_dropShadow_161_11474"/>
<feOffset dy="1.80515"/>
<feGaussianBlur stdDeviation="11.2822"/>
<feComposite in2="hardAlpha" operator="out"/>
<feColorMatrix type="matrix" values="0 0 0 0 0 0 0 0 0 0 0 0 0 0 0 0 0 0 0.2 0"/>
<feBlend mode="normal" in2="BackgroundImageFix" result="effect1_dropShadow_161_11474"/>
<feBlend mode="normal" in="SourceGraphic" in2="effect1_dropShadow_161_11474" result="shape"/>
</filter>
<filter id="filter1_d_161_11474" x="-5.60018" y="107.205" width="77.2004" height="77.2004" filterUnits="userSpaceOnUse" color-interpolation-filters="sRGB">
<feFlood flood-opacity="0" result="BackgroundImageFix"/>
<feColorMatrix in="SourceAlpha" type="matrix" values="0 0 0 0 0 0 0 0 0 0 0 0 0 0 0 0 0 0 127 0" result="hardAlpha"/>
<feMorphology radius="4.96415" operator="erode" in="SourceAlpha" result="effect1_dropShadow_161_11474"/>
<feOffset dy="1.80515"/>
<feGaussianBlur stdDeviation="11.2822"/>
<feComposite in2="hardAlpha" operator="out"/>
<feColorMatrix type="matrix" values="0 0 0 0 0 0 0 0 0 0 0 0 0 0 0 0 0 0 0.2 0"/>
<feBlend mode="normal" in2="BackgroundImageFix" result="effect1_dropShadow_161_11474"/>
<feBlend mode="normal" in="SourceGraphic" in2="effect1_dropShadow_161_11474" result="shape"/>
</filter>
<filter id="filter2_d_161_11474" x="263.4" y="107.205" width="77.2004" height="77.2004" filterUnits="userSpaceOnUse" color-interpolation-filters="sRGB">
<feFlood flood-opacity="0" result="BackgroundImageFix"/>
<feColorMatrix in="SourceAlpha" type="matrix" values="0 0 0 0 0 0 0 0 0 0 0 0 0 0 0 0 0 0 127 0" result="hardAlpha"/>
<feMorphology radius="4.96415" operator="erode" in="SourceAlpha" result="effect1_dropShadow_161_11474"/>
<feOffset dy="1.80515"/>
<feGaussianBlur stdDeviation="11.2822"/>
<feComposite in2="hardAlpha" operator="out"/>
<feColorMatrix type="matrix" values="0 0 0 0 0 0 0 0 0 0 0 0 0 0 0 0 0 0 0.2 0"/>
<feBlend mode="normal" in2="BackgroundImageFix" result="effect1_dropShadow_161_11474"/>
<feBlend mode="normal" in="SourceGraphic" in2="effect1_dropShadow_161_11474" result="shape"/>
</filter>
<filter id="filter3_d_161_11474" x="221.4" y="4.20497" width="77.2004" height="77.2004" filterUnits="userSpaceOnUse" color-interpolation-filters="sRGB">
<feFlood flood-opacity="0" result="BackgroundImageFix"/>
<feColorMatrix in="SourceAlpha" type="matrix" values="0 0 0 0 0 0 0 0 0 0 0 0 0 0 0 0 0 0 127 0" result="hardAlpha"/>
<feMorphology radius="4.96415" operator="erode" in="SourceAlpha" result="effect1_dropShadow_161_11474"/>
<feOffset dy="1.80515"/>
<feGaussianBlur stdDeviation="11.2822"/>
<feComposite in2="hardAlpha" operator="out"/>
<feColorMatrix type="matrix" values="0 0 0 0 0 0 0 0 0 0 0 0 0 0 0 0 0 0 0.2 0"/>
<feBlend mode="normal" in2="BackgroundImageFix" result="effect1_dropShadow_161_11474"/>
<feBlend mode="normal" in="SourceGraphic" in2="effect1_dropShadow_161_11474" result="shape"/>
</filter>
<filter id="filter4_d_161_11474" x="51.3998" y="-0.795034" width="77.2004" height="77.2004" filterUnits="userSpaceOnUse" color-interpolation-filters="sRGB">
<feFlood flood-opacity="0" result="BackgroundImageFix"/>
<feColorMatrix in="SourceAlpha" type="matrix" values="0 0 0 0 0 0 0 0 0 0 0 0 0 0 0 0 0 0 127 0" result="hardAlpha"/>
<feMorphology radius="4.96415" operator="erode" in="SourceAlpha" result="effect1_dropShadow_161_11474"/>
<feOffset dy="1.80515"/>
<feGaussianBlur stdDeviation="11.2822"/>
<feComposite in2="hardAlpha" operator="out"/>
<feColorMatrix type="matrix" values="0 0 0 0 0 0 0 0 0 0 0 0 0 0 0 0 0 0 0.2 0"/>
<feBlend mode="normal" in2="BackgroundImageFix" result="effect1_dropShadow_161_11474"/>
<feBlend mode="normal" in="SourceGraphic" in2="effect1_dropShadow_161_11474" result="shape"/>
</filter>
<linearGradient id="paint0_linear_161_11474" x1="167.728" y1="1.57373" x2="181.108" y2="3.59416" gradientUnits="userSpaceOnUse">
<stop stop-color="#11AFB4"/>
<stop offset="1" stop-color="#095F62"/>
</linearGradient>
<linearGradient id="paint1_linear_161_11474" x1="117.728" y1="77.5737" x2="131.108" y2="79.5942" gradientUnits="userSpaceOnUse">
<stop stop-color="#11AFB4"/>
<stop offset="1" stop-color="#095F62"/>
</linearGradient>
<linearGradient id="paint2_linear_161_11474" x1="244.728" y1="135.574" x2="258.108" y2="137.594" gradientUnits="userSpaceOnUse">
<stop stop-color="#11AFB4"/>
<stop offset="1" stop-color="#095F62"/>
</linearGradient>
<linearGradient id="paint3_linear_161_11474" x1="170.385" y1="135.846" x2="183.231" y2="154.538" gradientUnits="userSpaceOnUse">
<stop stop-color="#185A87"/>
<stop offset="1" stop-color="#24E3EA"/>
</linearGradient>
<clipPath id="clip0_161_11474">
<path d="M0 0H352V175H0V0Z" fill="white"/>
</clipPath>
<clipPath id="clip1_161_11474">
<rect width="23" height="23" fill="white" transform="translate(290 131)"/>
</clipPath>
<clipPath id="clip2_161_11474">
<rect width="20" height="20" fill="white" transform="translate(80 26)"/>
</clipPath>
</defs>
</svg>
