<svg width="18" height="18" viewBox="0 0 18 18" fill="none" xmlns="http://www.w3.org/2000/svg">
<path d="M2.77778 1.88867H6.33333L8.11111 6.33312L5.88889 7.66645C6.84085 9.5967 8.40308 11.1589 10.3333 12.1109L11.6667 9.88867L16.1111 11.6664V15.222C16.1111 15.6935 15.9238 16.1457 15.5904 16.4791C15.257 16.8125 14.8048 16.9998 14.3333 16.9998C10.866 16.7891 7.59569 15.3167 5.1394 12.8604C2.68311 10.4041 1.21071 7.13377 1 3.66645C1 3.19495 1.1873 2.74277 1.5207 2.40937C1.8541 2.07597 2.30628 1.88867 2.77778 1.88867Z" stroke="white" stroke-opacity="0.8" stroke-width="1.5" stroke-linecap="round" stroke-linejoin="round"/>
<path d="M11.6665 4.55566C12.138 4.55566 12.5902 4.74297 12.9236 5.07636C13.257 5.40976 13.4443 5.86195 13.4443 6.33344" stroke="white" stroke-opacity="0.8" stroke-width="1.5" stroke-linecap="round" stroke-linejoin="round"/>
<path d="M11.6665 1C13.081 1 14.4375 1.5619 15.4377 2.5621C16.4379 3.56229 16.9998 4.91885 16.9998 6.33333" stroke="white" stroke-opacity="0.8" stroke-width="1.5" stroke-linecap="round" stroke-linejoin="round"/>
</svg>
