<svg width="592" height="496" viewBox="0 0 592 496" fill="none" xmlns="http://www.w3.org/2000/svg">
<rect width="592" height="496" rx="19" fill="#F2FAFB"/>
<path d="M381.061 217.013H282.536C266.542 217.013 253.427 203.925 253.427 187.962V142.822C253.427 126.859 266.542 113.771 282.536 113.771H381.061C397.056 113.771 410.171 126.859 410.171 142.822V187.962C410.171 203.925 397.056 217.013 381.061 217.013Z" fill="#F0FBFC"/>
<path d="M365.195 297.079C365.195 297.079 368.138 294.078 367.37 288.971C366.602 283.863 365.899 280.096 360.461 278.436C355.023 276.776 349.137 276.265 347.153 270.838C347.153 270.838 346.642 267.964 347.729 260.877C348.817 253.79 352.591 234.636 352.591 234.636C352.591 234.636 353.167 225.186 343.635 220.78C334.166 216.375 325.401 216.183 325.401 216.183C325.401 216.183 311.326 216.822 305.568 218.546C299.81 220.27 299.171 228.442 299.234 231.762C299.298 235.082 299.234 238.786 299.234 238.786L328.856 259.92C328.856 259.92 323.034 263.495 321.179 272.498C319.323 281.5 321.371 290.184 326.937 293.695C332.503 297.143 345.554 298.42 355.215 291.971L365.195 297.079Z" fill="#8DC0C2"/>
<path d="M270.445 417.37L319.835 417.881C319.835 417.881 311.454 407.346 310.622 400.897C310.622 400.897 273.388 416.923 270.445 417.37Z" fill="#8DC0C2"/>
<path d="M115.044 307.806L123.681 303.273H244.086L251.06 306.082L255.346 311.573L283.112 394.257L284.328 400.705L283.624 406.069L279.914 412.198L275.947 415.518L271.533 417.37H263.983L145.881 418.008L115.044 307.806Z" fill="white"/>
<path d="M458.602 393.938V392.469C458.602 392.469 455.211 390.362 443.823 390.362C432.499 390.362 430.644 392.98 430.644 392.98V424.649C430.644 424.649 434.354 426.5 444.527 426.5C454.699 426.5 458.346 424.649 458.346 424.649L458.857 419.477C458.857 419.477 471.461 418.264 471.461 406.835C471.461 395.406 464.359 395.087 458.602 393.938ZM458.794 415.008V398.535C458.794 398.535 466.855 397.449 467.175 404.409C467.622 412.454 458.794 415.008 458.794 415.008Z" fill="#8DC0C2"/>
<path d="M483.873 204.691H395.84C387.075 204.691 379.91 211.842 379.91 220.589V244.404V279.457L399.103 260.303H483.937C492.702 260.303 499.867 253.152 499.867 244.404V220.589C499.867 211.842 492.702 204.691 483.873 204.691Z" fill="#8DC0C2"/>
<path d="M168.529 238.275L160.532 215.609H115.044L126.432 247.661H171.216L168.529 238.275Z" fill="#F0FBFC"/>
<path d="M259.441 417.945H146.585C139.164 417.945 132.574 413.411 130.207 406.643L103.4 329.451C99.6896 318.788 108.007 307.806 119.778 307.806H232.634C240.056 307.806 246.645 312.339 249.012 319.107L275.755 396.236C279.529 406.899 271.212 417.945 259.441 417.945Z" fill="#8DC0C2"/>
<path d="M311.198 285.842C311.198 285.842 289.382 288.779 279.913 301.23C270.445 313.68 262.256 329.897 262.256 329.897L282.856 393.554C282.856 393.554 285.095 388.574 286.759 388.319C288.422 388.063 293.668 388.319 295.46 390.298C295.46 390.298 300.962 387.68 307.615 391.83C307.615 391.83 314.525 390.937 320.667 394.321C326.809 397.641 332.247 400.003 332.247 400.003C332.247 400.003 332.822 412.262 324.569 417.625L403.837 417.944C403.837 417.944 409.915 405.111 409.083 394.257C408.188 383.402 404.733 363.163 400.126 353.585C395.584 344.008 390.53 330.919 384.452 321.469C378.374 312.02 372.68 304.358 366.922 298.676L356.046 291.908C356.046 291.908 343.89 297.718 334.742 296.185C325.529 294.653 325.017 292.291 325.017 292.291C325.017 292.291 318.364 301.996 314.333 301.357C310.238 300.719 311.198 285.842 311.198 285.842Z" fill="#F0FBFC"/>
<path d="M444.335 392.469C438.129 392.469 433.139 393.491 433.139 394.768L444.335 395.406L455.531 394.768C455.531 393.554 450.541 392.469 444.335 392.469Z" fill="white"/>
<path d="M302.817 226.399C302.817 226.399 300.066 235.913 299.81 238.211C299.554 240.446 299.362 253.407 298.979 257.43C298.531 261.452 300.386 275.371 310.239 274.158L311.262 285.842C311.262 285.842 310.239 301.038 314.333 301.357C318.428 301.613 325.017 292.291 325.017 292.291C325.017 292.291 320.091 287.885 320.347 278.946C320.603 270.008 324.569 263.559 329.688 259.92C329.688 259.92 326.361 252.13 328.92 247.278C328.92 247.278 318.3 245.554 313.373 240.893C308.383 236.168 305.376 233.55 302.817 226.399Z" fill="white"/>
<path d="M332.567 400.195C332.567 400.195 324.954 395.47 318.492 393.299C312.03 391.128 308.511 391.831 308.511 391.831C308.511 391.831 303.457 389.851 300.962 389.532C298.467 389.213 295.844 390.554 295.844 390.554C295.844 390.554 293.477 388.383 290.15 388.319C286.823 388.319 284.264 390.107 282.921 393.491C282.921 393.491 284.904 398.982 284.328 402.11C283.816 405.175 281.705 413.411 275.947 415.518C275.947 415.518 279.338 419.796 284.392 415.263C284.392 415.263 287.783 418.647 296.484 417.945C296.484 417.945 303.649 418.583 306.08 416.093C308.511 413.667 311.454 408.303 311.454 408.303C311.454 408.303 313.374 418.391 323.482 418.008C323.482 418.008 327.257 416.859 330.008 410.985C332.823 405.111 332.567 400.195 332.567 400.195Z" fill="white"/>
<path d="M187.019 362.077C190.473 368.015 190.09 374.655 186.123 376.954C182.22 379.188 176.271 376.251 172.816 370.313C169.361 364.376 169.745 357.735 173.711 355.437C177.614 353.138 183.564 356.075 187.019 362.077Z" fill="white"/>
<path d="M173.967 251.492H234.426L249.46 294.015H189.194L173.967 251.492Z" fill="#F0FBFC"/>
<path d="M405.884 225.888C405.884 229.911 402.622 233.167 398.591 233.167C394.56 233.167 391.298 229.911 391.298 225.888C391.298 221.866 394.56 218.61 398.591 218.61C402.622 218.61 405.884 221.866 405.884 225.888Z" fill="white"/>
<path d="M440.752 225.888C440.752 229.911 437.489 233.167 433.459 233.167C429.428 233.167 426.165 229.911 426.165 225.888C426.165 221.866 429.428 218.61 433.459 218.61C437.489 218.61 440.752 221.866 440.752 225.888Z" fill="white"/>
<path d="M469.67 218.61C473.7 218.61 476.963 221.866 476.963 225.888C476.963 229.911 473.7 233.167 469.67 233.167C465.639 233.167 462.376 229.911 462.376 225.888C462.376 221.866 465.639 218.61 469.67 218.61Z" fill="white"/>
<path d="M323.674 185.345L344.85 149.143L348.177 146.014L350.608 145.631L353.679 147.482L376.455 185.983L377.287 189.495L375.175 192.943L372.872 193.9L326.041 193.581L323.674 192.176L322.522 189.495L323.674 185.345Z" fill="white"/>
<path d="M304.481 272.753C304.481 272.753 298.275 280.99 303.521 287.311L311.198 285.842L310.175 274.158C310.239 274.158 306.016 274.094 304.481 272.753Z" fill="#8DC0C2"/>
<path d="M345.49 252.13C345.49 258.898 341.588 264.453 336.853 264.453C332.055 264.453 328.216 258.962 328.216 252.13C328.216 245.362 332.119 239.807 336.853 239.807C341.652 239.807 345.49 245.362 345.49 252.13Z" fill="#CCCCCC"/>
<path d="M338.517 264.453C341.909 264.453 344.658 259.079 344.658 252.449C344.658 245.82 341.909 240.446 338.517 240.446C335.125 240.446 332.375 245.82 332.375 252.449C332.375 259.079 335.125 264.453 338.517 264.453Z" fill="white"/>
<path d="M334.358 239.68C334.358 239.68 333.398 227.868 327.129 222.76C320.091 217.013 312.03 216.886 312.03 216.886C312.03 216.886 313.629 215.098 317.98 215.034C322.33 214.97 327.449 216.566 331.799 220.014C336.213 223.398 339.156 231.379 338.453 239.233L334.358 239.68Z" fill="#F0FBFC"/>
<path d="M332.183 399.939C332.183 399.939 318.492 392.022 313.054 391.894C307.615 391.767 308.447 391.767 308.447 391.767C308.447 391.767 298.467 387.68 296.355 389.596C296.355 389.596 303.393 380.146 316.06 381.168C328.792 382.253 332.247 398.215 332.183 399.939Z" fill="#8DC0C2"/>
<path d="M137.564 208.905C137.308 208.905 136.989 208.713 136.925 208.458C136.029 205.968 135.389 203.35 134.941 200.732C134.877 200.349 135.133 200.03 135.517 199.966C135.901 199.902 136.221 200.157 136.285 200.54C136.733 203.094 137.372 205.648 138.204 208.075C138.332 208.458 138.14 208.841 137.756 208.968C137.692 208.905 137.628 208.905 137.564 208.905ZM135.069 193.453C134.685 193.453 134.365 193.134 134.365 192.751C134.429 190.069 134.685 187.388 135.197 184.77C135.261 184.387 135.645 184.131 136.029 184.259C136.413 184.323 136.669 184.706 136.541 185.089C136.029 187.643 135.773 190.197 135.709 192.815C135.709 193.134 135.389 193.453 135.069 193.453ZM138.076 178.066C138.012 178.066 137.884 178.066 137.82 178.002C137.436 177.874 137.308 177.491 137.436 177.108C138.14 175.384 138.908 173.724 139.74 172.128C140.123 171.426 140.571 170.659 141.019 169.957C141.211 169.638 141.659 169.51 141.979 169.766C142.299 169.957 142.427 170.404 142.171 170.723C141.723 171.426 141.339 172.128 140.955 172.83C140.123 174.363 139.356 176.023 138.716 177.683C138.588 177.874 138.332 178.066 138.076 178.066ZM190.537 176.597C189.706 176.597 188.81 176.406 187.914 175.959C187.594 175.831 187.403 175.384 187.594 175.065C187.722 174.682 188.17 174.554 188.49 174.746C189.194 175.065 189.898 175.257 190.537 175.257C192.585 175.257 193.544 173.533 193.928 172.575C194.056 172.192 194.44 172.064 194.824 172.192C195.208 172.319 195.336 172.703 195.208 173.086C194.376 175.257 192.649 176.597 190.537 176.597ZM182.348 170.915C182.156 170.915 181.901 170.787 181.773 170.659C180.237 168.552 179.086 166.062 178.382 163.317C178.254 162.934 178.51 162.551 178.894 162.487C179.277 162.359 179.661 162.615 179.725 162.998C180.429 165.615 181.453 167.914 182.86 169.893C183.052 170.212 182.988 170.659 182.732 170.851C182.604 170.851 182.476 170.915 182.348 170.915ZM194.248 165.743C193.992 165.743 193.736 165.552 193.608 165.296C192.969 163.636 191.945 162.168 190.665 160.954C190.09 160.444 189.578 159.933 188.938 159.486C188.618 159.231 188.554 158.847 188.81 158.528C189.066 158.209 189.45 158.145 189.77 158.401C190.409 158.911 190.985 159.358 191.561 159.933C193.033 161.274 194.12 162.87 194.824 164.785C194.952 165.168 194.824 165.552 194.44 165.679C194.376 165.743 194.312 165.743 194.248 165.743ZM146.457 164.785C146.265 164.785 146.137 164.722 146.009 164.594C145.753 164.338 145.753 163.891 146.009 163.636C147.865 161.657 149.912 159.933 152.087 158.401C152.407 158.209 152.855 158.273 153.047 158.592C153.239 158.911 153.175 159.358 152.855 159.55C150.744 161.018 148.76 162.678 146.969 164.594C146.777 164.722 146.585 164.785 146.457 164.785ZM178.19 155.974C177.742 155.974 177.486 155.655 177.486 155.272C177.486 154.953 177.486 154.633 177.486 154.314C176.59 154.123 175.695 153.995 174.735 153.867C174.351 153.803 174.095 153.484 174.159 153.101C174.223 152.718 174.543 152.463 174.927 152.526C175.823 152.654 176.718 152.782 177.614 152.973C177.742 151.122 178.062 149.206 178.574 147.355C178.638 146.972 179.022 146.716 179.405 146.844C179.789 146.908 179.981 147.291 179.917 147.674C179.469 149.526 179.15 151.441 179.022 153.293C180.301 153.612 181.581 153.995 182.796 154.506C183.18 154.633 183.308 155.017 183.18 155.4C183.052 155.783 182.604 155.91 182.284 155.783C181.197 155.336 180.045 155.017 178.894 154.697C178.894 154.889 178.894 155.144 178.894 155.336C178.83 155.655 178.574 155.974 178.19 155.974ZM159.381 155.91C159.125 155.91 158.869 155.719 158.741 155.463C158.613 155.08 158.741 154.697 159.125 154.57C160.468 153.995 161.876 153.548 163.283 153.229C164.435 152.91 165.65 152.718 166.93 152.526C167.314 152.463 167.634 152.718 167.698 153.101C167.762 153.484 167.506 153.803 167.122 153.867C165.906 154.059 164.755 154.25 163.667 154.506C162.324 154.825 160.98 155.272 159.7 155.783C159.509 155.91 159.445 155.91 159.381 155.91ZM181.964 140.778C181.837 140.778 181.773 140.778 181.645 140.714C181.325 140.523 181.197 140.14 181.325 139.821C182.668 137.267 184.204 135.16 185.995 133.5C186.251 133.244 186.827 133.18 187.083 133.436C187.339 133.691 187.403 134.074 187.147 134.33C185.291 136.054 183.82 138.033 182.604 140.459C182.412 140.651 182.22 140.778 181.964 140.778ZM192.713 129.477C192.521 129.477 192.329 129.413 192.137 129.222C191.881 128.903 191.945 128.519 192.265 128.264C194.44 126.604 196.679 125.135 198.918 123.859C199.238 123.667 199.686 123.795 199.878 124.114C200.07 124.433 199.942 124.88 199.622 125.072C197.447 126.349 195.272 127.753 193.097 129.413C192.969 129.413 192.841 129.477 192.713 129.477ZM244.342 124.816C244.214 124.816 244.086 124.816 243.958 124.689C241.719 123.348 239.352 122.198 236.985 121.305C236.601 121.177 236.473 120.794 236.601 120.411C236.729 120.028 237.113 119.836 237.497 120.028C239.992 120.985 242.423 122.135 244.726 123.539C245.046 123.731 245.174 124.178 244.982 124.497C244.79 124.689 244.534 124.816 244.342 124.816ZM206.34 121.688C206.084 121.688 205.828 121.496 205.7 121.241C205.572 120.858 205.7 120.475 206.084 120.347C208.643 119.325 211.202 118.559 213.761 118.048C214.145 117.984 214.465 118.24 214.593 118.559C214.657 118.942 214.401 119.261 214.081 119.389C211.586 119.9 209.091 120.666 206.66 121.624C206.532 121.624 206.468 121.688 206.34 121.688ZM229.628 119.261C227.132 118.814 224.637 118.623 222.27 118.623H221.822C221.438 118.623 221.119 118.304 221.119 117.921C221.119 117.538 221.438 117.218 221.822 117.218H222.27C224.765 117.218 227.324 117.474 229.819 117.921C230.203 117.984 230.459 118.368 230.395 118.751C230.203 119.006 229.947 119.261 229.628 119.261Z" fill="black"/>
<path d="M331.799 243.191C315.165 243.128 308.703 220.142 308.063 217.907C307.104 218.099 306.208 218.291 305.504 218.546C299.746 220.27 299.107 228.442 299.171 231.763C299.234 235.083 299.171 238.786 299.171 238.786L324.058 256.6C332.375 251.619 344.146 243.255 331.799 243.191Z" fill="white"/>
<path d="M327.193 280.67C325.401 269.752 331.671 262.09 331.671 262.09C331.671 262.09 336.021 250.917 335.701 249.959C335.446 249.193 322.97 250.342 316.444 251.045L328.856 259.92C328.856 259.92 323.034 263.495 321.179 272.498C319.323 281.5 321.371 290.184 326.937 293.695C330.455 295.866 337.045 297.207 343.827 296.186C335.829 295.356 328.6 289.354 327.193 280.67Z" fill="white"/>
<path d="M308.831 274.094C307.488 273.966 305.44 273.647 304.481 272.753C304.481 272.753 298.275 280.99 303.521 287.311L307.935 286.481C304.801 279.138 308.831 274.094 308.831 274.094Z" fill="white"/>
<path d="M441.776 377.081C435.826 377.081 431.283 375.102 428.276 371.079C423.862 365.269 423.99 357.097 425.142 353.33C426.869 347.647 426.485 345.796 425.27 340.177L425.078 339.347C424.246 335.516 425.653 330.983 428.532 327.79C431.347 324.662 435.25 323.257 439.664 323.704C444.143 324.151 447.534 326.066 449.581 329.259C451.82 332.707 452.14 337.431 450.605 342.156C448.173 349.499 450.668 352.563 450.732 352.627C454.507 356.714 456.874 364.375 454.379 370.249C453.1 373.25 450.029 376.89 442.479 377.145C442.287 377.081 442.032 377.081 441.776 377.081ZM438.065 324.981C433.906 324.981 431.155 326.96 429.556 328.684C426.997 331.493 425.717 335.707 426.421 339.091L426.613 339.921C427.829 345.668 428.276 347.775 426.421 353.777C425.27 357.544 425.397 365.205 429.3 370.313C432.179 374.08 436.658 375.932 442.479 375.74C447.854 375.549 451.5 373.506 453.164 369.675C455.403 364.375 453.1 357.224 449.709 353.521C449.581 353.393 446.574 349.946 449.261 341.709C450.732 337.368 450.413 333.09 448.365 330.025C446.574 327.216 443.503 325.556 439.472 325.109C439.025 325.045 438.513 324.981 438.065 324.981Z" fill="black"/>
<path d="M421.367 316.617C418.296 316.617 415.929 313.105 415.929 308.636C415.929 304.166 418.296 300.655 421.367 300.655C424.438 300.655 426.869 304.166 426.869 308.636C426.869 313.041 424.374 316.617 421.367 316.617ZM421.367 301.996C419.128 301.996 417.272 304.996 417.272 308.636C417.272 312.211 419.128 315.276 421.367 315.276C423.606 315.276 425.462 312.275 425.462 308.636C425.462 305.06 423.606 301.996 421.367 301.996Z" fill="black"/>
<path d="M458.666 415.774C458.346 415.774 458.09 415.582 458.026 415.263C457.962 414.88 458.154 414.56 458.538 414.433C458.858 414.369 466.087 412.645 466.535 405.43C466.663 403.515 466.151 402.046 465.063 401.025C462.824 398.918 458.794 399.301 458.73 399.301C458.346 399.365 458.026 399.045 457.962 398.662C457.898 398.279 458.218 397.96 458.602 397.896C458.794 397.896 463.336 397.449 466.023 400.003C467.43 401.344 468.006 403.195 467.878 405.494C467.366 413.73 458.858 415.71 458.794 415.774C458.73 415.71 458.666 415.774 458.666 415.774Z" fill="black"/>
<path d="M458.921 420.179C458.602 420.179 458.282 419.924 458.218 419.541C458.154 419.158 458.474 418.838 458.858 418.774C459.369 418.711 471.653 417.37 470.757 405.558C470.501 401.918 469.286 399.109 467.047 397.321C463.592 394.448 458.858 394.959 458.794 394.959C458.41 395.023 458.09 394.704 458.026 394.384C457.962 394.001 458.282 393.682 458.602 393.618C458.794 393.618 463.912 393.044 467.878 396.236C470.373 398.279 471.781 401.408 472.101 405.43C473.06 418.583 459.049 420.115 458.921 420.115C458.985 420.179 458.985 420.179 458.921 420.179Z" fill="black"/>
<path d="M444.591 427.139C442.16 427.139 430.004 427.011 430.004 424.266C430.004 423.883 430.324 423.563 430.708 423.563C431.028 423.563 431.347 423.819 431.411 424.138C432.051 424.84 437.041 425.798 444.655 425.798C452.46 425.798 457.514 424.84 458.09 424.138C458.09 423.755 458.346 423.5 458.73 423.5C459.114 423.5 459.369 423.883 459.369 424.266C459.305 427.011 447.022 427.139 444.591 427.139Z" fill="black"/>
<path d="M430.644 424.968C430.26 424.968 429.94 424.648 429.94 424.265V392.98C429.94 392.597 430.26 392.277 430.644 392.277C431.028 392.277 431.347 392.597 431.347 392.98V424.265C431.347 424.648 431.028 424.968 430.644 424.968Z" fill="black"/>
<path d="M458.666 424.968C458.282 424.968 457.962 424.649 457.962 424.266V392.788C457.962 392.405 458.282 392.086 458.666 392.086C459.05 392.086 459.369 392.405 459.369 392.788V424.329C459.305 424.649 459.05 424.968 458.666 424.968Z" fill="black"/>
<path d="M444.655 396.3C444.079 396.3 430.004 396.236 430.004 392.98C430.004 389.724 444.079 389.66 444.655 389.66C445.23 389.66 459.305 389.724 459.305 392.98C459.305 396.3 445.23 396.3 444.655 396.3ZM431.411 392.98C431.987 393.682 436.721 394.959 444.655 394.959C452.844 394.959 457.578 393.682 457.962 392.98C457.578 392.341 452.844 391.064 444.655 391.064C436.658 391.064 431.923 392.277 431.411 392.98Z" fill="black"/>
<path d="M364.683 297.718C364.427 297.718 364.235 297.59 364.107 297.399C363.916 297.079 364.043 296.632 364.363 296.441C367.05 294.909 366.986 290.822 366.667 288.588C366.155 284.501 364.555 281.628 361.932 279.904C361.356 279.521 360.717 279.202 359.949 278.883C358.733 278.372 357.454 278.053 356.11 277.669C353.423 276.967 350.672 276.265 348.561 274.286C346.642 272.562 345.81 269.688 346.258 266.56C348.945 246.703 351.632 235.593 351.888 234.444C351.568 229.272 349.137 225.122 344.722 222.121C338.517 217.971 329.752 216.886 323.546 216.758C323.162 216.758 322.842 216.439 322.906 216.056C322.906 215.673 323.226 215.417 323.61 215.417C330.072 215.545 339.092 216.63 345.554 221.036C350.416 224.292 353.039 228.825 353.359 234.508C353.359 234.572 353.359 234.636 353.359 234.699C353.359 234.827 350.544 245.937 347.729 266.751C347.345 269.433 348.049 271.859 349.649 273.264C351.504 274.988 353.999 275.626 356.622 276.329C357.966 276.712 359.373 277.031 360.653 277.542C361.484 277.861 362.188 278.244 362.828 278.627C365.835 280.543 367.626 283.799 368.202 288.268C368.778 292.802 367.69 296.058 365.195 297.526C364.875 297.718 364.811 297.718 364.683 297.718Z" fill="black"/>
<path d="M299.49 237.892C299.17 237.892 298.851 237.637 298.787 237.253C296.675 218.865 306.656 217.269 307.04 217.205C307.807 216.886 309.151 216.567 310.75 216.247C311.134 216.183 311.454 216.439 311.582 216.822C311.646 217.205 311.39 217.524 311.006 217.652C309.535 217.907 308.255 218.227 307.423 218.546C306.912 218.61 298.211 220.142 300.194 237.126C300.258 237.509 299.938 237.828 299.618 237.892C299.554 237.892 299.554 237.892 299.49 237.892Z" fill="black"/>
<path d="M388.291 404.6C388.099 404.6 387.971 404.536 387.843 404.409C365.899 385.254 316.636 382.125 316.124 382.125C315.741 382.125 315.485 381.806 315.485 381.423C315.485 381.04 315.868 380.849 316.188 380.785C316.7 380.785 366.474 383.977 388.739 403.451C388.994 403.706 389.058 404.153 388.802 404.409C388.675 404.536 388.483 404.6 388.291 404.6Z" fill="black"/>
<path d="M404.221 418.072C404.093 418.072 404.029 418.072 403.901 418.008C403.581 417.817 403.453 417.434 403.581 417.114C417.912 389.468 396.16 341.518 382.661 320.001C379.206 314.51 375.367 308.636 370.953 303.464C366.922 298.739 361.548 295.739 355.407 292.546C355.087 292.355 354.959 291.971 355.087 291.588C355.279 291.269 355.662 291.141 356.046 291.269C362.06 294.398 367.818 297.654 371.977 302.506C376.519 307.806 380.358 313.68 383.812 319.235C398.463 342.603 419.384 389.596 404.797 417.689C404.669 417.944 404.477 418.072 404.221 418.072Z" fill="black"/>
<path d="M262.32 330.536C262.256 330.536 262.128 330.536 262.064 330.472C261.744 330.344 261.552 329.897 261.68 329.578C261.936 329.004 262.192 328.365 262.448 327.79C273.004 303.528 287.015 289.928 305.376 286.161C306.784 285.842 311.134 285.14 311.134 285.14L311.39 286.48C311.39 286.48 307.104 287.247 305.696 287.502C287.527 291.205 274.22 304.166 263.727 328.301C263.471 328.876 263.215 329.45 262.96 330.089C262.832 330.344 262.576 330.536 262.32 330.536Z" fill="black"/>
<path d="M310.175 274.796C308.895 274.796 307.488 274.668 306.144 274.222C303.265 273.328 301.282 271.157 300.13 267.709C298.403 262.41 298.467 256.855 298.595 251.428V250.725C298.659 247.852 298.723 244.915 298.851 242.042L298.979 237.764C298.979 237.636 298.979 237.509 299.043 237.445C299.171 237.062 299.554 236.87 299.874 236.998C300.258 237.126 300.45 237.509 300.322 237.828L300.194 242.106C300.13 244.979 300.002 247.916 299.938 250.789V251.491C299.874 256.791 299.746 262.282 301.41 267.326C302.433 270.327 304.097 272.178 306.528 272.945C307.999 273.392 309.791 273.583 312.03 273.328C314.269 273.136 317.596 272.753 319.899 272.306C320.283 272.242 320.667 272.498 320.731 272.817C320.795 273.2 320.539 273.519 320.219 273.647C317.852 274.094 314.461 274.541 312.222 274.732C311.582 274.796 310.942 274.796 310.175 274.796Z" fill="black"/>
<path d="M328.856 247.916C310.431 244.532 304.801 233.295 303.137 227.932C302.497 230.613 301.41 234.636 300.322 237.828C300.194 238.211 299.81 238.339 299.427 238.275C299.043 238.147 298.851 237.764 298.979 237.381C300.77 232.273 302.433 224.867 302.433 224.803C302.497 224.484 302.753 224.292 303.137 224.292C303.457 224.292 303.713 224.548 303.777 224.931C303.841 225.633 305.76 242.361 328.92 246.639C329.304 246.703 329.56 247.086 329.496 247.405C329.496 247.725 329.176 247.916 328.856 247.916Z" fill="black"/>
<path d="M316.892 245.234C316.316 245.17 315.997 245.362 315.805 247.341C315.613 249.512 316.189 249.895 316.7 249.895C317.212 249.895 317.66 249.193 317.66 247.661C317.66 246.064 317.596 245.362 316.892 245.234Z" fill="black"/>
<path d="M301.666 244.341C301.09 244.213 300.77 244.468 300.514 246.448C300.258 248.619 300.834 249.065 301.346 249.065C301.858 249.065 302.37 248.427 302.37 246.831C302.434 245.235 302.37 244.468 301.666 244.341Z" fill="black"/>
<path d="M299.682 240.382C299.49 240.382 299.298 240.318 299.17 240.127C298.915 239.871 298.979 239.424 299.234 239.169C300.066 238.403 301.602 237.509 304.481 238.275C304.864 238.403 305.056 238.722 304.992 239.105C304.928 239.488 304.545 239.68 304.161 239.616C301.922 239.041 300.898 239.552 300.13 240.19C300.002 240.318 299.81 240.382 299.682 240.382Z" fill="black"/>
<path d="M314.525 301.996C314.205 301.996 313.949 301.932 313.629 301.868C309.727 300.336 310.303 288.204 310.495 285.778L309.855 274.349C309.855 273.966 310.111 273.647 310.495 273.647C310.878 273.647 311.198 273.902 311.198 274.285L311.838 285.778C311.518 291.078 311.774 299.697 314.141 300.591C316.061 301.357 321.563 296.058 324.761 291.971C325.017 291.652 325.401 291.652 325.721 291.844C326.041 292.099 326.041 292.482 325.849 292.802C324.569 294.462 318.364 301.996 314.525 301.996Z" fill="black"/>
<path d="M303.329 287.311C303.137 287.311 302.881 287.183 302.753 286.991C297.571 279.649 304.353 272.498 304.417 272.434C304.673 272.179 305.12 272.179 305.376 272.434C305.632 272.689 305.632 273.136 305.376 273.392C305.12 273.647 299.298 279.777 303.841 286.161C304.033 286.481 303.969 286.928 303.649 287.119C303.585 287.311 303.457 287.311 303.329 287.311Z" fill="black"/>
<path d="M337.237 297.079C333.782 297.079 330.391 296.441 327.448 294.717C322.65 291.908 320.027 286.672 319.515 279.074C318.94 269.369 325.593 261.899 329.176 259.281C329.496 259.026 329.88 259.09 330.135 259.409C330.327 259.728 330.263 260.111 330.008 260.367C326.617 262.793 320.347 269.88 320.859 278.946C321.307 286.034 323.738 290.95 328.088 293.504C338.069 299.378 355.151 291.269 355.343 291.205C355.662 291.014 356.11 291.205 356.238 291.525C356.43 291.844 356.238 292.291 355.918 292.418C355.47 292.738 346.322 297.079 337.237 297.079Z" fill="black"/>
<path d="M360.397 390.362C359.949 390.298 359.693 389.979 359.693 389.596C362.06 365.844 348.753 326.386 348.625 326.003C348.497 325.62 348.689 325.236 349.073 325.109C349.457 324.981 349.84 325.173 349.968 325.556C350.096 325.939 363.468 365.716 361.1 389.723C361.037 390.043 360.781 390.362 360.397 390.362Z" fill="black"/>
<path d="M310.75 263.814C310.111 263.814 309.407 263.687 308.703 263.495C308.319 263.367 308.127 263.048 308.191 262.665C308.319 262.282 308.703 262.09 309.023 262.154C310.558 262.601 311.838 262.474 312.734 261.835C314.333 260.75 314.525 258.515 314.525 258.515C314.589 258.132 314.909 257.876 315.293 257.876C315.677 257.94 315.933 258.26 315.933 258.643C315.933 258.77 315.613 261.58 313.565 262.984C312.734 263.495 311.774 263.814 310.75 263.814Z" fill="black"/>
<path d="M373.448 226.591H349.84C349.457 226.591 349.137 226.271 349.137 225.888C349.137 225.505 349.457 225.186 349.84 225.186H373.448C373.832 225.186 374.152 225.505 374.152 225.888C374.152 226.271 373.832 226.591 373.448 226.591Z" fill="black"/>
<path d="M299.235 226.591H288.678C272.876 226.591 260.017 213.757 260.017 197.987V150.547C260.017 134.777 272.876 121.943 288.678 121.943H389.442C405.245 121.943 418.104 134.777 418.104 150.547V197.987C418.104 198.37 417.784 198.689 417.4 198.689C417.017 198.689 416.697 198.37 416.697 197.987V150.547C416.697 135.543 404.477 123.284 389.378 123.284H288.678C273.644 123.284 261.36 135.479 261.36 150.547V197.987C261.36 212.991 273.58 225.25 288.678 225.25H299.235C299.618 225.25 299.938 225.569 299.938 225.952C299.874 226.271 299.618 226.591 299.235 226.591Z" fill="black"/>
<path d="M360.333 199.072H317.788C314.909 199.072 312.734 198.05 311.646 196.199C310.559 194.347 310.814 191.985 312.286 189.495L333.462 153.293C334.934 150.803 336.917 149.398 339.092 149.398C341.268 149.398 343.251 150.803 344.722 153.293L365.899 189.495C367.37 191.985 367.562 194.411 366.539 196.199C365.451 198.114 363.212 199.072 360.333 199.072ZM339.028 150.803C337.365 150.803 335.829 151.952 334.614 153.995L313.437 190.197C312.222 192.24 312.03 194.156 312.798 195.56C313.629 196.965 315.357 197.731 317.724 197.731H360.333C362.7 197.731 364.491 196.965 365.259 195.56C366.091 194.156 365.835 192.24 364.619 190.197L343.443 153.995C342.291 151.952 340.692 150.803 339.028 150.803Z" fill="black"/>
<path d="M185.547 372.612C184.204 372.612 182.796 372.229 181.325 371.527C178.702 370.186 176.27 367.824 174.543 364.823C170.896 358.566 171.408 351.478 175.631 349.052C179.917 346.626 186.251 349.691 189.898 355.948C193.544 362.205 193.032 369.292 188.81 371.718C187.85 372.293 186.763 372.612 185.547 372.612ZM178.957 349.563C177.998 349.563 177.166 349.754 176.334 350.201C172.752 352.245 172.496 358.502 175.695 364.12C177.294 366.866 179.469 369.037 181.9 370.25C184.204 371.399 186.379 371.527 188.106 370.505C191.689 368.462 191.945 362.205 188.746 356.586C186.251 352.245 182.284 349.563 178.957 349.563Z" fill="black"/>
<path d="M513.174 418.583H464.232C463.848 418.583 463.528 418.264 463.528 417.881C463.528 417.497 463.848 417.178 464.232 417.178H513.174C513.558 417.178 513.878 417.497 513.878 417.881C513.878 418.327 513.558 418.583 513.174 418.583Z" fill="black"/>
<path d="M430.644 418.583H59.704C59.3201 418.583 59.0002 418.264 59.0002 417.881C59.0002 417.497 59.3201 417.178 59.704 417.178H430.708C431.092 417.178 431.411 417.497 431.411 417.881C431.347 418.327 431.028 418.583 430.644 418.583Z" fill="black"/>
<path d="M267.118 418.583C266.734 418.583 266.414 418.264 266.414 417.881C266.414 417.498 266.734 417.178 267.118 417.178C272.492 417.178 277.418 414.688 280.553 410.347C283.688 406.005 284.52 400.578 282.856 395.47L256.05 314.893C253.811 308.125 247.477 303.528 240.312 303.528H127.456C126.24 303.528 124.961 303.656 123.809 303.911C123.425 303.975 123.041 303.784 122.977 303.401C122.913 303.017 123.105 302.634 123.489 302.57C124.769 302.251 126.112 302.124 127.456 302.124H240.312C248.053 302.124 254.898 307.04 257.33 314.382L284.072 395.023C285.927 400.578 284.968 406.388 281.577 411.113C278.25 415.901 272.94 418.583 267.118 418.583Z" fill="black"/>
<path d="M259.441 418.583H146.585C138.844 418.583 131.998 413.858 129.567 406.835L102.761 329.706C100.969 324.598 101.801 319.107 104.936 314.638C108.263 309.977 113.829 307.167 119.779 307.167H232.634C240.376 307.167 247.221 311.892 249.652 318.916L276.395 396.045C278.186 401.152 277.354 406.643 274.22 411.113C270.893 415.774 265.391 418.583 259.441 418.583ZM119.779 308.508C114.277 308.508 109.158 311.126 106.088 315.404C103.145 319.49 102.441 324.534 104.04 329.259L130.783 406.388C133.022 412.837 139.356 417.242 146.521 417.242H259.377C264.879 417.242 269.997 414.688 273.068 410.347C276.011 406.26 276.715 401.216 275.115 396.491L248.373 319.363C246.134 312.914 239.8 308.508 232.634 308.508H119.779Z" fill="black"/>
<path d="M300.194 418.583C297.571 418.583 295.78 417.881 294.948 416.476C293.285 413.794 295.588 409.453 297.379 405.941C297.763 405.239 298.083 404.536 298.403 403.962C298.723 403.323 298.979 402.557 299.298 401.791C301.218 396.938 304.097 389.596 314.077 391.32C314.589 391.447 325.721 394.64 332.567 399.365C332.886 399.556 332.95 400.003 332.759 400.322C332.567 400.642 332.119 400.706 331.799 400.514C325.145 395.917 313.885 392.724 313.757 392.661C304.864 391.128 302.369 397.577 300.514 402.302C300.194 403.132 299.874 403.898 299.554 404.536C299.298 405.111 298.915 405.813 298.531 406.58C296.995 409.58 294.82 413.731 296.036 415.774C296.611 416.731 297.955 417.178 300.13 417.178C309.279 417.178 310.878 405.686 310.878 405.558C310.878 405.175 311.198 404.856 311.582 404.856C311.966 404.856 312.286 405.175 312.286 405.558C312.286 407.282 309.919 418.583 300.194 418.583Z" fill="black"/>
<path d="M292.069 418.583C286.567 418.2 284.648 416.284 284.008 414.752C283.112 412.581 284.2 410.346 285.479 408.878C286.503 407.729 287.591 404.983 288.742 402.11C290.342 398.024 292.133 393.427 294.628 390.681C299.171 385.765 308.511 390.937 308.895 391.192C309.215 391.383 309.343 391.83 309.151 392.15C308.959 392.469 308.511 392.597 308.191 392.405C308.127 392.341 299.426 387.489 295.652 391.639C293.349 394.129 291.557 398.662 290.022 402.621C288.806 405.813 287.719 408.495 286.503 409.836C285.543 410.921 284.648 412.709 285.287 414.241C285.991 415.965 288.358 416.987 292.133 417.242C292.517 417.242 292.773 417.625 292.773 417.944C292.709 418.328 292.389 418.583 292.069 418.583Z" fill="black"/>
<path d="M324.442 418.647C324.186 418.647 323.93 418.647 323.738 418.647C311.454 418.009 310.495 408.048 310.495 407.92C310.495 407.537 310.751 407.218 311.134 407.154C311.518 407.154 311.838 407.41 311.902 407.793C311.902 408.176 312.734 416.668 323.802 417.242C324.506 417.306 325.145 417.242 325.721 417.179C326.041 417.115 326.425 417.434 326.489 417.753C326.553 418.136 326.297 418.455 325.913 418.519C325.465 418.583 324.953 418.647 324.442 418.647Z" fill="black"/>
<path d="M324.058 418.583C323.802 418.583 323.61 418.455 323.482 418.264C323.29 417.945 323.354 417.498 323.674 417.306C329.816 413.284 332.951 405.75 331.799 398.152C330.136 387.744 320.731 380.529 310.878 382.062C307.616 382.573 302.689 383.977 296.931 390.043C296.675 390.298 296.228 390.362 295.972 390.107C295.716 389.851 295.652 389.404 295.972 389.149C301.986 382.764 307.232 381.296 310.686 380.721C321.243 378.997 331.415 386.787 333.142 397.96C334.422 406.069 331.031 414.114 324.442 418.455C324.314 418.583 324.186 418.583 324.058 418.583Z" fill="black"/>
<path d="M283.112 394.448C282.601 394.321 282.345 393.938 282.473 393.618C282.537 393.427 283.688 389.149 287.015 387.744C291.237 386.02 296.036 389.851 296.228 390.043C296.548 390.298 296.548 390.745 296.356 391.001C296.1 391.32 295.652 391.32 295.396 391.128C295.332 391.064 291.045 387.617 287.591 389.021C284.904 390.17 283.816 393.938 283.816 394.001C283.688 394.257 283.432 394.448 283.112 394.448Z" fill="black"/>
<path d="M279.53 417.881C278.314 417.881 276.906 417.561 275.371 416.731C275.051 416.54 274.923 416.157 275.115 415.774C275.307 415.454 275.755 415.327 276.075 415.518C281.001 418.264 284.136 414.497 284.264 414.369C284.52 414.05 284.904 414.05 285.223 414.241C285.543 414.497 285.543 414.88 285.351 415.199C285.287 415.199 283.048 417.881 279.53 417.881Z" fill="black"/>
<path d="M338.261 265.155H336.661C331.607 265.155 327.448 259.345 327.448 252.13C327.448 244.979 331.607 239.105 336.661 239.105H337.813C338.197 239.105 338.517 239.424 338.517 239.807C338.517 240.19 338.197 240.51 337.813 240.51H336.661C332.375 240.51 328.856 245.745 328.856 252.13C328.856 258.515 332.375 263.75 336.661 263.75H338.261C338.644 263.75 338.964 264.07 338.964 264.453C338.964 264.836 338.644 265.155 338.261 265.155Z" fill="black"/>
<path d="M338.517 265.155C334.358 265.155 331.159 259.473 331.159 252.13C331.159 244.851 334.422 239.105 338.517 239.105C342.675 239.105 345.874 244.787 345.874 252.13C345.874 259.409 342.675 265.155 338.517 265.155ZM338.517 240.51C335.254 240.51 332.503 245.809 332.503 252.13C332.503 258.451 335.254 263.75 338.517 263.75C341.779 263.75 344.53 258.451 344.53 252.13C344.53 245.873 341.779 240.51 338.517 240.51Z" fill="black"/>
<path d="M299.235 263.112C299.043 263.112 298.915 263.048 298.787 262.921C296.228 260.75 294.948 257.11 294.948 252.13C294.948 247.469 296.292 243.83 298.787 241.531C299.043 241.276 299.491 241.276 299.747 241.595C300.002 241.851 300.002 242.298 299.683 242.553C297.443 244.532 296.292 247.852 296.292 252.13C296.292 256.663 297.443 259.984 299.683 261.835C300.002 262.091 300.002 262.538 299.747 262.793C299.619 262.984 299.427 263.112 299.235 263.112Z" fill="black"/>
<path d="M339.028 240.382C338.644 240.382 338.324 240.063 338.324 239.68C339.028 218.482 324.249 216.95 323.546 216.758C323.482 216.758 323.418 216.694 323.354 216.694C319.515 215.609 315.932 215.673 314.077 216.375C317.724 216.886 324.697 218.546 329.624 223.781C333.398 227.804 335.19 233.167 334.998 239.68C334.998 240.063 334.678 240.318 334.294 240.318C333.91 240.318 333.59 239.999 333.654 239.616C333.846 233.486 332.183 228.442 328.664 224.739C322.266 217.907 311.838 217.524 311.71 217.524C311.39 217.524 311.134 217.333 311.07 217.077C311.006 216.822 311.07 216.503 311.326 216.311C311.518 216.183 316.7 213.374 323.866 214.779C325.401 215.162 340.5 218.163 339.732 239.744C339.732 240.127 339.412 240.382 339.028 240.382Z" fill="black"/>
<path d="M285.8 389.979C285.48 389.979 285.224 389.787 285.16 389.468C273.58 347.52 282.793 321.406 282.857 321.15C282.985 320.767 283.368 320.639 283.752 320.767C284.136 320.895 284.264 321.278 284.136 321.661C284.072 321.916 274.987 347.647 286.439 389.149C286.567 389.532 286.311 389.915 285.991 389.979C285.927 389.915 285.863 389.979 285.8 389.979Z" fill="black"/>
<path d="M113.765 309.53C113.509 309.53 113.317 309.402 113.189 309.211C112.997 308.891 113.125 308.445 113.445 308.253L123.361 302.698C123.681 302.507 124.129 302.634 124.321 302.954C124.513 303.273 124.385 303.72 124.065 303.911L114.149 309.466C113.957 309.53 113.893 309.53 113.765 309.53Z" fill="black"/>
<path d="M483.617 283.097C485.28 283.097 486.624 281.756 486.624 280.096C486.624 278.436 485.28 277.095 483.617 277.095C481.953 277.095 480.61 278.436 480.61 280.096C480.61 281.756 481.953 283.097 483.617 283.097Z" fill="#8DC0C2"/>
<path d="M506.84 283.288C508.568 283.288 509.975 281.883 509.975 280.16C509.975 278.436 508.568 277.031 506.84 277.031C505.113 277.031 503.706 278.436 503.706 280.16C503.706 281.883 505.113 283.288 506.84 283.288Z" fill="#8DC0C2"/>
<path d="M530.064 283.033C531.664 283.033 533.007 281.756 533.007 280.096C533.007 278.5 531.728 277.159 530.064 277.159C528.465 277.159 527.121 278.436 527.121 280.096C527.185 281.756 528.465 283.033 530.064 283.033Z" fill="#8DC0C2"/>
<path d="M483.617 306.465C485.344 306.465 486.752 305.06 486.752 303.337C486.752 301.613 485.344 300.208 483.617 300.208C481.889 300.208 480.482 301.613 480.482 303.337C480.482 305.06 481.889 306.465 483.617 306.465Z" fill="#8DC0C2"/>
<path d="M506.84 306.593C508.632 306.593 510.167 305.124 510.167 303.273C510.167 301.485 508.696 299.953 506.84 299.953C505.049 299.953 503.514 301.421 503.514 303.273C503.578 305.124 505.049 306.593 506.84 306.593Z" fill="#8DC0C2"/>
<path d="M530.064 306.401C531.727 306.401 533.135 305.06 533.135 303.336C533.135 301.676 531.791 300.272 530.064 300.272C528.401 300.272 526.993 301.613 526.993 303.336C527.057 304.997 528.401 306.401 530.064 306.401Z" fill="#8DC0C2"/>
<path d="M483.617 329.45C485.242 329.45 486.56 328.136 486.56 326.513C486.56 324.891 485.242 323.576 483.617 323.576C481.991 323.576 480.674 324.891 480.674 326.513C480.674 328.136 481.991 329.45 483.617 329.45Z" fill="#8DC0C2"/>
<path d="M506.84 329.578C508.504 329.578 509.911 328.237 509.911 326.513C509.911 324.853 508.568 323.449 506.84 323.449C505.177 323.449 503.77 324.79 503.77 326.513C503.77 328.174 505.177 329.578 506.84 329.578Z" fill="#8DC0C2"/>
<path d="M530.064 329.387C531.663 329.387 532.943 328.11 532.943 326.514C532.943 324.917 531.663 323.64 530.064 323.64C528.465 323.64 527.185 324.917 527.185 326.514C527.249 328.11 528.529 329.387 530.064 329.387Z" fill="#8DC0C2"/>
<path d="M373.448 274.222C373.384 274.222 373.256 274.222 373.192 274.158C372.936 274.03 372.744 273.775 372.744 273.519V214.587C372.744 205.457 380.23 197.987 389.378 197.987H477.411C486.56 197.987 494.045 205.457 494.045 214.587V238.403C494.045 247.533 486.56 255.003 477.411 255.003H392.961L373.96 273.966C373.832 274.094 373.64 274.222 373.448 274.222ZM389.442 199.327C380.997 199.327 374.152 206.159 374.152 214.587V271.859L392.193 253.854C392.321 253.726 392.513 253.662 392.705 253.662H477.539C485.984 253.662 492.83 246.831 492.83 238.403V214.587C492.83 206.159 485.984 199.327 477.539 199.327H389.442Z" fill="black"/>
<path d="M433.459 233.806C429.044 233.806 425.462 230.23 425.462 225.825C425.462 221.419 429.044 217.844 433.459 217.844C437.873 217.844 441.456 221.419 441.456 225.825C441.392 230.294 437.809 233.806 433.459 233.806ZM433.459 219.312C429.812 219.312 426.869 222.249 426.869 225.888C426.869 229.528 429.812 232.465 433.459 232.465C437.106 232.465 440.048 229.528 440.048 225.888C440.048 222.249 437.106 219.312 433.459 219.312Z" fill="black"/>
<path d="M398.591 233.806C394.177 233.806 390.594 230.23 390.594 225.825C390.594 221.419 394.177 217.844 398.591 217.844C403.006 217.844 406.588 221.419 406.588 225.825C406.588 230.294 403.006 233.806 398.591 233.806ZM398.591 219.312C394.944 219.312 392.002 222.249 392.002 225.888C392.002 229.528 394.944 232.465 398.591 232.465C402.238 232.465 405.181 229.528 405.181 225.888C405.181 222.249 402.238 219.312 398.591 219.312Z" fill="black"/>
<path d="M469.67 233.806C465.255 233.806 461.673 230.23 461.673 225.825C461.673 221.419 465.255 217.844 469.67 217.844C474.084 217.844 477.667 221.419 477.667 225.825C477.667 230.294 474.084 233.806 469.67 233.806ZM469.67 219.312C466.023 219.312 463.08 222.249 463.08 225.888C463.08 229.528 466.023 232.465 469.67 232.465C473.316 232.465 476.259 229.528 476.259 225.888C476.259 222.249 473.316 219.312 469.67 219.312Z" fill="black"/>
<path d="M241.783 286.417H181.516C181.133 286.417 180.813 286.097 180.813 285.714C180.813 285.331 181.133 285.012 181.516 285.012H240.823L226.237 243.83H166.29C165.906 243.83 165.586 243.51 165.586 243.127C165.586 242.744 165.906 242.425 166.29 242.425H226.748C227.068 242.425 227.324 242.617 227.388 242.872L242.487 285.395C242.551 285.587 242.551 285.842 242.423 286.034C242.231 286.289 241.975 286.417 241.783 286.417Z" fill="black"/>
<path d="M181.516 286.417C181.26 286.417 180.941 286.225 180.877 285.97L165.778 243.447C165.65 243.064 165.842 242.681 166.226 242.553C166.61 242.425 166.994 242.617 167.122 243L182.22 285.523C182.348 285.906 182.156 286.289 181.772 286.417C181.644 286.417 181.58 286.417 181.516 286.417Z" fill="black"/>
<path d="M169.553 252.832H135.133C134.749 252.832 134.429 252.513 134.429 252.13C134.429 251.747 134.749 251.428 135.133 251.428H169.553C169.937 251.428 170.256 251.747 170.256 252.13C170.256 252.513 169.937 252.832 169.553 252.832Z" fill="black"/>
<path d="M177.422 243.894C177.166 243.894 176.846 243.702 176.782 243.447L168.721 220.78H123.617C123.233 220.78 122.913 220.461 122.913 220.078C122.913 219.695 123.233 219.376 123.617 219.376H169.233C169.553 219.376 169.809 219.567 169.873 219.823L178.062 242.936C178.19 243.319 177.998 243.702 177.614 243.83C177.614 243.894 177.486 243.894 177.422 243.894Z" fill="black"/>
<path d="M135.133 252.833C134.877 252.833 134.557 252.641 134.493 252.386L123.105 220.334C122.977 219.951 123.169 219.567 123.553 219.44C123.937 219.312 124.321 219.504 124.449 219.887L135.837 251.939C135.965 252.322 135.773 252.705 135.389 252.833C135.325 252.769 135.197 252.833 135.133 252.833Z" fill="black"/>
<path d="M221.566 260.814H183.308C182.924 260.814 182.604 260.494 182.604 260.111C182.604 259.728 182.924 259.409 183.308 259.409H221.566C221.95 259.409 222.27 259.728 222.27 260.111C222.27 260.494 221.95 260.814 221.566 260.814Z" fill="black"/>
<path d="M224.701 269.497H186.443C186.059 269.497 185.739 269.178 185.739 268.795C185.739 268.412 186.059 268.092 186.443 268.092H224.701C225.085 268.092 225.405 268.412 225.405 268.795C225.405 269.178 225.085 269.497 224.701 269.497Z" fill="black"/>
<path d="M157.845 293.44C157.717 293.44 157.525 293.376 157.461 293.312C155.35 291.716 153.302 289.928 151.447 288.077C151.191 287.821 151.191 287.374 151.447 287.119C151.703 286.864 152.151 286.864 152.407 287.119C154.262 288.971 156.245 290.631 158.293 292.227C158.613 292.482 158.676 292.865 158.421 293.185C158.293 293.376 158.037 293.44 157.845 293.44ZM146.713 282.33C146.521 282.33 146.265 282.267 146.137 282.075C144.538 279.968 143.13 277.733 141.787 275.371C141.595 275.052 141.723 274.605 142.042 274.413C142.362 274.222 142.81 274.349 143.002 274.669C144.282 276.967 145.689 279.138 147.225 281.181C147.48 281.5 147.417 281.947 147.097 282.139C147.033 282.33 146.905 282.33 146.713 282.33ZM139.099 268.603C138.844 268.603 138.588 268.411 138.46 268.156C137.884 266.688 137.372 265.219 136.86 263.623C136.732 263.24 136.924 262.857 137.308 262.793C137.692 262.665 138.076 262.857 138.14 263.24C138.588 264.772 139.099 266.241 139.675 267.645C139.803 268.028 139.611 268.411 139.291 268.539C139.291 268.603 139.227 268.603 139.099 268.603Z" fill="black"/>
<path d="M305.696 258.643C304.481 258.643 303.265 258.132 302.497 257.174C301.602 256.152 301.346 254.748 301.73 253.407C302.305 251.619 303.585 251.747 304.289 251.875C304.481 251.875 304.673 251.938 304.737 251.875C305.12 250.853 305.504 246.767 305.632 244.277C305.632 243.894 305.888 243.702 306.336 243.638C306.72 243.638 306.976 243.957 306.976 244.341C306.912 244.979 306.528 250.853 306.016 252.322C305.568 253.407 304.609 253.343 304.097 253.215C303.457 253.152 303.265 253.088 303.009 253.854C302.689 254.748 302.881 255.642 303.457 256.344C304.097 257.11 305.12 257.429 306.144 257.302C306.528 257.238 306.848 257.493 306.912 257.876C306.976 258.259 306.72 258.579 306.336 258.643C306.208 258.643 305.952 258.643 305.696 258.643Z" fill="black"/>
</svg>
