<svg width="38" height="38" viewBox="0 0 38 38" fill="none" xmlns="http://www.w3.org/2000/svg">
<rect y="0.5" width="38" height="37" rx="18.5" fill="white" fill-opacity="0.09"/>
<path d="M12.7778 11.8887H16.3333L18.1111 16.3331L15.8889 17.6664C16.8409 19.5967 18.4031 21.1589 20.3333 22.1109L21.6667 19.8887L26.1111 21.6664V25.222C26.1111 25.6935 25.9238 26.1457 25.5904 26.4791C25.257 26.8125 24.8048 26.9998 24.3333 26.9998C20.866 26.7891 17.5957 25.3167 15.1394 22.8604C12.6831 20.4041 11.2107 17.1338 11 13.6664C11 13.195 11.1873 12.7428 11.5207 12.4094C11.8541 12.076 12.3063 11.8887 12.7778 11.8887Z" stroke="white" stroke-opacity="0.8" stroke-width="1.5" stroke-linecap="round" stroke-linejoin="round"/>
<path d="M21.6665 14.5557C22.138 14.5557 22.5902 14.743 22.9236 15.0764C23.257 15.4098 23.4443 15.8619 23.4443 16.3334" stroke="white" stroke-opacity="0.8" stroke-width="1.5" stroke-linecap="round" stroke-linejoin="round"/>
<path d="M21.6665 11C23.081 11 24.4375 11.5619 25.4377 12.5621C26.4379 13.5623 26.9998 14.9188 26.9998 16.3333" stroke="white" stroke-opacity="0.8" stroke-width="1.5" stroke-linecap="round" stroke-linejoin="round"/>
</svg>
