<svg width="38" height="37" viewBox="0 0 38 37" fill="none" xmlns="http://www.w3.org/2000/svg">
<rect width="38" height="37" rx="18.5" fill="white" fill-opacity="0.09"/>
<path d="M16 17.5C16 18.2956 16.3161 19.0587 16.8787 19.6213C17.4413 20.1839 18.2044 20.5 19 20.5C19.7956 20.5 20.5587 20.1839 21.1213 19.6213C21.6839 19.0587 22 18.2956 22 17.5C22 16.7044 21.6839 15.9413 21.1213 15.3787C20.5587 14.8161 19.7956 14.5 19 14.5C18.2044 14.5 17.4413 14.8161 16.8787 15.3787C16.3161 15.9413 16 16.7044 16 17.5Z" stroke="white" stroke-opacity="0.8" stroke-width="1.5" stroke-linecap="round" stroke-linejoin="round"/>
<path d="M24.657 23.157L20.414 27.4C20.039 27.7746 19.5306 27.985 19.0005 27.985C18.4704 27.985 17.962 27.7746 17.587 27.4L13.343 23.157C12.2242 22.0381 11.4623 20.6127 11.1537 19.0608C10.845 17.509 11.0035 15.9005 11.609 14.4387C12.2145 12.9769 13.2399 11.7275 14.5555 10.8485C15.8711 9.96943 17.4178 9.50024 19 9.50024C20.5822 9.50024 22.1289 9.96943 23.4445 10.8485C24.7601 11.7275 25.7855 12.9769 26.391 14.4387C26.9965 15.9005 27.155 17.509 26.8463 19.0608C26.5377 20.6127 25.7758 22.0381 24.657 23.157Z" stroke="white" stroke-opacity="0.8" stroke-width="1.5" stroke-linecap="round" stroke-linejoin="round"/>
</svg>
