<svg width="70" height="70" viewBox="0 0 70 70" fill="none" xmlns="http://www.w3.org/2000/svg">
<g filter="url(#filter0_d_506_450)">
<rect x="9" y="5" width="52" height="52" rx="12" fill="url(#paint0_linear_506_450)"/>
<g clip-path="url(#clip0_506_450)">
<path d="M33.4328 32.5478H24.3397C23.6192 32.5478 23.0296 33.1373 23.0296 33.8578V43.6902C23.0296 44.4106 23.6192 45.0001 24.3397 45.0001H33.5857C33.8939 45.0001 33.8939 44.669 33.8939 44.669V32.993C33.8938 32.993 33.8938 32.5478 33.4328 32.5478ZM45.6606 32.5478H36.5767C36.0234 32.5478 36.1063 33.124 36.1063 33.124V44.6797C36.1063 44.6797 36.1018 44.9998 36.4346 44.9998H45.6604C46.3809 44.9998 46.9704 44.4104 46.9704 43.6899V33.8578C46.9706 33.1373 46.3811 32.5478 45.6606 32.5478ZM33.8938 24.8115C33.8938 24.8115 33.8938 24.3676 33.4551 24.3676H22.8603C22.1398 24.3676 21.5503 24.9572 21.5503 25.6776V29.7667C21.5503 30.4872 22.1398 31.0767 22.8603 31.0767H33.491C33.8938 31.0767 33.8938 30.7274 33.8938 30.7274V24.8115ZM47.1398 24.3676H36.5112C36.1065 24.3676 36.1065 24.7533 36.1065 24.7533V30.7355C36.1065 30.7355 36.1065 31.0767 36.5986 31.0767H47.1398C47.8603 31.0767 48.4498 30.4872 48.4498 29.7667V25.6776C48.4498 24.9572 47.8603 24.3676 47.1398 24.3676ZM29.4381 23.3984C28.8387 23.3984 28.2912 23.3509 27.8112 23.2571C26.5918 23.0188 25.7537 22.5552 25.249 21.8397C24.7968 21.1986 24.6584 20.4081 24.8376 19.4903C25.1514 17.8844 26.2299 17 27.8742 17C28.2221 17 28.6043 17.0402 29.0101 17.1195C30.0424 17.3212 31.3627 17.9131 32.5421 18.7029C34.543 20.043 34.642 20.8761 34.5424 21.3862C34.3959 22.1358 33.6952 22.6714 32.4004 23.0238C31.5256 23.2618 30.4458 23.3984 29.4381 23.3984ZM27.8743 19.0996C27.2375 19.0996 27.0186 19.2775 26.8985 19.8928C26.8002 20.3959 26.9241 20.5716 26.9648 20.6294C27.1351 20.8708 27.5786 21.0722 28.2137 21.1962C28.5565 21.2632 28.9799 21.2986 29.438 21.2986C30.4452 21.2986 31.3325 21.146 31.9213 20.9791C31.9641 20.9669 32.0306 20.9163 31.9593 20.8738C31.1896 20.2467 29.7814 19.4094 28.6075 19.1801C28.3341 19.1268 28.0873 19.0996 27.8743 19.0996ZM40.5924 23.3984H40.5922C39.5845 23.3984 38.5048 23.2618 37.63 23.0238C36.3351 22.6715 35.6345 22.1358 35.488 21.3863C35.3885 20.8762 35.4873 20.0431 37.4884 18.703C38.6676 17.9132 39.9879 17.3213 41.0204 17.1196C41.4262 17.0403 41.8084 17.0001 42.156 17.0001C43.8007 17.0001 44.8791 17.8846 45.1926 19.4905C45.372 20.4082 45.2337 21.1987 44.7814 21.8398C44.2767 22.5554 43.4387 23.0189 42.219 23.2572C41.7392 23.3508 41.1917 23.3984 40.5924 23.3984ZM38.0878 20.8608C38.0196 20.9004 38.0526 20.9629 38.088 20.9731C38.6765 21.1424 39.5732 21.2987 40.5922 21.2987C41.0505 21.2987 41.4737 21.2633 41.8166 21.1963C42.4516 21.0722 42.8953 20.8709 43.0655 20.6295C43.1064 20.5717 43.2304 20.396 43.1318 19.8929C43.0118 19.2776 42.7928 19.0997 42.156 19.0997C41.943 19.0997 41.6964 19.1268 41.4228 19.1803C40.2488 19.4095 38.8576 20.2337 38.0878 20.8608Z" fill="url(#paint1_linear_506_450)"/>
</g>
</g>
<defs>
<filter id="filter0_d_506_450" x="0.2" y="0.2" width="69.6" height="69.6" filterUnits="userSpaceOnUse" color-interpolation-filters="sRGB">
<feFlood flood-opacity="0" result="BackgroundImageFix"/>
<feColorMatrix in="SourceAlpha" type="matrix" values="0 0 0 0 0 0 0 0 0 0 0 0 0 0 0 0 0 0 127 0" result="hardAlpha"/>
<feOffset dy="4"/>
<feGaussianBlur stdDeviation="4.4"/>
<feComposite in2="hardAlpha" operator="out"/>
<feColorMatrix type="matrix" values="0 0 0 0 0.0941176 0 0 0 0 0.380392 0 0 0 0 0.176471 0 0 0 0.11 0"/>
<feBlend mode="normal" in2="BackgroundImageFix" result="effect1_dropShadow_506_450"/>
<feBlend mode="normal" in="SourceGraphic" in2="effect1_dropShadow_506_450" result="shape"/>
</filter>
<linearGradient id="paint0_linear_506_450" x1="35" y1="5" x2="35" y2="57" gradientUnits="userSpaceOnUse">
<stop stop-color="white"/>
<stop offset="1" stop-color="#F3FCF5"/>
</linearGradient>
<linearGradient id="paint1_linear_506_450" x1="35.0001" y1="17" x2="35.0001" y2="45.0001" gradientUnits="userSpaceOnUse">
<stop stop-color="#70FB66"/>
<stop offset="1" stop-color="#00A442"/>
</linearGradient>
<clipPath id="clip0_506_450">
<rect width="28" height="28" fill="white" transform="translate(21 17)"/>
</clipPath>
</defs>
</svg>
