<svg width="494" height="292" viewBox="0 0 494 292" fill="none" xmlns="http://www.w3.org/2000/svg">
<path d="M370.955 42.9346H138.168C130.896 42.9346 125 48.8303 125 56.103V245.511C125 252.783 130.896 258.679 138.168 258.679H370.955C378.228 258.679 384.124 252.783 384.124 245.511V56.103C384.124 48.8303 378.228 42.9346 370.955 42.9346Z" fill="#6FB2E0" fill-opacity="0.1"/>
<path d="M171.496 203.275H166.019V241.217H171.496V203.275Z" fill="#6FB2E0"/>
<path d="M161.116 231.734H155.638V241.217H161.116V231.734Z" fill="#6FB2E0"/>
<path d="M180.972 222.25H175.494V241.225H180.972V222.25Z" fill="#6FB2E0"/>
<path d="M190.291 211.204H184.813V241.225H190.291V211.204Z" fill="#6FB2E0"/>
<path d="M201.033 233.198H195.555V241.225H201.033V233.198Z" fill="#6FB2E0"/>
<path d="M367.353 232.392C367.14 232.133 367.031 231.805 367.048 231.47C367.033 231.136 367.141 230.808 367.353 230.549C367.454 230.432 367.581 230.34 367.723 230.28C367.866 230.22 368.021 230.194 368.175 230.204C368.329 230.196 368.483 230.224 368.625 230.283C368.768 230.343 368.895 230.434 368.998 230.549C369.195 230.816 369.302 231.139 369.302 231.47C369.302 231.802 369.195 232.125 368.998 232.392C368.896 232.503 368.772 232.592 368.634 232.653C368.496 232.714 368.347 232.745 368.196 232.745C368.045 232.745 367.895 232.714 367.757 232.653C367.619 232.592 367.495 232.503 367.394 232.392H367.353ZM368.57 232.071C368.678 231.89 368.729 231.681 368.718 231.47C368.73 231.263 368.679 231.056 368.57 230.878C368.525 230.809 368.463 230.752 368.389 230.715C368.315 230.677 368.233 230.66 368.15 230.664C368.069 230.663 367.989 230.682 367.918 230.719C367.846 230.756 367.784 230.811 367.739 230.878C367.626 231.054 367.571 231.261 367.583 231.47C367.568 231.68 367.623 231.888 367.739 232.063C367.783 232.131 367.844 232.187 367.916 232.225C367.988 232.263 368.069 232.28 368.15 232.276C368.229 232.278 368.307 232.26 368.378 232.224C368.448 232.189 368.509 232.136 368.553 232.071H368.57ZM370.93 230.245H371.58L368.414 234.884H367.731L370.93 230.245ZM370.388 234.58C370.176 234.32 370.068 233.992 370.083 233.658C370.066 233.324 370.175 232.995 370.388 232.737C370.489 232.626 370.613 232.537 370.751 232.476C370.889 232.415 371.039 232.383 371.19 232.383C371.34 232.383 371.49 232.415 371.628 232.476C371.766 232.537 371.89 232.626 371.992 232.737C372.207 232.994 372.319 233.323 372.304 233.658C372.317 233.993 372.206 234.322 371.992 234.58C371.888 234.689 371.764 234.776 371.626 234.835C371.488 234.895 371.34 234.926 371.19 234.926C371.039 234.926 370.891 234.895 370.753 234.835C370.615 234.776 370.491 234.689 370.388 234.58ZM371.605 234.251C371.718 234.075 371.773 233.867 371.761 233.658C371.776 233.449 371.721 233.241 371.605 233.066C371.561 232.997 371.5 232.941 371.428 232.904C371.356 232.866 371.275 232.848 371.194 232.852C371.112 232.848 371.03 232.864 370.957 232.9C370.884 232.936 370.821 232.99 370.774 233.058C370.66 233.236 370.605 233.447 370.618 233.658C370.604 233.868 370.658 234.076 370.774 234.251C370.822 234.315 370.883 234.368 370.955 234.404C371.026 234.44 371.105 234.459 371.185 234.459C371.266 234.459 371.345 234.44 371.416 234.404C371.487 234.368 371.549 234.315 371.597 234.251H371.605Z" fill="#6FB2E0"/>
<path d="M340.374 209.189H358.469C358.64 209.201 358.811 209.159 358.957 209.07C359.103 208.98 359.217 208.848 359.284 208.69C359.351 208.532 359.367 208.358 359.33 208.191C359.293 208.024 359.205 207.872 359.078 207.757L350.031 198.529C349.954 198.445 349.86 198.379 349.756 198.333C349.652 198.288 349.54 198.264 349.426 198.264C349.312 198.264 349.2 198.288 349.096 198.333C348.992 198.379 348.898 198.445 348.821 198.529L339.774 207.757C339.647 207.872 339.56 208.022 339.523 208.189C339.486 208.355 339.501 208.529 339.567 208.686C339.633 208.843 339.746 208.976 339.891 209.066C340.035 209.156 340.204 209.199 340.374 209.189Z" fill="#EBEBEB"/>
<path d="M355.451 207.469H343.862V225.853H355.451V207.469Z" fill="#EBEBEB"/>
<path d="M351.585 241.258V245.009H340.07V242.04L345.252 237.244C345.609 236.936 345.913 236.568 346.148 236.159C346.29 235.887 346.366 235.585 346.37 235.279C346.378 235.124 346.35 234.969 346.289 234.827C346.227 234.684 346.134 234.557 346.017 234.456C345.716 234.24 345.35 234.135 344.98 234.16C344.54 234.163 344.109 234.289 343.737 234.525C343.364 234.76 343.066 235.096 342.875 235.493L339.231 233.667C339.778 232.644 340.609 231.801 341.624 231.24C342.795 230.619 344.108 230.313 345.433 230.352C346.463 230.335 347.486 230.522 348.443 230.903C349.259 231.23 349.968 231.776 350.491 232.482C350.985 233.166 351.245 233.991 351.231 234.835C351.234 235.606 351.063 236.368 350.73 237.064C350.223 237.956 349.56 238.75 348.772 239.408L346.724 241.267L351.585 241.258Z" fill="#6FB2E0"/>
<path d="M355.698 244.441C354.697 243.826 353.899 242.931 353.403 241.867C352.855 240.595 352.572 239.225 352.572 237.841C352.572 236.456 352.855 235.086 353.403 233.815C353.901 232.75 354.699 231.852 355.698 231.232C356.725 230.649 357.885 230.343 359.066 230.343C360.246 230.343 361.407 230.649 362.434 231.232C363.429 231.857 364.225 232.753 364.729 233.815C365.277 235.086 365.559 236.456 365.559 237.841C365.559 239.225 365.277 240.595 364.729 241.867C364.227 242.928 363.431 243.822 362.434 244.441C361.409 245.029 360.247 245.338 359.066 245.338C357.884 245.338 356.723 245.029 355.698 244.441ZM360.699 237.861C360.699 235.454 360.15 234.248 359.053 234.242C357.957 234.237 357.408 235.443 357.408 237.861C357.408 240.279 357.957 241.489 359.053 241.489C360.15 241.489 360.699 240.271 360.699 237.837V237.861Z" fill="#6FB2E0"/>
<path d="M178.315 128.928C178.102 128.67 177.994 128.341 178.011 128.007C177.995 127.673 178.104 127.345 178.315 127.086C178.419 126.97 178.545 126.877 178.687 126.813C178.829 126.75 178.982 126.717 179.138 126.717C179.293 126.717 179.447 126.75 179.588 126.813C179.73 126.877 179.857 126.97 179.96 127.086C180.163 127.35 180.273 127.674 180.273 128.007C180.273 128.34 180.163 128.664 179.96 128.928C179.858 129.046 179.732 129.141 179.59 129.206C179.448 129.271 179.294 129.305 179.138 129.305C178.981 129.305 178.827 129.271 178.685 129.206C178.543 129.141 178.417 129.046 178.315 128.928ZM179.541 128.607C179.649 128.426 179.7 128.217 179.689 128.007C179.701 127.799 179.649 127.592 179.541 127.415C179.492 127.347 179.428 127.292 179.353 127.254C179.279 127.217 179.196 127.199 179.113 127.201C179.032 127.201 178.953 127.22 178.881 127.257C178.81 127.295 178.748 127.349 178.702 127.415C178.588 127.59 178.533 127.798 178.545 128.007C178.531 128.216 178.586 128.424 178.702 128.599C178.747 128.666 178.808 128.721 178.88 128.758C178.952 128.796 179.032 128.814 179.113 128.813C179.196 128.817 179.278 128.8 179.353 128.764C179.427 128.728 179.492 128.674 179.541 128.607ZM181.901 126.781H182.543L179.376 131.453H178.726L181.901 126.781ZM181.358 131.116C181.144 130.858 181.033 130.53 181.046 130.195C181.031 129.859 181.143 129.531 181.358 129.274C181.459 129.155 181.586 129.062 181.728 129.001C181.871 128.939 182.026 128.912 182.181 128.92C182.336 128.914 182.49 128.942 182.632 129.003C182.775 129.064 182.901 129.157 183.003 129.274C183.216 129.532 183.325 129.86 183.308 130.195C183.323 130.529 183.215 130.857 183.003 131.116C182.901 131.231 182.774 131.322 182.631 131.382C182.489 131.441 182.335 131.469 182.181 131.461C182.026 131.471 181.872 131.445 181.729 131.385C181.586 131.325 181.46 131.233 181.358 131.116ZM182.576 130.787C182.682 130.608 182.734 130.402 182.724 130.195C182.736 129.987 182.684 129.78 182.576 129.603C182.526 129.541 182.464 129.491 182.393 129.457C182.321 129.422 182.243 129.405 182.164 129.405C182.085 129.405 182.007 129.422 181.936 129.457C181.865 129.491 181.803 129.541 181.753 129.603C181.645 129.784 181.594 129.993 181.605 130.203C181.593 130.411 181.645 130.617 181.753 130.795C181.8 130.863 181.863 130.918 181.936 130.955C182.009 130.993 182.09 131.011 182.173 131.009C182.253 131.006 182.331 130.985 182.401 130.946C182.471 130.907 182.531 130.853 182.576 130.787Z" fill="#6FB2E0"/>
<path d="M133.859 127.818H150.399C150.55 127.816 150.697 127.771 150.822 127.687C150.948 127.603 151.046 127.484 151.104 127.345C151.163 127.206 151.179 127.053 151.152 126.904C151.125 126.756 151.055 126.619 150.95 126.51L142.676 118.063C142.604 117.991 142.519 117.934 142.425 117.895C142.331 117.856 142.23 117.836 142.129 117.836C142.027 117.836 141.927 117.856 141.833 117.895C141.739 117.934 141.654 117.991 141.582 118.063L133.316 126.518C133.214 126.627 133.147 126.762 133.121 126.909C133.094 127.055 133.111 127.206 133.168 127.343C133.225 127.48 133.321 127.598 133.443 127.682C133.566 127.766 133.71 127.813 133.859 127.818Z" fill="#EBEBEB"/>
<path d="M147.668 126.247H137.058V143.067H147.668V126.247Z" fill="#EBEBEB"/>
<path d="M162.029 127.39V141.726H157.168V131.034H154.701V127.39H162.029Z" fill="#6FB2E0"/>
<path d="M166.915 141.159C165.916 140.542 165.119 139.647 164.62 138.584C164.072 137.313 163.79 135.943 163.79 134.558C163.79 133.173 164.072 131.803 164.62 130.532C165.117 129.465 165.914 128.567 166.915 127.949C167.942 127.367 169.103 127.06 170.283 127.06C171.464 127.06 172.624 127.367 173.651 127.949C174.652 128.567 175.45 129.465 175.946 130.532C176.494 131.803 176.777 133.173 176.777 134.558C176.777 135.943 176.494 137.313 175.946 138.584C175.439 139.651 174.629 140.547 173.619 141.159C172.593 141.746 171.432 142.055 170.25 142.055C169.069 142.055 167.908 141.746 166.882 141.159H166.915ZM171.924 134.579C171.924 132.16 171.373 130.96 170.279 130.96C169.185 130.96 168.634 132.16 168.634 134.579C168.634 136.997 169.185 138.206 170.279 138.206C171.373 138.206 171.924 136.972 171.924 134.554V134.579Z" fill="#6FB2E0"/>
<path d="M204.092 241.406C204.092 241.521 192.939 241.62 179.187 241.62C165.435 241.62 154.273 241.521 154.273 241.406C154.273 241.291 165.426 241.192 179.187 241.192C192.947 241.192 204.092 241.291 204.092 241.406Z" fill="#263238"/>
<path d="M207.07 171.254L219.194 196.522L225.527 194.877L266.028 229.612L277.979 207.034C277.979 207.034 253.863 195.938 249.536 187.063C245.21 178.188 249.273 178.451 249.273 178.451L239.255 162.906L207.07 171.254Z" fill="#263238"/>
<path d="M222.739 137.573C222.739 137.573 235.447 133.839 255.771 119.478C270.634 108.949 282.247 96.4473 287.421 90.4348C288.589 89.0365 290.261 88.1548 292.075 87.9808C293.888 87.8068 295.698 88.3546 297.11 89.5053C301.585 93.2807 307.745 102.74 314.457 126.781C326.301 169.165 317.805 177.226 314.243 176.593C310.682 175.959 287.24 168.203 271.818 167.545C256.396 166.887 232.889 171.477 232.889 171.477L222.739 137.573Z" fill="white"/>
<path d="M222.739 137.573C222.773 137.762 222.82 137.949 222.879 138.132C222.994 138.552 223.15 139.111 223.356 139.835L225.272 146.472C226.999 152.345 229.492 160.858 232.634 171.575L232.699 171.806L232.946 171.764C239.633 170.547 247.283 169.363 255.73 168.548C259.957 168.154 264.391 167.849 268.989 167.866C273.757 167.946 278.51 168.438 283.193 169.338C292.94 171.057 303.008 174.002 313.626 176.913L314.144 177.029H314.745C315.14 177 315.528 176.911 315.896 176.765C316.225 176.568 316.563 176.387 316.875 176.165L317.698 175.342C318.605 174.192 319.281 172.876 319.688 171.468C320.507 168.677 320.92 165.782 320.914 162.873C320.911 156.986 320.338 151.114 319.203 145.337C318.956 144.038 318.709 142.738 318.471 141.447C318.232 140.155 317.887 138.881 317.607 137.606C317.056 135.048 316.406 132.531 315.732 130.039C314.457 125.046 312.985 120.168 311.397 115.447C309.865 110.788 308.052 106.225 305.969 101.785C303.888 97.4671 301.519 93.3052 298.221 90.0152C297.412 89.1595 296.435 88.4816 295.35 88.0247C294.252 87.617 293.073 87.4789 291.91 87.622C290.748 87.7652 289.637 88.1853 288.671 88.8472C287.779 89.5017 286.982 90.2768 286.302 91.1503C283.457 94.3909 280.586 97.4342 277.732 100.297C272.448 105.609 266.847 110.597 260.961 115.233C252.403 121.886 243.261 127.75 233.645 132.753C230.232 134.497 227.501 135.697 225.634 136.454C224.705 136.841 223.989 137.112 223.504 137.277C223.255 137.36 223.011 137.456 222.772 137.564C223.03 137.522 223.283 137.456 223.528 137.367C224.022 137.211 224.754 136.964 225.7 136.602C227.592 135.895 230.347 134.743 233.793 133.041C243.494 128.138 252.714 122.336 261.331 115.71C267.267 111.09 272.912 106.107 278.234 100.79C281.112 97.936 283.991 94.8844 286.862 91.6438C287.507 90.8082 288.266 90.0663 289.115 89.4394C289.983 88.8614 290.975 88.4978 292.011 88.3784C293.077 88.2548 294.157 88.3907 295.16 88.7745C296.162 89.1583 297.057 89.7786 297.768 90.5827C300.935 93.7576 303.279 97.8619 305.327 102.139C307.391 106.552 309.185 111.087 310.698 115.719C312.269 120.432 313.741 125.276 315.008 130.261C315.674 132.728 316.316 135.245 316.867 137.787C317.147 139.061 317.459 140.328 317.689 141.611C317.92 142.894 318.175 144.194 318.421 145.485C319.543 151.219 320.108 157.047 320.108 162.89C320.12 165.712 319.723 168.521 318.931 171.23C318.561 172.531 317.944 173.748 317.114 174.816L316.423 175.49C316.168 175.671 315.896 175.819 315.6 175.992C315.04 176.218 314.419 176.247 313.84 176.074C303.287 173.204 293.113 170.251 283.333 168.557C278.616 167.666 273.83 167.187 269.03 167.126C264.383 167.126 259.982 167.455 255.697 167.866C247.225 168.688 239.576 169.947 232.872 171.222L233.185 171.411L225.593 146.555C224.696 143.676 224.006 141.447 223.528 139.9C223.298 139.168 223.117 138.593 222.977 138.173C222.838 137.754 222.747 137.581 222.739 137.573Z" fill="#263238"/>
<path d="M189.567 173.467L197.825 172.2L193.079 161.253L186.137 164.954L189.567 173.467Z" fill="#6FB2E0"/>
<path d="M191.977 160.142L195.67 168.672L197.685 173.327C198.988 176.396 201.43 178.841 204.498 180.148C207.565 181.454 211.019 181.522 214.135 180.335L247.644 171.156L234.024 128.69L200.103 141.225C196.626 142.788 193.862 145.599 192.357 149.102C190.853 152.604 190.717 156.544 191.977 160.142Z" fill="#6FB2E0"/>
<path d="M290.514 120.826C290.514 120.826 302.481 115.702 306.141 131.577C309.802 147.451 297.916 148.076 297.916 148.076C294.189 139.383 291.698 130.211 290.514 120.826Z" fill="#6FB2E0"/>
<path d="M227.312 145.214C227.378 145.436 221.628 147.558 214.464 149.968C207.3 152.378 201.428 154.138 201.354 153.924C201.28 153.71 207.037 151.572 214.201 149.17C221.365 146.768 227.238 144.992 227.312 145.214Z" fill="#263238"/>
<path d="M228.792 149.886C228.858 150.108 223.109 152.238 215.945 154.64C208.781 157.042 202.908 158.818 202.834 158.596C202.76 158.374 208.518 156.252 215.682 153.85C222.846 151.449 228.727 149.672 228.792 149.886Z" fill="#263238"/>
<path d="M230.273 154.566C230.339 154.788 224.589 156.91 217.425 159.32C210.261 161.73 204.389 163.49 204.315 163.276C204.241 163.062 209.998 160.924 217.162 158.522C224.326 156.12 230.199 154.344 230.273 154.566Z" fill="#263238"/>
<path d="M231.754 159.246C231.819 159.46 226.07 161.59 218.906 163.992C211.742 166.394 205.869 168.17 205.795 167.948C205.721 167.726 211.479 165.604 218.643 163.202C225.807 160.801 231.68 159.024 231.754 159.246Z" fill="#263238"/>
<path d="M289.165 93.1161C289.082 93.3825 289.041 93.6598 289.041 93.9387C288.992 94.5802 288.934 95.3534 288.869 96.2993C288.803 97.2451 288.77 98.5529 288.77 100.042C288.77 101.53 288.696 103.159 288.77 104.977C288.876 109.282 289.205 113.578 289.757 117.849C290.466 123.079 291.477 128.264 292.784 133.378C294.137 138.473 295.785 143.485 297.719 148.389C299.317 152.378 301.127 156.28 303.139 160.077C303.962 161.722 304.834 163.136 305.549 164.395C306.265 165.653 306.939 166.723 307.507 167.578L308.806 169.544C308.941 169.783 309.11 170.002 309.308 170.194C309.224 169.93 309.105 169.678 308.954 169.445C308.634 168.894 308.255 168.22 307.786 167.405C307.318 166.591 306.643 165.439 305.969 164.115C305.294 162.791 304.463 161.401 303.682 159.756C302.037 156.466 300.236 152.534 298.451 148.052C296.571 143.162 294.951 138.176 293.598 133.115C292.303 128.035 291.278 122.89 290.53 117.701C289.889 112.914 289.502 108.571 289.362 104.911C289.239 103.085 289.255 101.432 289.222 99.9759C289.189 98.52 289.222 97.2698 289.222 96.2417C289.222 95.2136 289.222 94.5226 289.222 93.8811C289.23 93.6248 289.211 93.3684 289.165 93.1161Z" fill="#263238"/>
<path d="M305.418 279.127C297.704 279.127 290.306 276.062 284.852 270.608C279.398 265.154 276.334 257.756 276.334 250.043C276.334 242.328 279.398 234.93 284.852 229.474C290.306 224.019 297.703 220.953 305.418 220.95C313.133 220.95 320.533 224.016 325.989 229.471C331.445 234.927 334.51 242.327 334.51 250.043C334.51 253.863 333.757 257.645 332.295 261.174C330.833 264.704 328.69 267.91 325.988 270.611C323.287 273.312 320.08 275.454 316.55 276.915C313.021 278.376 309.238 279.128 305.418 279.127Z" fill="#6FB2E0"/>
<path d="M292.249 260.217C294.721 261.803 297.596 262.645 300.532 262.644C310.567 262.644 316.234 254.172 315.896 246.572C316.954 245.803 317.868 244.854 318.594 243.767C317.605 244.196 316.557 244.474 315.485 244.589C316.616 243.915 317.462 242.85 317.862 241.596C316.803 242.227 315.643 242.673 314.432 242.912C313.617 242.045 312.538 241.472 311.364 241.28C310.19 241.088 308.985 241.289 307.936 241.851C306.887 242.413 306.053 243.305 305.562 244.388C305.071 245.472 304.951 246.688 305.22 247.847C303.072 247.739 300.97 247.182 299.052 246.21C297.133 245.238 295.44 243.873 294.083 242.204C293.391 243.391 293.175 244.796 293.481 246.136C293.786 247.475 294.59 248.649 295.728 249.418C294.863 249.396 294.017 249.164 293.261 248.743C293.246 250.002 293.67 251.227 294.462 252.206C295.253 253.185 296.361 253.857 297.596 254.106C296.791 254.326 295.947 254.357 295.128 254.196C295.473 255.271 296.145 256.212 297.05 256.886C297.956 257.56 299.05 257.934 300.178 257.955C297.934 259.719 295.087 260.532 292.249 260.217Z" fill="white"/>
<path d="M295.349 199.65L294.56 199.882L302.24 225.942L303.029 225.709L295.349 199.65Z" fill="#6FB2E0"/>
<path d="M297.645 199.212C297.645 199.745 297.487 200.267 297.19 200.71C296.894 201.154 296.472 201.5 295.979 201.704C295.487 201.908 294.944 201.962 294.421 201.858C293.897 201.753 293.417 201.496 293.039 201.119C292.662 200.742 292.405 200.261 292.301 199.738C292.197 199.215 292.25 198.672 292.455 198.179C292.659 197.686 293.005 197.265 293.448 196.968C293.892 196.672 294.413 196.514 294.947 196.514C295.663 196.514 296.349 196.798 296.855 197.304C297.361 197.81 297.645 198.496 297.645 199.212Z" fill="#6FB2E0"/>
<path d="M400.113 198.29C396.292 198.291 392.509 197.54 388.979 196.078C385.449 194.616 382.241 192.474 379.539 189.772C376.838 187.07 374.695 183.863 373.233 180.333C371.772 176.802 371.02 173.019 371.021 169.198C371.021 161.485 374.085 154.087 379.539 148.633C384.994 143.178 392.391 140.114 400.105 140.114C403.925 140.113 407.708 140.865 411.237 142.326C414.767 143.787 417.974 145.929 420.676 148.63C423.377 151.331 425.52 154.537 426.982 158.066C428.444 161.595 429.197 165.378 429.197 169.198C429.198 173.018 428.447 176.801 426.986 180.331C425.524 183.86 423.382 187.067 420.681 189.769C417.981 192.471 414.774 194.614 411.245 196.076C407.716 197.538 403.933 198.29 400.113 198.29Z" fill="#6FB2E0"/>
<path d="M413.907 163.21C413.882 162.058 413.665 160.918 413.265 159.838C412.903 158.906 412.341 158.063 411.62 157.37C410.925 156.662 410.082 156.114 409.152 155.767C408.076 155.362 406.938 155.145 405.788 155.125C404.308 155.059 403.831 155.043 400.031 155.043C396.231 155.043 395.795 155.043 394.273 155.125C393.123 155.144 391.986 155.361 390.909 155.767C389.988 156.125 389.152 156.67 388.453 157.368C387.753 158.066 387.206 158.901 386.846 159.821C386.446 160.902 386.229 162.042 386.204 163.194C386.139 164.674 386.122 165.143 386.122 168.91C386.122 172.677 386.122 173.154 386.204 174.668C386.229 175.817 386.446 176.954 386.846 178.032C387.203 178.954 387.749 179.791 388.448 180.489C389.148 181.188 389.986 181.732 390.909 182.087C391.985 182.495 393.123 182.715 394.273 182.737C395.754 182.802 396.223 182.819 400.031 182.819C403.839 182.819 404.275 182.819 405.788 182.737C406.939 182.714 408.077 182.494 409.152 182.087C410.082 181.742 410.924 181.197 411.62 180.491C412.341 179.798 412.902 178.956 413.265 178.024C413.665 176.946 413.882 175.809 413.907 174.66C413.972 173.179 413.989 172.702 413.989 168.902C413.989 165.102 413.972 164.691 413.907 163.21ZM411.439 174.536C411.431 175.416 411.269 176.287 410.962 177.111C410.732 177.709 410.379 178.253 409.926 178.707C409.472 179.16 408.929 179.513 408.33 179.743C407.506 180.05 406.635 180.211 405.756 180.22C404.291 180.286 403.855 180.302 400.146 180.302C396.436 180.302 396.033 180.302 394.545 180.22C393.665 180.212 392.794 180.051 391.97 179.743C391.366 179.523 390.821 179.169 390.375 178.706C389.912 178.258 389.556 177.713 389.33 177.111C389.027 176.286 388.866 175.415 388.853 174.536C388.787 173.072 388.779 172.636 388.779 168.927C388.779 165.217 388.779 164.814 388.853 163.325C388.866 162.444 389.027 161.571 389.33 160.743C389.567 160.147 389.923 159.606 390.377 159.153C390.831 158.7 391.374 158.346 391.97 158.111C392.795 157.807 393.666 157.645 394.545 157.634C396.009 157.568 396.445 157.551 400.146 157.551L405.756 157.634C406.634 157.646 407.505 157.808 408.33 158.111C408.933 158.336 409.478 158.693 409.926 159.155C410.386 159.6 410.74 160.142 410.962 160.743C411.269 161.57 411.43 162.443 411.439 163.325C411.505 164.789 411.521 165.225 411.521 168.927C411.521 172.628 411.472 173.072 411.406 174.536H411.439Z" fill="white"/>
<path d="M400.113 161.804C398.704 161.804 397.327 162.221 396.156 163.004C394.985 163.787 394.072 164.899 393.532 166.201C392.993 167.502 392.852 168.935 393.127 170.316C393.402 171.698 394.08 172.967 395.076 173.963C396.073 174.959 397.342 175.638 398.724 175.913C400.105 176.188 401.537 176.047 402.839 175.507C404.141 174.968 405.253 174.055 406.036 172.884C406.818 171.713 407.236 170.335 407.236 168.927C407.236 167.038 406.486 165.226 405.15 163.89C403.814 162.554 402.002 161.804 400.113 161.804ZM400.113 173.557C399.197 173.557 398.302 173.286 397.54 172.777C396.779 172.268 396.185 171.545 395.835 170.699C395.484 169.853 395.393 168.922 395.571 168.023C395.75 167.125 396.191 166.3 396.839 165.652C397.486 165.005 398.311 164.564 399.21 164.385C400.108 164.206 401.039 164.298 401.885 164.648C402.731 164.999 403.455 165.592 403.963 166.354C404.472 167.115 404.744 168.011 404.744 168.927C404.744 170.155 404.256 171.333 403.388 172.201C402.519 173.07 401.341 173.557 400.113 173.557Z" fill="white"/>
<path d="M407.524 159.854C407.199 159.854 406.88 159.951 406.61 160.132C406.339 160.312 406.129 160.569 406.004 160.87C405.88 161.171 405.847 161.501 405.91 161.82C405.974 162.14 406.131 162.433 406.361 162.663C406.591 162.893 406.884 163.049 407.203 163.113C407.522 163.176 407.853 163.144 408.153 163.019C408.454 162.895 408.711 162.684 408.892 162.413C409.072 162.143 409.169 161.825 409.169 161.499C409.169 161.063 408.996 160.645 408.687 160.336C408.379 160.028 407.96 159.854 407.524 159.854Z" fill="white"/>
<path d="M335.92 169.345L335.908 170.167L374.505 170.713L374.516 169.89L335.92 169.345Z" fill="#6FB2E0"/>
<path d="M337.52 167.594C337.949 167.916 338.272 168.357 338.45 168.862C338.627 169.367 338.651 169.914 338.517 170.433C338.384 170.951 338.1 171.419 337.701 171.776C337.301 172.133 336.805 172.364 336.275 172.439C335.745 172.513 335.204 172.429 334.722 172.197C334.239 171.964 333.837 171.594 333.565 171.132C333.293 170.671 333.164 170.139 333.195 169.605C333.225 169.07 333.414 168.556 333.737 168.129C334.169 167.559 334.81 167.183 335.518 167.083C336.227 166.983 336.946 167.167 337.52 167.594Z" fill="#6FB2E0"/>
<path d="M233.703 71.632C229.787 71.632 225.909 70.8601 222.292 69.3605C218.674 67.8608 215.388 65.6629 212.62 62.8923C209.852 60.1216 207.658 56.8327 206.162 53.2134C204.667 49.5942 203.899 45.7156 203.904 41.7995C203.904 33.8962 207.043 26.3166 212.632 20.7281C218.22 15.1396 225.8 12 233.703 12C241.606 12 249.186 15.1396 254.775 20.7281C260.363 26.3166 263.503 33.8962 263.503 41.7995C263.507 45.7156 262.739 49.5942 261.244 53.2134C259.748 56.8327 257.554 60.1216 254.786 62.8923C252.019 65.6629 248.732 67.8608 245.114 69.3605C241.497 70.8601 237.619 71.632 233.703 71.632Z" fill="#6FB2E0"/>
<path d="M229.895 55.1489H235.981V39.8995H240.242L240.694 34.8H235.998V31.9294C235.998 30.7285 236.236 30.2844 237.404 30.2844H240.694V24.9134H236.483C231.951 24.9134 229.903 26.9121 229.903 30.7285V34.8411H226.736V40.0064H229.903L229.895 55.1489Z" fill="white"/>
<path d="M234.781 66.2527H233.958V101.16H234.781V66.2527Z" fill="#6FB2E0"/>
<path d="M231.614 101.843C231.747 101.327 232.03 100.862 232.428 100.506C232.825 100.151 233.319 99.9215 233.847 99.8466C234.375 99.7717 234.913 99.8548 235.393 100.085C235.874 100.316 236.275 100.684 236.547 101.142C236.819 101.601 236.948 102.13 236.92 102.662C236.891 103.194 236.706 103.706 236.387 104.133C236.067 104.56 235.629 104.883 235.126 105.061C234.624 105.239 234.08 105.264 233.563 105.133C232.869 104.955 232.273 104.508 231.908 103.891C231.542 103.274 231.437 102.538 231.614 101.843Z" fill="#6FB2E0"/>
<path d="M163.971 119.486C156.257 119.486 148.859 116.421 143.405 110.967C137.951 105.513 134.887 98.1152 134.887 90.4016C134.887 82.6881 137.951 75.2905 143.405 69.8362C148.859 64.3819 156.257 61.3177 163.971 61.3177C171.685 61.3177 179.083 64.3816 184.539 69.8357C189.995 75.2897 193.061 82.6873 193.063 90.4016C193.061 98.1159 189.995 105.514 184.539 110.968C179.083 116.422 171.685 119.486 163.971 119.486Z" fill="#6FB2E0"/>
<path fill-rule="evenodd" clip-rule="evenodd" d="M179.796 89.2089C179.675 85.1599 177.991 81.315 175.098 78.4806C172.204 75.6462 168.324 74.0428 164.274 74.0066C160.223 73.9704 156.316 75.5044 153.372 78.2866C150.428 81.0688 148.676 84.8831 148.483 88.9293C148.483 89.1513 148.483 89.3816 148.483 89.6037C148.48 92.4376 149.257 95.2175 150.728 97.6396L148.976 102.821C148.859 103.117 148.83 103.441 148.893 103.753C148.956 104.065 149.108 104.352 149.331 104.579C149.554 104.807 149.838 104.964 150.149 105.033C150.46 105.102 150.784 105.08 151.082 104.968L156.585 103.216C158.962 104.523 161.639 105.191 164.352 105.153C167.065 105.116 169.721 104.375 172.062 103.003C174.403 101.631 176.348 99.6753 177.706 97.3266C179.065 94.9779 179.79 92.3169 179.812 89.6037L179.796 89.2089ZM164.168 102.673C161.593 102.68 159.072 101.928 156.922 100.51L151.863 102.155L153.508 97.3024C151.89 95.0752 151.026 92.3895 151.041 89.6366C151.038 89.2135 151.06 88.7905 151.107 88.3699C151.409 85.0811 152.938 82.0263 155.388 79.812C157.839 77.5978 161.033 76.3859 164.335 76.4169C167.638 76.448 170.808 77.7198 173.216 79.9798C175.625 82.2397 177.096 85.3227 177.336 88.6167C177.336 88.9622 177.378 89.2994 177.378 89.6366C177.343 93.1183 175.93 96.4444 173.448 98.8863C170.966 101.328 167.617 102.687 164.135 102.665L164.168 102.673Z" fill="white"/>
<path fill-rule="evenodd" clip-rule="evenodd" d="M171.316 92.7457C170.929 92.5565 169.037 91.6353 168.692 91.5037C168.346 91.3721 168.083 91.3145 167.82 91.7011C167.557 92.0877 166.825 92.9349 166.603 93.1899C166.381 93.4448 166.158 93.4695 165.78 93.2803C164.645 92.8378 163.598 92.1972 162.687 91.3886C161.852 90.621 161.134 89.7341 160.557 88.7565C160.335 88.3782 160.557 88.1726 160.722 87.9834C160.886 87.7942 161.108 87.531 161.306 87.3089L161.445 87.128C161.537 86.9836 161.616 86.8323 161.684 86.6756C161.739 86.5733 161.768 86.4588 161.768 86.3425C161.768 86.2261 161.739 86.1116 161.684 86.0094C161.585 85.812 160.812 83.9366 160.491 83.1717C160.171 82.4068 159.858 82.5466 159.628 82.5466C159.397 82.5466 159.151 82.5055 158.896 82.5055C158.701 82.5113 158.509 82.5565 158.333 82.6385C158.156 82.7205 157.998 82.8376 157.868 82.9825C157.435 83.3907 157.092 83.8846 156.862 84.4327C156.631 84.9808 156.517 85.571 156.527 86.1656C156.534 86.6057 156.601 87.0427 156.724 87.4652C157.024 88.4188 157.489 89.3124 158.098 90.1055C158.287 90.3522 160.746 94.3332 164.678 95.863C168.61 97.3929 168.585 96.8747 169.292 96.8089C169.827 96.7087 170.334 96.4955 170.779 96.1834C171.225 95.8713 171.598 95.4676 171.875 94.9994C172.133 94.4334 172.213 93.8025 172.105 93.1899C171.974 93.0336 171.694 92.9349 171.316 92.7457Z" fill="white"/>
<path d="M176.742 105.413L176.121 105.951L193.91 126.495L194.532 125.957L176.742 105.413Z" fill="#6FB2E0"/>
<path d="M191.993 127.85C191.772 127.365 191.699 126.825 191.785 126.299C191.87 125.772 192.109 125.283 192.473 124.892C192.836 124.502 193.307 124.228 193.826 124.105C194.346 123.982 194.889 124.016 195.389 124.202C195.889 124.388 196.323 124.718 196.635 125.151C196.947 125.583 197.124 126.099 197.144 126.632C197.163 127.165 197.024 127.692 196.744 128.146C196.465 128.6 196.056 128.961 195.571 129.183C194.92 129.479 194.178 129.505 193.507 129.255C192.837 129.006 192.293 128.5 191.993 127.85Z" fill="#6FB2E0"/>
</svg>
