<svg width="40" height="40" viewBox="0 0 40 40" fill="none" xmlns="http://www.w3.org/2000/svg">
<g clip-path="url(#clip0_641_1332)">
<path d="M39.2734 17.5078V35.8672C39.2734 38.1484 37.4219 40 35.1406 40H4.85156C2.57031 40 0.71875 38.1484 0.71875 35.8672V17.5078L17.0859 1.20312C18.6953 -0.40625 21.3047 -0.40625 22.9219 1.20312L39.2734 17.5078Z" fill="#0A6366"/>
<path d="M8.08594 4.60156H31.9531C34.2344 4.60156 36.0859 6.45312 36.0859 8.73438V32.6016C36.0859 34.8828 34.2344 36.7344 31.9531 36.7344H8.08594C5.80469 36.7344 3.95312 34.8828 3.95312 32.6016V8.72656C3.95312 6.44531 5.80469 4.60156 8.08594 4.60156Z" fill="white"/>
<path d="M39.2734 17.5078V35.8672C39.2734 38.1484 37.4219 40 35.1406 40H4.85156C2.57031 40 0.71875 38.1484 0.71875 35.8672V17.5625L19.9688 36.8125L39.2734 17.5078Z" fill="#0D7D81"/>
<path d="M38.0781 38.7812C37.4297 39.4375 36.5547 39.875 35.5859 39.9844L4.71094 40C3.625 39.9609 2.64062 39.5 1.92188 38.7812L17.0781 23.625C18.6875 22.0156 21.3047 22.0156 22.9219 23.625L38.0781 38.7812Z" fill="#109FA5"/>
<path d="M20 20.3906C23.8013 20.3906 26.8828 17.3091 26.8828 13.5078C26.8828 9.70654 23.8013 6.625 20 6.625C16.1987 6.625 13.1172 9.70654 13.1172 13.5078C13.1172 17.3091 16.1987 20.3906 20 20.3906Z" fill="#FD496C"/>
<path d="M20 14.7734C19.5937 14.7734 19.25 14.4531 19.2344 14.0391L19.0781 10.3828C19.0547 9.85937 19.4766 9.42188 20 9.42188C20.5234 9.42188 20.9453 9.85937 20.9219 10.3828L20.7656 14.0391C20.75 14.4453 20.4062 14.7734 20 14.7734ZM20 15.5703C19.4453 15.5703 18.9922 16.0234 18.9922 16.5781C18.9922 17.1328 19.4453 17.5859 20 17.5859C20.5547 17.5859 21.0078 17.1328 21.0078 16.5781C21.0078 16.0234 20.5547 15.5703 20 15.5703Z" fill="white"/>
</g>
<defs>
<clipPath id="clip0_641_1332">
<rect width="40" height="40" fill="white"/>
</clipPath>
</defs>
</svg>
