<svg width="38" height="38" viewBox="0 0 38 38" fill="none" xmlns="http://www.w3.org/2000/svg">
<rect y="0.5" width="38" height="37" rx="18.5" fill="white" fill-opacity="0.09"/>
<path d="M11 14.5556C11 14.0841 11.1873 13.6319 11.5207 13.2985C11.8541 12.9651 12.3063 12.7778 12.7778 12.7778H25.2222C25.6937 12.7778 26.1459 12.9651 26.4793 13.2985C26.8127 13.6319 27 14.0841 27 14.5556M11 14.5556V23.4445C11 23.916 11.1873 24.3682 11.5207 24.7016C11.8541 25.035 12.3063 25.2223 12.7778 25.2223H25.2222C25.6937 25.2223 26.1459 25.035 26.4793 24.7016C26.8127 24.3682 27 23.916 27 23.4445V14.5556M11 14.5556L19 19.8889L27 14.5556" stroke="white" stroke-opacity="0.8" stroke-width="1.5" stroke-linecap="round" stroke-linejoin="round"/>
</svg>
