<svg width="42" height="41" viewBox="0 0 42 41" fill="none" xmlns="http://www.w3.org/2000/svg">
<g clip-path="url(#clip0_579_2742)">
<path d="M35.1524 41.0001H6.84755C3.3475 41.0001 0.5 38.1526 0.5 34.6525V16.6396C0.5 15.9763 1.0378 15.4385 1.70117 15.4385C2.36454 15.4385 2.90234 15.9763 2.90234 16.6396C2.90234 17.7694 3.52976 18.7844 4.5397 19.2893L21 27.5199L37.4601 19.2894C38.4702 18.7844 39.0977 17.7694 39.0977 16.6403V16.6396C39.0977 15.9763 39.6355 15.4385 40.2988 15.4385C40.9583 15.4385 41.4937 15.97 41.4999 16.628L41.5 16.6396V34.6525C41.5 38.1526 38.6525 41.0001 35.1524 41.0001Z" fill="#12A9AE"/>
<path d="M41.5 34.6525V16.6396L41.4999 16.628C41.4937 15.97 40.9583 15.4385 40.2988 15.4385C39.6355 15.4385 39.0977 15.9763 39.0977 16.6396V16.6403C39.0977 17.7694 38.4702 18.7844 37.4601 19.2894L21 27.5199V41.0001H35.1524C38.6525 41.0001 41.5 38.1526 41.5 34.6525Z" fill="#17CCD2"/>
<path d="M34.5211 22.8083C34.3469 22.7007 34.2031 22.5503 34.1034 22.3715C34.0037 22.1927 33.9514 21.9913 33.9514 21.7866V11.4938C33.9514 11.289 34.0037 11.0876 34.1034 10.9088C34.203 10.7299 34.3468 10.5795 34.521 10.4719C34.6952 10.3642 34.894 10.3029 35.0986 10.2937C35.3031 10.2845 35.5066 10.3278 35.6898 10.4194L38.5345 11.8417C40.3638 12.7561 41.5001 14.5945 41.5001 16.6395V16.6402C41.5001 18.6852 40.3638 20.5236 38.5345 21.438L35.6898 22.861C35.5066 22.9525 35.3031 22.9957 35.0986 22.9865C34.894 22.9773 34.6953 22.916 34.5211 22.8083Z" fill="#12A9AE"/>
<path d="M6.31039 22.8608L3.46521 21.4377C1.63631 20.5235 0.5 18.6851 0.5 16.6401V16.6395C0.5 14.5944 1.63631 12.756 3.46553 11.8417L6.31031 10.4194C6.49344 10.3278 6.69695 10.2845 6.90151 10.2937C7.10607 10.3029 7.30488 10.3642 7.47907 10.4719C7.65325 10.5795 7.79701 10.7299 7.8967 10.9088C7.99639 11.0876 8.0487 11.289 8.04864 11.4938V21.7866C8.04866 21.9913 7.99634 22.1926 7.89664 22.3715C7.79694 22.5503 7.65319 22.7007 7.47902 22.8083C7.30485 22.9159 7.10606 22.9773 6.90153 22.9865C6.69699 22.9956 6.4935 22.9524 6.31039 22.8608Z" fill="#17CCD2"/>
<path d="M21.0001 30.064C20.816 30.064 20.632 30.0217 20.4629 29.9372L6.31049 22.8609C6.11096 22.7612 5.94315 22.6078 5.82587 22.4181C5.70859 22.2283 5.64648 22.0096 5.64648 21.7865V5.06094C5.64648 2.26541 7.90773 0 10.7074 0H31.2928C34.0878 0 36.3537 2.26093 36.3537 5.06094V21.7866C36.3537 22.2416 36.0967 22.6575 35.6897 22.861L21.5373 29.9372C21.3705 30.0206 21.1866 30.064 21.0001 30.064Z" fill="white"/>
<path d="M35.6896 22.8609C35.8891 22.7612 36.057 22.6078 36.1742 22.4181C36.2915 22.2283 36.3536 22.0096 36.3536 21.7865V5.06094C36.3536 2.26093 34.0876 0 31.2927 0H21V30.064C21.1841 30.064 21.3681 30.0217 21.5372 29.9372L35.6896 22.8609Z" fill="white"/>
<path d="M18.2342 23.0714L11.1444 15.9816C10.6753 15.5126 10.6757 14.7516 11.1445 14.2829L14.7836 10.6444C15.2527 10.1754 16.0132 10.1753 16.4822 10.6444L19.0835 13.2457L25.5445 6.78466C26.0135 6.31565 26.774 6.31557 27.2431 6.78458L30.8822 10.4231C31.3515 10.8923 31.351 11.6533 30.8823 12.1219L19.9329 23.0714C19.4637 23.5406 18.7029 23.5401 18.2342 23.0714Z" fill="#00D048"/>
<path d="M21 22.0044L30.8824 12.1219C31.3511 11.6533 31.3516 10.8923 30.8824 10.4231L27.2433 6.78458C26.7743 6.31557 26.0138 6.31565 25.5447 6.78466L21 11.3294V22.0044Z" fill="#00A45B"/>
</g>
<defs>
<clipPath id="clip0_579_2742">
<rect width="41" height="41" fill="white" transform="translate(0.5)"/>
</clipPath>
</defs>
</svg>
