<svg width="494" height="292" viewBox="0 0 494 292" fill="none" xmlns="http://www.w3.org/2000/svg">
<line x1="145" y1="262.148" x2="355" y2="262.148" stroke="#E9E9E9"/>
<mask id="path-2-inside-1_246_1930" fill="white">
<path d="M57 262C51.4772 262 46.9739 257.519 47.2498 252.004C49.4554 207.901 66.2034 165.755 94.8698 132.167C98.4552 127.967 104.805 127.799 108.822 131.59L155.113 175.278C159.129 179.069 159.274 185.374 155.842 189.701C141.654 207.588 133.04 229.265 131.081 252.011C130.607 257.514 126.174 262 120.652 262H57Z"/>
</mask>
<path d="M57 262C51.4772 262 46.9739 257.519 47.2498 252.004C49.4554 207.901 66.2034 165.755 94.8698 132.167C98.4552 127.967 104.805 127.799 108.822 131.59L155.113 175.278C159.129 179.069 159.274 185.374 155.842 189.701C141.654 207.588 133.04 229.265 131.081 252.011C130.607 257.514 126.174 262 120.652 262H57Z" fill="#FEF1F0" stroke="#FBB0A9" stroke-width="2" mask="url(#path-2-inside-1_246_1930)"/>
<mask id="path-3-inside-2_246_1930" fill="white">
<path d="M112.65 127.65C108.744 123.744 108.728 117.392 112.824 113.687C145.984 83.6852 188.259 65.6588 232.865 62.4999C238.374 62.1098 242.947 66.5192 243.061 72.0408L244.381 135.679C244.495 141.2 240.102 145.725 234.611 146.313C211.587 148.778 189.813 158.062 172.096 172.97C167.87 176.526 161.563 176.563 157.658 172.658L112.65 127.65Z"/>
</mask>
<path d="M112.65 127.65C108.744 123.744 108.728 117.392 112.824 113.687C145.984 83.6852 188.259 65.6588 232.865 62.4999C238.374 62.1098 242.947 66.5192 243.061 72.0408L244.381 135.679C244.495 141.2 240.102 145.725 234.611 146.313C211.587 148.778 189.813 158.062 172.096 172.97C167.87 176.526 161.563 176.563 157.658 172.658L112.65 127.65Z" fill="#FFF7EB" stroke="#FED18F" stroke-width="2" mask="url(#path-3-inside-2_246_1930)"/>
<mask id="path-4-inside-3_246_1930" fill="white">
<path d="M247 72C247 66.4772 251.481 61.9739 256.996 62.2498C301.177 64.4593 343.391 81.2623 377.005 110.018C381.202 113.608 381.363 119.958 377.567 123.97L333.826 170.211C330.031 174.224 323.726 174.361 319.403 170.924C301.496 156.688 279.78 148.044 256.989 146.081C251.486 145.607 247 141.174 247 135.652V72Z"/>
</mask>
<path d="M247 72C247 66.4772 251.481 61.9739 256.996 62.2498C301.177 64.4593 343.391 81.2623 377.005 110.018C381.202 113.608 381.363 119.958 377.567 123.97L333.826 170.211C330.031 174.224 323.726 174.361 319.403 170.924C301.496 156.688 279.78 148.044 256.989 146.081C251.486 145.607 247 141.174 247 135.652V72Z" fill="#F0F9FA" stroke="#88CFD3" stroke-width="2" mask="url(#path-4-inside-3_246_1930)"/>
<mask id="path-5-inside-4_246_1930" fill="white">
<path d="M381.35 127.65C385.255 123.744 391.608 123.728 395.313 127.824C426.269 162.038 444.446 205.922 446.75 252.004C447.026 257.52 442.523 262 437 262L373.348 262C367.826 262 363.393 257.514 362.919 252.011C360.862 228.123 351.467 205.442 336.03 187.096C332.474 182.87 332.437 176.563 336.342 172.658L381.35 127.65Z"/>
</mask>
<path d="M381.35 127.65C385.255 123.744 391.608 123.728 395.313 127.824C426.269 162.038 444.446 205.922 446.75 252.004C447.026 257.52 442.523 262 437 262L373.348 262C367.826 262 363.393 257.514 362.919 252.011C360.862 228.123 351.467 205.442 336.03 187.096C332.474 182.87 332.437 176.563 336.342 172.658L381.35 127.65Z" fill="#EFF9F4" stroke="#9EDCBD" stroke-width="2" mask="url(#path-5-inside-4_246_1930)"/>
<path d="M321.888 223.114L253.413 250.144C250.962 251.112 249.644 253.778 250.364 256.312C251.192 259.231 254.36 260.795 257.181 259.679L325.031 232.825C326.072 232.413 327.25 232.937 327.641 233.987L329.996 240.311C330.526 241.735 332.388 242.071 333.382 240.922L350.896 220.678C351.867 219.557 351.322 217.806 349.886 217.434L322.757 210.399C321.207 209.997 319.836 211.489 320.368 212.999L323.04 220.59C323.397 221.604 322.888 222.72 321.888 223.114Z" fill="#88B5B7"/>
<circle cx="250" cy="256" r="12" fill="#53878A"/>
<circle cx="250" cy="256" r="6" fill="#88B5B7"/>
<path d="M99.5 223.188C110.373 223.188 119.188 214.373 119.188 203.5C119.188 192.627 110.373 183.812 99.5 183.812C88.6269 183.812 79.8125 192.627 79.8125 203.5C79.8125 214.373 88.6269 223.188 99.5 223.188Z" fill="#FAA59D"/>
<path d="M106.531 213.344C106.269 213.345 106.011 213.273 105.787 213.136C105.564 212.998 105.383 212.801 105.266 212.566C105.242 212.515 104.055 210.531 99.5001 210.531C94.9452 210.531 93.7583 212.515 93.7091 212.6C93.5274 212.92 93.2286 213.158 92.8754 213.263C92.5222 213.368 92.1421 213.332 91.8149 213.162C91.492 212.994 91.2478 212.706 91.1347 212.36C91.0217 212.014 91.0488 211.638 91.2102 211.312C91.3944 210.942 93.1888 207.719 99.5001 207.719C105.811 207.719 107.606 210.942 107.797 211.309C107.904 211.524 107.955 211.763 107.944 212.003C107.933 212.243 107.86 212.476 107.733 212.68C107.606 212.884 107.429 213.052 107.219 213.169C107.008 213.285 106.772 213.345 106.531 213.344ZM109.108 195.688C109.005 195.535 108.873 195.403 108.72 195.3C108.566 195.197 108.394 195.126 108.213 195.089C108.032 195.053 107.845 195.053 107.664 195.089C107.483 195.125 107.311 195.196 107.157 195.299L102.938 198.111C102.362 198.495 102.313 199.281 102.313 200.687C102.312 201.15 102.426 201.605 102.644 202.013C102.862 202.42 103.176 202.768 103.561 203.025C103.945 203.282 104.386 203.441 104.846 203.487C105.306 203.533 105.77 203.464 106.198 203.288C106.625 203.112 107.002 202.833 107.296 202.476C107.59 202.119 107.791 201.696 107.882 201.242C107.973 200.789 107.952 200.321 107.818 199.878C107.685 199.435 107.445 199.032 107.119 198.705L108.718 197.639C108.872 197.536 109.004 197.404 109.106 197.251C109.209 197.098 109.281 196.925 109.317 196.744C109.353 196.563 109.353 196.377 109.317 196.195C109.281 196.014 109.21 195.842 109.108 195.688ZM96.0618 198.111L91.843 195.299C91.6894 195.196 91.517 195.125 91.3359 195.089C91.1547 195.053 90.9682 195.053 90.7871 195.09C90.606 195.126 90.4338 195.197 90.2803 195.3C90.1268 195.403 89.995 195.535 89.8926 195.688C89.7901 195.842 89.7188 196.014 89.6829 196.195C89.647 196.377 89.6472 196.563 89.6834 196.744C89.7195 196.925 89.791 197.097 89.8938 197.251C89.9965 197.404 90.1284 197.536 90.2821 197.639L91.881 198.705C91.555 199.032 91.3149 199.435 91.1817 199.878C91.0486 200.321 91.0266 200.789 91.1177 201.242C91.2088 201.696 91.4102 202.119 91.7041 202.476C91.998 202.833 92.3752 203.112 92.8025 203.288C93.2298 203.464 93.694 203.533 94.1539 203.487C94.6139 203.441 95.0554 203.282 95.4395 203.025C95.8236 202.768 96.1385 202.42 96.3561 202.013C96.5738 201.605 96.6876 201.15 96.6876 200.687C96.6876 199.281 96.6383 198.495 96.0618 198.111Z" fill="#3D3434"/>
<g clip-path="url(#clip0_246_1930)">
<path d="M182 138C193.046 138 202 129.046 202 118C202 106.954 193.046 98 182 98C170.954 98 162 106.954 162 118C162 129.046 170.954 138 182 138Z" fill="#FDC36E"/>
<path d="M189.955 128.795C189.623 128.795 189.305 128.664 189.07 128.43C185.29 124.65 178.705 124.65 174.927 128.43C174.44 128.918 173.647 128.918 173.16 128.43C172.672 127.942 172.672 127.15 173.16 126.663C175.522 124.303 178.66 123 182 123C185.34 123 188.477 124.303 190.837 126.663C191.325 127.15 191.325 127.942 190.837 128.43C190.595 128.675 190.275 128.795 189.955 128.795Z" fill="#6D4C41"/>
<path d="M174.5 115.5C175.881 115.5 177 114.381 177 113C177 111.619 175.881 110.5 174.5 110.5C173.119 110.5 172 111.619 172 113C172 114.381 173.119 115.5 174.5 115.5Z" fill="#6D4C41"/>
<path d="M189.5 115.5C190.881 115.5 192 114.381 192 113C192 111.619 190.881 110.5 189.5 110.5C188.119 110.5 187 111.619 187 113C187 114.381 188.119 115.5 189.5 115.5Z" fill="#6D4C41"/>
</g>
<g clip-path="url(#clip1_246_1930)">
<path d="M302 136C313.046 136 322 127.046 322 116C322 104.954 313.046 96 302 96C290.954 96 282 104.954 282 116C282 127.046 290.954 136 302 136Z" fill="#FDC36E"/>
<path d="M294.5 113.5C295.881 113.5 297 112.381 297 111C297 109.619 295.881 108.5 294.5 108.5C293.119 108.5 292 109.619 292 111C292 112.381 293.119 113.5 294.5 113.5Z" fill="#6D4C41"/>
<path d="M309.5 113.5C310.881 113.5 312 112.381 312 111C312 109.619 310.881 108.5 309.5 108.5C308.119 108.5 307 109.619 307 111C307 112.381 308.119 113.5 309.5 113.5Z" fill="#6D4C41"/>
<path d="M302 128.5C298.66 128.5 295.522 127.198 293.16 124.838C292.672 124.35 292.672 123.558 293.16 123.07C293.647 122.583 294.44 122.583 294.927 123.07C298.705 126.85 305.29 126.85 309.07 123.07C309.557 122.583 310.35 122.583 310.837 123.07C311.325 123.558 311.325 124.35 310.837 124.838C308.477 127.198 305.34 128.5 302 128.5Z" fill="#6D4C41"/>
</g>
<g clip-path="url(#clip2_246_1930)">
<path d="M390 221C401.046 221 410 212.046 410 201C410 189.954 401.046 181 390 181C378.954 181 370 189.954 370 201C370 212.046 378.954 221 390 221Z" fill="#FAEF86"/>
<path d="M410 201C410 212.045 401.045 221 390 221C378.955 221 370 212.045 370 201C370 200.207 370.046 199.425 370.136 198.656C371.296 208.597 379.748 216.312 390 216.312C400.252 216.312 408.704 208.597 409.864 198.656C409.955 199.434 410 200.217 410 201Z" fill="#FAEF86"/>
<path d="M382.205 198.765H397.796C398.991 198.765 399.962 199.735 399.962 200.93V200.969C399.962 206.445 395.516 210.891 390.039 210.891H390.001C384.503 210.891 380.04 206.428 380.04 200.93C380.04 199.735 381.01 198.765 382.205 198.765H382.205Z" fill="#473535"/>
<path d="M396.156 208.782C394.47 210.103 392.347 210.891 390.038 210.891H390C387.68 210.891 385.547 210.099 383.854 208.77C385.244 206.887 387.48 205.665 390 205.665C392.52 205.665 394.766 206.891 396.156 208.782Z" fill="#FF2727"/>
<path d="M398.878 199.055V199.631C398.878 201.066 397.715 202.23 396.28 202.23H383.72C382.285 202.23 381.122 201.066 381.122 199.631V199.055C381.441 198.871 381.81 198.766 382.205 198.766H397.796C398.19 198.766 398.56 198.871 398.879 199.055H398.878Z" fill="white"/>
<path d="M407.733 192.963C405.546 194.586 400.959 197.108 398.338 196.405C395.717 195.703 393.006 191.226 391.924 188.727C391.055 186.721 391.555 182.37 394.977 181.28C400.007 179.68 401.102 186.089 401.102 186.089C401.102 186.089 405.255 181.087 408.812 184.988C411.23 187.642 409.486 191.659 407.732 192.963H407.733ZM372.267 192.963C374.454 194.586 379.041 197.108 381.662 196.405C384.283 195.703 386.994 191.226 388.076 188.727C388.945 186.721 388.445 182.37 385.023 181.28C379.993 179.68 378.898 186.089 378.898 186.089C378.898 186.089 374.745 181.087 371.188 184.988C368.77 187.642 370.514 191.659 372.268 192.963H372.267Z" fill="#FF2727"/>
</g>
<defs>
<clipPath id="clip0_246_1930">
<rect width="40" height="40" fill="white" transform="translate(162 98)"/>
</clipPath>
<clipPath id="clip1_246_1930">
<rect width="40" height="40" fill="white" transform="translate(282 96)"/>
</clipPath>
<clipPath id="clip2_246_1930">
<rect width="40" height="40" fill="white" transform="translate(370 181)"/>
</clipPath>
</defs>
</svg>
