<svg width="70" height="70" viewBox="0 0 70 70" fill="none" xmlns="http://www.w3.org/2000/svg">
<g filter="url(#filter0_d_506_395)">
<rect x="9" y="5" width="52" height="52" rx="12" fill="url(#paint0_linear_506_395)"/>
<path d="M34.9362 44.1473C34.7792 44.3463 34.5787 44.5067 34.3501 44.6163C34.1215 44.7259 33.8709 44.7818 33.6174 44.7797H22.6933C22.1763 44.7797 21.6983 44.5559 21.3744 44.1473C21.2139 43.9491 21.1006 43.717 21.0431 43.4685C20.9856 43.22 20.9853 42.9617 21.0424 42.7131C21.34 41.3617 22.0191 40.124 22.999 39.147C23.979 38.17 25.2187 37.4946 26.5709 37.201C26.6534 37.1839 26.7387 37.1876 26.8194 37.2116C27.2457 37.334 27.6908 37.3976 28.1547 37.3976C28.6199 37.3976 29.065 37.334 29.4913 37.2116C29.5715 37.1874 29.6564 37.1833 29.7385 37.1998C31.0911 37.4934 32.3311 38.169 33.3112 39.1462C34.2914 40.1235 34.9706 41.3614 35.2683 42.7131C35.3837 43.2218 35.2601 43.747 34.9362 44.1473Z" fill="url(#paint1_linear_506_395)"/>
<path d="M30.577 34.8503C31.9143 33.513 31.9143 31.3448 30.577 30.0076C29.2398 28.6703 27.0716 28.6703 25.7343 30.0076C24.3971 31.3448 24.3971 33.513 25.7343 34.8503C27.0716 36.1876 29.2398 36.1876 30.577 34.8503Z" fill="url(#paint2_linear_506_395)"/>
<path d="M48.6243 31.5582C48.4672 31.7571 48.2667 31.9176 48.0381 32.0272C47.8095 32.1368 47.5589 32.1926 47.3054 32.1905H36.3825C35.8655 32.1905 35.3875 31.9668 35.0636 31.5582C34.9031 31.36 34.7898 31.1278 34.7323 30.8793C34.6748 30.6308 34.6745 30.3725 34.7316 30.1239C35.029 28.7723 35.708 27.5344 36.688 26.5572C37.6679 25.5799 38.9077 24.9044 40.2601 24.6107C40.3427 24.594 40.428 24.598 40.5086 24.6224C40.9349 24.7437 41.38 24.8085 41.844 24.8085C42.3091 24.8085 42.7542 24.7437 43.1805 24.6213C43.2608 24.5974 43.3457 24.5938 43.4278 24.6107C44.7803 24.9043 46.0203 25.5798 47.0005 26.5571C47.9806 27.5343 48.6598 28.7722 48.9575 30.1239C49.0729 30.6326 48.9481 31.1566 48.6243 31.5582Z" fill="url(#paint3_linear_506_395)"/>
<path d="M44.2655 22.264C45.6028 20.9268 45.6028 18.7586 44.2655 17.4213C42.9282 16.0841 40.7601 16.0841 39.4228 17.4213C38.0855 18.7586 38.0855 20.9268 39.4228 22.264C40.7601 23.6013 42.9282 23.6013 44.2655 22.264Z" fill="url(#paint4_linear_506_395)"/>
<path d="M42.4957 42.2186H38.9807C38.6684 42.2186 38.3689 42.0946 38.1481 41.8737C37.9273 41.6529 37.8032 41.3534 37.8032 41.0411C37.8032 40.7288 37.9273 40.4293 38.1481 40.2084C38.3689 39.9876 38.6684 39.8635 38.9807 39.8635H42.4957C42.5257 39.8635 42.5545 39.8516 42.5757 39.8304C42.5969 39.8092 42.6088 39.7805 42.6088 39.7505V36.1743C42.6088 35.862 42.7328 35.5625 42.9537 35.3416C43.1745 35.1208 43.474 34.9967 43.7863 34.9967C44.0986 34.9967 44.3981 35.1208 44.619 35.3416C44.8398 35.5625 44.9639 35.862 44.9639 36.1743V39.7505C44.9639 41.1117 43.857 42.2186 42.4957 42.2186ZM27.7352 26.2629C27.4229 26.2629 27.1233 26.1388 26.9025 25.918C26.6817 25.6971 26.5576 25.3976 26.5576 25.0853V21.5091C26.5576 20.1479 27.6645 19.0421 29.0258 19.0421H32.5419C32.8542 19.0421 33.1537 19.1662 33.3746 19.387C33.5954 19.6079 33.7195 19.9074 33.7195 20.2197C33.7195 20.532 33.5954 20.8315 33.3746 21.0523C33.1537 21.2732 32.8542 21.3972 32.5419 21.3972H29.0258C28.996 21.3972 28.9674 21.409 28.9462 21.4299C28.9251 21.4509 28.913 21.4793 28.9127 21.5091V25.0853C28.9127 25.3976 28.7886 25.6971 28.5678 25.918C28.347 26.1388 28.0475 26.2629 27.7352 26.2629Z" fill="url(#paint5_linear_506_395)"/>
</g>
<defs>
<filter id="filter0_d_506_395" x="0.2" y="0.2" width="69.6" height="69.6" filterUnits="userSpaceOnUse" color-interpolation-filters="sRGB">
<feFlood flood-opacity="0" result="BackgroundImageFix"/>
<feColorMatrix in="SourceAlpha" type="matrix" values="0 0 0 0 0 0 0 0 0 0 0 0 0 0 0 0 0 0 127 0" result="hardAlpha"/>
<feOffset dy="4"/>
<feGaussianBlur stdDeviation="4.4"/>
<feComposite in2="hardAlpha" operator="out"/>
<feColorMatrix type="matrix" values="0 0 0 0 0.980392 0 0 0 0 0.898039 0 0 0 0 0.933333 0 0 0 1 0"/>
<feBlend mode="normal" in2="BackgroundImageFix" result="effect1_dropShadow_506_395"/>
<feBlend mode="normal" in="SourceGraphic" in2="effect1_dropShadow_506_395" result="shape"/>
</filter>
<linearGradient id="paint0_linear_506_395" x1="35" y1="5" x2="35" y2="57" gradientUnits="userSpaceOnUse">
<stop stop-color="white"/>
<stop offset="1" stop-color="#FFFAFC"/>
</linearGradient>
<linearGradient id="paint1_linear_506_395" x1="28.1552" y1="37.1898" x2="28.1552" y2="44.7797" gradientUnits="userSpaceOnUse">
<stop stop-color="#F4CEDE"/>
<stop offset="1" stop-color="#9E5876"/>
</linearGradient>
<linearGradient id="paint2_linear_506_395" x1="25.7343" y1="30.0076" x2="30.577" y2="34.8503" gradientUnits="userSpaceOnUse">
<stop stop-color="#F4CEDE"/>
<stop offset="1" stop-color="#9E5876"/>
</linearGradient>
<linearGradient id="paint3_linear_506_395" x1="41.8444" y1="24.6002" x2="41.8444" y2="32.1906" gradientUnits="userSpaceOnUse">
<stop stop-color="#F4CEDE"/>
<stop offset="1" stop-color="#9E5876"/>
</linearGradient>
<linearGradient id="paint4_linear_506_395" x1="39.4228" y1="17.4213" x2="44.2655" y2="22.264" gradientUnits="userSpaceOnUse">
<stop stop-color="#F4CEDE"/>
<stop offset="1" stop-color="#9E5876"/>
</linearGradient>
<linearGradient id="paint5_linear_506_395" x1="35.7607" y1="19.0421" x2="35.7607" y2="42.2186" gradientUnits="userSpaceOnUse">
<stop stop-color="#F4CEDE"/>
<stop offset="1" stop-color="#9E5876"/>
</linearGradient>
</defs>
</svg>
