<svg width="566" height="203" viewBox="0 0 566 203" fill="none" xmlns="http://www.w3.org/2000/svg">
<path d="M1 131.994C7.02561 129.482 4.96915 128.462 14.6946 127.199C31.337 125.037 23.5972 103.715 40.4404 103.677C52.9475 103.648 52.3193 88.3003 64.5428 86.0921C77.303 83.787 83.834 97.9681 96.3142 94.7702C105.862 92.3237 105.045 81.2936 114.939 80.1545C122.95 79.2321 126.342 85.3903 134.385 86.0921C166.323 88.8787 139.027 37.2668 162.596 36.1152C186.165 34.9636 165.435 60.7233 198.202 63.2552C212.086 64.328 214.36 77.2929 230.521 77.6425C240.982 77.8687 240.673 93.7262 251.063 94.7702C265.857 96.2567 260.014 107.088 274.891 107.787C286.669 108.341 288.044 86.5539 296.255 86.0921C307.298 85.471 302.518 93.6921 313.51 94.7702C320.611 95.4666 329.67 79.0127 329.67 79.0127C336.397 69.5501 354.176 56.5309 371.474 80.1545C388.773 103.778 401.987 91.0539 406.431 81.7388C413.879 66.6657 432.067 35.7644 446.073 49.8873C460.08 64.0101 454.723 86.6931 473.463 86.6931C486.797 86.6931 498.689 71.8228 506.618 48.0844C514.546 24.3459 534.728 0.908001 565 76.3301" stroke="url(#paint0_linear_362_1565)" stroke-width="2" stroke-linecap="round"/>
<path d="M14.6946 127.436C4.96915 128.702 7.02561 129.725 1 132.243V180.715H565V76.4491C534.728 0.852137 514.546 24.3444 506.618 48.1379C498.689 71.9314 486.797 86.8361 473.463 86.8361C454.723 86.8361 460.08 64.1006 446.073 49.945C432.067 35.7894 413.879 66.7623 406.431 81.8704C401.987 91.2071 388.773 103.961 371.474 80.2824C354.176 56.604 336.397 69.6534 329.67 79.1379C329.67 79.1379 320.611 95.63 313.51 94.9319C302.518 93.8514 307.298 85.6112 296.255 86.2338C288.044 86.6967 286.669 108.534 274.891 107.979C260.014 107.279 265.857 96.4219 251.063 94.9319C240.673 93.8856 240.982 77.9913 230.521 77.7645C214.36 77.4141 212.086 64.4192 198.202 63.3439C165.435 60.8061 186.165 34.9867 162.596 36.141C139.027 37.2953 166.323 89.0268 134.385 86.2338C126.342 85.5304 122.95 79.3579 114.939 80.2824C105.045 81.4242 105.862 92.4798 96.3142 94.9319C83.834 98.1373 77.303 83.9233 64.5428 86.2338C52.3193 88.4471 52.9475 103.83 40.4404 103.859C23.5972 103.898 31.337 125.269 14.6946 127.436Z" fill="url(#paint1_linear_362_1565)"/>
<g filter="url(#filter0_d_362_1565)">
<ellipse cx="206.784" cy="64.5" rx="10.6703" ry="10.5" fill="white"/>
<path d="M214.491 64.5C214.491 68.6175 211.085 72.0365 206.784 72.0365C202.482 72.0365 199.077 68.6175 199.077 64.5C199.077 60.3825 202.482 56.9635 206.784 56.9635C211.085 56.9635 214.491 60.3825 214.491 64.5Z" stroke="url(#paint2_linear_362_1565)" stroke-width="5.92708"/>
</g>
<path d="M4.04297 199.498C2.57812 199.498 1.75195 198.59 1.66406 197.377L1.6582 197.295H2.71289L2.71875 197.354C2.7832 197.992 3.19922 198.525 4.03711 198.525C4.97461 198.525 5.47852 197.969 5.47852 196.938V190.902H6.5332V196.949C6.5332 198.549 5.60742 199.498 4.04297 199.498ZM9.67969 199.475C8.4668 199.475 7.65234 198.742 7.65234 197.635V197.623C7.65234 196.586 8.46094 195.936 9.86133 195.854L11.6074 195.754V195.244C11.6074 194.5 11.1211 194.049 10.2715 194.049C9.48633 194.049 8.99414 194.424 8.87695 194.969L8.86523 195.021H7.88086L7.88672 194.957C7.97461 193.955 8.84766 193.146 10.2832 193.146C11.7246 193.146 12.627 193.926 12.627 195.145V199.357H11.6074V198.367H11.584C11.2266 199.035 10.4941 199.475 9.67969 199.475ZM8.69531 197.635C8.69531 198.221 9.17578 198.59 9.9082 198.59C10.8691 198.59 11.6074 197.928 11.6074 197.043V196.545L9.97852 196.645C9.16406 196.691 8.69531 197.055 8.69531 197.623V197.635ZM13.9219 199.357V193.264H14.9414V194.131H14.9648C15.293 193.562 15.9141 193.146 16.8398 193.146C18.1758 193.146 18.9492 194.014 18.9492 195.402V199.357H17.9297V195.584C17.9297 194.594 17.4668 194.049 16.5293 194.049C15.5684 194.049 14.9414 194.734 14.9414 195.771V199.357H13.9219Z" fill="#C6C6C6"/>
<path d="M49.3237 199.357V190.902H54.4565V191.852H50.3784V194.758H54.1226V195.695H50.3784V199.357H49.3237ZM57.7788 199.475C56.0269 199.475 54.9722 198.25 54.9722 196.334V196.328C54.9722 194.441 56.0503 193.146 57.7144 193.146C59.3784 193.146 60.3921 194.383 60.3921 196.211V196.586H56.0034C56.0269 197.84 56.7183 198.572 57.8022 198.572C58.5757 198.572 59.1206 198.186 59.2964 197.664L59.314 197.611H60.3159L60.3042 197.67C60.105 198.678 59.1089 199.475 57.7788 199.475ZM57.7085 194.049C56.8237 194.049 56.1323 194.652 56.021 195.789H59.355C59.2554 194.605 58.5991 194.049 57.7085 194.049ZM64.4526 199.475C63.5796 199.475 62.8999 199.035 62.519 198.326H62.4956V199.357H61.4761V190.902H62.4956V194.283H62.519C62.8999 193.58 63.6089 193.146 64.4702 193.146C65.9995 193.146 67.0425 194.383 67.0425 196.305V196.311C67.0425 198.232 66.0112 199.475 64.4526 199.475ZM64.2534 198.572C65.3315 198.572 65.9995 197.711 65.9995 196.311V196.305C65.9995 194.916 65.3315 194.049 64.2534 194.049C63.228 194.049 62.4897 194.945 62.4897 196.305V196.311C62.4897 197.676 63.2222 198.572 64.2534 198.572Z" fill="#C6C6C6"/>
<path d="M96.9677 199.357V190.902H98.1864L101.116 198.027H101.151L104.081 190.902H105.3V199.357H104.315V192.824H104.28L101.579 199.357H100.688L97.9872 192.824H97.952V199.357H96.9677ZM108.388 199.475C107.175 199.475 106.36 198.742 106.36 197.635V197.623C106.36 196.586 107.169 195.936 108.569 195.854L110.315 195.754V195.244C110.315 194.5 109.829 194.049 108.979 194.049C108.194 194.049 107.702 194.424 107.585 194.969L107.573 195.021H106.589L106.595 194.957C106.682 193.955 107.556 193.146 108.991 193.146C110.432 193.146 111.335 193.926 111.335 195.145V199.357H110.315V198.367H110.292C109.934 199.035 109.202 199.475 108.388 199.475ZM107.403 197.635C107.403 198.221 107.884 198.59 108.616 198.59C109.577 198.59 110.315 197.928 110.315 197.043V196.545L108.686 196.645C107.872 196.691 107.403 197.055 107.403 197.623V197.635ZM112.63 199.357V193.264H113.649V194.295H113.673C113.878 193.592 114.405 193.146 115.091 193.146C115.266 193.146 115.419 193.176 115.501 193.188V194.178C115.419 194.148 115.202 194.119 114.956 194.119C114.165 194.119 113.649 194.67 113.649 195.596V199.357H112.63Z" fill="#C6C6C6"/>
<path d="M144.545 199.357L147.692 190.902H148.735L151.875 199.357H150.768L149.912 196.938H146.508L145.653 199.357H144.545ZM148.202 192.168L146.83 196.041H149.596L148.225 192.168H148.202ZM152.69 201.408V193.264H153.709V194.295H153.733C154.114 193.586 154.793 193.146 155.666 193.146C157.225 193.146 158.256 194.389 158.256 196.311V196.316C158.256 198.238 157.213 199.475 155.684 199.475C154.823 199.475 154.114 199.041 153.733 198.338H153.709V201.408H152.69ZM155.467 198.572C156.545 198.572 157.213 197.705 157.213 196.316V196.311C157.213 194.91 156.545 194.049 155.467 194.049C154.436 194.049 153.703 194.945 153.703 196.311V196.316C153.703 197.676 154.442 198.572 155.467 198.572ZM159.287 199.357V193.264H160.307V194.295H160.33C160.536 193.592 161.063 193.146 161.748 193.146C161.924 193.146 162.077 193.176 162.159 193.188V194.178C162.077 194.148 161.86 194.119 161.614 194.119C160.823 194.119 160.307 194.67 160.307 195.596V199.357H159.287Z" fill="#C6C6C6"/>
<path d="M191.81 199.357V190.902H193.029L195.959 198.027H195.994L198.924 190.902H200.142V199.357H199.158V192.824H199.123L196.422 199.357H195.531L192.83 192.824H192.795V199.357H191.81ZM203.23 199.475C202.017 199.475 201.203 198.742 201.203 197.635V197.623C201.203 196.586 202.011 195.936 203.412 195.854L205.158 195.754V195.244C205.158 194.5 204.672 194.049 203.822 194.049C203.037 194.049 202.545 194.424 202.427 194.969L202.416 195.021H201.431L201.437 194.957C201.525 193.955 202.398 193.146 203.834 193.146C205.275 193.146 206.177 193.926 206.177 195.145V199.357H205.158V198.367H205.135C204.777 199.035 204.045 199.475 203.23 199.475ZM202.246 197.635C202.246 198.221 202.726 198.59 203.459 198.59C204.42 198.59 205.158 197.928 205.158 197.043V196.545L203.529 196.645C202.715 196.691 202.246 197.055 202.246 197.623V197.635ZM208.058 201.408C207.859 201.408 207.642 201.385 207.513 201.361V200.529C207.601 200.547 207.719 200.564 207.842 200.564C208.486 200.564 208.844 200.4 209.09 199.709L209.213 199.363L206.951 193.264H208.041L209.722 198.338H209.746L211.433 193.264H212.506L210.127 199.738C209.693 200.904 209.16 201.408 208.058 201.408Z" fill="#C6C6C6"/>
<path d="M244.105 199.498C242.64 199.498 241.814 198.59 241.726 197.377L241.72 197.295H242.775L242.781 197.354C242.845 197.992 243.261 198.525 244.099 198.525C245.036 198.525 245.54 197.969 245.54 196.938V190.902H246.595V196.949C246.595 198.549 245.669 199.498 244.105 199.498ZM250.157 199.475C248.822 199.475 248.048 198.607 248.048 197.219V193.264H249.068V197.037C249.068 198.027 249.531 198.572 250.468 198.572C251.429 198.572 252.056 197.887 252.056 196.85V193.264H253.075V199.357H252.056V198.49H252.032C251.704 199.059 251.083 199.475 250.157 199.475ZM254.406 199.357V193.264H255.425V194.131H255.448C255.777 193.562 256.398 193.146 257.323 193.146C258.659 193.146 259.433 194.014 259.433 195.402V199.357H258.413V195.584C258.413 194.594 257.95 194.049 257.013 194.049C256.052 194.049 255.425 194.734 255.425 195.771V199.357H254.406Z" fill="#C6C6C6"/>
<path d="M291.499 199.498C290.034 199.498 289.208 198.59 289.12 197.377L289.114 197.295H290.169L290.175 197.354C290.239 197.992 290.655 198.525 291.493 198.525C292.43 198.525 292.934 197.969 292.934 196.938V190.902H293.989V196.949C293.989 198.549 293.063 199.498 291.499 199.498ZM297.552 199.475C296.216 199.475 295.442 198.607 295.442 197.219V193.264H296.462V197.037C296.462 198.027 296.925 198.572 297.862 198.572C298.823 198.572 299.45 197.887 299.45 196.85V193.264H300.469V199.357H299.45V198.49H299.427C299.098 199.059 298.477 199.475 297.552 199.475ZM301.852 199.357V190.902H302.872V199.357H301.852Z" fill="#C6C6C6"/>
<path d="M332.653 199.357L335.799 190.902H336.842L339.983 199.357H338.875L338.02 196.938H334.615L333.76 199.357H332.653ZM336.309 192.168L334.938 196.041H337.703L336.332 192.168H336.309ZM344.201 199.498C342.104 199.498 340.838 198.232 340.838 196.393V190.902H341.893V196.322C341.893 197.623 342.737 198.525 344.201 198.525C345.666 198.525 346.498 197.623 346.498 196.322V190.902H347.553V196.393C347.553 198.232 346.299 199.498 344.201 199.498ZM352.739 199.498C350.377 199.498 348.865 197.781 348.865 195.086V195.08C348.865 192.438 350.377 190.762 352.739 190.762C354.684 190.762 355.85 191.881 356.242 193.375L356.272 193.486H355.164L355.141 193.422C354.748 192.35 353.928 191.734 352.739 191.734C350.998 191.734 349.944 192.994 349.944 195.08V195.086C349.944 197.213 351.016 198.525 352.739 198.525C354.239 198.525 355.27 197.553 355.27 196.135V195.982H352.885V195.057H356.324V195.859C356.324 198.145 354.994 199.498 352.739 199.498Z" fill="#C6C6C6"/>
<path d="M389.375 199.498C387.547 199.498 386.31 198.602 386.205 197.154L386.199 197.072H387.254L387.265 197.154C387.388 198.004 388.209 198.525 389.433 198.525C390.652 198.525 391.42 197.975 391.42 197.102V197.096C391.42 196.352 390.933 195.936 389.773 195.678L388.836 195.473C387.183 195.109 386.41 194.365 386.41 193.129V193.123C386.416 191.734 387.646 190.762 389.386 190.762C391.039 190.762 392.246 191.717 392.339 193.1L392.345 193.188H391.291L391.279 193.105C391.15 192.244 390.429 191.734 389.357 191.734C388.226 191.74 387.488 192.279 387.488 193.094V193.1C387.488 193.791 387.998 194.225 389.099 194.465L390.037 194.67C391.771 195.051 392.498 195.754 392.498 197.043V197.049C392.498 198.549 391.308 199.498 389.375 199.498ZM393.734 199.357V190.902H398.972V191.852H394.789V194.564H398.755V195.502H394.789V198.408H398.972V199.357H393.734ZM400.367 199.357V190.902H403.379C404.966 190.902 406.091 191.998 406.091 193.604V193.615C406.091 195.221 404.966 196.34 403.379 196.34H401.422V199.357H400.367ZM403.109 191.84H401.422V195.402H403.109C404.316 195.402 405.013 194.74 405.013 193.627V193.615C405.013 192.502 404.316 191.84 403.109 191.84Z" fill="#C6C6C6"/>
<path d="M439.696 199.498C437.294 199.498 435.794 197.816 435.794 195.133V195.121C435.794 192.443 437.3 190.762 439.696 190.762C442.087 190.762 443.587 192.443 443.587 195.121V195.133C443.587 197.816 442.093 199.498 439.696 199.498ZM439.696 198.525C441.437 198.525 442.509 197.195 442.509 195.133V195.121C442.509 193.047 441.419 191.734 439.696 191.734C437.968 191.734 436.872 193.041 436.872 195.121V195.133C436.872 197.213 437.962 198.525 439.696 198.525ZM448.433 199.498C446.083 199.498 444.571 197.787 444.571 195.127V195.121C444.571 192.461 446.077 190.762 448.433 190.762C450.19 190.762 451.556 191.828 451.878 193.428L451.89 193.486H450.823L450.782 193.357C450.454 192.332 449.622 191.734 448.433 191.734C446.745 191.734 445.655 193.064 445.655 195.121V195.127C445.655 197.184 446.751 198.525 448.433 198.525C449.616 198.525 450.437 197.939 450.806 196.826L450.823 196.773H451.89L451.878 196.832C451.556 198.449 450.202 199.498 448.433 199.498ZM454.866 199.357V191.852H452.2V190.902H458.587V191.852H455.921V199.357H454.866Z" fill="#C6C6C6"/>
<path d="M488.643 199.357V190.902H489.668L494.321 197.576H494.35V190.902H495.393V199.357H494.368L489.715 192.684H489.686V199.357H488.643ZM500.608 199.498C498.206 199.498 496.706 197.816 496.706 195.133V195.121C496.706 192.443 498.211 190.762 500.608 190.762C502.999 190.762 504.499 192.443 504.499 195.121V195.133C504.499 197.816 503.004 199.498 500.608 199.498ZM500.608 198.525C502.348 198.525 503.42 197.195 503.42 195.133V195.121C503.42 193.047 502.331 191.734 500.608 191.734C498.879 191.734 497.784 193.041 497.784 195.121V195.133C497.784 197.213 498.874 198.525 500.608 198.525ZM507.961 199.357L504.844 190.902H505.952L508.471 198.092H508.495L511.014 190.902H512.122L509.004 199.357H507.961Z" fill="#C6C6C6"/>
<path d="M542.312 199.357V190.902H545.154C547.656 190.902 549.145 192.461 549.145 195.115V195.127C549.145 197.793 547.668 199.357 545.154 199.357H542.312ZM543.367 198.408H545.084C547 198.408 548.066 197.236 548.066 195.139V195.127C548.066 193.018 547 191.852 545.084 191.852H543.367V198.408ZM550.457 199.357V190.902H555.695V191.852H551.512V194.564H555.479V195.502H551.512V198.408H555.695V199.357H550.457ZM560.623 199.498C558.273 199.498 556.762 197.787 556.762 195.127V195.121C556.762 192.461 558.268 190.762 560.623 190.762C562.381 190.762 563.746 191.828 564.068 193.428L564.08 193.486H563.014L562.973 193.357C562.645 192.332 561.812 191.734 560.623 191.734C558.936 191.734 557.846 193.064 557.846 195.121V195.127C557.846 197.184 558.941 198.525 560.623 198.525C561.807 198.525 562.627 197.939 562.996 196.826L563.014 196.773H564.08L564.068 196.832C563.746 198.449 562.393 199.498 560.623 199.498Z" fill="#C6C6C6"/>
<g filter="url(#filter1_bd_362_1565)">
<rect x="223" y="38" width="144" height="50" rx="8" fill="white"/>
<rect x="231" y="46" width="34" height="34" rx="5" fill="#ECEBFC"/>
<path d="M280.532 50.874C280.532 51.266 280.448 51.6253 280.28 51.952C280.112 52.2693 279.874 52.5493 279.566 52.792C279.958 53.0627 280.261 53.394 280.476 53.786C280.691 54.178 280.798 54.612 280.798 55.088C280.798 55.536 280.705 55.9467 280.518 56.32C280.331 56.6933 280.07 57.0153 279.734 57.286C279.407 57.5567 279.02 57.7713 278.572 57.93C278.133 58.0793 277.657 58.154 277.144 58.154C276.659 58.154 276.201 58.084 275.772 57.944C275.352 57.804 274.979 57.6127 274.652 57.37C274.335 57.118 274.078 56.8193 273.882 56.474C273.686 56.1287 273.579 55.7553 273.56 55.354L275.45 55.214C275.534 55.5873 275.73 55.8907 276.038 56.124C276.355 56.348 276.724 56.46 277.144 56.46C277.676 56.46 278.115 56.3247 278.46 56.054C278.805 55.774 278.978 55.424 278.978 55.004C278.978 54.584 278.805 54.2387 278.46 53.968C278.115 53.6973 277.676 53.562 277.144 53.562H276.626L276.64 52.092H277.144C277.62 52.092 278.007 51.98 278.306 51.756C278.605 51.5227 278.754 51.2287 278.754 50.874C278.754 50.5193 278.6 50.2253 278.292 49.992C277.984 49.7493 277.592 49.628 277.116 49.628C276.789 49.628 276.481 49.7073 276.192 49.866C275.903 50.0153 275.693 50.23 275.562 50.51L273.756 50.398C273.812 50.0527 273.933 49.7353 274.12 49.446C274.316 49.1567 274.563 48.9093 274.862 48.704C275.161 48.4893 275.501 48.3213 275.884 48.2C276.267 48.0787 276.677 48.018 277.116 48.018C277.611 48.018 278.068 48.0927 278.488 48.242C278.908 48.382 279.267 48.578 279.566 48.83C279.874 49.082 280.112 49.3853 280.28 49.74C280.448 50.0853 280.532 50.4633 280.532 50.874ZM289.644 54.822C289.644 55.886 289.331 56.7073 288.706 57.286C288.09 57.8647 287.222 58.154 286.102 58.154C284.982 58.154 284.1 57.916 283.456 57.44C282.812 56.964 282.462 56.292 282.406 55.424L284.128 55.214C284.221 55.634 284.436 55.9467 284.772 56.152C285.117 56.3573 285.561 56.46 286.102 56.46C286.69 56.46 287.143 56.32 287.46 56.04C287.777 55.76 287.936 55.354 287.936 54.822C287.936 54.3833 287.777 54.0473 287.46 53.814C287.143 53.5807 286.69 53.464 286.102 53.464H284.17V53.45L282.84 53.464L283.498 48.2H289.294V49.936H285.024L284.772 51.924H286.102C287.222 51.924 288.09 52.176 288.706 52.68C289.331 53.184 289.644 53.898 289.644 54.822ZM293.394 53.17C293.039 53.17 292.713 53.114 292.414 53.002C292.125 52.8807 291.877 52.7173 291.672 52.512C291.467 52.2973 291.308 52.05 291.196 51.77C291.084 51.49 291.028 51.1867 291.028 50.86C291.028 50.5333 291.084 50.23 291.196 49.95C291.308 49.6607 291.467 49.4133 291.672 49.208C291.877 48.9933 292.125 48.8253 292.414 48.704C292.713 48.5827 293.039 48.522 293.394 48.522C293.749 48.522 294.071 48.5827 294.36 48.704C294.659 48.8253 294.911 48.9933 295.116 49.208C295.331 49.4133 295.494 49.6607 295.606 49.95C295.718 50.23 295.774 50.5333 295.774 50.86C295.774 51.1867 295.718 51.49 295.606 51.77C295.494 52.05 295.331 52.2973 295.116 52.512C294.911 52.7173 294.663 52.8807 294.374 53.002C294.085 53.114 293.758 53.17 293.394 53.17ZM292.484 58L298.448 48.662H299.498L293.52 58H292.484ZM293.394 52.106C293.721 52.106 293.991 51.9987 294.206 51.784C294.421 51.56 294.528 51.252 294.528 50.86C294.528 50.4587 294.421 50.146 294.206 49.922C293.991 49.698 293.721 49.586 293.394 49.586C293.067 49.586 292.797 49.698 292.582 49.922C292.377 50.146 292.274 50.4587 292.274 50.86C292.274 51.2427 292.377 51.546 292.582 51.77C292.797 51.994 293.067 52.106 293.394 52.106ZM298.518 58.168C298.163 58.168 297.837 58.112 297.538 58C297.249 57.8787 297.001 57.7153 296.796 57.51C296.591 57.2953 296.432 57.048 296.32 56.768C296.208 56.488 296.152 56.1847 296.152 55.858C296.152 55.522 296.208 55.214 296.32 54.934C296.432 54.6447 296.591 54.3973 296.796 54.192C297.001 53.9773 297.249 53.814 297.538 53.702C297.837 53.5807 298.163 53.52 298.518 53.52C298.873 53.52 299.195 53.5807 299.484 53.702C299.773 53.814 300.021 53.9773 300.226 54.192C300.441 54.3973 300.604 54.6447 300.716 54.934C300.828 55.214 300.884 55.522 300.884 55.858C300.884 56.1847 300.828 56.488 300.716 56.768C300.604 57.048 300.445 57.2953 300.24 57.51C300.035 57.7153 299.783 57.8787 299.484 58C299.195 58.112 298.873 58.168 298.518 58.168ZM298.518 57.104C298.845 57.104 299.115 56.9967 299.33 56.782C299.545 56.558 299.652 56.25 299.652 55.858C299.652 55.4567 299.545 55.144 299.33 54.92C299.115 54.696 298.845 54.584 298.518 54.584C298.191 54.584 297.921 54.696 297.706 54.92C297.491 55.144 297.384 55.4567 297.384 55.858C297.384 56.2407 297.487 56.544 297.692 56.768C297.907 56.992 298.182 57.104 298.518 57.104ZM307.446 54.612V58H305.626V48.2H309.182C309.63 48.2 310.045 48.284 310.428 48.452C310.82 48.62 311.16 48.8487 311.45 49.138C311.739 49.4273 311.968 49.768 312.136 50.16C312.304 50.5427 312.388 50.958 312.388 51.406C312.388 51.8447 312.304 52.26 312.136 52.652C311.968 53.044 311.739 53.3847 311.45 53.674C311.16 53.9633 310.82 54.192 310.428 54.36C310.045 54.528 309.63 54.612 309.182 54.612H307.446ZM309.182 52.862C309.387 52.862 309.578 52.8247 309.756 52.75C309.933 52.6753 310.087 52.5727 310.218 52.442C310.358 52.302 310.465 52.1433 310.54 51.966C310.614 51.7887 310.652 51.602 310.652 51.406C310.652 51.2007 310.614 51.0093 310.54 50.832C310.465 50.6547 310.358 50.5007 310.218 50.37C310.087 50.23 309.933 50.1227 309.756 50.048C309.578 49.9733 309.387 49.936 309.182 49.936H307.446V52.862H309.182ZM317.471 52.652C317.378 52.624 317.275 52.61 317.163 52.61C316.603 52.61 316.132 52.7687 315.749 53.086C315.367 53.394 315.175 53.842 315.175 54.43V58H313.439V51H315.175V52.26C315.325 51.9333 315.581 51.644 315.945 51.392C316.319 51.1307 316.795 51 317.373 51H317.597L317.471 52.652ZM321.672 58.196C321.159 58.196 320.678 58.1027 320.23 57.916C319.782 57.72 319.39 57.454 319.054 57.118C318.718 56.782 318.452 56.39 318.256 55.942C318.07 55.494 317.976 55.018 317.976 54.514C317.976 54.01 318.07 53.534 318.256 53.086C318.452 52.638 318.718 52.246 319.054 51.91C319.39 51.574 319.782 51.3127 320.23 51.126C320.678 50.93 321.159 50.832 321.672 50.832C322.176 50.832 322.648 50.93 323.086 51.126C323.534 51.3127 323.926 51.574 324.262 51.91C324.598 52.246 324.86 52.638 325.046 53.086C325.242 53.534 325.34 54.01 325.34 54.514C325.34 55.018 325.242 55.494 325.046 55.942C324.86 56.39 324.598 56.782 324.262 57.118C323.926 57.454 323.534 57.72 323.086 57.916C322.648 58.1027 322.176 58.196 321.672 58.196ZM321.658 56.46C321.929 56.46 322.181 56.4087 322.414 56.306C322.657 56.2033 322.867 56.068 323.044 55.9C323.222 55.7227 323.362 55.5173 323.464 55.284C323.567 55.0413 323.618 54.7847 323.618 54.514C323.618 54.2433 323.567 53.9913 323.464 53.758C323.362 53.5153 323.222 53.3053 323.044 53.128C322.867 52.9507 322.657 52.8107 322.414 52.708C322.181 52.6053 321.929 52.554 321.658 52.554C321.388 52.554 321.131 52.6053 320.888 52.708C320.655 52.8107 320.45 52.9507 320.272 53.128C320.104 53.3053 319.969 53.5153 319.866 53.758C319.764 53.9913 319.712 54.2433 319.712 54.514C319.712 54.7847 319.764 55.0413 319.866 55.284C319.969 55.5173 320.104 55.7227 320.272 55.9C320.45 56.068 320.655 56.2033 320.888 56.306C321.131 56.4087 321.388 56.46 321.658 56.46ZM332.988 49.376C332.736 49.376 332.516 49.2873 332.33 49.11C332.152 48.9327 332.064 48.7133 332.064 48.452C332.064 48.1907 332.152 47.9713 332.33 47.794C332.516 47.6073 332.736 47.514 332.988 47.514C333.24 47.514 333.454 47.6073 333.632 47.794C333.818 47.9713 333.912 48.1907 333.912 48.452C333.912 48.7133 333.818 48.9327 333.632 49.11C333.454 49.2873 333.24 49.376 332.988 49.376ZM327.598 52.554H326.436V51H327.598V50.37C327.598 49.9033 327.644 49.5207 327.738 49.222C327.84 48.914 327.985 48.6713 328.172 48.494C328.368 48.3167 328.601 48.1953 328.872 48.13C329.142 48.0553 329.45 48.018 329.796 48.018C329.964 48.018 330.136 48.0273 330.314 48.046C330.5 48.0553 330.696 48.0693 330.902 48.088V49.67C330.78 49.6607 330.668 49.6513 330.566 49.642C330.463 49.6327 330.36 49.628 330.258 49.628C329.95 49.628 329.716 49.6887 329.558 49.81C329.399 49.9313 329.32 50.1553 329.32 50.482V51H330.888V52.554H329.32V58H327.598V52.554ZM332.106 51H333.842V58H332.106V51ZM339.777 58C339.572 58.0187 339.376 58.0327 339.189 58.042C339.012 58.0607 338.839 58.07 338.671 58.07C338.326 58.07 338.013 58.0373 337.733 57.972C337.462 57.8973 337.229 57.7713 337.033 57.594C336.846 57.4167 336.702 57.1787 336.599 56.88C336.506 56.572 336.459 56.1847 336.459 55.718V52.554H335.143V51H336.459V49.278L338.195 48.69V51H339.749V52.554H338.195V55.606C338.195 55.9327 338.274 56.1567 338.433 56.278C338.592 56.39 338.825 56.446 339.133 56.446C339.31 56.446 339.525 56.432 339.777 56.404V58Z" fill="#0D9D05"/>
<path d="M274.044 75H273.168L276.324 66.408H277.392L280.584 75H279.684L278.844 72.72H274.884L274.044 75ZM276.744 67.62L275.148 71.964H278.568L276.96 67.62C276.944 67.556 276.924 67.492 276.9 67.428C276.876 67.364 276.86 67.312 276.852 67.272C276.844 67.312 276.828 67.368 276.804 67.44C276.788 67.504 276.768 67.564 276.744 67.62ZM282.426 75H281.598V69.192H282.318L282.438 70.2C282.63 69.832 282.902 69.548 283.254 69.348C283.614 69.14 284.006 69.036 284.43 69.036C285.23 69.036 285.806 69.256 286.158 69.696C286.51 70.136 286.686 70.72 286.686 71.448V75H285.858V71.628C285.858 70.948 285.714 70.472 285.426 70.2C285.146 69.928 284.766 69.792 284.286 69.792C283.694 69.792 283.234 69.992 282.906 70.392C282.586 70.784 282.426 71.308 282.426 71.964V75ZM289.165 75H288.337V69.192H289.057L289.177 70.2C289.369 69.832 289.641 69.548 289.993 69.348C290.353 69.14 290.745 69.036 291.169 69.036C291.969 69.036 292.545 69.256 292.897 69.696C293.249 70.136 293.425 70.72 293.425 71.448V75H292.597V71.628C292.597 70.948 292.453 70.472 292.165 70.2C291.885 69.928 291.505 69.792 291.025 69.792C290.433 69.792 289.973 69.992 289.645 70.392C289.325 70.784 289.165 71.308 289.165 71.964V75ZM299.155 69.192H299.983V75H299.263L299.155 74.016C298.995 74.352 298.727 74.624 298.351 74.832C297.983 75.04 297.571 75.144 297.115 75.144C296.435 75.144 295.911 74.928 295.543 74.496C295.183 74.064 295.003 73.496 295.003 72.792V69.18H295.843V72.528C295.843 73.216 295.983 73.7 296.263 73.98C296.551 74.26 296.923 74.4 297.379 74.4C297.939 74.4 298.375 74.22 298.687 73.86C298.999 73.492 299.155 72.964 299.155 72.276V69.192ZM303.376 75.144C302.76 75.144 302.276 74.984 301.924 74.664C301.58 74.344 301.408 73.932 301.408 73.428C301.408 72.892 301.6 72.464 301.984 72.144C302.368 71.824 302.9 71.636 303.58 71.58L305.5 71.424V71.232C305.5 70.848 305.432 70.548 305.296 70.332C305.16 70.108 304.976 69.952 304.744 69.864C304.512 69.776 304.252 69.732 303.964 69.732C303.452 69.732 303.056 69.84 302.776 70.056C302.496 70.272 302.356 70.576 302.356 70.968H301.6C301.6 70.576 301.7 70.236 301.9 69.948C302.1 69.66 302.38 69.436 302.74 69.276C303.1 69.116 303.516 69.036 303.988 69.036C304.444 69.036 304.844 69.116 305.188 69.276C305.532 69.428 305.804 69.668 306.004 69.996C306.212 70.316 306.316 70.732 306.316 71.244V75H305.62L305.512 73.98C305.336 74.348 305.056 74.636 304.672 74.844C304.296 75.044 303.864 75.144 303.376 75.144ZM303.568 74.472C304.184 74.472 304.66 74.276 304.996 73.884C305.332 73.492 305.5 72.984 305.5 72.36V72.048L303.784 72.18C303.24 72.228 302.848 72.364 302.608 72.588C302.368 72.812 302.248 73.084 302.248 73.404C302.248 73.756 302.368 74.024 302.608 74.208C302.848 74.384 303.168 74.472 303.568 74.472ZM308.841 75H308.013V66.252H308.841V75ZM314.974 75H314.11V66.408H317.314C318.178 66.408 318.858 66.632 319.354 67.08C319.858 67.52 320.11 68.124 320.11 68.892C320.11 69.508 319.954 70.024 319.642 70.44C319.338 70.856 318.91 71.14 318.358 71.292L320.194 75H319.234L317.482 71.436H314.974V75ZM314.974 67.188V70.656H317.338C317.93 70.656 318.39 70.5 318.718 70.188C319.054 69.876 319.222 69.452 319.222 68.916C319.222 68.356 319.05 67.928 318.706 67.632C318.362 67.336 317.898 67.188 317.314 67.188H314.974ZM323.62 75.144C323.06 75.144 322.564 75.016 322.132 74.76C321.708 74.504 321.376 74.148 321.136 73.692C320.896 73.236 320.776 72.704 320.776 72.096C320.776 71.496 320.892 70.968 321.124 70.512C321.364 70.048 321.692 69.688 322.108 69.432C322.524 69.168 323.008 69.036 323.56 69.036C324.088 69.036 324.548 69.152 324.94 69.384C325.34 69.616 325.648 69.94 325.864 70.356C326.088 70.764 326.2 71.244 326.2 71.796V72.204H321.232L321.256 71.604H325.372C325.372 71.044 325.204 70.596 324.868 70.26C324.54 69.916 324.104 69.744 323.56 69.744C323.16 69.744 322.808 69.836 322.504 70.02C322.208 70.204 321.98 70.468 321.82 70.812C321.66 71.148 321.58 71.548 321.58 72.012C321.58 72.78 321.756 73.376 322.108 73.8C322.468 74.224 322.976 74.436 323.632 74.436C324.104 74.436 324.492 74.336 324.796 74.136C325.1 73.936 325.304 73.644 325.408 73.26H326.2C326.048 73.868 325.752 74.336 325.312 74.664C324.872 74.984 324.308 75.144 323.62 75.144ZM328.98 75L326.604 69.192H327.492L328.992 72.936C329.08 73.152 329.156 73.36 329.22 73.56C329.292 73.752 329.356 73.944 329.412 74.136C329.468 73.936 329.532 73.74 329.604 73.548C329.676 73.348 329.756 73.144 329.844 72.936L331.368 69.192H332.22L329.808 75H328.98ZM335.374 75.144C334.814 75.144 334.318 75.016 333.886 74.76C333.462 74.504 333.13 74.148 332.89 73.692C332.65 73.236 332.53 72.704 332.53 72.096C332.53 71.496 332.646 70.968 332.878 70.512C333.118 70.048 333.446 69.688 333.862 69.432C334.278 69.168 334.762 69.036 335.314 69.036C335.842 69.036 336.302 69.152 336.694 69.384C337.094 69.616 337.402 69.94 337.618 70.356C337.842 70.764 337.954 71.244 337.954 71.796V72.204H332.986L333.01 71.604H337.126C337.126 71.044 336.958 70.596 336.622 70.26C336.294 69.916 335.858 69.744 335.314 69.744C334.914 69.744 334.562 69.836 334.258 70.02C333.962 70.204 333.734 70.468 333.574 70.812C333.414 71.148 333.334 71.548 333.334 72.012C333.334 72.78 333.51 73.376 333.862 73.8C334.222 74.224 334.73 74.436 335.386 74.436C335.858 74.436 336.246 74.336 336.55 74.136C336.854 73.936 337.058 73.644 337.162 73.26H337.954C337.802 73.868 337.506 74.336 337.066 74.664C336.626 74.984 336.062 75.144 335.374 75.144ZM340.106 75H339.278V69.192H339.998L340.118 70.2C340.31 69.832 340.582 69.548 340.934 69.348C341.294 69.14 341.686 69.036 342.11 69.036C342.91 69.036 343.486 69.256 343.838 69.696C344.19 70.136 344.366 70.72 344.366 71.448V75H343.538V71.628C343.538 70.948 343.394 70.472 343.106 70.2C342.826 69.928 342.446 69.792 341.966 69.792C341.374 69.792 340.914 69.992 340.586 70.392C340.266 70.784 340.106 71.308 340.106 71.964V75ZM350.096 69.192H350.924V75H350.204L350.096 74.016C349.936 74.352 349.668 74.624 349.292 74.832C348.924 75.04 348.512 75.144 348.056 75.144C347.376 75.144 346.852 74.928 346.484 74.496C346.124 74.064 345.944 73.496 345.944 72.792V69.18H346.784V72.528C346.784 73.216 346.924 73.7 347.204 73.98C347.492 74.26 347.864 74.4 348.32 74.4C348.88 74.4 349.316 74.22 349.628 73.86C349.94 73.492 350.096 72.964 350.096 72.276V69.192ZM354.968 75.144C354.408 75.144 353.912 75.016 353.48 74.76C353.056 74.504 352.724 74.148 352.484 73.692C352.244 73.236 352.124 72.704 352.124 72.096C352.124 71.496 352.24 70.968 352.472 70.512C352.712 70.048 353.04 69.688 353.456 69.432C353.872 69.168 354.356 69.036 354.908 69.036C355.436 69.036 355.896 69.152 356.288 69.384C356.688 69.616 356.996 69.94 357.212 70.356C357.436 70.764 357.548 71.244 357.548 71.796V72.204H352.58L352.604 71.604H356.72C356.72 71.044 356.552 70.596 356.216 70.26C355.888 69.916 355.452 69.744 354.908 69.744C354.508 69.744 354.156 69.836 353.852 70.02C353.556 70.204 353.328 70.468 353.168 70.812C353.008 71.148 352.928 71.548 352.928 72.012C352.928 72.78 353.104 73.376 353.456 73.8C353.816 74.224 354.324 74.436 354.98 74.436C355.452 74.436 355.84 74.336 356.144 74.136C356.448 73.936 356.652 73.644 356.756 73.26H357.548C357.396 73.868 357.1 74.336 356.66 74.664C356.22 74.984 355.656 75.144 354.968 75.144Z" fill="#4E6465"/>
</g>
<defs>
<filter id="filter0_d_362_1565" x="182.643" y="43.2235" width="48.2819" height="47.9413" filterUnits="userSpaceOnUse" color-interpolation-filters="sRGB">
<feFlood flood-opacity="0" result="BackgroundImageFix"/>
<feColorMatrix in="SourceAlpha" type="matrix" values="0 0 0 0 0 0 0 0 0 0 0 0 0 0 0 0 0 0 127 0" result="hardAlpha"/>
<feOffset dy="2.69413"/>
<feGaussianBlur stdDeviation="6.73532"/>
<feColorMatrix type="matrix" values="0 0 0 0 0 0 0 0 0 0 0 0 0 0 0 0 0 0 0.1 0"/>
<feBlend mode="normal" in2="BackgroundImageFix" result="effect1_dropShadow_362_1565"/>
<feBlend mode="normal" in="SourceGraphic" in2="effect1_dropShadow_362_1565" result="shape"/>
</filter>
<filter id="filter1_bd_362_1565" x="183.1" y="0.1" width="227.8" height="133.8" filterUnits="userSpaceOnUse" color-interpolation-filters="sRGB">
<feFlood flood-opacity="0" result="BackgroundImageFix"/>
<feGaussianBlur in="BackgroundImageFix" stdDeviation="10.7"/>
<feComposite in2="SourceAlpha" operator="in" result="effect1_backgroundBlur_362_1565"/>
<feColorMatrix in="SourceAlpha" type="matrix" values="0 0 0 0 0 0 0 0 0 0 0 0 0 0 0 0 0 0 127 0" result="hardAlpha"/>
<feMorphology radius="20" operator="dilate" in="SourceAlpha" result="effect2_dropShadow_362_1565"/>
<feOffset dx="2" dy="4"/>
<feGaussianBlur stdDeviation="10.95"/>
<feComposite in2="hardAlpha" operator="out"/>
<feColorMatrix type="matrix" values="0 0 0 0 0.852734 0 0 0 0 0.852734 0 0 0 0 0.852734 0 0 0 0.25 0"/>
<feBlend mode="normal" in2="effect1_backgroundBlur_362_1565" result="effect2_dropShadow_362_1565"/>
<feBlend mode="normal" in="SourceGraphic" in2="effect2_dropShadow_362_1565" result="shape"/>
</filter>
<linearGradient id="paint0_linear_362_1565" x1="165.335" y1="21.6416" x2="165.335" y2="131.994" gradientUnits="userSpaceOnUse">
<stop stop-color="#4F46E5"/>
<stop offset="1" stop-color="#ADA9FF"/>
</linearGradient>
<linearGradient id="paint1_linear_362_1565" x1="283" y1="25" x2="283" y2="180.715" gradientUnits="userSpaceOnUse">
<stop stop-color="#F1F0FF"/>
<stop offset="1" stop-color="white"/>
</linearGradient>
<linearGradient id="paint2_linear_362_1565" x1="206.784" y1="54" x2="206.784" y2="75" gradientUnits="userSpaceOnUse">
<stop stop-color="#4F46E5"/>
<stop offset="1" stop-color="#ADA9FF"/>
</linearGradient>
</defs>
</svg>
