<svg width="33" height="38" viewBox="0 0 33 38" fill="none" xmlns="http://www.w3.org/2000/svg">
<path fill-rule="evenodd" clip-rule="evenodd" d="M0 27.0483V10.9518C0 10.0407 0.486082 9.19881 1.27514 8.74328L15.2161 0.6949C16.0051 0.239395 16.9771 0.239396 17.7661 0.694901L26.4368 5.70065V12.475C26.4368 12.6239 26.3718 12.7654 26.2587 12.8623L21.3284 17.0883C20.9975 17.3719 20.4864 17.1368 20.4864 16.701V8.11932C20.4864 7.83763 20.2581 7.60928 19.9764 7.60928L17.5962 7.60928C17.3145 7.60928 17.0862 7.83763 17.0862 8.11932V12.475C17.0862 12.6239 17.0211 12.7654 16.9081 12.8623L11.9778 17.0883C11.6469 17.3719 11.1358 17.1368 11.1358 16.701V13.2197C11.1358 12.938 10.9074 12.7096 10.6258 12.7096H8.2456C7.96391 12.7096 7.73556 12.938 7.73556 13.2197V25.8005C7.73556 26.0822 7.96391 26.3105 8.2456 26.3105H10.6258C10.9074 26.3105 11.1358 26.0822 11.1358 25.8005V22.2124C11.1358 22.062 11.2021 21.9193 11.3171 21.8224L16.2475 17.6668C16.5791 17.3873 17.0862 17.6231 17.0862 18.0568V30.9008C17.0862 31.1825 17.3145 31.4109 17.5962 31.4109L19.9764 31.4109C20.2581 31.4109 20.4864 31.1825 20.4864 30.9008V22.2948C20.4864 22.1459 20.5515 22.0045 20.6645 21.9076L25.5949 17.6816C25.9257 17.398 26.4368 17.6331 26.4368 18.0688V32.2995L17.7661 37.3053C16.9771 37.7608 16.0051 37.7608 15.2161 37.3053L1.27514 29.2569C0.486081 28.8013 0 27.9594 0 27.0483ZM29.837 30.3365L31.7071 29.2569C32.4961 28.8013 32.9822 27.9594 32.9822 27.0483V10.9518C32.9822 10.0407 32.4961 9.19881 31.7071 8.74328L29.837 7.66367V30.3365Z" fill="url(#paint0_linear_591_2777)"/>
<defs>
<linearGradient id="paint0_linear_591_2777" x1="7.23072" y1="3.39778" x2="28.4154" y2="34.2235" gradientUnits="userSpaceOnUse">
<stop stop-color="#185A87"/>
<stop offset="1" stop-color="#24E3EA"/>
</linearGradient>
</defs>
</svg>
