<svg width="1223" height="197" viewBox="0 0 1223 197" fill="none" xmlns="http://www.w3.org/2000/svg">
<mask id="path-1-outside-1_90_4211" maskUnits="userSpaceOnUse" x="-1" y="-1" width="1225" height="199" fill="black">
<rect fill="white" x="-1" y="-1" width="1225" height="199"/>
<path d="M0.0359264 29.1516C0.0359264 19.6744 3.40762 12.4754 10.151 7.55451C17.0766 2.63366 27.1006 0.173238 40.2229 0.173238V80.2737H117.043V29.1516C117.043 19.6744 120.414 12.4754 127.158 7.55451C134.083 2.63366 144.107 0.173238 157.23 0.173238V167.482C157.23 176.959 153.767 184.158 146.841 189.079C140.098 194 130.165 196.46 117.043 196.46V114.993H40.2229V167.482C40.2229 176.959 36.76 184.158 29.8344 189.079C23.091 194 13.1582 196.46 0.0359264 196.46V29.1516ZM311.025 168.029C311.025 177.142 308.018 184.158 302.004 189.079C295.99 194 287.059 196.46 275.213 196.46V180.331C277.946 177.415 280.225 174.317 282.047 171.036L280.133 169.943C268.651 187.621 253.16 196.46 233.659 196.46C224.546 196.46 216.254 194.365 208.781 190.173C201.309 185.799 195.385 179.784 191.011 172.13C186.82 164.293 184.724 155.453 184.724 145.612V76.7198C184.724 68.8829 187.731 63.3241 193.745 60.0436C199.942 56.5808 209.419 54.8493 222.177 54.8493V142.878C222.177 149.439 224.182 154.633 228.191 158.461C232.201 162.288 238.033 164.202 245.687 164.202C254.436 164.202 261.27 161.468 266.191 156C271.112 150.35 273.572 143.151 273.572 134.403V76.7198C273.572 68.8829 276.579 63.3241 282.594 60.0436C288.79 56.5808 298.268 54.8493 311.025 54.8493V168.029ZM341.228 83.2809C341.228 74.1682 344.144 67.1515 349.976 62.2306C355.808 57.3098 364.647 54.8493 376.494 54.8493V70.9788C373.76 73.8948 371.482 76.9932 369.659 80.2737L371.573 81.3672C377.405 72.6191 383.419 66.0579 389.616 61.6838C395.995 57.1275 403.558 54.8493 412.307 54.8493C427.798 54.8493 438.551 62.5951 444.565 78.0867C449.122 70.7965 454.954 65.1467 462.062 61.1371C469.17 56.9453 477.189 54.8493 486.119 54.8493C498.512 54.8493 508.354 59.4057 515.644 68.5184C523.117 77.631 526.853 89.2042 526.853 103.238V174.59C526.853 182.427 523.846 188.077 517.831 191.54C511.817 194.82 502.522 196.46 489.947 196.46V106.518C489.947 100.322 488.58 95.4008 485.846 91.7557C483.112 88.1106 478.829 86.2881 472.997 86.2881C467.165 86.2881 462.244 88.384 458.234 92.5758C454.225 96.5854 452.22 103.42 452.22 113.079V174.59C452.22 182.427 449.213 188.077 443.198 191.54C437.366 194.82 428.254 196.46 415.86 196.46V106.518C415.86 100.322 414.494 95.4008 411.76 91.7557C409.026 88.1106 404.834 86.2881 399.184 86.2881C385.151 86.2881 378.134 95.6742 378.134 114.446V174.59C378.134 182.427 375.127 188.077 369.112 191.54C363.098 194.82 353.803 196.46 341.228 196.46V83.2809ZM600.988 196.46C592.058 196.46 583.674 194.729 575.837 191.266C568.182 187.621 561.986 182.427 557.247 175.684C552.509 168.758 550.139 160.465 550.139 150.806C550.139 141.146 552.691 132.854 557.794 125.928C562.897 118.82 569.641 113.444 578.024 109.799C586.59 106.154 595.885 104.331 605.909 104.331C614.293 104.331 621.674 105.607 628.053 108.159C634.614 110.71 640.719 114.446 646.369 119.367L647.736 117.727C643.909 114.264 640.902 111.804 638.715 110.346V106.792C638.715 99.866 636.163 94.3984 631.06 90.3888C626.139 86.197 619.122 84.1011 610.01 84.1011C601.991 84.1011 594.883 85.5591 588.686 88.4751C582.489 91.3912 577.477 95.6742 573.65 101.324C569.276 100.23 565.54 98.2257 562.441 95.3096C559.525 92.2113 558.067 88.8396 558.067 85.1946C558.067 79.5447 560.528 74.4416 565.449 69.8853C570.37 65.1467 577.022 61.5016 585.405 58.95C593.971 56.2162 603.357 54.8493 613.564 54.8493C633.429 54.8493 648.739 59.4057 659.492 68.5184C670.245 77.631 675.621 90.0243 675.621 105.698V172.13C675.621 180.695 672.796 186.892 667.146 190.719C661.679 194.547 652.93 196.46 640.902 196.46V185.799C643.635 183.247 645.823 180.969 647.463 178.964L646.096 177.597C640.082 183.794 633.794 188.532 627.233 191.813C620.672 194.911 611.923 196.46 600.988 196.46ZM611.377 169.669C620.125 169.669 626.959 168.029 631.88 164.748C636.801 161.468 639.261 156.729 639.261 150.533C639.261 144.518 636.71 139.78 631.607 136.317C626.686 132.854 619.943 131.122 611.377 131.122C603.722 131.122 597.616 132.854 593.06 136.317C588.686 139.78 586.499 144.518 586.499 150.533C586.499 156.729 588.686 161.468 593.06 164.748C597.616 168.029 603.722 169.669 611.377 169.669ZM704.311 29.1516C704.311 19.6744 707.683 12.4754 714.426 7.55451C721.352 2.63366 731.376 0.173238 744.498 0.173238V80.2737H821.318V29.1516C821.318 19.6744 824.69 12.4754 831.433 7.55451C838.359 2.63366 848.383 0.173238 861.505 0.173238V167.482C861.505 176.959 858.042 184.158 851.116 189.079C844.373 194 834.44 196.46 821.318 196.46V114.993H744.498V167.482C744.498 176.959 741.035 184.158 734.109 189.079C727.366 194 717.433 196.46 704.311 196.46V29.1516ZM915.79 44.4609C908.864 44.4609 903.032 42.4561 898.294 38.4465C893.737 34.2547 891.459 28.8782 891.459 22.3171C891.459 15.7559 893.737 10.4706 898.294 6.46099C903.032 2.26916 908.864 0.173238 915.79 0.173238C922.716 0.173238 928.457 2.26916 933.013 6.46099C937.752 10.4706 940.121 15.7559 940.121 22.3171C940.121 28.8782 937.752 34.2547 933.013 38.4465C928.457 42.4561 922.716 44.4609 915.79 44.4609ZM896.927 76.7198C896.927 68.8829 900.025 63.3241 906.222 60.0436C912.418 56.5808 921.804 54.8493 934.38 54.8493V174.59C934.38 182.427 931.282 188.077 925.085 191.54C918.888 194.82 909.502 196.46 896.927 196.46V76.7198ZM1026.15 196.46C1021.23 196.46 1016.95 195.367 1013.3 193.18C1009.84 190.993 1007.38 187.986 1005.92 184.158L957.807 57.8565C959.083 56.9453 961.452 56.2162 964.915 55.6695C968.56 55.1227 971.567 54.8493 973.937 54.8493C979.769 54.8493 984.963 56.034 989.519 58.4033C994.258 60.5903 997.356 63.962 998.814 68.5184L1024.24 149.439L1019.59 162.835L1022.05 163.655L1053.49 68.5184C1054.95 63.962 1057.96 60.5903 1062.51 58.4033C1067.25 56.034 1072.54 54.8493 1078.37 54.8493C1080.74 54.8493 1083.65 55.1227 1087.12 55.6695C1090.76 56.2162 1093.22 56.9453 1094.5 57.8565L1046.38 184.158C1044.92 187.986 1042.37 190.993 1038.73 193.18C1035.27 195.367 1031.07 196.46 1026.15 196.46ZM1162.54 196.46C1151.24 196.46 1140.76 194.182 1131.1 189.626C1121.62 185.07 1114.06 178.873 1108.41 171.036C1102.76 163.199 1099.93 154.451 1099.93 144.792V109.799C1099.93 99.5926 1102.76 90.2977 1108.41 81.914C1114.24 73.3481 1121.99 66.6958 1131.65 61.9572C1141.3 57.2186 1151.69 54.8493 1162.81 54.8493C1173.75 54.8493 1183.77 57.1275 1192.88 61.6838C1202.18 66.0579 1209.47 72.3457 1214.75 80.5471C1220.04 88.5663 1222.68 97.6789 1222.68 107.885V122.648C1222.68 127.022 1221.04 130.758 1217.76 133.856C1214.48 136.772 1210.29 138.23 1205.18 138.23H1136.29V142.058C1136.29 149.348 1138.48 155.362 1142.85 160.101C1147.41 164.657 1154.06 166.935 1162.81 166.935C1171.38 166.935 1177.66 165.113 1181.67 161.468C1185.68 157.64 1187.69 152.902 1187.69 147.252C1191.33 146.887 1194.07 146.705 1195.89 146.705C1203.36 146.705 1209.1 148.254 1213.11 151.353C1217.12 154.451 1219.13 159.007 1219.13 165.022C1219.13 169.943 1216.67 174.863 1211.75 179.784C1206.82 184.705 1199.99 188.715 1191.24 191.813C1182.68 194.911 1173.11 196.46 1162.54 196.46ZM1188.78 111.712V107.885C1188.78 100.595 1186.32 94.854 1181.4 90.6622C1176.66 86.2881 1170.37 84.1011 1162.54 84.1011C1154.7 84.1011 1148.32 86.2881 1143.4 90.6622C1138.66 94.854 1136.29 100.595 1136.29 107.885V111.712H1188.78Z"/>
</mask>
<path d="M10.151 7.55451L9.57175 6.73927L9.56153 6.74672L10.151 7.55451ZM40.2229 0.173238H41.2229V-0.826762H40.2229V0.173238ZM40.2229 80.2737H39.2229V81.2737H40.2229V80.2737ZM117.043 80.2737V81.2737H118.043V80.2737H117.043ZM127.158 7.55451L126.579 6.73927L126.568 6.74672L127.158 7.55451ZM157.23 0.173238H158.23V-0.826762H157.23V0.173238ZM146.841 189.079L146.262 188.264L146.252 188.271L146.841 189.079ZM117.043 196.46H116.043V197.46H117.043V196.46ZM117.043 114.993H118.043V113.993H117.043V114.993ZM40.2229 114.993V113.993H39.2229V114.993H40.2229ZM29.8344 189.079L29.2551 188.264L29.2449 188.271L29.8344 189.079ZM0.0359268 196.46H-0.964073V197.46H0.0359268V196.46ZM1.03593 29.1516C1.03593 19.9441 4.29272 13.0674 10.7405 8.3623L9.56153 6.74672C2.52252 11.8833 -0.964073 19.4047 -0.964073 29.1516H1.03593ZM10.7302 8.36969C17.4172 3.6184 27.2026 1.17324 40.2229 1.17324V-0.826762C26.9986 -0.826762 16.7361 1.64893 9.5718 6.73933L10.7302 8.36969ZM39.2229 0.173238V80.2737H41.2229V0.173238H39.2229ZM40.2229 81.2737H117.043V79.2737H40.2229V81.2737ZM118.043 80.2737V29.1516H116.043V80.2737H118.043ZM118.043 29.1516C118.043 19.9441 121.3 13.0674 127.747 8.3623L126.568 6.74672C119.529 11.8833 116.043 19.4047 116.043 29.1516H118.043ZM127.737 8.36969C134.424 3.6184 144.209 1.17324 157.23 1.17324V-0.826762C144.005 -0.826762 133.743 1.64893 126.579 6.73933L127.737 8.36969ZM156.23 0.173238V167.482H158.23V0.173238H156.23ZM156.23 167.482C156.23 176.679 152.89 183.555 146.262 188.264L147.42 189.894C154.644 184.762 158.23 177.24 158.23 167.482H156.23ZM146.252 188.271C139.752 193.014 130.066 195.46 117.043 195.46V197.46C130.264 197.46 140.443 194.986 147.431 189.887L146.252 188.271ZM118.043 196.46V114.993H116.043V196.46H118.043ZM117.043 113.993H40.2229V115.993H117.043V113.993ZM39.2229 114.993V167.482H41.2229V114.993H39.2229ZM39.2229 167.482C39.2229 176.679 35.8833 183.555 29.2552 188.264L30.4136 189.894C37.6367 184.762 41.2229 177.24 41.2229 167.482H39.2229ZM29.2449 188.271C22.7455 193.014 13.059 195.46 0.0359268 195.46V197.46C13.2574 197.46 23.4365 194.986 30.4239 189.887L29.2449 188.271ZM1.03593 196.46V29.1516H-0.964073V196.46H1.03593ZM302.004 189.079L301.371 188.305L302.004 189.079ZM275.213 196.46H274.213V197.46H275.213V196.46ZM275.213 180.331L274.483 179.647L274.213 179.936V180.331H275.213ZM282.047 171.036L282.921 171.522L283.401 170.658L282.543 170.168L282.047 171.036ZM280.133 169.943L280.63 169.074L279.809 168.606L279.295 169.398L280.133 169.943ZM208.781 190.173L208.276 191.036L208.284 191.04L208.292 191.045L208.781 190.173ZM191.011 172.13L190.13 172.601L190.136 172.614L190.143 172.626L191.011 172.13ZM193.745 60.0436L194.224 60.9215L194.233 60.9165L193.745 60.0436ZM222.177 54.8493H223.177V53.8493H222.177V54.8493ZM228.191 158.461L228.882 157.737L228.191 158.461ZM266.191 156L266.934 156.669L266.94 156.663L266.945 156.657L266.191 156ZM282.594 60.0436L283.073 60.9215L283.082 60.9165L282.594 60.0436ZM311.025 54.8493H312.025V53.8493H311.025V54.8493ZM310.025 168.029C310.025 176.899 307.112 183.608 301.371 188.305L302.637 189.853C308.925 184.709 312.025 177.384 312.025 168.029H310.025ZM301.371 188.305C295.608 193.02 286.944 195.46 275.213 195.46V197.46C287.174 197.46 296.371 194.98 302.637 189.853L301.371 188.305ZM276.213 196.46V180.331H274.213V196.46H276.213ZM275.942 181.015C278.728 178.043 281.056 174.879 282.921 171.522L281.173 170.55C279.393 173.755 277.164 176.787 274.483 179.647L275.942 181.015ZM282.543 170.168L280.63 169.074L279.637 170.811L281.551 171.904L282.543 170.168ZM279.295 169.398C267.979 186.82 252.79 195.46 233.659 195.46V197.46C253.53 197.46 269.323 188.422 280.972 170.487L279.295 169.398ZM233.659 195.46C224.706 195.46 216.584 193.403 209.27 189.301L208.292 191.045C215.923 195.326 224.386 197.46 233.659 197.46V195.46ZM209.286 189.31C201.968 185.026 196.169 179.139 191.88 171.633L190.143 172.626C194.602 180.429 200.65 186.572 208.276 191.036L209.286 189.31ZM191.893 171.658C187.787 163.981 185.724 155.307 185.724 145.612H183.724C183.724 155.6 185.852 164.604 190.13 172.601L191.893 171.658ZM185.724 145.612V76.7198H183.724V145.612H185.724ZM185.724 76.7198C185.724 69.185 188.583 63.9982 194.224 60.9215L193.266 59.1657C186.878 62.65 183.724 68.5807 183.724 76.7198H185.724ZM194.233 60.9165C200.204 57.5797 209.473 55.8493 222.177 55.8493V53.8493C209.365 53.8493 199.679 55.5818 193.257 59.1706L194.233 60.9165ZM221.177 54.8493V142.878H223.177V54.8493H221.177ZM221.177 142.878C221.177 149.658 223.257 155.133 227.501 159.184L228.882 157.737C225.106 154.133 223.177 149.22 223.177 142.878H221.177ZM227.501 159.184C231.757 163.247 237.875 165.202 245.688 165.202V163.202C238.191 163.202 232.644 161.329 228.882 157.737L227.501 159.184ZM245.688 165.202C254.661 165.202 261.788 162.387 266.934 156.669L265.448 155.331C260.752 160.548 254.211 163.202 245.688 163.202V165.202ZM266.945 156.657C272.051 150.795 274.572 143.35 274.572 134.403H272.572C272.572 142.953 270.173 149.905 265.437 155.343L266.945 156.657ZM274.572 134.403V76.7198H272.572V134.403H274.572ZM274.572 76.7198C274.572 69.185 277.432 63.9982 283.073 60.9215L282.115 59.1657C275.727 62.65 272.572 68.5807 272.572 76.7198H274.572ZM283.082 60.9165C289.053 57.5797 298.322 55.8493 311.025 55.8493V53.8493C298.213 53.8493 288.528 55.5818 282.106 59.1706L283.082 60.9165ZM310.025 54.8493V168.029H312.025V54.8493H310.025ZM349.976 62.2306L349.331 61.4663L349.976 62.2306ZM376.494 54.8493H377.494V53.8493H376.494V54.8493ZM376.494 70.9788L377.223 71.6627L377.494 71.3742V70.9788H376.494ZM369.659 80.2737L368.785 79.7881L368.305 80.6518L369.163 81.142L369.659 80.2737ZM371.573 81.3672L371.077 82.2355L371.887 82.6986L372.405 81.9219L371.573 81.3672ZM389.616 61.6838L390.193 62.5008L390.197 62.4976L389.616 61.6838ZM444.565 78.0867L443.633 78.4486L444.356 80.3092L445.413 78.6167L444.565 78.0867ZM462.062 61.1371L462.553 62.0081L462.561 62.0033L462.57 61.9985L462.062 61.1371ZM515.644 68.5184L514.863 69.1431L514.871 69.1524L515.644 68.5184ZM517.831 191.54L518.31 192.417L518.32 192.412L518.33 192.406L517.831 191.54ZM489.947 196.46H488.947V197.46H489.947V196.46ZM485.846 91.7557L486.646 91.1557L485.846 91.7557ZM458.234 92.5758L458.942 93.283L458.949 93.2751L458.957 93.2671L458.234 92.5758ZM443.198 191.54L443.689 192.411L443.697 192.406L443.198 191.54ZM415.86 196.46H414.86V197.46H415.86V196.46ZM411.76 91.7557L412.56 91.1557L411.76 91.7557ZM369.112 191.54L369.591 192.417L369.601 192.412L369.611 192.406L369.112 191.54ZM341.228 196.46H340.228V197.46H341.228V196.46ZM342.228 83.2809C342.228 74.3998 345.058 67.6885 350.621 62.9949L349.331 61.4663C343.229 66.6144 340.228 73.9367 340.228 83.2809H342.228ZM350.621 62.9949C356.196 58.2907 364.759 55.8493 376.494 55.8493V53.8493C364.535 53.8493 355.42 56.3289 349.331 61.4663L350.621 62.9949ZM375.494 54.8493V70.9788H377.494V54.8493H375.494ZM375.764 70.2948C372.978 73.2669 370.65 76.4312 368.785 79.7881L370.533 80.7594C372.313 77.5551 374.542 74.5228 377.223 71.6627L375.764 70.2948ZM369.163 81.142L371.077 82.2355L372.069 80.499L370.155 79.4055L369.163 81.142ZM372.405 81.9219C378.193 73.2394 384.127 66.7823 390.193 62.5008L389.039 60.8669C382.711 65.3336 376.617 71.9987 370.741 80.8125L372.405 81.9219ZM390.197 62.4976C396.387 58.0763 403.741 55.8493 412.307 55.8493V53.8493C403.375 53.8493 395.603 56.1787 389.035 60.8701L390.197 62.4976ZM412.307 55.8493C419.879 55.8493 426.227 57.7396 431.405 61.4701C436.589 65.2043 440.678 70.8374 443.633 78.4486L445.498 77.7248C442.438 69.8444 438.143 63.8588 432.574 59.8473C427 55.832 420.225 53.8493 412.307 53.8493V55.8493ZM445.413 78.6167C449.886 71.4604 455.599 65.9311 462.553 62.0081L461.57 60.2661C454.309 64.3622 448.357 70.1327 443.717 77.5567L445.413 78.6167ZM462.57 61.9985C469.511 57.9048 477.352 55.8493 486.119 55.8493V53.8493C477.025 53.8493 468.828 55.9857 461.554 60.2757L462.57 61.9985ZM486.119 55.8493C498.23 55.8493 507.776 60.284 514.863 69.1431L516.425 67.8937C508.932 58.5273 498.795 53.8493 486.119 53.8493V55.8493ZM514.871 69.1524C522.17 78.0537 525.853 89.3894 525.853 103.238H527.853C527.853 89.0189 524.063 77.2084 516.418 67.8843L514.871 69.1524ZM525.853 103.238V174.59H527.853V103.238H525.853ZM525.853 174.59C525.853 182.125 522.991 187.415 517.332 190.673L518.33 192.406C524.7 188.739 527.853 182.729 527.853 174.59H525.853ZM517.353 190.662C511.562 193.82 502.473 195.46 489.947 195.46V197.46C502.571 197.46 512.072 195.82 518.31 192.417L517.353 190.662ZM490.947 196.46V106.518H488.947V196.46H490.947ZM490.947 106.518C490.947 100.182 489.549 95.0266 486.646 91.1557L485.046 92.3557C487.61 95.7749 488.947 100.461 488.947 106.518H490.947ZM486.646 91.1557C483.672 87.1902 479.047 85.2881 472.997 85.2881V87.2881C478.611 87.2881 482.552 89.031 485.046 92.3557L486.646 91.1557ZM472.997 85.2881C466.894 85.2881 461.711 87.4944 457.512 91.8846L458.957 93.2671C462.777 89.2737 467.436 87.2881 472.997 87.2881V85.2881ZM457.527 91.8687C453.235 96.161 451.22 103.329 451.22 113.079H453.22C453.22 103.51 455.215 97.0098 458.942 93.283L457.527 91.8687ZM451.22 113.079V174.59H453.22V113.079H451.22ZM451.22 174.59C451.22 182.125 448.359 187.415 442.7 190.673L443.697 192.406C450.067 188.739 453.22 182.729 453.22 174.59H451.22ZM442.708 190.668C437.106 193.82 428.206 195.46 415.86 195.46V197.46C428.302 197.46 437.627 195.821 443.689 192.411L442.708 190.668ZM416.86 196.46V106.518H414.86V196.46H416.86ZM416.86 106.518C416.86 100.182 415.463 95.0266 412.56 91.1557L410.96 92.3557C413.524 95.7749 414.86 100.461 414.86 106.518H416.86ZM412.56 91.1557C409.592 87.1984 405.065 85.2881 399.184 85.2881V87.2881C404.603 87.2881 408.46 89.0228 410.96 92.3557L412.56 91.1557ZM399.184 85.2881C391.922 85.2881 386.331 87.732 382.596 92.7289C378.901 97.6711 377.134 104.965 377.134 114.446H379.134C379.134 105.156 380.875 98.3702 384.197 93.9264C387.479 89.5372 392.413 87.2881 399.184 87.2881V85.2881ZM377.134 114.446V174.59H379.134V114.446H377.134ZM377.134 174.59C377.134 182.125 374.272 187.415 368.613 190.673L369.611 192.406C375.981 188.739 379.134 182.729 379.134 174.59H377.134ZM368.634 190.662C362.843 193.82 353.754 195.46 341.228 195.46V197.46C353.852 197.46 363.353 195.82 369.591 192.417L368.634 190.662ZM342.228 196.46V83.2809H340.228V196.46H342.228ZM575.837 191.266L575.407 192.169L575.42 192.175L575.433 192.181L575.837 191.266ZM557.247 175.684L556.422 176.248L556.429 176.258L557.247 175.684ZM557.794 125.928L558.599 126.522L558.606 126.511L557.794 125.928ZM578.024 109.799L577.633 108.879L577.625 108.882L578.024 109.799ZM628.053 108.159L627.681 109.087L627.69 109.091L628.053 108.159ZM646.369 119.367L645.713 120.121L646.483 120.792L647.138 120.007L646.369 119.367ZM647.736 117.727L648.504 118.367L649.119 117.629L648.407 116.985L647.736 117.727ZM638.715 110.346H637.715V110.881L638.16 111.178L638.715 110.346ZM631.06 90.3888L630.411 91.15L630.427 91.1629L630.442 91.1751L631.06 90.3888ZM588.686 88.4751L589.112 89.38L588.686 88.4751ZM573.65 101.324L573.408 102.294L574.086 102.464L574.478 101.885L573.65 101.324ZM562.441 95.3096L561.713 95.995L561.734 96.0171L561.756 96.0378L562.441 95.3096ZM565.449 69.8853L566.128 70.619L566.135 70.6124L566.142 70.6056L565.449 69.8853ZM585.405 58.95L585.697 59.9068L585.709 59.9027L585.405 58.95ZM659.492 68.5184L660.138 67.7555L659.492 68.5184ZM667.146 190.719L666.585 189.892L666.579 189.896L666.573 189.9L667.146 190.719ZM640.902 196.46H639.902V197.46H640.902V196.46ZM640.902 185.799L640.219 185.068L639.902 185.364V185.799H640.902ZM647.463 178.964L648.237 179.597L648.81 178.897L648.17 178.257L647.463 178.964ZM646.096 177.597L646.803 176.89L646.085 176.172L645.378 176.901L646.096 177.597ZM627.233 191.813L627.66 192.717L627.67 192.712L627.68 192.707L627.233 191.813ZM631.88 164.748L631.325 163.916L631.88 164.748ZM631.607 136.317L631.031 137.135L631.038 137.139L631.045 137.144L631.607 136.317ZM593.06 136.317L592.455 135.521L592.447 135.527L592.439 135.533L593.06 136.317ZM593.06 164.748L592.46 165.548L592.468 165.554L592.476 165.56L593.06 164.748ZM600.988 195.46C592.191 195.46 583.945 193.756 576.241 190.352L575.433 192.181C583.403 195.702 591.925 197.46 600.988 197.46V195.46ZM576.267 190.363C568.763 186.79 562.702 181.707 558.065 175.109L556.429 176.258C561.27 183.147 567.602 188.452 575.407 192.169L576.267 190.363ZM558.073 175.119C553.464 168.384 551.139 160.295 551.139 150.806H549.139C549.139 160.635 551.553 169.132 556.422 176.248L558.073 175.119ZM551.139 150.806C551.139 141.332 553.638 133.254 558.599 126.521L556.989 125.335C551.744 132.453 549.139 140.96 549.139 150.806H551.139ZM558.606 126.511C563.599 119.557 570.197 114.292 578.423 110.716L577.625 108.882C569.084 112.595 562.195 118.084 556.982 125.345L558.606 126.511ZM578.416 110.719C586.849 107.131 596.009 105.331 605.909 105.331V103.331C595.761 103.331 586.332 105.177 577.633 108.879L578.416 110.719ZM605.909 105.331C614.193 105.331 621.444 106.592 627.681 109.087L628.424 107.23C621.904 104.622 614.393 103.331 605.909 103.331V105.331ZM627.69 109.091C634.137 111.598 640.144 115.271 645.713 120.121L647.026 118.613C641.295 113.621 635.091 109.823 628.415 107.227L627.69 109.091ZM647.138 120.007L648.504 118.367L646.968 117.087L645.601 118.727L647.138 120.007ZM648.407 116.985C644.571 113.515 641.52 111.014 639.269 109.514L638.16 111.178C640.284 112.593 643.247 115.014 647.065 118.468L648.407 116.985ZM639.715 110.346V106.792H637.715V110.346H639.715ZM639.715 106.792C639.715 99.5829 637.04 93.8159 631.678 89.6025L630.442 91.1751C635.286 94.9809 637.715 100.149 637.715 106.792H639.715ZM631.708 89.6276C626.545 85.2289 619.264 83.1011 610.01 83.1011V85.1011C618.981 85.1011 625.733 87.165 630.411 91.15L631.708 89.6276ZM610.01 83.1011C601.868 83.1011 594.611 84.5817 588.26 87.5703L589.112 89.38C595.154 86.5364 602.113 85.1011 610.01 85.1011V83.1011ZM588.26 87.5703C581.902 90.5626 576.751 94.9641 572.822 100.763L574.478 101.885C578.204 96.3842 583.077 92.2198 589.112 89.38L588.26 87.5703ZM573.893 100.354C569.674 99.2993 566.093 97.3733 563.127 94.5814L561.756 96.0378C564.986 99.0781 568.878 101.162 573.408 102.294L573.893 100.354ZM563.17 94.6243C560.397 91.6783 559.067 88.5427 559.067 85.1946H557.067C557.067 89.1366 558.654 92.7444 561.713 95.995L563.17 94.6243ZM559.067 85.1946C559.067 79.8753 561.37 75.0246 566.128 70.619L564.769 69.1515C559.686 73.8586 557.067 79.2141 557.067 85.1946H559.067ZM566.142 70.6056C570.922 66.0029 577.422 62.4249 585.697 59.9067L585.114 57.9934C576.621 60.5783 569.817 64.2904 564.755 69.1649L566.142 70.6056ZM585.709 59.9027C594.165 57.2042 603.447 55.8493 613.564 55.8493V53.8493C603.268 53.8493 593.778 55.2283 585.101 57.9974L585.709 59.9027ZM613.564 55.8493C633.288 55.8493 648.334 60.3739 658.845 69.2813L660.138 67.7555C649.143 58.4374 633.57 53.8493 613.564 53.8493V55.8493ZM658.845 69.2813C669.347 78.1812 674.621 90.2811 674.621 105.698H676.621C676.621 89.7675 671.142 77.0809 660.138 67.7555L658.845 69.2813ZM674.621 105.698V172.13H676.621V105.698H674.621ZM674.621 172.13C674.621 180.459 671.89 186.298 666.585 189.892L667.707 191.547C673.702 187.486 676.621 180.932 676.621 172.13H674.621ZM666.573 189.9C661.361 193.548 652.869 195.46 640.902 195.46V197.46C652.992 197.46 661.996 195.545 667.72 191.539L666.573 189.9ZM641.902 196.46V185.799H639.902V196.46H641.902ZM641.584 186.53C644.338 183.96 646.559 181.648 648.237 179.597L646.689 178.331C645.086 180.29 642.933 182.534 640.219 185.068L641.584 186.53ZM648.17 178.257L646.803 176.89L645.389 178.304L646.756 179.671L648.17 178.257ZM645.378 176.901C639.429 183.031 633.23 187.696 626.785 190.919L627.68 192.707C634.358 189.368 640.734 184.557 646.813 178.294L645.378 176.901ZM626.806 190.909C620.428 193.92 611.844 195.46 600.988 195.46V197.46C612.003 197.46 620.915 195.902 627.66 192.717L626.806 190.909ZM611.377 170.669C620.233 170.669 627.289 169.011 632.435 165.58L631.325 163.916C626.63 167.047 620.017 168.669 611.377 168.669V170.669ZM632.435 165.58C637.649 162.104 640.261 157.044 640.261 150.533H638.261C638.261 156.414 635.953 160.831 631.325 163.916L632.435 165.58ZM640.261 150.533C640.261 144.177 637.537 139.133 632.168 135.489L631.045 137.144C635.882 140.427 638.261 144.86 638.261 150.533H640.261ZM632.182 135.499C627.035 131.877 620.065 130.122 611.377 130.122V132.122C619.82 132.122 626.337 133.831 631.031 137.135L632.182 135.499ZM611.377 130.122C603.577 130.122 597.236 131.887 592.455 135.521L593.665 137.113C597.997 133.821 603.867 132.122 611.377 132.122V130.122ZM592.439 135.533C587.805 139.202 585.499 144.24 585.499 150.533H587.499C587.499 144.796 589.567 140.358 593.681 137.101L592.439 135.533ZM585.499 150.533C585.499 156.996 587.798 162.052 592.46 165.548L593.66 163.948C589.574 160.884 587.499 156.462 587.499 150.533H585.499ZM592.476 165.56C597.254 169 603.587 170.669 611.377 170.669V168.669C603.857 168.669 597.979 167.057 593.644 163.937L592.476 165.56ZM714.426 7.55451L713.847 6.73927L713.837 6.74672L714.426 7.55451ZM744.498 0.173238H745.498V-0.826762H744.498V0.173238ZM744.498 80.2737H743.498V81.2737H744.498V80.2737ZM821.318 80.2737V81.2737H822.318V80.2737H821.318ZM831.433 7.55451L830.854 6.73927L830.843 6.74672L831.433 7.55451ZM861.505 0.173238H862.505V-0.826762H861.505V0.173238ZM851.116 189.079L850.537 188.264L850.527 188.271L851.116 189.079ZM821.318 196.46H820.318V197.46H821.318V196.46ZM821.318 114.993H822.318V113.993H821.318V114.993ZM744.498 114.993V113.993H743.498V114.993H744.498ZM734.109 189.079L733.53 188.264L733.52 188.271L734.109 189.079ZM704.311 196.46H703.311V197.46H704.311V196.46ZM705.311 29.1516C705.311 19.9441 708.568 13.0674 715.016 8.3623L713.837 6.74672C706.798 11.8833 703.311 19.4047 703.311 29.1516H705.311ZM715.005 8.36969C721.692 3.6184 731.478 1.17324 744.498 1.17324V-0.826762C731.274 -0.826762 721.011 1.64893 713.847 6.73933L715.005 8.36969ZM743.498 0.173238V80.2737H745.498V0.173238H743.498ZM744.498 81.2737H821.318V79.2737H744.498V81.2737ZM822.318 80.2737V29.1516H820.318V80.2737H822.318ZM822.318 29.1516C822.318 19.9441 825.575 13.0674 832.022 8.3623L830.843 6.74672C823.804 11.8833 820.318 19.4047 820.318 29.1516H822.318ZM832.012 8.36969C838.699 3.6184 848.485 1.17324 861.505 1.17324V-0.826762C848.281 -0.826762 838.018 1.64893 830.854 6.73933L832.012 8.36969ZM860.505 0.173238V167.482H862.505V0.173238H860.505ZM860.505 167.482C860.505 176.679 857.165 183.555 850.537 188.264L851.696 189.894C858.919 184.762 862.505 177.24 862.505 167.482H860.505ZM850.527 188.271C844.027 193.014 834.341 195.46 821.318 195.46V197.46C834.539 197.46 844.718 194.986 851.706 189.887L850.527 188.271ZM822.318 196.46V114.993H820.318V196.46H822.318ZM821.318 113.993H744.498V115.993H821.318V113.993ZM743.498 114.993V167.482H745.498V114.993H743.498ZM743.498 167.482C743.498 176.679 740.158 183.555 733.53 188.264L734.689 189.894C741.912 184.762 745.498 177.24 745.498 167.482H743.498ZM733.52 188.271C727.021 193.014 717.334 195.46 704.311 195.46V197.46C717.532 197.46 727.712 194.986 734.699 189.887L733.52 188.271ZM705.311 196.46V29.1516H703.311V196.46H705.311ZM898.294 38.4465L897.617 39.1824L897.632 39.1965L897.648 39.2099L898.294 38.4465ZM898.294 6.46099L898.954 7.21171L898.956 7.20999L898.294 6.46099ZM933.013 6.46099L932.336 7.19692L932.351 7.21097L932.367 7.22438L933.013 6.46099ZM933.013 38.4465L933.674 39.1972L933.676 39.1955L933.013 38.4465ZM906.222 60.0436L906.69 60.9274L906.7 60.9221L906.71 60.9165L906.222 60.0436ZM934.38 54.8493H935.38V53.8493H934.38V54.8493ZM925.085 191.54L925.553 192.423L925.563 192.418L925.573 192.413L925.085 191.54ZM896.927 196.46H895.927V197.46H896.927V196.46ZM915.79 43.4609C909.072 43.4609 903.477 41.5221 898.94 37.6831L897.648 39.2099C902.588 43.3901 908.657 45.4609 915.79 45.4609V43.4609ZM898.971 37.7106C894.634 33.7205 892.459 28.6173 892.459 22.3171H890.459C890.459 29.1391 892.841 34.7889 897.617 39.1824L898.971 37.7106ZM892.459 22.3171C892.459 16.0171 894.633 11.0148 898.954 7.2117L897.633 5.71028C892.842 9.92639 890.459 15.4948 890.459 22.3171H892.459ZM898.956 7.20999C903.494 3.19569 909.083 1.17324 915.79 1.17324V-0.826762C908.645 -0.826762 902.57 1.34262 897.631 5.71199L898.956 7.20999ZM915.79 1.17324C922.497 1.17324 927.987 3.19546 932.336 7.19692L933.69 5.72506C928.927 1.34285 922.934 -0.826762 915.79 -0.826762V1.17324ZM932.367 7.22438C936.867 11.0319 939.121 16.0309 939.121 22.3171H941.121C941.121 15.4809 938.636 9.90922 933.659 5.6976L932.367 7.22438ZM939.121 22.3171C939.121 28.6038 936.866 33.7034 932.35 37.6975L933.676 39.1955C938.638 34.806 941.121 29.1526 941.121 22.3171H939.121ZM932.352 37.6958C928.004 41.5221 922.509 43.4609 915.79 43.4609V45.4609C922.922 45.4609 928.909 43.3901 933.674 39.1972L932.352 37.6958ZM897.927 76.7198C897.927 72.9327 898.675 69.7597 900.124 67.1599C901.57 64.5662 903.744 62.4868 906.69 60.9274L905.754 59.1598C902.503 60.8809 900.03 63.2211 898.377 66.1862C896.728 69.1451 895.927 72.67 895.927 76.7198H897.927ZM906.71 60.9165C912.682 57.5789 921.862 55.8493 934.38 55.8493V53.8493C921.747 53.8493 912.154 55.5826 905.734 59.1706L906.71 60.9165ZM933.38 54.8493V174.59H935.38V54.8493H933.38ZM933.38 174.59C933.38 182.111 930.439 187.402 924.597 190.667L925.573 192.413C932.124 188.752 935.38 182.743 935.38 174.59H933.38ZM924.617 190.656C918.638 193.821 909.45 195.46 896.927 195.46V197.46C909.555 197.46 919.139 195.819 925.553 192.423L924.617 190.656ZM897.927 196.46V76.7198H895.927V196.46H897.927ZM1013.3 193.18L1012.77 194.025L1012.78 194.031L1012.79 194.037L1013.3 193.18ZM1005.92 184.158L1004.99 184.514L1005.92 184.158ZM957.807 57.8565L957.226 57.0428L956.598 57.4913L956.873 58.2125L957.807 57.8565ZM964.915 55.6695L964.767 54.6805L964.759 54.6817L964.915 55.6695ZM989.519 58.4033L989.058 59.2905L989.079 59.3014L989.1 59.3112L989.519 58.4033ZM998.814 68.5184L999.768 68.2186L999.767 68.2136L998.814 68.5184ZM1024.24 149.439L1025.18 149.767L1025.29 149.455L1025.19 149.139L1024.24 149.439ZM1019.59 162.835L1018.65 162.507L1018.31 163.463L1019.28 163.783L1019.59 162.835ZM1022.05 163.655L1021.74 164.603L1022.69 164.921L1023 163.969L1022.05 163.655ZM1053.49 68.5184L1054.44 68.8321L1054.44 68.8231L1053.49 68.5184ZM1062.51 58.4033L1062.94 59.3048L1062.95 59.3013L1062.96 59.2977L1062.51 58.4033ZM1087.12 55.6695L1086.96 56.6573L1086.97 56.6584L1087.12 55.6695ZM1094.5 57.8565L1095.43 58.2125L1095.71 57.4913L1095.08 57.0428L1094.5 57.8565ZM1046.38 184.158L1047.32 184.514L1046.38 184.158ZM1038.73 193.18L1038.21 192.322L1038.2 192.328L1038.19 192.334L1038.73 193.18ZM1026.15 195.46C1021.38 195.46 1017.28 194.402 1013.82 192.322L1012.79 194.037C1016.61 196.332 1021.08 197.46 1026.15 197.46V195.46ZM1013.84 192.334C1010.56 190.263 1008.24 187.427 1006.86 183.802L1004.99 184.514C1006.52 188.544 1009.12 191.723 1012.77 194.025L1013.84 192.334ZM1006.86 183.802L958.742 57.5005L956.873 58.2125L1004.99 184.514L1006.86 183.802ZM958.389 58.6703C959.457 57.9071 961.617 57.2026 965.071 56.6572L964.759 54.6817C961.288 55.2298 958.709 55.9834 957.226 57.0428L958.389 58.6703ZM965.064 56.6584C968.683 56.1155 971.636 55.8493 973.937 55.8493V53.8493C971.499 53.8493 968.437 54.13 964.767 54.6805L965.064 56.6584ZM973.937 55.8493C979.63 55.8493 984.663 57.0048 989.058 59.2905L989.981 57.5161C985.264 55.0632 979.908 53.8493 973.937 53.8493V55.8493ZM989.1 59.3112C993.61 61.3928 996.498 64.5597 997.862 68.8231L999.767 68.2136C998.215 63.3644 994.906 59.7879 989.939 57.4953L989.1 59.3112ZM997.86 68.8181L1023.28 149.739L1025.19 149.139L999.768 68.2186L997.86 68.8181ZM1023.29 149.111L1018.65 162.507L1020.54 163.162L1025.18 149.767L1023.29 149.111ZM1019.28 163.783L1021.74 164.603L1022.37 162.706L1019.91 161.886L1019.28 163.783ZM1023 163.969L1054.44 68.8321L1052.54 68.2046L1021.1 163.341L1023 163.969ZM1054.44 68.8231C1055.81 64.5448 1058.62 61.3804 1062.94 59.3048L1062.08 57.5018C1057.29 59.8003 1054.09 63.3792 1052.54 68.2136L1054.44 68.8231ZM1062.96 59.2977C1067.55 57.0046 1072.68 55.8493 1078.37 55.8493V53.8493C1072.4 53.8493 1066.96 55.0634 1062.06 57.5089L1062.96 59.2977ZM1078.37 55.8493C1080.67 55.8493 1083.53 56.1152 1086.96 56.6572L1087.27 54.6817C1083.78 54.1303 1080.81 53.8493 1078.37 53.8493V55.8493ZM1086.97 56.6584C1090.61 57.2053 1092.85 57.9121 1093.92 58.6703L1095.08 57.0428C1093.59 55.9784 1090.91 55.2272 1087.26 54.6805L1086.97 56.6584ZM1093.56 57.5005L1045.45 183.802L1047.32 184.514L1095.43 58.2125L1093.56 57.5005ZM1045.45 183.802C1044.07 187.412 1041.67 190.246 1038.21 192.322L1039.24 194.037C1043.07 191.74 1045.78 188.56 1047.32 184.514L1045.45 183.802ZM1038.19 192.334C1034.92 194.402 1030.92 195.46 1026.15 195.46V197.46C1031.22 197.46 1035.61 196.332 1039.26 194.025L1038.19 192.334ZM1131.1 189.626L1130.67 190.527L1130.67 190.53L1131.1 189.626ZM1108.41 171.036L1109.22 170.451L1108.41 171.036ZM1108.41 81.914L1107.58 81.3512L1107.58 81.3551L1108.41 81.914ZM1192.88 61.6838L1192.44 62.5783L1192.45 62.5836L1192.46 62.5887L1192.88 61.6838ZM1214.75 80.5471L1213.91 81.0888L1213.92 81.0974L1214.75 80.5471ZM1217.76 133.856L1218.42 134.604L1218.44 134.594L1218.45 134.583L1217.76 133.856ZM1136.29 138.23V137.23H1135.29V138.23H1136.29ZM1142.85 160.101L1142.12 160.779L1142.13 160.794L1142.15 160.808L1142.85 160.101ZM1181.67 161.468L1182.35 162.208L1182.36 162.199L1182.36 162.191L1181.67 161.468ZM1187.69 147.252L1187.59 146.257L1186.69 146.347V147.252H1187.69ZM1213.11 151.353L1212.5 152.144L1213.11 151.353ZM1211.75 179.784L1212.45 180.491L1211.75 179.784ZM1191.24 191.813L1190.91 190.87L1190.9 190.873L1191.24 191.813ZM1188.78 111.712V112.712H1189.78V111.712H1188.78ZM1181.4 90.6622L1180.72 91.397L1180.74 91.4105L1180.75 91.4234L1181.4 90.6622ZM1143.4 90.6622L1144.06 91.4112L1144.06 91.4096L1143.4 90.6622ZM1136.29 111.712H1135.29V112.712H1136.29V111.712ZM1162.54 195.46C1151.38 195.46 1141.04 193.211 1131.53 188.721L1130.67 190.53C1140.47 195.153 1151.1 197.46 1162.54 197.46V195.46ZM1131.53 188.725C1122.19 184.234 1114.76 178.141 1109.22 170.451L1107.6 171.621C1113.35 179.605 1121.05 185.905 1130.67 190.527L1131.53 188.725ZM1109.22 170.451C1103.69 162.785 1100.93 154.241 1100.93 144.792H1098.93C1098.93 154.661 1101.82 163.614 1107.6 171.621L1109.22 170.451ZM1100.93 144.792V109.799H1098.93V144.792H1100.93ZM1100.93 109.799C1100.93 99.7897 1103.7 90.6897 1109.24 82.4729L1107.58 81.3551C1101.82 89.9056 1098.93 99.3955 1098.93 109.799H1100.93ZM1109.23 82.4768C1114.97 74.0597 1122.58 67.5203 1132.09 62.855L1131.2 61.0594C1121.4 65.8713 1113.51 72.6365 1107.58 81.3512L1109.23 82.4768ZM1132.09 62.855C1141.6 58.186 1151.84 55.8493 1162.81 55.8493V53.8493C1151.55 53.8493 1141.01 56.2513 1131.2 61.0594L1132.09 62.855ZM1162.81 55.8493C1173.6 55.8493 1183.47 58.0964 1192.44 62.5783L1193.33 60.7894C1184.07 56.1586 1173.89 53.8493 1162.81 53.8493V55.8493ZM1192.46 62.5887C1201.59 66.8874 1208.73 73.0534 1213.91 81.0888L1215.59 80.0054C1210.2 71.638 1202.76 65.2285 1193.31 60.779L1192.46 62.5887ZM1213.92 81.0974C1219.09 88.9428 1221.68 97.8617 1221.68 107.885H1223.68C1223.68 97.4962 1220.99 88.1897 1215.59 79.9968L1213.92 81.0974ZM1221.68 107.885V122.648H1223.68V107.885H1221.68ZM1221.68 122.648C1221.68 126.737 1220.16 130.213 1217.07 133.129L1218.45 134.583C1221.92 131.303 1223.68 127.307 1223.68 122.648H1221.68ZM1217.1 133.109C1214.03 135.836 1210.09 137.23 1205.18 137.23V139.23C1210.49 139.23 1214.93 137.709 1218.42 134.604L1217.1 133.109ZM1205.18 137.23H1136.29V139.23H1205.18V137.23ZM1135.29 138.23V142.058H1137.29V138.23H1135.29ZM1135.29 142.058C1135.29 149.564 1137.55 155.831 1142.12 160.779L1143.59 159.423C1139.41 154.893 1137.29 149.132 1137.29 142.058H1135.29ZM1142.15 160.808C1146.95 165.611 1153.89 167.935 1162.81 167.935V165.935C1154.23 165.935 1147.87 163.703 1143.56 159.394L1142.15 160.808ZM1162.81 167.935C1171.49 167.935 1178.07 166.094 1182.35 162.208L1181 160.728C1177.26 164.132 1171.27 165.935 1162.81 165.935V167.935ZM1182.36 162.191C1186.58 158.171 1188.69 153.169 1188.69 147.252H1186.69C1186.69 152.634 1184.79 157.11 1180.98 160.744L1182.36 162.191ZM1187.79 148.247C1191.43 147.883 1194.12 147.705 1195.89 147.705V145.705C1194.02 145.705 1191.24 145.892 1187.59 146.257L1187.79 148.247ZM1195.89 147.705C1203.24 147.705 1208.73 149.232 1212.5 152.144L1213.72 150.561C1209.47 147.277 1203.48 145.705 1195.89 145.705V147.705ZM1212.5 152.144C1216.22 155.016 1218.13 159.252 1218.13 165.022H1220.13C1220.13 158.763 1218.03 153.885 1213.72 150.561L1212.5 152.144ZM1218.13 165.022C1218.13 169.584 1215.85 174.265 1211.04 179.077L1212.45 180.491C1217.48 175.461 1220.13 170.301 1220.13 165.022H1218.13ZM1211.04 179.077C1206.25 183.864 1199.56 187.806 1190.91 190.87L1191.58 192.756C1200.42 189.623 1207.4 185.547 1212.45 180.491L1211.04 179.077ZM1190.9 190.873C1182.46 193.926 1173.01 195.46 1162.54 195.46V197.46C1173.21 197.46 1182.89 195.897 1191.58 192.753L1190.9 190.873ZM1189.78 111.712V107.885H1187.78V111.712H1189.78ZM1189.78 107.885C1189.78 100.344 1187.22 94.3084 1182.05 89.9009L1180.75 91.4234C1185.42 95.3997 1187.78 100.846 1187.78 107.885H1189.78ZM1182.08 89.9274C1177.12 85.3477 1170.57 83.1011 1162.54 83.1011V85.1011C1170.18 85.1011 1176.21 87.2285 1180.72 91.397L1182.08 89.9274ZM1162.54 83.1011C1154.5 83.1011 1147.87 85.348 1142.74 89.9148L1144.06 91.4096C1148.77 87.2281 1154.9 85.1011 1162.54 85.1011V83.1011ZM1142.74 89.9132C1137.75 94.3246 1135.29 100.357 1135.29 107.885H1137.29C1137.29 100.833 1139.57 95.3834 1144.06 91.4112L1142.74 89.9132ZM1135.29 107.885V111.712H1137.29V107.885H1135.29ZM1136.29 112.712H1188.78V110.712H1136.29V112.712Z" fill="white" fill-opacity="0.47" mask="url(#path-1-outside-1_90_4211)"/>
</svg>
