<svg width="141" height="24" viewBox="0 0 141 24" fill="none" xmlns="http://www.w3.org/2000/svg">
<path d="M0.719937 4.11112C0.719937 3.02519 1.10628 2.2003 1.87896 1.63645C2.67252 1.07261 3.8211 0.790684 5.32469 0.790684V9.96886H14.127V4.11112C14.127 3.02519 14.5133 2.2003 15.286 1.63645C16.0796 1.07261 17.2281 0.790684 18.7317 0.790684V19.9615C18.7317 21.0474 18.3349 21.8723 17.5414 22.4362C16.7687 23 15.6306 23.2819 14.127 23.2819V13.9471H5.32469V19.9615C5.32469 21.0474 4.92791 21.8723 4.13434 22.4362C3.36167 23 2.22353 23.2819 0.719937 23.2819V4.11112ZM36.3542 20.0241C36.3542 21.0683 36.0096 21.8723 35.3204 22.4362C34.6313 23 33.608 23.2819 32.2506 23.2819V21.4338C32.5638 21.0996 32.8249 20.7446 33.0337 20.3687L32.8144 20.2434C31.4988 22.2691 29.7237 23.2819 27.4892 23.2819C26.4451 23.2819 25.4949 23.0418 24.6387 22.5615C23.7824 22.0603 23.1037 21.3711 22.6025 20.494C22.1222 19.596 21.8821 18.5832 21.8821 17.4555V9.56164C21.8821 8.66366 22.2266 8.02672 22.9158 7.65083C23.6258 7.25404 24.7118 7.05565 26.1736 7.05565V17.1423C26.1736 17.8941 26.4033 18.4892 26.8627 18.9278C27.3222 19.3663 27.9904 19.5856 28.8675 19.5856C29.8699 19.5856 30.653 19.2723 31.2169 18.6458C31.7807 17.9985 32.0626 17.1736 32.0626 16.1712V9.56164C32.0626 8.66366 32.4072 8.02672 33.0964 7.65083C33.8064 7.25404 34.8923 7.05565 36.3542 7.05565V20.0241ZM39.8148 10.3134C39.8148 9.26928 40.1489 8.46527 40.8172 7.90142C41.4855 7.33758 42.4983 7.05565 43.8557 7.05565V8.90382C43.5425 9.23795 43.2814 9.59297 43.0726 9.96886L43.2919 10.0942C43.9601 9.09177 44.6493 8.33997 45.3593 7.83877C46.0902 7.31669 46.9569 7.05565 47.9593 7.05565C49.7343 7.05565 50.9665 7.94319 51.6556 9.71827C52.1777 8.88294 52.8459 8.23556 53.6604 7.77612C54.4748 7.29581 55.3937 7.05565 56.417 7.05565C57.837 7.05565 58.9647 7.57773 59.8001 8.6219C60.6563 9.66606 61.0844 10.9921 61.0844 12.6002V20.7759C61.0844 21.6739 60.7398 22.3213 60.0507 22.7181C59.3615 23.094 58.2965 23.2819 56.8555 23.2819V12.976C56.8555 12.266 56.6989 11.7022 56.3857 11.2845C56.0724 10.8668 55.5817 10.658 54.9134 10.658C54.2451 10.658 53.6813 10.8982 53.2218 11.3785C52.7624 11.8379 52.5327 12.621 52.5327 13.7278V20.7759C52.5327 21.6739 52.1881 22.3213 51.499 22.7181C50.8307 23.094 49.7866 23.2819 48.3665 23.2819V12.976C48.3665 12.266 48.2099 11.7022 47.8966 11.2845C47.5834 10.8668 47.1031 10.658 46.4557 10.658C44.8477 10.658 44.0437 11.7335 44.0437 13.8845V20.7759C44.0437 21.6739 43.6991 22.3213 43.0099 22.7181C42.3208 23.094 41.2558 23.2819 39.8148 23.2819V10.3134ZM69.579 23.2819C68.5558 23.2819 67.5951 23.0835 66.6972 22.6868C65.8201 22.2691 65.11 21.6739 64.5671 20.9012C64.0241 20.1077 63.7526 19.1575 63.7526 18.0507C63.7526 16.9439 64.045 15.9937 64.6297 15.2001C65.2144 14.3857 65.9871 13.7696 66.9478 13.3519C67.9293 12.9343 68.9943 12.7255 70.1429 12.7255C71.1035 12.7255 71.9493 12.8716 72.6802 13.164C73.432 13.4564 74.1316 13.8845 74.779 14.4483L74.9356 14.2604C74.497 13.8636 74.1525 13.5817 73.9019 13.4146V13.0074C73.9019 12.2138 73.6095 11.5873 73.0248 11.1279C72.4609 10.6476 71.6569 10.4074 70.6128 10.4074C69.6939 10.4074 68.8795 10.5745 68.1694 10.9086C67.4594 11.2427 66.8851 11.7335 66.4466 12.3809C65.9454 12.2556 65.5173 12.0259 65.1622 11.6917C64.8281 11.3367 64.661 10.9504 64.661 10.5327C64.661 9.88533 64.943 9.3006 65.5068 8.77852C66.0707 8.23556 66.8329 7.81789 67.7935 7.52553C68.775 7.21228 69.8505 7.05565 71.02 7.05565C73.2963 7.05565 75.0504 7.57773 76.2826 8.6219C77.5147 9.66606 78.1307 11.0861 78.1307 12.8821V20.494C78.1307 21.4755 77.807 22.1856 77.1597 22.6241C76.5332 23.0626 75.5308 23.2819 74.1525 23.2819V22.0603C74.4657 21.7679 74.7163 21.5068 74.9043 21.2771L74.7476 21.1205C74.0585 21.8305 73.338 22.3735 72.5862 22.7494C71.8344 23.1044 70.832 23.2819 69.579 23.2819ZM70.7694 20.2121C71.7718 20.2121 72.5549 20.0241 73.1187 19.6482C73.6826 19.2723 73.9645 18.7294 73.9645 18.0193C73.9645 17.3302 73.6722 16.7872 73.0874 16.3905C72.5236 15.9937 71.7509 15.7953 70.7694 15.7953C69.8923 15.7953 69.1927 15.9937 68.6706 16.3905C68.1694 16.7872 67.9188 17.3302 67.9188 18.0193C67.9188 18.7294 68.1694 19.2723 68.6706 19.6482C69.1927 20.0241 69.8923 20.2121 70.7694 20.2121ZM81.4181 4.11112C81.4181 3.02519 81.8045 2.2003 82.5771 1.63645C83.3707 1.07261 84.5193 0.790684 86.0229 0.790684V9.96886H94.8252V4.11112C94.8252 3.02519 95.2115 2.2003 95.9842 1.63645C96.7777 1.07261 97.9263 0.790684 99.4299 0.790684V19.9615C99.4299 21.0474 99.0331 21.8723 98.2396 22.4362C97.4669 23 96.3287 23.2819 94.8252 23.2819V13.9471H86.0229V19.9615C86.0229 21.0474 85.6261 21.8723 84.8325 22.4362C84.0598 23 82.9217 23.2819 81.4181 23.2819V4.11112ZM105.65 5.86531C104.857 5.86531 104.188 5.63559 103.645 5.17616C103.123 4.69585 102.862 4.07979 102.862 3.328C102.862 2.5762 103.123 1.97059 103.645 1.51116C104.188 1.03084 104.857 0.790684 105.65 0.790684C106.444 0.790684 107.101 1.03084 107.624 1.51116C108.167 1.97059 108.438 2.5762 108.438 3.328C108.438 4.07979 108.167 4.69585 107.624 5.17616C107.101 5.63559 106.444 5.86531 105.65 5.86531ZM103.489 9.56164C103.489 8.66366 103.844 8.02672 104.554 7.65083C105.264 7.25404 106.339 7.05565 107.78 7.05565V20.7759C107.78 21.6739 107.425 22.3213 106.715 22.7181C106.005 23.094 104.93 23.2819 103.489 23.2819V9.56164ZM118.296 23.2819C117.732 23.2819 117.241 23.1566 116.824 22.906C116.427 22.6554 116.145 22.3109 115.978 21.8723L110.465 7.40023C110.611 7.29581 110.882 7.21228 111.279 7.14963C111.697 7.08698 112.041 7.05565 112.313 7.05565C112.981 7.05565 113.576 7.19139 114.098 7.46288C114.641 7.71348 114.996 8.09981 115.163 8.6219L118.077 17.8941L117.544 19.429L117.826 19.5229L121.428 8.6219C121.595 8.09981 121.94 7.71348 122.462 7.46288C123.005 7.19139 123.611 7.05565 124.279 7.05565C124.55 7.05565 124.884 7.08698 125.281 7.14963C125.699 7.21228 125.981 7.29581 126.127 7.40023L120.614 21.8723C120.447 22.3109 120.154 22.6554 119.737 22.906C119.34 23.1566 118.86 23.2819 118.296 23.2819ZM133.923 23.2819C132.628 23.2819 131.428 23.0209 130.321 22.4988C129.235 21.9767 128.368 21.2667 127.721 20.3687C127.074 19.4707 126.75 18.4683 126.75 17.3615V13.3519C126.75 12.1825 127.074 11.1174 127.721 10.1568C128.389 9.1753 129.277 8.41306 130.384 7.8701C131.49 7.32714 132.681 7.05565 133.955 7.05565C135.208 7.05565 136.356 7.31669 137.4 7.83877C138.465 8.33997 139.301 9.06044 139.906 10.0002C140.512 10.9191 140.815 11.9632 140.815 13.1327V14.8242C140.815 15.3254 140.627 15.7535 140.251 16.1085C139.875 16.4427 139.395 16.6097 138.81 16.6097H130.916V17.0483C130.916 17.8836 131.167 18.5728 131.668 19.1157C132.19 19.6378 132.952 19.8988 133.955 19.8988C134.936 19.8988 135.657 19.69 136.116 19.2723C136.575 18.8338 136.805 18.2908 136.805 17.6435C137.223 17.6017 137.536 17.5808 137.745 17.5808C138.601 17.5808 139.259 17.7583 139.718 18.1133C140.178 18.4683 140.407 18.9904 140.407 19.6796C140.407 20.2434 140.126 20.8073 139.562 21.3711C138.998 21.935 138.215 22.3944 137.212 22.7494C136.231 23.1044 135.134 23.2819 133.923 23.2819ZM136.93 13.5712V13.1327C136.93 12.2973 136.648 11.6395 136.085 11.1592C135.542 10.658 134.821 10.4074 133.923 10.4074C133.025 10.4074 132.294 10.658 131.73 11.1592C131.188 11.6395 130.916 12.2973 130.916 13.1327V13.5712H136.93Z" fill="white"/>
</svg>
