<svg width="33" height="38" viewBox="0 0 33 38" fill="none" xmlns="http://www.w3.org/2000/svg">
<path fill-rule="evenodd" clip-rule="evenodd" d="M3.63934e-06 27.0481V10.9516C3.63934e-06 10.0405 0.486086 9.19858 1.27514 8.74305L15.2161 0.69467C16.0051 0.239165 16.9771 0.239166 17.7661 0.694671L26.4368 5.70042V12.4748C26.4368 12.6237 26.3718 12.7652 26.2587 12.8621L21.3284 17.0881C20.9975 17.3716 20.4864 17.1366 20.4864 16.7008V8.11909C20.4864 7.8374 20.2581 7.60905 19.9764 7.60905L17.5962 7.60905C17.3145 7.60905 17.0862 7.8374 17.0862 8.11909V12.4748C17.0862 12.6237 17.0211 12.7652 16.9081 12.8621L11.9778 17.0881C11.6469 17.3716 11.1358 17.1366 11.1358 16.7008V13.2194C11.1358 12.9377 10.9074 12.7094 10.6258 12.7094H8.2456C7.96392 12.7094 7.73557 12.9377 7.73557 13.2194V25.8003C7.73557 26.082 7.96392 26.3103 8.2456 26.3103H10.6258C10.9074 26.3103 11.1358 26.082 11.1358 25.8003V22.2122C11.1358 22.0618 11.2021 21.9191 11.3171 21.8222L16.2475 17.6666C16.5791 17.3871 17.0862 17.6228 17.0862 18.0566V30.9006C17.0862 31.1823 17.3145 31.4107 17.5962 31.4107L19.9764 31.4107C20.2581 31.4107 20.4864 31.1823 20.4864 30.9006V22.2946C20.4864 22.1457 20.5515 22.0043 20.6645 21.9074L25.5949 17.6814C25.9257 17.3978 26.4368 17.6329 26.4368 18.0686V32.2993L17.7661 37.305C16.9771 37.7605 16.0051 37.7605 15.2161 37.305L1.27514 29.2566C0.486084 28.8011 3.63934e-06 27.9592 3.63934e-06 27.0481ZM29.8371 30.3363L31.7071 29.2567C32.4961 28.8011 32.9822 27.9592 32.9822 27.0481V10.9516C32.9822 10.0405 32.4961 9.19858 31.7071 8.74305L29.8371 7.66344V30.3363Z" fill="white"/>
</svg>
