<svg width="116" height="116" viewBox="0 0 116 116" fill="none" xmlns="http://www.w3.org/2000/svg">
<g filter="url(#filter0_d_70_3811)">
<rect x="30" y="26" width="56" height="56" rx="16" fill="white"/>
<path d="M68 55C68.5523 55 69 54.5523 69 54C69 53.4477 68.5523 53 68 53V55ZM46.2929 53.2929C45.9024 53.6834 45.9024 54.3166 46.2929 54.7071L52.6569 61.0711C53.0474 61.4616 53.6805 61.4616 54.0711 61.0711C54.4616 60.6805 54.4616 60.0474 54.0711 59.6569L48.4142 54L54.0711 48.3431C54.4616 47.9526 54.4616 47.3195 54.0711 46.9289C53.6805 46.5384 53.0474 46.5384 52.6569 46.9289L46.2929 53.2929ZM68 53H47V55H68V53Z" fill="url(#paint0_linear_70_3811)"/>
</g>
<defs>
<filter id="filter0_d_70_3811" x="0" y="0" width="116" height="116" filterUnits="userSpaceOnUse" color-interpolation-filters="sRGB">
<feFlood flood-opacity="0" result="BackgroundImageFix"/>
<feColorMatrix in="SourceAlpha" type="matrix" values="0 0 0 0 0 0 0 0 0 0 0 0 0 0 0 0 0 0 127 0" result="hardAlpha"/>
<feOffset dy="4"/>
<feGaussianBlur stdDeviation="15"/>
<feComposite in2="hardAlpha" operator="out"/>
<feColorMatrix type="matrix" values="0 0 0 0 0.894043 0 0 0 0 0.894043 0 0 0 0 0.894043 0 0 0 0.25 0"/>
<feBlend mode="normal" in2="BackgroundImageFix" result="effect1_dropShadow_70_3811"/>
<feBlend mode="normal" in="SourceGraphic" in2="effect1_dropShadow_70_3811" result="shape"/>
</filter>
<linearGradient id="paint0_linear_70_3811" x1="46.5133" y1="53.8785" x2="48.7283" y2="60.9025" gradientUnits="userSpaceOnUse">
<stop stop-color="#11AFB4"/>
<stop offset="1" stop-color="#095F62"/>
</linearGradient>
</defs>
</svg>
