<svg width="163" height="175" viewBox="0 0 163 175" fill="none" xmlns="http://www.w3.org/2000/svg">
<path d="M51.5949 172.585H47.0564C42.0858 172.585 38.0564 168.555 38.0564 163.585V131.673C38.0564 128.575 36.4634 125.695 33.8393 124.049L7.24544 107.365C3.6674 105.12 2.56928 100.41 4.78575 96.8144V96.8144C6.96412 93.2806 11.5538 92.1133 15.1558 94.1769L40.3735 108.625C41.7355 109.405 43.2778 109.815 44.8475 109.815H71.82C73.4281 109.815 75.0067 109.385 76.3919 108.568L102.328 93.2719C105.86 91.1887 110.398 92.138 112.799 95.4625V95.4625C115.465 99.1534 114.488 104.325 110.659 106.789L82.8317 124.696C80.8964 125.942 79.7267 128.085 79.7267 130.387V130.387" stroke="#FBBB5A" stroke-width="4" stroke-linecap="round"/>
<path d="M45.6169 83.1782C45.6169 75.2641 52.0325 68.8485 59.9466 68.8485C67.8606 68.8485 74.2762 75.2641 74.2762 83.1782C74.2762 91.0922 67.8606 97.5079 59.9466 97.5079C52.0325 97.5079 45.6169 91.0922 45.6169 83.1782Z" stroke="#FBBB5A" stroke-width="4"/>
<path d="M94.1868 78.5053L90.5032 65.0458C90.2653 64.1765 89.4754 63.5738 88.5741 63.5738H85.0344C80.0638 63.5738 76.0344 59.5443 76.0344 54.5738V11.9144C76.0344 6.94387 80.0638 2.91443 85.0344 2.91443H151.782C156.752 2.91443 160.782 6.94387 160.782 11.9144V54.5738C160.782 59.5443 156.752 63.5738 151.782 63.5738H110.511C109.942 63.5738 109.4 63.8161 109.021 64.2402L95.8966 78.9081C95.3683 79.4985 94.396 79.2694 94.1868 78.5053Z" stroke="#11AFB4" stroke-width="4"/>
<path d="M101.496 172.585H66.5729C61.6024 172.585 57.5729 168.555 57.5729 163.585V146.958C57.5729 141.988 61.6024 137.958 66.5729 137.958H101.496C106.467 137.958 110.496 141.988 110.496 146.958V163.585C110.496 168.555 106.467 172.585 101.496 172.585Z" stroke="#11AFB4" stroke-width="4"/>
<path d="M132.874 35.5957L118.298 50.0316L103.722 35.5957C102.761 34.6602 102.003 33.5357 101.498 32.2931C100.992 31.0505 100.75 29.7167 100.785 28.3757C100.82 27.0347 101.133 25.7156 101.703 24.5013C102.273 23.2871 103.089 22.204 104.098 21.3204C105.107 20.4367 106.289 19.7717 107.568 19.367C108.847 18.9624 110.196 18.827 111.53 18.9693C112.863 19.1115 114.153 19.5285 115.318 20.1938C116.483 20.8592 117.498 21.7585 118.298 22.8351C119.102 21.7663 120.117 20.8748 121.281 20.2166C122.445 19.5583 123.733 19.1474 125.063 19.0095C126.393 18.8717 127.737 19.0099 129.012 19.4154C130.286 19.821 131.463 20.4853 132.469 21.3666C133.474 22.2479 134.287 23.3274 134.857 24.5374C135.426 25.7474 135.74 27.0619 135.778 28.3986C135.816 29.7354 135.577 31.0656 135.078 32.306C134.578 33.5464 133.828 34.6703 132.874 35.6074" fill="#FA91B7"/>
</svg>
