<svg width="220" height="172" viewBox="0 0 220 172" fill="none" xmlns="http://www.w3.org/2000/svg">
<path d="M176.042 7.39349C176.042 4.41475 178.457 2 181.435 2H209.344C213.604 2 216.182 6.70715 213.889 10.2973L211.571 13.9257C209.817 16.6705 209.84 20.1895 211.628 22.9115L213.699 26.0626C216.056 29.6491 213.483 34.418 209.192 34.418H176.042V7.39349Z" fill="#FCCA7F"/>
<path d="M176.042 65.3736V34.418M176.042 34.418V7.39349C176.042 4.41475 178.457 2 181.435 2H209.344C213.604 2 216.182 6.70715 213.889 10.2973L211.571 13.9257C209.817 16.6705 209.84 20.1895 211.628 22.9115L213.699 26.0626C216.056 29.6491 213.483 34.418 209.192 34.418H176.042Z" stroke="url(#paint0_linear_246_2807)" stroke-width="4" stroke-linecap="round"/>
<path fill-rule="evenodd" clip-rule="evenodd" d="M80.3233 38C80.6233 36.7136 80.7817 35.3748 80.7817 34H157.782C158.886 34 159.782 34.8954 159.782 36C159.782 37.1046 158.886 38 157.782 38H80.3233ZM44.2401 38H29.9635C16.056 38 4.78168 49.2743 4.78168 63.1818C4.78168 77.0894 16.056 88.3636 29.9635 88.3636H127.463C136.475 88.3636 144.625 92.0519 150.486 98.0011C150.418 98.0004 150.35 98 150.282 98C148.559 98 146.892 98.2417 145.31 98.6939C140.44 94.7359 134.229 92.3636 127.463 92.3636H29.9635C13.8468 92.3636 0.781677 79.2985 0.781677 63.1818C0.781677 47.0651 13.8468 34 29.9635 34H43.7817C43.7817 35.3748 43.9401 36.7136 44.2401 38ZM151.303 135.972C146.267 143.808 137.471 149 127.463 149H63.1456C63.1697 149.52 63.1819 150.044 63.1819 150.571C63.1819 151.391 63.1524 152.201 63.0948 153H127.463C140.209 153 151.232 145.621 156.493 134.903C154.857 135.501 153.115 135.87 151.303 135.972ZM24.0441 150.571C24.0441 151.391 24.0736 152.201 24.1312 153H2.78168C1.67711 153 0.781677 152.105 0.781677 151C0.781677 149.895 1.67711 149 2.78168 149H24.0805C24.0564 149.52 24.0441 150.044 24.0441 150.571Z" fill="#12A9AE"/>
<circle cx="62.047" cy="34.2653" r="18.2653" fill="#FA91B7" stroke="#12A9AE" stroke-width="4"/>
<circle cx="154.047" cy="116.265" r="18.2653" fill="#FA91B7" stroke="#12A9AE" stroke-width="4"/>
<path d="M146.741 116.265L151.307 120.832L161.353 110.786" stroke="white" stroke-width="4" stroke-linecap="round" stroke-linejoin="round"/>
<path d="M54.7408 34.2652L59.3072 38.8316L69.3531 28.7856" stroke="white" stroke-width="4" stroke-linecap="round" stroke-linejoin="round"/>
<circle cx="43.047" cy="151.265" r="18.2653" fill="#FA91B7" stroke="#12A9AE" stroke-width="4"/>
<path d="M35.7408 151.265L40.3072 155.832L50.3531 145.786" stroke="white" stroke-width="4" stroke-linecap="round" stroke-linejoin="round"/>
<defs>
<linearGradient id="paint0_linear_246_2807" x1="175.042" y1="-5.70203" x2="224.831" y2="-0.583136" gradientUnits="userSpaceOnUse">
<stop stop-color="#11AFB4"/>
<stop offset="1" stop-color="#095F62"/>
</linearGradient>
</defs>
</svg>
