<svg width="166" height="166" viewBox="0 0 166 166" fill="none" xmlns="http://www.w3.org/2000/svg">
<path d="M82.2817 165.914C83.3862 165.914 84.2817 165.019 84.2817 163.914C84.2817 162.81 83.3862 161.914 82.2817 161.914V165.914ZM2.78168 29.9144L1.39341 28.4747L0.781677 29.0646V29.9144H2.78168ZM30.7817 2.91443V0.914429H29.9745L29.3934 1.47474L30.7817 2.91443ZM125.782 40.4144C125.782 41.519 126.677 42.4144 127.782 42.4144C128.886 42.4144 129.782 41.519 129.782 40.4144H125.782ZM82.2817 161.914H11.7817V165.914H82.2817V161.914ZM4.78168 154.914V29.9144H0.781677V154.914H4.78168ZM2.78168 31.9144H28.7817V27.9144H2.78168V31.9144ZM32.7817 27.9144V2.91443H28.7817V27.9144H32.7817ZM29.3934 1.47474L1.39341 28.4747L4.16995 31.3541L32.1699 4.35412L29.3934 1.47474ZM30.7817 4.91443H118.782V0.914429H30.7817V4.91443ZM125.782 11.9144V40.4144H129.782V11.9144H125.782ZM86.7817 18.9144H92.7817V14.9144H86.7817V18.9144ZM100.782 18.9144H105.282V14.9144H100.782V18.9144ZM112.282 25.9144V29.9144H116.282V25.9144H112.282ZM105.282 18.9144C109.148 18.9144 112.282 22.0484 112.282 25.9144H116.282C116.282 19.8393 111.357 14.9144 105.282 14.9144V18.9144ZM118.782 4.91443C122.648 4.91443 125.782 8.04844 125.782 11.9144H129.782C129.782 5.8393 124.857 0.914429 118.782 0.914429V4.91443ZM28.7817 31.9144C30.9908 31.9144 32.7817 30.1236 32.7817 27.9144H28.7817V31.9144ZM11.7817 161.914C7.91568 161.914 4.78168 158.78 4.78168 154.914H0.781677C0.781677 160.99 5.70654 165.914 11.7817 165.914V161.914Z" fill="#12A9AE"/>
<path d="M135.782 112.414H154.282C159.252 112.414 163.282 116.444 163.282 121.414V154.914C163.282 159.885 159.252 163.914 154.282 163.914H101.782C96.8111 163.914 92.7817 159.885 92.7817 154.914V121.414C92.7817 116.444 96.8111 112.414 101.782 112.414H120.282M135.782 112.414V112.414C135.782 115.452 133.319 117.914 130.282 117.914H128.282M135.782 112.414V102.414M120.282 112.414V112.414C120.282 115.452 122.744 117.914 125.782 117.914H128.282M120.282 112.414V102.414M128.282 149.914V117.914M120.282 102.414H135.782M120.282 102.414H119.782C114.811 102.414 110.782 98.385 110.782 93.4144V79.9144M135.782 102.414H136.782C141.752 102.414 145.782 98.385 145.782 93.4144V77.1644M110.782 79.9144V60.9144C110.782 55.9439 114.811 51.9144 119.782 51.9144H136.782C141.752 51.9144 145.782 55.9439 145.782 60.9144V77.1644M110.782 79.9144H111.622C115.813 79.9144 119.449 77.0217 120.392 72.9382L121.176 69.5378C121.385 68.6344 122.604 68.4765 123.036 69.2969L124.363 71.818C125.86 74.6624 128.76 76.4925 131.972 76.6193L145.782 77.1644" stroke="#FCCA7F" stroke-width="4" stroke-linecap="round"/>
<path d="M48.8261 46.5971C50.3408 40.3535 59.2226 40.3535 60.7372 46.5971C60.9645 47.535 61.41 48.4061 62.0375 49.1393C62.6651 49.8725 63.4568 50.4472 64.3484 50.8166C65.24 51.186 66.2063 51.3397 67.1685 51.2651C68.1307 51.1905 69.0617 50.8897 69.8857 50.3873C75.3719 47.0451 81.6546 53.3242 78.3123 58.814C77.8106 59.6376 77.5104 60.5681 77.436 61.5296C77.3615 62.4912 77.515 63.4567 77.884 64.3478C78.253 65.2388 78.827 66.0303 79.5594 66.6577C80.2918 67.2852 81.1619 67.731 82.099 67.9589C88.3426 69.4735 88.3426 78.3553 82.099 79.87C81.1611 80.0972 80.29 80.5428 79.5568 81.1703C78.8236 81.7978 78.2489 82.5896 77.8795 83.4812C77.5101 84.3728 77.3564 85.339 77.431 86.3012C77.5056 87.2634 77.8064 88.1944 78.3088 89.0184C81.651 94.5047 75.3719 100.787 69.8821 97.4451C69.0585 96.9434 68.128 96.6431 67.1665 96.5687C66.2049 96.4943 65.2394 96.6478 64.3483 97.0168C63.4573 97.3857 62.6658 97.9597 62.0384 98.6921C61.4109 99.4245 60.9651 100.295 60.7372 101.232C59.2226 107.475 50.3408 107.475 48.8261 101.232C48.5989 100.294 48.1533 99.4228 47.5258 98.6895C46.8983 97.9563 46.1065 97.3816 45.2149 97.0122C44.3233 96.6428 43.3571 96.4892 42.3949 96.5638C41.4327 96.6384 40.5017 96.9391 39.6777 97.4415C34.1915 100.784 27.9088 94.5047 31.251 89.0149C31.7527 88.1912 32.053 87.2608 32.1274 86.2992C32.2018 85.3377 32.0483 84.3721 31.6794 83.4811C31.3104 82.59 30.7364 81.7986 30.004 81.1711C29.2716 80.5437 28.4015 80.0979 27.4643 79.87C21.2208 78.3553 21.2208 69.4735 27.4643 67.9589C28.4023 67.7316 29.2733 67.2861 30.0066 66.6586C30.7398 66.0311 31.3145 65.2393 31.6839 64.3477C32.0533 63.4561 32.2069 62.4898 32.1323 61.5276C32.0577 60.5654 31.757 59.6344 31.2546 58.8104C27.9123 53.3242 34.1915 47.0415 39.6812 50.3838C43.2368 52.5455 47.8448 50.6327 48.8261 46.5971Z" fill="#FA91B7"/>
<path d="M44.115 73.9146C44.115 76.7436 45.2388 79.4567 47.2392 81.4571C49.2396 83.4575 51.9527 84.5813 54.7817 84.5813C57.6106 84.5813 60.3237 83.4575 62.3241 81.4571C64.3245 79.4567 65.4483 76.7436 65.4483 73.9146C65.4483 71.0856 64.3245 68.3725 62.3241 66.3721C60.3237 64.3717 57.6106 63.2479 54.7817 63.2479C51.9527 63.2479 49.2396 64.3717 47.2392 66.3721C45.2388 68.3725 44.115 71.0856 44.115 73.9146Z" stroke="white" stroke-width="4" stroke-linecap="round" stroke-linejoin="round"/>
</svg>
