<svg width="11" height="9" viewBox="0 0 11 9" fill="none" xmlns="http://www.w3.org/2000/svg">
<path d="M1 4C0.723858 4 0.5 4.22386 0.5 4.5C0.5 4.77614 0.723858 5 1 5V4ZM10.3795 4.85355C10.5748 4.65829 10.5748 4.34171 10.3795 4.14645L7.19754 0.964466C7.00228 0.769204 6.6857 0.769204 6.49044 0.964466C6.29517 1.15973 6.29517 1.47631 6.49044 1.67157L9.31886 4.5L6.49044 7.32843C6.29517 7.52369 6.29517 7.84027 6.49044 8.03553C6.6857 8.2308 7.00228 8.2308 7.19754 8.03553L10.3795 4.85355ZM1 5H10.026V4H1V5Z" fill="white"/>
</svg>
