<svg width="1264" height="223" viewBox="0 0 1264 223" fill="none" xmlns="http://www.w3.org/2000/svg">
<mask id="path-1-outside-1_561_2669" maskUnits="userSpaceOnUse" x="22" y="12" width="1225" height="199" fill="black">
<rect fill="white" x="22" y="12" width="1225" height="199"/>
<path d="M23.0359 42.1516C23.0359 32.6744 26.4076 25.4754 33.151 20.5545C40.0766 15.6337 50.1006 13.1732 63.2229 13.1732V93.2737H140.043V42.1516C140.043 32.6744 143.414 25.4754 150.158 20.5545C157.083 15.6337 167.107 13.1732 180.23 13.1732V180.482C180.23 189.959 176.767 197.158 169.841 202.079C163.098 207 153.165 209.46 140.043 209.46V127.993H63.2229V180.482C63.2229 189.959 59.76 197.158 52.8344 202.079C46.091 207 36.1582 209.46 23.0359 209.46V42.1516ZM334.025 181.029C334.025 190.142 331.018 197.158 325.004 202.079C318.99 207 310.059 209.46 298.213 209.46V193.331C300.946 190.415 303.225 187.317 305.047 184.036L303.133 182.943C291.651 200.621 276.16 209.46 256.659 209.46C247.546 209.46 239.254 207.365 231.781 203.173C224.309 198.799 218.385 192.784 214.011 185.13C209.82 177.293 207.724 168.453 207.724 158.612V89.7198C207.724 81.8829 210.731 76.3241 216.745 73.0436C222.942 69.5808 232.419 67.8493 245.177 67.8493V155.878C245.177 162.439 247.182 167.633 251.191 171.461C255.201 175.288 261.033 177.202 268.687 177.202C277.436 177.202 284.27 174.468 289.191 169C294.112 163.35 296.572 156.151 296.572 147.403V89.7198C296.572 81.8829 299.579 76.3241 305.594 73.0436C311.79 69.5808 321.268 67.8493 334.025 67.8493V181.029ZM364.228 96.2809C364.228 87.1682 367.144 80.1515 372.976 75.2306C378.808 70.3098 387.647 67.8493 399.494 67.8493V83.9788C396.76 86.8948 394.482 89.9932 392.659 93.2737L394.573 94.3672C400.405 85.6191 406.419 79.0579 412.616 74.6838C418.995 70.1275 426.558 67.8493 435.307 67.8493C450.798 67.8493 461.551 75.5951 467.565 91.0867C472.122 83.7965 477.954 78.1467 485.062 74.1371C492.17 69.9453 500.189 67.8493 509.119 67.8493C521.512 67.8493 531.354 72.4057 538.644 81.5184C546.117 90.631 549.853 102.204 549.853 116.238V187.59C549.853 195.427 546.846 201.077 540.831 204.54C534.817 207.82 525.522 209.46 512.947 209.46V119.518C512.947 113.322 511.58 108.401 508.846 104.756C506.112 101.111 501.829 99.2881 495.997 99.2881C490.165 99.2881 485.244 101.384 481.234 105.576C477.225 109.585 475.22 116.42 475.22 126.079V187.59C475.22 195.427 472.213 201.077 466.198 204.54C460.366 207.82 451.254 209.46 438.86 209.46V119.518C438.86 113.322 437.494 108.401 434.76 104.756C432.026 101.111 427.834 99.2881 422.184 99.2881C408.151 99.2881 401.134 108.674 401.134 127.446V187.59C401.134 195.427 398.127 201.077 392.112 204.54C386.098 207.82 376.803 209.46 364.228 209.46V96.2809ZM623.988 209.46C615.058 209.46 606.674 207.729 598.837 204.266C591.182 200.621 584.986 195.427 580.247 188.684C575.509 181.758 573.139 173.465 573.139 163.806C573.139 154.146 575.691 145.854 580.794 138.928C585.897 131.82 592.641 126.444 601.024 122.799C609.59 119.154 618.885 117.331 628.909 117.331C637.293 117.331 644.674 118.607 651.053 121.159C657.614 123.71 663.719 127.446 669.369 132.367L670.736 130.727C666.909 127.264 663.902 124.804 661.715 123.346V119.792C661.715 112.866 659.163 107.398 654.06 103.389C649.139 99.197 642.122 97.1011 633.01 97.1011C624.991 97.1011 617.883 98.5591 611.686 101.475C605.489 104.391 600.477 108.674 596.65 114.324C592.276 113.23 588.54 111.226 585.441 108.31C582.525 105.211 581.067 101.84 581.067 98.1946C581.067 92.5447 583.528 87.4416 588.449 82.8853C593.37 78.1467 600.022 74.5016 608.405 71.95C616.971 69.2162 626.357 67.8493 636.564 67.8493C656.429 67.8493 671.739 72.4057 682.492 81.5184C693.245 90.631 698.621 103.024 698.621 118.698V185.13C698.621 193.695 695.796 199.892 690.146 203.719C684.679 207.547 675.93 209.46 663.902 209.46V198.799C666.635 196.247 668.823 193.969 670.463 191.964L669.096 190.597C663.082 196.794 656.794 201.532 650.233 204.813C643.672 207.911 634.923 209.46 623.988 209.46ZM634.377 182.669C643.125 182.669 649.959 181.029 654.88 177.748C659.801 174.468 662.261 169.729 662.261 163.533C662.261 157.518 659.71 152.78 654.607 149.317C649.686 145.854 642.943 144.122 634.377 144.122C626.722 144.122 620.616 145.854 616.06 149.317C611.686 152.78 609.499 157.518 609.499 163.533C609.499 169.729 611.686 174.468 616.06 177.748C620.616 181.029 626.722 182.669 634.377 182.669ZM727.311 42.1516C727.311 32.6744 730.683 25.4754 737.426 20.5545C744.352 15.6337 754.376 13.1732 767.498 13.1732V93.2737H844.318V42.1516C844.318 32.6744 847.69 25.4754 854.433 20.5545C861.359 15.6337 871.383 13.1732 884.505 13.1732V180.482C884.505 189.959 881.042 197.158 874.116 202.079C867.373 207 857.44 209.46 844.318 209.46V127.993H767.498V180.482C767.498 189.959 764.035 197.158 757.109 202.079C750.366 207 740.433 209.46 727.311 209.46V42.1516ZM938.79 57.4609C931.864 57.4609 926.032 55.4561 921.294 51.4465C916.737 47.2547 914.459 41.8782 914.459 35.3171C914.459 28.7559 916.737 23.4706 921.294 19.461C926.032 15.2692 931.864 13.1732 938.79 13.1732C945.716 13.1732 951.457 15.2692 956.013 19.461C960.752 23.4706 963.121 28.7559 963.121 35.3171C963.121 41.8782 960.752 47.2547 956.013 51.4465C951.457 55.4561 945.716 57.4609 938.79 57.4609ZM919.927 89.7198C919.927 81.8829 923.025 76.3241 929.222 73.0436C935.418 69.5808 944.804 67.8493 957.38 67.8493V187.59C957.38 195.427 954.282 201.077 948.085 204.54C941.888 207.82 932.502 209.46 919.927 209.46V89.7198ZM1049.15 209.46C1044.23 209.46 1039.95 208.367 1036.3 206.18C1032.84 203.993 1030.38 200.986 1028.92 197.158L980.807 70.8565C982.083 69.9453 984.452 69.2162 987.915 68.6695C991.56 68.1227 994.567 67.8493 996.937 67.8493C1002.77 67.8493 1007.96 69.034 1012.52 71.4033C1017.26 73.5903 1020.36 76.962 1021.81 81.5184L1047.24 162.439L1042.59 175.835L1045.05 176.655L1076.49 81.5184C1077.95 76.962 1080.96 73.5903 1085.51 71.4033C1090.25 69.034 1095.54 67.8493 1101.37 67.8493C1103.74 67.8493 1106.65 68.1227 1110.12 68.6695C1113.76 69.2162 1116.22 69.9453 1117.5 70.8565L1069.38 197.158C1067.92 200.986 1065.37 203.993 1061.73 206.18C1058.27 208.367 1054.07 209.46 1049.15 209.46ZM1185.54 209.46C1174.24 209.46 1163.76 207.182 1154.1 202.626C1144.62 198.07 1137.06 191.873 1131.41 184.036C1125.76 176.199 1122.93 167.451 1122.93 157.792V122.799C1122.93 112.593 1125.76 103.298 1131.41 94.914C1137.24 86.3481 1144.99 79.6958 1154.65 74.9572C1164.3 70.2186 1174.69 67.8493 1185.81 67.8493C1196.75 67.8493 1206.77 70.1275 1215.88 74.6838C1225.18 79.0579 1232.47 85.3457 1237.75 93.5471C1243.04 101.566 1245.68 110.679 1245.68 120.885V135.648C1245.68 140.022 1244.04 143.758 1240.76 146.856C1237.48 149.772 1233.29 151.23 1228.18 151.23H1159.29V155.058C1159.29 162.348 1161.48 168.362 1165.85 173.101C1170.41 177.657 1177.06 179.935 1185.81 179.935C1194.38 179.935 1200.66 178.113 1204.67 174.468C1208.68 170.64 1210.69 165.902 1210.69 160.252C1214.33 159.887 1217.07 159.705 1218.89 159.705C1226.36 159.705 1232.1 161.254 1236.11 164.353C1240.12 167.451 1242.13 172.007 1242.13 178.022C1242.13 182.943 1239.67 187.863 1234.75 192.784C1229.82 197.705 1222.99 201.715 1214.24 204.813C1205.68 207.911 1196.11 209.46 1185.54 209.46ZM1211.78 124.712V120.885C1211.78 113.595 1209.32 107.854 1204.4 103.662C1199.66 99.2881 1193.37 97.1011 1185.54 97.1011C1177.7 97.1011 1171.32 99.2881 1166.4 103.662C1161.66 107.854 1159.29 113.595 1159.29 120.885V124.712H1211.78Z"/>
</mask>
<path d="M33.151 20.5545L32.5718 19.7393L32.5615 19.7467L33.151 20.5545ZM63.2229 13.1732H64.2229V12.1732H63.2229V13.1732ZM63.2229 93.2737H62.2229V94.2737H63.2229V93.2737ZM140.043 93.2737V94.2737H141.043V93.2737H140.043ZM150.158 20.5545L149.579 19.7393L149.568 19.7467L150.158 20.5545ZM180.23 13.1732H181.23V12.1732H180.23V13.1732ZM169.841 202.079L169.262 201.264L169.252 201.271L169.841 202.079ZM140.043 209.46H139.043V210.46H140.043V209.46ZM140.043 127.993H141.043V126.993H140.043V127.993ZM63.2229 127.993V126.993H62.2229V127.993H63.2229ZM52.8344 202.079L52.2551 201.264L52.2449 201.271L52.8344 202.079ZM23.0359 209.46H22.0359V210.46H23.0359V209.46ZM24.0359 42.1516C24.0359 32.9441 27.2927 26.0674 33.7405 21.3623L32.5615 19.7467C25.5225 24.8833 22.0359 32.4047 22.0359 42.1516H24.0359ZM33.7302 21.3697C40.4172 16.6184 50.2026 14.1732 63.2229 14.1732V12.1732C49.9986 12.1732 39.7361 14.6489 32.5718 19.7393L33.7302 21.3697ZM62.2229 13.1732V93.2737H64.2229V13.1732H62.2229ZM63.2229 94.2737H140.043V92.2737H63.2229V94.2737ZM141.043 93.2737V42.1516H139.043V93.2737H141.043ZM141.043 42.1516C141.043 32.9441 144.3 26.0674 150.747 21.3623L149.568 19.7467C142.529 24.8833 139.043 32.4047 139.043 42.1516H141.043ZM150.737 21.3697C157.424 16.6184 167.209 14.1732 180.23 14.1732V12.1732C167.005 12.1732 156.743 14.6489 149.579 19.7393L150.737 21.3697ZM179.23 13.1732V180.482H181.23V13.1732H179.23ZM179.23 180.482C179.23 189.679 175.89 196.555 169.262 201.264L170.42 202.894C177.644 197.762 181.23 190.24 181.23 180.482H179.23ZM169.252 201.271C162.752 206.014 153.066 208.46 140.043 208.46V210.46C153.264 210.46 163.443 207.986 170.431 202.887L169.252 201.271ZM141.043 209.46V127.993H139.043V209.46H141.043ZM140.043 126.993H63.2229V128.993H140.043V126.993ZM62.2229 127.993V180.482H64.2229V127.993H62.2229ZM62.2229 180.482C62.2229 189.679 58.8833 196.555 52.2552 201.264L53.4136 202.894C60.6367 197.762 64.2229 190.24 64.2229 180.482H62.2229ZM52.2449 201.271C45.7455 206.014 36.059 208.46 23.0359 208.46V210.46C36.2574 210.46 46.4365 207.986 53.4239 202.887L52.2449 201.271ZM24.0359 209.46V42.1516H22.0359V209.46H24.0359ZM325.004 202.079L324.371 201.305L325.004 202.079ZM298.213 209.46H297.213V210.46H298.213V209.46ZM298.213 193.331L297.483 192.647L297.213 192.936V193.331H298.213ZM305.047 184.036L305.921 184.522L306.401 183.658L305.543 183.168L305.047 184.036ZM303.133 182.943L303.63 182.074L302.809 181.606L302.295 182.398L303.133 182.943ZM231.781 203.173L231.276 204.036L231.284 204.04L231.292 204.045L231.781 203.173ZM214.011 185.13L213.13 185.601L213.136 185.614L213.143 185.626L214.011 185.13ZM216.745 73.0436L217.224 73.9215L217.233 73.9165L216.745 73.0436ZM245.177 67.8493H246.177V66.8493H245.177V67.8493ZM251.191 171.461L251.882 170.737L251.191 171.461ZM289.191 169L289.934 169.669L289.94 169.663L289.945 169.657L289.191 169ZM305.594 73.0436L306.073 73.9215L306.082 73.9165L305.594 73.0436ZM334.025 67.8493H335.025V66.8493H334.025V67.8493ZM333.025 181.029C333.025 189.899 330.112 196.608 324.371 201.305L325.637 202.853C331.925 197.709 335.025 190.384 335.025 181.029H333.025ZM324.371 201.305C318.608 206.02 309.944 208.46 298.213 208.46V210.46C310.174 210.46 319.371 207.98 325.637 202.853L324.371 201.305ZM299.213 209.46V193.331H297.213V209.46H299.213ZM298.942 194.015C301.728 191.043 304.056 187.879 305.921 184.522L304.173 183.55C302.393 186.755 300.164 189.787 297.483 192.647L298.942 194.015ZM305.543 183.168L303.63 182.074L302.637 183.811L304.551 184.904L305.543 183.168ZM302.295 182.398C290.979 199.82 275.79 208.46 256.659 208.46V210.46C276.53 210.46 292.323 201.422 303.972 183.487L302.295 182.398ZM256.659 208.46C247.706 208.46 239.584 206.403 232.27 202.301L231.292 204.045C238.923 208.326 247.386 210.46 256.659 210.46V208.46ZM232.286 202.31C224.968 198.026 219.169 192.139 214.88 184.633L213.143 185.626C217.602 193.429 223.65 199.572 231.276 204.036L232.286 202.31ZM214.893 184.658C210.787 176.981 208.724 168.307 208.724 158.612H206.724C206.724 168.6 208.852 177.604 213.13 185.601L214.893 184.658ZM208.724 158.612V89.7198H206.724V158.612H208.724ZM208.724 89.7198C208.724 82.185 211.583 76.9982 217.224 73.9215L216.266 72.1657C209.878 75.65 206.724 81.5807 206.724 89.7198H208.724ZM217.233 73.9165C223.204 70.5797 232.473 68.8493 245.177 68.8493V66.8493C232.365 66.8493 222.679 68.5818 216.257 72.1706L217.233 73.9165ZM244.177 67.8493V155.878H246.177V67.8493H244.177ZM244.177 155.878C244.177 162.658 246.257 168.133 250.501 172.184L251.882 170.737C248.106 167.133 246.177 162.22 246.177 155.878H244.177ZM250.501 172.184C254.757 176.247 260.875 178.202 268.688 178.202V176.202C261.191 176.202 255.644 174.329 251.882 170.737L250.501 172.184ZM268.688 178.202C277.661 178.202 284.788 175.387 289.934 169.669L288.448 168.331C283.752 173.548 277.211 176.202 268.688 176.202V178.202ZM289.945 169.657C295.051 163.795 297.572 156.35 297.572 147.403H295.572C295.572 155.953 293.173 162.905 288.437 168.343L289.945 169.657ZM297.572 147.403V89.7198H295.572V147.403H297.572ZM297.572 89.7198C297.572 82.185 300.432 76.9982 306.073 73.9215L305.115 72.1657C298.727 75.65 295.572 81.5807 295.572 89.7198H297.572ZM306.082 73.9165C312.053 70.5797 321.322 68.8493 334.025 68.8493V66.8493C321.213 66.8493 311.528 68.5818 305.106 72.1706L306.082 73.9165ZM333.025 67.8493V181.029H335.025V67.8493H333.025ZM372.976 75.2306L372.331 74.4663L372.976 75.2306ZM399.494 67.8493H400.494V66.8493H399.494V67.8493ZM399.494 83.9788L400.223 84.6627L400.494 84.3742V83.9788H399.494ZM392.659 93.2737L391.785 92.7881L391.305 93.6518L392.163 94.142L392.659 93.2737ZM394.573 94.3672L394.077 95.2355L394.887 95.6986L395.405 94.9219L394.573 94.3672ZM412.616 74.6838L413.193 75.5008L413.197 75.4976L412.616 74.6838ZM467.565 91.0867L466.633 91.4486L467.356 93.3092L468.413 91.6167L467.565 91.0867ZM485.062 74.1371L485.553 75.0081L485.561 75.0033L485.57 74.9985L485.062 74.1371ZM538.644 81.5184L537.863 82.1431L537.871 82.1524L538.644 81.5184ZM540.831 204.54L541.31 205.417L541.32 205.412L541.33 205.406L540.831 204.54ZM512.947 209.46H511.947V210.46H512.947V209.46ZM508.846 104.756L509.646 104.156L508.846 104.756ZM481.234 105.576L481.942 106.283L481.949 106.275L481.957 106.267L481.234 105.576ZM466.198 204.54L466.689 205.411L466.697 205.406L466.198 204.54ZM438.86 209.46H437.86V210.46H438.86V209.46ZM434.76 104.756L435.56 104.156L434.76 104.756ZM392.112 204.54L392.591 205.417L392.601 205.412L392.611 205.406L392.112 204.54ZM364.228 209.46H363.228V210.46H364.228V209.46ZM365.228 96.2809C365.228 87.3998 368.058 80.6885 373.621 75.9949L372.331 74.4663C366.229 79.6144 363.228 86.9367 363.228 96.2809H365.228ZM373.621 75.9949C379.196 71.2907 387.759 68.8493 399.494 68.8493V66.8493C387.535 66.8493 378.42 69.3289 372.331 74.4663L373.621 75.9949ZM398.494 67.8493V83.9788H400.494V67.8493H398.494ZM398.764 83.2948C395.978 86.2669 393.65 89.4312 391.785 92.7881L393.533 93.7594C395.313 90.5551 397.542 87.5228 400.223 84.6627L398.764 83.2948ZM392.163 94.142L394.077 95.2355L395.069 93.499L393.155 92.4055L392.163 94.142ZM395.405 94.9219C401.193 86.2394 407.127 79.7823 413.193 75.5008L412.039 73.8669C405.711 78.3336 399.617 84.9987 393.741 93.8125L395.405 94.9219ZM413.197 75.4976C419.387 71.0763 426.741 68.8493 435.307 68.8493V66.8493C426.375 66.8493 418.603 69.1787 412.035 73.8701L413.197 75.4976ZM435.307 68.8493C442.879 68.8493 449.227 70.7396 454.405 74.4701C459.589 78.2043 463.678 83.8374 466.633 91.4486L468.498 90.7248C465.438 82.8444 461.143 76.8588 455.574 72.8473C450 68.832 443.225 66.8493 435.307 66.8493V68.8493ZM468.413 91.6167C472.886 84.4604 478.599 78.9311 485.553 75.0081L484.57 73.2661C477.309 77.3622 471.357 83.1327 466.717 90.5567L468.413 91.6167ZM485.57 74.9985C492.511 70.9048 500.352 68.8493 509.119 68.8493V66.8493C500.025 66.8493 491.828 68.9857 484.554 73.2757L485.57 74.9985ZM509.119 68.8493C521.23 68.8493 530.776 73.284 537.863 82.1431L539.425 80.8937C531.932 71.5273 521.795 66.8493 509.119 66.8493V68.8493ZM537.871 82.1524C545.17 91.0537 548.853 102.389 548.853 116.238H550.853C550.853 102.019 547.063 90.2084 539.418 80.8843L537.871 82.1524ZM548.853 116.238V187.59H550.853V116.238H548.853ZM548.853 187.59C548.853 195.125 545.991 200.415 540.332 203.673L541.33 205.406C547.7 201.739 550.853 195.729 550.853 187.59H548.853ZM540.353 203.662C534.562 206.82 525.473 208.46 512.947 208.46V210.46C525.571 210.46 535.072 208.82 541.31 205.417L540.353 203.662ZM513.947 209.46V119.518H511.947V209.46H513.947ZM513.947 119.518C513.947 113.182 512.549 108.027 509.646 104.156L508.046 105.356C510.61 108.775 511.947 113.461 511.947 119.518H513.947ZM509.646 104.156C506.672 100.19 502.047 98.2881 495.997 98.2881V100.288C501.611 100.288 505.552 102.031 508.046 105.356L509.646 104.156ZM495.997 98.2881C489.894 98.2881 484.711 100.494 480.512 104.885L481.957 106.267C485.777 102.274 490.436 100.288 495.997 100.288V98.2881ZM480.527 104.869C476.235 109.161 474.22 116.329 474.22 126.079H476.22C476.22 116.51 478.215 110.01 481.942 106.283L480.527 104.869ZM474.22 126.079V187.59H476.22V126.079H474.22ZM474.22 187.59C474.22 195.125 471.359 200.415 465.7 203.673L466.697 205.406C473.067 201.739 476.22 195.729 476.22 187.59H474.22ZM465.708 203.668C460.106 206.82 451.206 208.46 438.86 208.46V210.46C451.302 210.46 460.627 208.821 466.689 205.411L465.708 203.668ZM439.86 209.46V119.518H437.86V209.46H439.86ZM439.86 119.518C439.86 113.182 438.463 108.027 435.56 104.156L433.96 105.356C436.524 108.775 437.86 113.461 437.86 119.518H439.86ZM435.56 104.156C432.592 100.198 428.065 98.2881 422.184 98.2881V100.288C427.603 100.288 431.46 102.023 433.96 105.356L435.56 104.156ZM422.184 98.2881C414.922 98.2881 409.331 100.732 405.596 105.729C401.901 110.671 400.134 117.965 400.134 127.446H402.134C402.134 118.156 403.875 111.37 407.197 106.926C410.479 102.537 415.413 100.288 422.184 100.288V98.2881ZM400.134 127.446V187.59H402.134V127.446H400.134ZM400.134 187.59C400.134 195.125 397.272 200.415 391.613 203.673L392.611 205.406C398.981 201.739 402.134 195.729 402.134 187.59H400.134ZM391.634 203.662C385.843 206.82 376.754 208.46 364.228 208.46V210.46C376.852 210.46 386.353 208.82 392.591 205.417L391.634 203.662ZM365.228 209.46V96.2809H363.228V209.46H365.228ZM598.837 204.266L598.407 205.169L598.42 205.175L598.433 205.181L598.837 204.266ZM580.247 188.684L579.422 189.248L579.429 189.258L580.247 188.684ZM580.794 138.928L581.599 139.522L581.606 139.511L580.794 138.928ZM601.024 122.799L600.633 121.879L600.625 121.882L601.024 122.799ZM651.053 121.159L650.681 122.087L650.69 122.091L651.053 121.159ZM669.369 132.367L668.713 133.121L669.483 133.792L670.138 133.007L669.369 132.367ZM670.736 130.727L671.504 131.367L672.119 130.629L671.407 129.985L670.736 130.727ZM661.715 123.346H660.715V123.881L661.16 124.178L661.715 123.346ZM654.06 103.389L653.411 104.15L653.427 104.163L653.442 104.175L654.06 103.389ZM611.686 101.475L612.112 102.38L611.686 101.475ZM596.65 114.324L596.408 115.294L597.086 115.464L597.478 114.885L596.65 114.324ZM585.441 108.31L584.713 108.995L584.734 109.017L584.756 109.038L585.441 108.31ZM588.449 82.8853L589.128 83.619L589.135 83.6124L589.142 83.6056L588.449 82.8853ZM608.405 71.95L608.697 72.9068L608.709 72.9027L608.405 71.95ZM682.492 81.5184L683.138 80.7555L682.492 81.5184ZM690.146 203.719L689.585 202.892L689.579 202.896L689.573 202.9L690.146 203.719ZM663.902 209.46H662.902V210.46H663.902V209.46ZM663.902 198.799L663.219 198.068L662.902 198.364V198.799H663.902ZM670.463 191.964L671.237 192.597L671.81 191.897L671.17 191.257L670.463 191.964ZM669.096 190.597L669.803 189.89L669.085 189.172L668.378 189.901L669.096 190.597ZM650.233 204.813L650.66 205.717L650.67 205.712L650.68 205.707L650.233 204.813ZM654.88 177.748L654.325 176.916L654.88 177.748ZM654.607 149.317L654.031 150.135L654.038 150.139L654.045 150.144L654.607 149.317ZM616.06 149.317L615.455 148.521L615.447 148.527L615.439 148.533L616.06 149.317ZM616.06 177.748L615.46 178.548L615.468 178.554L615.476 178.56L616.06 177.748ZM623.988 208.46C615.191 208.46 606.945 206.756 599.241 203.352L598.433 205.181C606.403 208.702 614.925 210.46 623.988 210.46V208.46ZM599.267 203.363C591.763 199.79 585.702 194.707 581.065 188.109L579.429 189.258C584.27 196.147 590.602 201.452 598.407 205.169L599.267 203.363ZM581.073 188.119C576.464 181.384 574.139 173.295 574.139 163.806H572.139C572.139 173.635 574.553 182.132 579.422 189.248L581.073 188.119ZM574.139 163.806C574.139 154.332 576.638 146.254 581.599 139.521L579.989 138.335C574.744 145.453 572.139 153.96 572.139 163.806H574.139ZM581.606 139.511C586.599 132.557 593.197 127.292 601.423 123.716L600.625 121.882C592.084 125.595 585.195 131.084 579.982 138.345L581.606 139.511ZM601.416 123.719C609.849 120.131 619.009 118.331 628.909 118.331V116.331C618.761 116.331 609.332 118.177 600.633 121.879L601.416 123.719ZM628.909 118.331C637.193 118.331 644.444 119.592 650.681 122.087L651.424 120.23C644.904 117.622 637.393 116.331 628.909 116.331V118.331ZM650.69 122.091C657.137 124.598 663.144 128.271 668.713 133.121L670.026 131.613C664.295 126.621 658.091 122.823 651.415 120.227L650.69 122.091ZM670.138 133.007L671.504 131.367L669.968 130.087L668.601 131.727L670.138 133.007ZM671.407 129.985C667.571 126.515 664.52 124.014 662.269 122.514L661.16 124.178C663.284 125.593 666.247 128.014 670.065 131.468L671.407 129.985ZM662.715 123.346V119.792H660.715V123.346H662.715ZM662.715 119.792C662.715 112.583 660.04 106.816 654.678 102.602L653.442 104.175C658.286 107.981 660.715 113.149 660.715 119.792H662.715ZM654.708 102.628C649.545 98.2289 642.264 96.1011 633.01 96.1011V98.1011C641.981 98.1011 648.733 100.165 653.411 104.15L654.708 102.628ZM633.01 96.1011C624.868 96.1011 617.611 97.5817 611.26 100.57L612.112 102.38C618.154 99.5364 625.113 98.1011 633.01 98.1011V96.1011ZM611.26 100.57C604.902 103.563 599.751 107.964 595.822 113.763L597.478 114.885C601.204 109.384 606.077 105.22 612.112 102.38L611.26 100.57ZM596.893 113.354C592.674 112.299 589.093 110.373 586.127 107.581L584.756 109.038C587.986 112.078 591.878 114.162 596.408 115.294L596.893 113.354ZM586.17 107.624C583.397 104.678 582.067 101.543 582.067 98.1946H580.067C580.067 102.137 581.654 105.744 584.713 108.995L586.17 107.624ZM582.067 98.1946C582.067 92.8753 584.37 88.0246 589.128 83.619L587.769 82.1515C582.686 86.8586 580.067 92.2141 580.067 98.1946H582.067ZM589.142 83.6056C593.922 79.0029 600.422 75.4249 608.697 72.9067L608.114 70.9934C599.621 73.5783 592.817 77.2904 587.755 82.1649L589.142 83.6056ZM608.709 72.9027C617.165 70.2042 626.447 68.8493 636.564 68.8493V66.8493C626.268 66.8493 616.778 68.2283 608.101 70.9974L608.709 72.9027ZM636.564 68.8493C656.288 68.8493 671.334 73.3739 681.845 82.2813L683.138 80.7555C672.143 71.4374 656.57 66.8493 636.564 66.8493V68.8493ZM681.845 82.2813C692.347 91.1812 697.621 103.281 697.621 118.698H699.621C699.621 102.767 694.142 90.0809 683.138 80.7555L681.845 82.2813ZM697.621 118.698V185.13H699.621V118.698H697.621ZM697.621 185.13C697.621 193.459 694.89 199.298 689.585 202.892L690.707 204.547C696.702 200.486 699.621 193.932 699.621 185.13H697.621ZM689.573 202.9C684.361 206.548 675.869 208.46 663.902 208.46V210.46C675.992 210.46 684.996 208.545 690.72 204.539L689.573 202.9ZM664.902 209.46V198.799H662.902V209.46H664.902ZM664.584 199.53C667.338 196.96 669.559 194.648 671.237 192.597L669.689 191.331C668.086 193.29 665.933 195.534 663.219 198.068L664.584 199.53ZM671.17 191.257L669.803 189.89L668.389 191.304L669.756 192.671L671.17 191.257ZM668.378 189.901C662.429 196.031 656.23 200.696 649.785 203.919L650.68 205.707C657.358 202.368 663.734 197.557 669.813 191.294L668.378 189.901ZM649.806 203.909C643.428 206.92 634.844 208.46 623.988 208.46V210.46C635.003 210.46 643.915 208.902 650.66 205.717L649.806 203.909ZM634.377 183.669C643.233 183.669 650.289 182.011 655.435 178.58L654.325 176.916C649.63 180.047 643.017 181.669 634.377 181.669V183.669ZM655.435 178.58C660.649 175.104 663.261 170.044 663.261 163.533H661.261C661.261 169.414 658.953 173.831 654.325 176.916L655.435 178.58ZM663.261 163.533C663.261 157.177 660.537 152.133 655.168 148.489L654.045 150.144C658.882 153.427 661.261 157.86 661.261 163.533H663.261ZM655.182 148.499C650.035 144.877 643.065 143.122 634.377 143.122V145.122C642.82 145.122 649.337 146.831 654.031 150.135L655.182 148.499ZM634.377 143.122C626.577 143.122 620.236 144.887 615.455 148.521L616.665 150.113C620.997 146.821 626.867 145.122 634.377 145.122V143.122ZM615.439 148.533C610.805 152.202 608.499 157.24 608.499 163.533H610.499C610.499 157.796 612.567 153.358 616.681 150.101L615.439 148.533ZM608.499 163.533C608.499 169.996 610.798 175.052 615.46 178.548L616.66 176.948C612.574 173.884 610.499 169.462 610.499 163.533H608.499ZM615.476 178.56C620.254 182 626.587 183.669 634.377 183.669V181.669C626.857 181.669 620.979 180.057 616.644 176.937L615.476 178.56ZM737.426 20.5545L736.847 19.7393L736.837 19.7467L737.426 20.5545ZM767.498 13.1732H768.498V12.1732H767.498V13.1732ZM767.498 93.2737H766.498V94.2737H767.498V93.2737ZM844.318 93.2737V94.2737H845.318V93.2737H844.318ZM854.433 20.5545L853.854 19.7393L853.843 19.7467L854.433 20.5545ZM884.505 13.1732H885.505V12.1732H884.505V13.1732ZM874.116 202.079L873.537 201.264L873.527 201.271L874.116 202.079ZM844.318 209.46H843.318V210.46H844.318V209.46ZM844.318 127.993H845.318V126.993H844.318V127.993ZM767.498 127.993V126.993H766.498V127.993H767.498ZM757.109 202.079L756.53 201.264L756.52 201.271L757.109 202.079ZM727.311 209.46H726.311V210.46H727.311V209.46ZM728.311 42.1516C728.311 32.9441 731.568 26.0674 738.016 21.3623L736.837 19.7467C729.798 24.8833 726.311 32.4047 726.311 42.1516H728.311ZM738.005 21.3697C744.692 16.6184 754.478 14.1732 767.498 14.1732V12.1732C754.274 12.1732 744.011 14.6489 736.847 19.7393L738.005 21.3697ZM766.498 13.1732V93.2737H768.498V13.1732H766.498ZM767.498 94.2737H844.318V92.2737H767.498V94.2737ZM845.318 93.2737V42.1516H843.318V93.2737H845.318ZM845.318 42.1516C845.318 32.9441 848.575 26.0674 855.022 21.3623L853.843 19.7467C846.804 24.8833 843.318 32.4047 843.318 42.1516H845.318ZM855.012 21.3697C861.699 16.6184 871.485 14.1732 884.505 14.1732V12.1732C871.281 12.1732 861.018 14.6489 853.854 19.7393L855.012 21.3697ZM883.505 13.1732V180.482H885.505V13.1732H883.505ZM883.505 180.482C883.505 189.679 880.165 196.555 873.537 201.264L874.696 202.894C881.919 197.762 885.505 190.24 885.505 180.482H883.505ZM873.527 201.271C867.027 206.014 857.341 208.46 844.318 208.46V210.46C857.539 210.46 867.718 207.986 874.706 202.887L873.527 201.271ZM845.318 209.46V127.993H843.318V209.46H845.318ZM844.318 126.993H767.498V128.993H844.318V126.993ZM766.498 127.993V180.482H768.498V127.993H766.498ZM766.498 180.482C766.498 189.679 763.158 196.555 756.53 201.264L757.689 202.894C764.912 197.762 768.498 190.24 768.498 180.482H766.498ZM756.52 201.271C750.021 206.014 740.334 208.46 727.311 208.46V210.46C740.532 210.46 750.712 207.986 757.699 202.887L756.52 201.271ZM728.311 209.46V42.1516H726.311V209.46H728.311ZM921.294 51.4465L920.617 52.1824L920.632 52.1965L920.648 52.2099L921.294 51.4465ZM921.294 19.461L921.954 20.2117L921.956 20.21L921.294 19.461ZM956.013 19.461L955.336 20.1969L955.351 20.211L955.367 20.2244L956.013 19.461ZM956.013 51.4465L956.674 52.1972L956.676 52.1955L956.013 51.4465ZM929.222 73.0436L929.69 73.9274L929.7 73.9221L929.71 73.9165L929.222 73.0436ZM957.38 67.8493H958.38V66.8493H957.38V67.8493ZM948.085 204.54L948.553 205.423L948.563 205.418L948.573 205.413L948.085 204.54ZM919.927 209.46H918.927V210.46H919.927V209.46ZM938.79 56.4609C932.072 56.4609 926.477 54.5221 921.94 50.6831L920.648 52.2099C925.588 56.3901 931.657 58.4609 938.79 58.4609V56.4609ZM921.971 50.7106C917.634 46.7205 915.459 41.6173 915.459 35.3171H913.459C913.459 42.1391 915.841 47.7889 920.617 52.1824L921.971 50.7106ZM915.459 35.3171C915.459 29.0171 917.633 24.0148 921.954 20.2117L920.633 18.7103C915.842 22.9264 913.459 28.4948 913.459 35.3171H915.459ZM921.956 20.21C926.494 16.1957 932.083 14.1732 938.79 14.1732V12.1732C931.645 12.1732 925.57 14.3426 920.631 18.712L921.956 20.21ZM938.79 14.1732C945.497 14.1732 950.987 16.1955 955.336 20.1969L956.69 18.7251C951.927 14.3428 945.934 12.1732 938.79 12.1732V14.1732ZM955.367 20.2244C959.867 24.0319 962.121 29.0309 962.121 35.3171H964.121C964.121 28.4809 961.636 22.9092 956.659 18.6976L955.367 20.2244ZM962.121 35.3171C962.121 41.6038 959.866 46.7034 955.35 50.6975L956.676 52.1955C961.638 47.806 964.121 42.1526 964.121 35.3171H962.121ZM955.352 50.6958C951.004 54.5221 945.509 56.4609 938.79 56.4609V58.4609C945.922 58.4609 951.909 56.3901 956.674 52.1972L955.352 50.6958ZM920.927 89.7198C920.927 85.9327 921.675 82.7597 923.124 80.1599C924.57 77.5662 926.744 75.4868 929.69 73.9274L928.754 72.1598C925.503 73.8809 923.03 76.2211 921.377 79.1862C919.728 82.1451 918.927 85.67 918.927 89.7198H920.927ZM929.71 73.9165C935.682 70.5789 944.862 68.8493 957.38 68.8493V66.8493C944.747 66.8493 935.154 68.5826 928.734 72.1706L929.71 73.9165ZM956.38 67.8493V187.59H958.38V67.8493H956.38ZM956.38 187.59C956.38 195.111 953.439 200.402 947.597 203.667L948.573 205.413C955.124 201.752 958.38 195.743 958.38 187.59H956.38ZM947.617 203.656C941.638 206.821 932.45 208.46 919.927 208.46V210.46C932.555 210.46 942.139 208.819 948.553 205.423L947.617 203.656ZM920.927 209.46V89.7198H918.927V209.46H920.927ZM1036.3 206.18L1035.77 207.025L1035.78 207.031L1035.79 207.037L1036.3 206.18ZM1028.92 197.158L1027.99 197.514L1028.92 197.158ZM980.807 70.8565L980.226 70.0428L979.598 70.4913L979.873 71.2125L980.807 70.8565ZM987.915 68.6695L987.767 67.6805L987.759 67.6817L987.915 68.6695ZM1012.52 71.4033L1012.06 72.2905L1012.08 72.3014L1012.1 72.3112L1012.52 71.4033ZM1021.81 81.5184L1022.77 81.2186L1022.77 81.2136L1021.81 81.5184ZM1047.24 162.439L1048.18 162.767L1048.29 162.455L1048.19 162.139L1047.24 162.439ZM1042.59 175.835L1041.65 175.507L1041.31 176.463L1042.28 176.783L1042.59 175.835ZM1045.05 176.655L1044.74 177.603L1045.69 177.921L1046 176.969L1045.05 176.655ZM1076.49 81.5184L1077.44 81.8321L1077.44 81.8231L1076.49 81.5184ZM1085.51 71.4033L1085.94 72.3048L1085.95 72.3013L1085.96 72.2977L1085.51 71.4033ZM1110.12 68.6695L1109.96 69.6573L1109.97 69.6584L1110.12 68.6695ZM1117.5 70.8565L1118.43 71.2125L1118.71 70.4913L1118.08 70.0428L1117.5 70.8565ZM1069.38 197.158L1070.32 197.514L1069.38 197.158ZM1061.73 206.18L1061.21 205.322L1061.2 205.328L1061.19 205.334L1061.73 206.18ZM1049.15 208.46C1044.38 208.46 1040.28 207.402 1036.82 205.322L1035.79 207.037C1039.61 209.332 1044.08 210.46 1049.15 210.46V208.46ZM1036.84 205.334C1033.56 203.263 1031.24 200.427 1029.86 196.802L1027.99 197.514C1029.52 201.544 1032.12 204.723 1035.77 207.025L1036.84 205.334ZM1029.86 196.802L981.742 70.5005L979.873 71.2125L1027.99 197.514L1029.86 196.802ZM981.389 71.6703C982.457 70.9071 984.617 70.2026 988.071 69.6572L987.759 67.6817C984.288 68.2298 981.709 68.9834 980.226 70.0428L981.389 71.6703ZM988.064 69.6584C991.683 69.1155 994.636 68.8493 996.937 68.8493V66.8493C994.499 66.8493 991.437 67.13 987.767 67.6805L988.064 69.6584ZM996.937 68.8493C1002.63 68.8493 1007.66 70.0048 1012.06 72.2905L1012.98 70.5161C1008.26 68.0632 1002.91 66.8493 996.937 66.8493V68.8493ZM1012.1 72.3112C1016.61 74.3928 1019.5 77.5597 1020.86 81.8231L1022.77 81.2136C1021.22 76.3644 1017.91 72.7879 1012.94 70.4953L1012.1 72.3112ZM1020.86 81.8181L1046.28 162.739L1048.19 162.139L1022.77 81.2186L1020.86 81.8181ZM1046.29 162.111L1041.65 175.507L1043.54 176.162L1048.18 162.767L1046.29 162.111ZM1042.28 176.783L1044.74 177.603L1045.37 175.706L1042.91 174.886L1042.28 176.783ZM1046 176.969L1077.44 81.8321L1075.54 81.2046L1044.1 176.341L1046 176.969ZM1077.44 81.8231C1078.81 77.5448 1081.62 74.3804 1085.94 72.3048L1085.08 70.5018C1080.29 72.8003 1077.09 76.3792 1075.54 81.2136L1077.44 81.8231ZM1085.96 72.2977C1090.55 70.0046 1095.68 68.8493 1101.37 68.8493V66.8493C1095.4 66.8493 1089.96 68.0634 1085.06 70.5089L1085.96 72.2977ZM1101.37 68.8493C1103.67 68.8493 1106.53 69.1152 1109.96 69.6572L1110.27 67.6817C1106.78 67.1303 1103.81 66.8493 1101.37 66.8493V68.8493ZM1109.97 69.6584C1113.61 70.2053 1115.85 70.9121 1116.92 71.6703L1118.08 70.0428C1116.59 68.9784 1113.91 68.2272 1110.26 67.6805L1109.97 69.6584ZM1116.56 70.5005L1068.45 196.802L1070.32 197.514L1118.43 71.2125L1116.56 70.5005ZM1068.45 196.802C1067.07 200.412 1064.67 203.246 1061.21 205.322L1062.24 207.037C1066.07 204.74 1068.78 201.56 1070.32 197.514L1068.45 196.802ZM1061.19 205.334C1057.92 207.402 1053.92 208.46 1049.15 208.46V210.46C1054.22 210.46 1058.61 209.332 1062.26 207.025L1061.19 205.334ZM1154.1 202.626L1153.67 203.527L1153.67 203.53L1154.1 202.626ZM1131.41 184.036L1132.22 183.451L1131.41 184.036ZM1131.41 94.914L1130.58 94.3512L1130.58 94.3551L1131.41 94.914ZM1215.88 74.6838L1215.44 75.5783L1215.45 75.5836L1215.46 75.5887L1215.88 74.6838ZM1237.75 93.5471L1236.91 94.0888L1236.92 94.0974L1237.75 93.5471ZM1240.76 146.856L1241.42 147.604L1241.44 147.594L1241.45 147.583L1240.76 146.856ZM1159.29 151.23V150.23H1158.29V151.23H1159.29ZM1165.85 173.101L1165.12 173.779L1165.13 173.794L1165.15 173.808L1165.85 173.101ZM1204.67 174.468L1205.35 175.208L1205.36 175.199L1205.36 175.191L1204.67 174.468ZM1210.69 160.252L1210.59 159.257L1209.69 159.347V160.252H1210.69ZM1236.11 164.353L1235.5 165.144L1236.11 164.353ZM1234.75 192.784L1235.45 193.491L1234.75 192.784ZM1214.24 204.813L1213.91 203.87L1213.9 203.873L1214.24 204.813ZM1211.78 124.712V125.712H1212.78V124.712H1211.78ZM1204.4 103.662L1203.72 104.397L1203.74 104.41L1203.75 104.423L1204.4 103.662ZM1166.4 103.662L1167.06 104.411L1167.06 104.41L1166.4 103.662ZM1159.29 124.712H1158.29V125.712H1159.29V124.712ZM1185.54 208.46C1174.38 208.46 1164.04 206.211 1154.53 201.721L1153.67 203.53C1163.47 208.153 1174.1 210.46 1185.54 210.46V208.46ZM1154.53 201.725C1145.19 197.234 1137.76 191.141 1132.22 183.451L1130.6 184.621C1136.35 192.605 1144.05 198.905 1153.67 203.527L1154.53 201.725ZM1132.22 183.451C1126.69 175.785 1123.93 167.241 1123.93 157.792H1121.93C1121.93 167.661 1124.82 176.614 1130.6 184.621L1132.22 183.451ZM1123.93 157.792V122.799H1121.93V157.792H1123.93ZM1123.93 122.799C1123.93 112.79 1126.7 103.69 1132.24 95.4729L1130.58 94.3551C1124.82 102.906 1121.93 112.396 1121.93 122.799H1123.93ZM1132.23 95.4768C1137.97 87.0597 1145.58 80.5203 1155.09 75.855L1154.2 74.0594C1144.4 78.8713 1136.51 85.6365 1130.58 94.3512L1132.23 95.4768ZM1155.09 75.855C1164.6 71.186 1174.84 68.8493 1185.81 68.8493V66.8493C1174.55 66.8493 1164.01 69.2513 1154.2 74.0594L1155.09 75.855ZM1185.81 68.8493C1196.6 68.8493 1206.47 71.0964 1215.44 75.5783L1216.33 73.7894C1207.07 69.1586 1196.89 66.8493 1185.81 66.8493V68.8493ZM1215.46 75.5887C1224.59 79.8874 1231.73 86.0534 1236.91 94.0888L1238.59 93.0054C1233.2 84.638 1225.76 78.2285 1216.31 73.779L1215.46 75.5887ZM1236.92 94.0974C1242.09 101.943 1244.68 110.862 1244.68 120.885H1246.68C1246.68 110.496 1243.99 101.19 1238.59 92.9968L1236.92 94.0974ZM1244.68 120.885V135.648H1246.68V120.885H1244.68ZM1244.68 135.648C1244.68 139.737 1243.16 143.213 1240.07 146.129L1241.45 147.583C1244.92 144.303 1246.68 140.307 1246.68 135.648H1244.68ZM1240.1 146.109C1237.03 148.836 1233.09 150.23 1228.18 150.23V152.23C1233.49 152.23 1237.93 150.709 1241.42 147.604L1240.1 146.109ZM1228.18 150.23H1159.29V152.23H1228.18V150.23ZM1158.29 151.23V155.058H1160.29V151.23H1158.29ZM1158.29 155.058C1158.29 162.564 1160.55 168.831 1165.12 173.779L1166.59 172.423C1162.41 167.893 1160.29 162.132 1160.29 155.058H1158.29ZM1165.15 173.808C1169.95 178.611 1176.89 180.935 1185.81 180.935V178.935C1177.23 178.935 1170.87 176.703 1166.56 172.394L1165.15 173.808ZM1185.81 180.935C1194.49 180.935 1201.07 179.094 1205.35 175.208L1204 173.728C1200.26 177.132 1194.27 178.935 1185.81 178.935V180.935ZM1205.36 175.191C1209.58 171.171 1211.69 166.169 1211.69 160.252H1209.69C1209.69 165.634 1207.79 170.11 1203.98 173.744L1205.36 175.191ZM1210.79 161.247C1214.43 160.883 1217.12 160.705 1218.89 160.705V158.705C1217.02 158.705 1214.24 158.892 1210.59 159.257L1210.79 161.247ZM1218.89 160.705C1226.24 160.705 1231.73 162.232 1235.5 165.144L1236.72 163.561C1232.47 160.277 1226.48 158.705 1218.89 158.705V160.705ZM1235.5 165.144C1239.22 168.016 1241.13 172.252 1241.13 178.022H1243.13C1243.13 171.763 1241.03 166.885 1236.72 163.561L1235.5 165.144ZM1241.13 178.022C1241.13 182.584 1238.85 187.265 1234.04 192.077L1235.45 193.491C1240.48 188.461 1243.13 183.301 1243.13 178.022H1241.13ZM1234.04 192.077C1229.25 196.864 1222.56 200.806 1213.91 203.87L1214.58 205.756C1223.42 202.623 1230.4 198.547 1235.45 193.491L1234.04 192.077ZM1213.9 203.873C1205.46 206.926 1196.01 208.46 1185.54 208.46V210.46C1196.21 210.46 1205.89 208.897 1214.58 205.753L1213.9 203.873ZM1212.78 124.712V120.885H1210.78V124.712H1212.78ZM1212.78 120.885C1212.78 113.344 1210.22 107.308 1205.05 102.901L1203.75 104.423C1208.42 108.4 1210.78 113.846 1210.78 120.885H1212.78ZM1205.08 102.927C1200.12 98.3477 1193.57 96.1011 1185.54 96.1011V98.1011C1193.18 98.1011 1199.21 100.228 1203.72 104.397L1205.08 102.927ZM1185.54 96.1011C1177.5 96.1011 1170.87 98.348 1165.74 102.915L1167.06 104.41C1171.77 100.228 1177.9 98.1011 1185.54 98.1011V96.1011ZM1165.74 102.913C1160.75 107.325 1158.29 113.357 1158.29 120.885H1160.29C1160.29 113.833 1162.57 108.383 1167.06 104.411L1165.74 102.913ZM1158.29 120.885V124.712H1160.29V120.885H1158.29ZM1159.29 125.712H1211.78V123.712H1159.29V125.712Z" fill="white" fill-opacity="0.47" mask="url(#path-1-outside-1_561_2669)"/>
</svg>
