<svg width="531" height="350" viewBox="0 0 531 350" fill="none" xmlns="http://www.w3.org/2000/svg">
<circle cx="272" cy="180" r="64" fill="#11AFB4" fill-opacity="0.06"/>
<path d="M272 56C272 49.3726 266.617 43.945 260.015 44.5291C241.042 46.2076 222.585 51.8579 205.864 61.164C185.638 72.4202 168.62 88.6523 156.421 108.324C144.222 127.995 137.245 150.454 136.152 173.575C135.058 196.696 139.884 219.714 150.172 240.448C160.46 261.183 175.87 278.949 194.943 292.064C214.016 305.179 236.121 313.208 259.164 315.393C282.208 317.578 305.428 313.845 326.625 304.547C344.151 296.861 359.814 285.582 372.628 271.488C377.086 266.585 376.02 259.015 370.743 255.006L343.14 234.039C337.863 230.03 330.391 231.142 325.615 235.736C319.068 242.034 311.44 247.151 303.063 250.825C291.009 256.112 277.805 258.235 264.701 256.992C251.597 255.75 239.027 251.184 228.181 243.726C217.335 236.268 208.572 226.165 202.722 214.374C196.871 202.583 194.127 189.494 194.749 176.346C195.371 163.198 199.338 150.427 206.275 139.241C213.212 128.054 222.89 118.824 234.391 112.423C242.383 107.975 251.073 104.996 260.048 103.592C266.596 102.567 272 97.2899 272 90.6625V56Z" fill="#D2F5DB"/>
<path d="M301.978 203.326L302.178 203.326V203.126V157.408V157.408C302.177 156.927 302.271 156.451 302.454 156.007C302.637 155.563 302.904 155.16 303.242 154.82C303.58 154.48 303.981 154.211 304.422 154.027C304.861 153.844 305.333 153.75 305.808 153.75C305.81 153.75 305.811 153.75 305.813 153.75L305.813 153.75L305.813 153.35C305.813 153.35 305.813 153.35 305.813 153.35C305.811 153.35 305.81 153.35 305.808 153.35H271.817C270.776 153.35 269.779 153.766 269.043 154.505C268.308 155.245 267.895 156.248 267.895 157.293V203.127V203.327L268.095 203.327L301.978 203.326Z" fill="white" stroke="#11AFB4" stroke-width="0.4"/>
<path d="M301.778 159.966V159.766L301.778 157.407L301.778 157.407M301.778 159.966L301.978 157.407H301.778M301.778 159.966H301.978H309.647H309.847V159.766V157.408C309.847 156.283 309.402 155.276 308.661 154.542C308.098 153.974 307.38 153.586 306.598 153.429C305.815 153.271 305.003 153.351 304.266 153.658C303.528 153.966 302.898 154.486 302.455 155.154C302.012 155.821 301.777 156.604 301.778 157.407M301.778 159.966V157.407M291.125 174.795C292.767 173.144 293.689 170.904 293.689 168.568C293.689 163.701 289.775 159.75 284.933 159.75C280.09 159.75 276.176 163.701 276.176 168.568C276.176 170.904 277.099 173.144 278.741 174.795C280.383 176.447 282.61 177.375 284.933 177.375C287.256 177.375 289.483 176.447 291.125 174.795Z" fill="#11AFB4" fill-opacity="0.23" stroke="#11AFB4" stroke-width="0.4"/>
<path d="M284.733 164.308V165.057H284.933H285.133V164.308H284.933H284.733ZM284.733 172.073V172.823H284.933H285.133V172.073H284.933H284.733Z" fill="white" stroke="#11AFB4" stroke-width="0.4"/>
<path d="M234.47 210.738L234.285 210.813C234.196 210.593 234.151 210.358 234.153 210.121V181.017C234.153 180.02 234.951 179.217 235.944 179.217H259.411C260.401 179.217 261.212 180.018 261.212 181.016L261.212 210.121L261.212 210.121M234.47 210.738L259.411 211.733C259.621 211.733 259.829 211.692 260.024 211.611C260.218 211.53 260.395 211.411 260.544 211.261C260.692 211.112 260.81 210.934 260.891 210.738C260.971 210.543 261.012 210.333 261.012 210.121H261.212M234.47 210.738L234.285 210.813C234.374 211.032 234.506 211.233 234.672 211.401C234.838 211.57 235.036 211.704 235.255 211.795C235.473 211.886 235.707 211.933 235.944 211.933L234.47 210.738ZM261.212 210.121C261.212 210.359 261.166 210.595 261.076 210.814C260.985 211.034 260.853 211.234 260.685 211.402C260.518 211.571 260.319 211.704 260.101 211.795C259.882 211.887 259.647 211.933 259.41 211.933L261.212 210.121Z" fill="white" stroke="#11AFB4" stroke-width="0.4"/>
<path d="M239.49 184.382H239.29V184.582V190.038V190.238H239.49H255.863H256.063V190.038V184.582V184.382H255.863H239.49Z" fill="white" stroke="#11AFB4" stroke-width="0.4"/>
<path d="M246.328 163.094H246.128V163.294V170.46V170.66H246.328H269.034H269.092L269.14 170.629L274.866 167.047L275.137 166.877L274.866 166.708L269.14 163.125L269.092 163.094H269.034H246.328Z" fill="white" stroke="#11AFB4" stroke-width="0.4"/>
<path d="M246.328 163.094H246.128V163.294V170.46V170.66H246.328H250.785H250.985V170.46V163.294V163.094H250.785H246.328ZM268.927 170.402V170.763L269.233 170.571L274.866 167.047L275.137 166.877L274.866 166.708L269.233 163.184L268.927 162.992V163.353V170.402Z" fill="#11AFB4" fill-opacity="0.23" stroke="#11AFB4" stroke-width="0.4"/>
<path d="M246.528 164.999V164.799H246.328H243.912C243.363 164.799 242.837 165.018 242.45 165.408C242.062 165.798 241.845 166.327 241.845 166.877C241.845 167.428 242.062 167.957 242.45 168.346C242.837 168.736 243.363 168.955 243.912 168.955H246.328H246.528V168.755V164.999Z" fill="white" stroke="#11AFB4" stroke-width="0.4"/>
<path d="M285.845 144.182L285.845 144.183C286.033 144.275 286.176 144.439 286.244 144.637C286.311 144.836 286.298 145.053 286.206 145.241C286.114 145.43 285.951 145.574 285.753 145.642C285.555 145.71 285.338 145.697 285.15 145.604C274.756 140.494 262.355 140.802 251.976 146.429L285.845 144.182ZM285.845 144.182C274.99 138.847 262.05 139.167 251.226 145.036L251.226 145.036M285.845 144.182L251.226 145.036M251.226 145.036C251.135 145.085 251.054 145.152 250.989 145.233M251.226 145.036L250.989 145.233M250.989 145.233C250.924 145.314 250.875 145.406 250.845 145.506M250.989 145.233L250.845 145.506M250.845 145.506C250.816 145.605 250.806 145.71 250.817 145.813M250.845 145.506L250.817 145.813M250.817 145.813C250.827 145.916 250.858 146.016 250.907 146.108M250.817 145.813L250.907 146.108M250.907 146.108C250.956 146.199 251.022 146.28 251.103 146.346M250.907 146.108L251.103 146.346M251.103 146.346C251.183 146.412 251.275 146.461 251.375 146.491M251.103 146.346L251.375 146.491M251.375 146.491C251.474 146.521 251.578 146.531 251.681 146.52M251.375 146.491L251.681 146.52M251.681 146.52C251.784 146.509 251.884 146.478 251.975 146.429L251.681 146.52ZM289.955 208.003L289.955 208.003L289.948 208.008C289.785 208.131 289.676 208.311 289.643 208.513C289.611 208.714 289.656 208.92 289.771 209.088C289.886 209.257 290.061 209.374 290.26 209.416C290.459 209.458 290.667 209.42 290.839 209.312L290.84 209.312L290.847 209.307C292.024 208.496 293.154 207.617 294.232 206.676L294.1 206.525L294.232 206.676C294.389 206.538 294.486 206.343 294.501 206.134C294.515 205.924 294.447 205.718 294.31 205.559C294.173 205.401 293.978 205.303 293.769 205.288C293.561 205.274 293.354 205.343 293.197 205.481C292.165 206.383 291.082 207.225 289.955 208.003ZM285.925 210.413L285.924 210.413L285.919 210.416C279.407 213.765 271.894 215.117 264.763 214.225C264.659 214.209 264.554 214.215 264.453 214.241C264.35 214.267 264.254 214.313 264.17 214.377C264.086 214.441 264.016 214.521 263.963 214.613C263.911 214.704 263.877 214.806 263.864 214.911C263.851 215.016 263.859 215.122 263.888 215.224C263.917 215.325 263.965 215.42 264.031 215.503C264.097 215.586 264.179 215.654 264.272 215.704C264.364 215.754 264.464 215.785 264.568 215.796C272.121 216.74 279.942 215.267 286.637 211.825L286.637 211.825L286.643 211.822C286.822 211.723 286.956 211.557 287.016 211.36C287.076 211.164 287.058 210.951 286.965 210.768C286.872 210.585 286.711 210.445 286.517 210.379C286.322 210.312 286.11 210.325 285.925 210.413ZM243.255 153.042L243.255 153.042L243.257 153.04C244.37 151.89 245.558 150.816 246.813 149.825L246.813 149.825L246.819 149.821C246.975 149.689 247.074 149.501 247.095 149.297C247.116 149.094 247.058 148.889 246.932 148.728C246.807 148.566 246.623 148.459 246.42 148.431L246.392 148.629L246.42 148.431C246.217 148.403 246.012 148.455 245.847 148.576L245.846 148.576L245.841 148.58C244.53 149.615 243.288 150.736 242.126 151.937L242.126 151.937L242.124 151.939C241.981 152.09 241.903 152.292 241.907 152.5C241.911 152.708 241.997 152.906 242.146 153.052C242.294 153.197 242.495 153.278 242.703 153.276C242.911 153.274 243.109 153.19 243.255 153.042Z" fill="#11AFB4" stroke="#11AFB4" stroke-width="0.4"/>
<mask id="path-12-outside-1_506_13" maskUnits="userSpaceOnUse" x="232.765" y="144.139" width="78" height="69" fill="black">
<rect fill="white" x="232.765" y="144.139" width="78" height="69"/>
<path d="M305.812 152.958H290.506C284.761 148.094 277.373 145.139 269.294 145.139C251.071 145.139 236.244 160.048 236.244 178.372C236.244 178.523 236.251 178.672 236.255 178.821H235.942C235.364 178.822 234.81 179.054 234.402 179.466C233.994 179.877 233.764 180.435 233.765 181.017V210.123C233.765 211.338 234.742 212.326 235.944 212.326H259.412C259.899 212.325 260.372 212.16 260.756 211.858C261.139 211.555 261.412 211.133 261.529 210.657C264.022 211.267 266.619 211.607 269.297 211.607C277.424 211.607 284.871 208.635 290.632 203.719H301.979C302.135 203.719 302.285 203.657 302.395 203.546C302.505 203.435 302.567 203.284 302.567 203.127V160.359H309.647C309.803 160.359 309.953 160.297 310.063 160.186C310.173 160.075 310.235 159.924 310.235 159.767V157.408C310.235 154.897 308.193 152.958 305.812 152.958ZM260.424 210.12C260.423 210.39 260.317 210.65 260.127 210.841C259.937 211.032 259.679 211.14 259.411 211.14H235.944C235.811 211.141 235.679 211.115 235.556 211.064C235.434 211.013 235.322 210.938 235.229 210.843C235.135 210.747 235.062 210.635 235.013 210.511C234.963 210.387 234.939 210.254 234.941 210.12V181.017C234.941 180.46 235.391 180.008 235.944 180.008H259.411C259.969 180.008 260.425 180.46 260.425 181.017V210.123L260.424 210.12ZM269.294 210.421C266.7 210.417 264.115 210.092 261.6 209.453V181.015C261.598 180.433 261.366 179.876 260.955 179.465C260.545 179.054 259.99 178.824 259.411 178.824H237.433C237.428 178.674 237.421 178.524 237.421 178.374C237.421 160.701 251.72 146.324 269.295 146.324C276.564 146.324 283.244 148.817 288.607 152.957H271.817C270.674 152.959 269.579 153.416 268.771 154.228C267.964 155.041 267.51 156.143 267.508 157.292V162.702H246.328C246.172 162.702 246.023 162.765 245.912 162.876C245.802 162.987 245.74 163.137 245.74 163.294V164.408H243.912C243.261 164.409 242.637 164.669 242.177 165.132C241.716 165.595 241.457 166.223 241.457 166.877C241.457 168.238 242.558 169.346 243.912 169.346H245.74V170.46C245.74 170.616 245.802 170.767 245.912 170.878C246.023 170.989 246.172 171.051 246.328 171.051H250.197V172.154C250.197 172.756 250.435 173.332 250.858 173.757C251.281 174.183 251.854 174.422 252.452 174.423H259.657C259.813 174.423 259.962 174.36 260.072 174.249C260.183 174.138 260.245 173.988 260.245 173.831C260.245 173.674 260.183 173.524 260.072 173.413C259.962 173.302 259.813 173.239 259.657 173.239H252.452C252.166 173.239 251.892 173.124 251.69 172.921C251.487 172.717 251.374 172.442 251.373 172.154V171.051H267.508V203.126C267.508 203.283 267.57 203.434 267.681 203.545C267.791 203.656 267.941 203.718 268.097 203.718H288.759C283.193 208.068 276.343 210.428 269.294 210.422V210.421ZM273.647 166.876L269.717 169.335V164.417L273.647 166.876ZM245.74 168.161H243.912C243.206 168.161 242.633 167.585 242.633 166.876C242.633 166.167 243.206 165.59 243.912 165.59H245.74V168.161ZM246.917 163.885H250.197V169.867H246.917V163.885ZM251.373 163.885H268.54V169.867H251.373V163.885ZM301.389 202.535H268.684V171.05C269.766 170.991 268.081 171.554 275.072 167.379C275.157 167.326 275.227 167.252 275.276 167.164C275.325 167.076 275.35 166.977 275.35 166.876C275.35 166.775 275.325 166.676 275.276 166.588C275.227 166.5 275.157 166.426 275.072 166.373L269.345 162.791C269.128 162.655 268.951 162.715 268.685 162.701V157.291C268.685 156.455 269.016 155.654 269.603 155.063C270.19 154.472 270.986 154.14 271.817 154.139H302.812C302.027 154.871 301.389 156.078 301.389 157.405V202.535ZM309.059 159.175H302.566V157.405C302.567 156.539 302.909 155.709 303.518 155.097C304.126 154.484 304.952 154.14 305.813 154.139C307.546 154.139 309.059 155.552 309.059 157.405V159.175Z"/>
</mask>
<path d="M305.812 152.958H290.506C284.761 148.094 277.373 145.139 269.294 145.139C251.071 145.139 236.244 160.048 236.244 178.372C236.244 178.523 236.251 178.672 236.255 178.821H235.942C235.364 178.822 234.81 179.054 234.402 179.466C233.994 179.877 233.764 180.435 233.765 181.017V210.123C233.765 211.338 234.742 212.326 235.944 212.326H259.412C259.899 212.325 260.372 212.16 260.756 211.858C261.139 211.555 261.412 211.133 261.529 210.657C264.022 211.267 266.619 211.607 269.297 211.607C277.424 211.607 284.871 208.635 290.632 203.719H301.979C302.135 203.719 302.285 203.657 302.395 203.546C302.505 203.435 302.567 203.284 302.567 203.127V160.359H309.647C309.803 160.359 309.953 160.297 310.063 160.186C310.173 160.075 310.235 159.924 310.235 159.767V157.408C310.235 154.897 308.193 152.958 305.812 152.958ZM260.424 210.12C260.423 210.39 260.317 210.65 260.127 210.841C259.937 211.032 259.679 211.14 259.411 211.14H235.944C235.811 211.141 235.679 211.115 235.556 211.064C235.434 211.013 235.322 210.938 235.229 210.843C235.135 210.747 235.062 210.635 235.013 210.511C234.963 210.387 234.939 210.254 234.941 210.12V181.017C234.941 180.46 235.391 180.008 235.944 180.008H259.411C259.969 180.008 260.425 180.46 260.425 181.017V210.123L260.424 210.12ZM269.294 210.421C266.7 210.417 264.115 210.092 261.6 209.453V181.015C261.598 180.433 261.366 179.876 260.955 179.465C260.545 179.054 259.99 178.824 259.411 178.824H237.433C237.428 178.674 237.421 178.524 237.421 178.374C237.421 160.701 251.72 146.324 269.295 146.324C276.564 146.324 283.244 148.817 288.607 152.957H271.817C270.674 152.959 269.579 153.416 268.771 154.228C267.964 155.041 267.51 156.143 267.508 157.292V162.702H246.328C246.172 162.702 246.023 162.765 245.912 162.876C245.802 162.987 245.74 163.137 245.74 163.294V164.408H243.912C243.261 164.409 242.637 164.669 242.177 165.132C241.716 165.595 241.457 166.223 241.457 166.877C241.457 168.238 242.558 169.346 243.912 169.346H245.74V170.46C245.74 170.616 245.802 170.767 245.912 170.878C246.023 170.989 246.172 171.051 246.328 171.051H250.197V172.154C250.197 172.756 250.435 173.332 250.858 173.757C251.281 174.183 251.854 174.422 252.452 174.423H259.657C259.813 174.423 259.962 174.36 260.072 174.249C260.183 174.138 260.245 173.988 260.245 173.831C260.245 173.674 260.183 173.524 260.072 173.413C259.962 173.302 259.813 173.239 259.657 173.239H252.452C252.166 173.239 251.892 173.124 251.69 172.921C251.487 172.717 251.374 172.442 251.373 172.154V171.051H267.508V203.126C267.508 203.283 267.57 203.434 267.681 203.545C267.791 203.656 267.941 203.718 268.097 203.718H288.759C283.193 208.068 276.343 210.428 269.294 210.422V210.421ZM273.647 166.876L269.717 169.335V164.417L273.647 166.876ZM245.74 168.161H243.912C243.206 168.161 242.633 167.585 242.633 166.876C242.633 166.167 243.206 165.59 243.912 165.59H245.74V168.161ZM246.917 163.885H250.197V169.867H246.917V163.885ZM251.373 163.885H268.54V169.867H251.373V163.885ZM301.389 202.535H268.684V171.05C269.766 170.991 268.081 171.554 275.072 167.379C275.157 167.326 275.227 167.252 275.276 167.164C275.325 167.076 275.35 166.977 275.35 166.876C275.35 166.775 275.325 166.676 275.276 166.588C275.227 166.5 275.157 166.426 275.072 166.373L269.345 162.791C269.128 162.655 268.951 162.715 268.685 162.701V157.291C268.685 156.455 269.016 155.654 269.603 155.063C270.19 154.472 270.986 154.14 271.817 154.139H302.812C302.027 154.871 301.389 156.078 301.389 157.405V202.535ZM309.059 159.175H302.566V157.405C302.567 156.539 302.909 155.709 303.518 155.097C304.126 154.484 304.952 154.14 305.813 154.139C307.546 154.139 309.059 155.552 309.059 157.405V159.175Z" fill="#11AFB4"/>
<path d="M305.812 152.958H290.506C284.761 148.094 277.373 145.139 269.294 145.139C251.071 145.139 236.244 160.048 236.244 178.372C236.244 178.523 236.251 178.672 236.255 178.821H235.942C235.364 178.822 234.81 179.054 234.402 179.466C233.994 179.877 233.764 180.435 233.765 181.017V210.123C233.765 211.338 234.742 212.326 235.944 212.326H259.412C259.899 212.325 260.372 212.16 260.756 211.858C261.139 211.555 261.412 211.133 261.529 210.657C264.022 211.267 266.619 211.607 269.297 211.607C277.424 211.607 284.871 208.635 290.632 203.719H301.979C302.135 203.719 302.285 203.657 302.395 203.546C302.505 203.435 302.567 203.284 302.567 203.127V160.359H309.647C309.803 160.359 309.953 160.297 310.063 160.186C310.173 160.075 310.235 159.924 310.235 159.767V157.408C310.235 154.897 308.193 152.958 305.812 152.958ZM260.424 210.12C260.423 210.39 260.317 210.65 260.127 210.841C259.937 211.032 259.679 211.14 259.411 211.14H235.944C235.811 211.141 235.679 211.115 235.556 211.064C235.434 211.013 235.322 210.938 235.229 210.843C235.135 210.747 235.062 210.635 235.013 210.511C234.963 210.387 234.939 210.254 234.941 210.12V181.017C234.941 180.46 235.391 180.008 235.944 180.008H259.411C259.969 180.008 260.425 180.46 260.425 181.017V210.123L260.424 210.12ZM269.294 210.421C266.7 210.417 264.115 210.092 261.6 209.453V181.015C261.598 180.433 261.366 179.876 260.955 179.465C260.545 179.054 259.99 178.824 259.411 178.824H237.433C237.428 178.674 237.421 178.524 237.421 178.374C237.421 160.701 251.72 146.324 269.295 146.324C276.564 146.324 283.244 148.817 288.607 152.957H271.817C270.674 152.959 269.579 153.416 268.771 154.228C267.964 155.041 267.51 156.143 267.508 157.292V162.702H246.328C246.172 162.702 246.023 162.765 245.912 162.876C245.802 162.987 245.74 163.137 245.74 163.294V164.408H243.912C243.261 164.409 242.637 164.669 242.177 165.132C241.716 165.595 241.457 166.223 241.457 166.877C241.457 168.238 242.558 169.346 243.912 169.346H245.74V170.46C245.74 170.616 245.802 170.767 245.912 170.878C246.023 170.989 246.172 171.051 246.328 171.051H250.197V172.154C250.197 172.756 250.435 173.332 250.858 173.757C251.281 174.183 251.854 174.422 252.452 174.423H259.657C259.813 174.423 259.962 174.36 260.072 174.249C260.183 174.138 260.245 173.988 260.245 173.831C260.245 173.674 260.183 173.524 260.072 173.413C259.962 173.302 259.813 173.239 259.657 173.239H252.452C252.166 173.239 251.892 173.124 251.69 172.921C251.487 172.717 251.374 172.442 251.373 172.154V171.051H267.508V203.126C267.508 203.283 267.57 203.434 267.681 203.545C267.791 203.656 267.941 203.718 268.097 203.718H288.759C283.193 208.068 276.343 210.428 269.294 210.422V210.421ZM273.647 166.876L269.717 169.335V164.417L273.647 166.876ZM245.74 168.161H243.912C243.206 168.161 242.633 167.585 242.633 166.876C242.633 166.167 243.206 165.59 243.912 165.59H245.74V168.161ZM246.917 163.885H250.197V169.867H246.917V163.885ZM251.373 163.885H268.54V169.867H251.373V163.885ZM301.389 202.535H268.684V171.05C269.766 170.991 268.081 171.554 275.072 167.379C275.157 167.326 275.227 167.252 275.276 167.164C275.325 167.076 275.35 166.977 275.35 166.876C275.35 166.775 275.325 166.676 275.276 166.588C275.227 166.5 275.157 166.426 275.072 166.373L269.345 162.791C269.128 162.655 268.951 162.715 268.685 162.701V157.291C268.685 156.455 269.016 155.654 269.603 155.063C270.19 154.472 270.986 154.14 271.817 154.139H302.812C302.027 154.871 301.389 156.078 301.389 157.405V202.535ZM309.059 159.175H302.566V157.405C302.567 156.539 302.909 155.709 303.518 155.097C304.126 154.484 304.952 154.14 305.813 154.139C307.546 154.139 309.059 155.552 309.059 157.405V159.175Z" stroke="#11AFB4" stroke-width="0.8" mask="url(#path-12-outside-1_506_13)"/>
<path d="M281.526 184.365H295.078C295.287 184.365 295.488 184.281 295.636 184.132C295.783 183.984 295.866 183.782 295.866 183.573C295.866 183.363 295.783 183.162 295.636 183.013C295.488 182.865 295.287 182.781 295.078 182.781H281.526C281.317 182.781 281.116 182.865 280.968 183.013C280.82 183.162 280.738 183.363 280.738 183.573C280.738 183.782 280.82 183.984 280.968 184.132C281.116 184.281 281.317 184.365 281.526 184.365ZM274.788 184.365H278.241C278.451 184.365 278.651 184.281 278.799 184.132C278.947 183.984 279.029 183.782 279.029 183.573C279.029 183.363 278.947 183.162 278.799 183.013C278.651 182.865 278.451 182.781 278.241 182.781H274.788C274.579 182.781 274.378 182.865 274.231 183.013C274.083 183.162 274 183.363 274 183.573C274 183.782 274.083 183.984 274.231 184.132C274.378 184.281 274.579 184.365 274.788 184.365ZM295.078 189.598H292.058C291.848 189.598 291.648 189.681 291.5 189.83C291.352 189.978 291.269 190.18 291.269 190.389C291.269 190.599 291.352 190.8 291.5 190.949C291.648 191.097 291.848 191.181 292.058 191.181H295.078C295.287 191.181 295.488 191.097 295.636 190.949C295.783 190.8 295.866 190.599 295.866 190.389C295.866 190.18 295.783 189.978 295.636 189.83C295.488 189.681 295.287 189.598 295.078 189.598ZM274.788 191.181H288.097C288.306 191.181 288.507 191.097 288.654 190.949C288.802 190.8 288.885 190.599 288.885 190.389C288.885 190.18 288.802 189.978 288.654 189.83C288.507 189.681 288.306 189.598 288.097 189.598H274.788C274.579 189.598 274.378 189.681 274.231 189.83C274.083 189.978 274 190.18 274 190.389C274 190.599 274.083 190.8 274.231 190.949C274.378 191.097 274.579 191.181 274.788 191.181ZM295.078 196.414H281.526C281.317 196.414 281.116 196.498 280.968 196.646C280.82 196.795 280.738 196.996 280.738 197.206C280.738 197.415 280.82 197.617 280.968 197.765C281.116 197.914 281.317 197.997 281.526 197.997H295.078C295.287 197.997 295.488 197.914 295.636 197.765C295.783 197.617 295.866 197.415 295.866 197.206C295.866 196.996 295.783 196.795 295.636 196.646C295.488 196.498 295.287 196.414 295.078 196.414ZM278.158 196.414H274.788C274.579 196.414 274.378 196.498 274.231 196.646C274.083 196.795 274 196.996 274 197.206C274 197.415 274.083 197.617 274.231 197.765C274.378 197.914 274.579 197.997 274.788 197.997H278.158C278.367 197.997 278.568 197.914 278.716 197.765C278.863 197.617 278.946 197.415 278.946 197.206C278.946 196.996 278.863 196.795 278.716 196.646C278.568 196.498 278.367 196.414 278.158 196.414ZM284.933 177.967C290.087 177.967 294.278 173.75 294.278 168.568C294.278 163.381 290.087 159.158 284.933 159.158C279.779 159.158 275.588 163.381 275.588 168.568C275.588 173.75 279.779 177.967 284.933 177.967ZM284.933 160.741C289.215 160.741 292.701 164.252 292.701 168.568C292.701 172.879 289.216 176.384 284.933 176.384C280.65 176.384 277.165 172.879 277.165 168.568C277.165 164.252 280.651 160.741 284.933 160.741Z" fill="#11AFB4" stroke="#11AFB4" stroke-width="0.4"/>
<mask id="path-14-outside-2_506_13" maskUnits="userSpaceOnUse" x="237.902" y="162.717" width="70" height="45" fill="black">
<rect fill="white" x="237.902" y="162.717" width="70" height="45"/>
<path d="M284.933 171.481C284.626 171.481 284.332 171.358 284.116 171.14C283.899 170.922 283.777 170.626 283.776 170.318C283.776 170.161 283.714 170.01 283.604 169.899C283.494 169.788 283.344 169.726 283.188 169.726C283.032 169.726 282.883 169.788 282.772 169.899C282.662 170.01 282.6 170.161 282.6 170.318C282.6 171.406 283.345 172.315 284.345 172.579V172.822C284.345 172.979 284.407 173.129 284.517 173.24C284.627 173.351 284.777 173.413 284.933 173.413C285.089 173.413 285.239 173.351 285.349 173.24C285.459 173.129 285.521 172.979 285.521 172.822V172.579C286.019 172.449 286.461 172.157 286.776 171.748C287.092 171.339 287.264 170.836 287.266 170.319C287.266 169.024 286.219 167.971 284.933 167.971C284.704 167.971 284.481 167.902 284.291 167.774C284.101 167.646 283.953 167.464 283.866 167.252C283.779 167.039 283.756 166.805 283.801 166.58C283.846 166.355 283.957 166.148 284.119 165.985C284.281 165.823 284.487 165.713 284.711 165.668C284.936 165.624 285.168 165.648 285.379 165.736C285.59 165.825 285.77 165.974 285.896 166.166C286.023 166.357 286.09 166.582 286.089 166.812C286.089 166.969 286.151 167.12 286.262 167.231C286.372 167.342 286.522 167.404 286.678 167.404C286.834 167.404 286.983 167.342 287.094 167.231C287.204 167.12 287.266 166.969 287.266 166.812C287.266 165.724 286.522 164.815 285.521 164.552V164.308C285.521 164.151 285.459 164.001 285.349 163.89C285.239 163.779 285.089 163.717 284.933 163.717C284.777 163.717 284.627 163.779 284.517 163.89C284.407 164.001 284.345 164.151 284.345 164.308V164.551C283.846 164.681 283.405 164.974 283.089 165.383C282.774 165.792 282.602 166.294 282.6 166.812C282.6 168.105 283.647 169.155 284.933 169.155C285.228 169.172 285.506 169.302 285.71 169.518C285.913 169.734 286.027 170.02 286.027 170.318C286.027 170.616 285.913 170.902 285.71 171.119C285.506 171.335 285.228 171.464 284.933 171.481ZM280.327 168.567C280.326 168.462 280.305 168.358 280.264 168.261C280.223 168.164 280.164 168.076 280.089 168.002C280.015 167.928 279.926 167.87 279.829 167.83C279.732 167.791 279.628 167.771 279.524 167.772C279.314 167.772 279.112 167.856 278.964 168.006C278.815 168.155 278.731 168.357 278.731 168.569C278.731 169.002 279.093 169.365 279.524 169.365C279.735 169.365 279.937 169.281 280.087 169.132C280.238 168.983 280.324 168.78 280.327 168.567ZM290.342 169.365C290.552 169.362 290.752 169.278 290.9 169.129C291.048 168.98 291.133 168.779 291.135 168.569C291.135 168.357 291.051 168.155 290.902 168.006C290.754 167.856 290.552 167.772 290.342 167.772C290.238 167.771 290.134 167.791 290.036 167.831C289.939 167.87 289.851 167.929 289.776 168.003C289.702 168.077 289.642 168.165 289.601 168.262C289.561 168.359 289.539 168.463 289.539 168.569C289.539 169.002 289.901 169.365 290.342 169.365ZM242.012 205.97H239.491C239.335 205.97 239.185 206.032 239.075 206.143C238.964 206.254 238.902 206.405 238.902 206.562C238.902 206.719 238.964 206.869 239.075 206.98C239.185 207.091 239.335 207.153 239.491 207.153H242.012C242.168 207.153 242.317 207.091 242.428 206.98C242.538 206.869 242.6 206.719 242.6 206.562C242.6 206.405 242.538 206.254 242.428 206.143C242.317 206.032 242.168 205.97 242.012 205.97ZM242.012 200.109H239.491C239.335 200.109 239.185 200.171 239.075 200.282C238.964 200.393 238.902 200.543 238.902 200.7C238.902 200.857 238.964 201.008 239.075 201.119C239.185 201.23 239.335 201.292 239.491 201.292H242.012C242.168 201.292 242.317 201.23 242.428 201.119C242.538 201.008 242.6 200.857 242.6 200.7C242.6 200.543 242.538 200.393 242.428 200.282C242.317 200.171 242.168 200.109 242.012 200.109ZM242.012 194.246H239.491C239.335 194.246 239.185 194.308 239.075 194.419C238.964 194.53 238.902 194.681 238.902 194.838C238.902 194.995 238.964 195.145 239.075 195.256C239.185 195.367 239.335 195.429 239.491 195.429H242.012C242.168 195.429 242.317 195.367 242.428 195.256C242.538 195.145 242.6 194.995 242.6 194.838C242.6 194.681 242.538 194.53 242.428 194.419C242.317 194.308 242.168 194.246 242.012 194.246ZM248.94 205.97H246.42C246.264 205.97 246.114 206.032 246.004 206.143C245.894 206.254 245.832 206.405 245.832 206.562C245.832 206.719 245.894 206.869 246.004 206.98C246.114 207.091 246.264 207.153 246.42 207.153H248.94C249.096 207.153 249.246 207.091 249.356 206.98C249.466 206.869 249.528 206.719 249.528 206.562C249.528 206.405 249.466 206.254 249.356 206.143C249.246 206.032 249.096 205.97 248.94 205.97ZM248.94 200.109H246.42C246.264 200.109 246.114 200.171 246.004 200.282C245.894 200.393 245.832 200.543 245.832 200.7C245.832 200.857 245.894 201.008 246.004 201.119C246.114 201.23 246.264 201.292 246.42 201.292H248.94C249.096 201.292 249.246 201.23 249.356 201.119C249.466 201.008 249.528 200.857 249.528 200.7C249.528 200.543 249.466 200.393 249.356 200.282C249.246 200.171 249.096 200.109 248.94 200.109ZM248.94 194.246H246.42C246.264 194.246 246.114 194.308 246.004 194.419C245.894 194.53 245.832 194.681 245.832 194.838C245.832 194.995 245.894 195.145 246.004 195.256C246.114 195.367 246.264 195.429 246.42 195.429H248.94C249.096 195.429 249.246 195.367 249.356 195.256C249.466 195.145 249.528 194.995 249.528 194.838C249.528 194.681 249.466 194.53 249.356 194.419C249.246 194.308 249.096 194.246 248.94 194.246ZM255.868 205.97H253.348C253.192 205.97 253.043 206.032 252.932 206.143C252.822 206.254 252.76 206.405 252.76 206.562C252.76 206.719 252.822 206.869 252.932 206.98C253.043 207.091 253.192 207.153 253.348 207.153H255.868C256.024 207.153 256.174 207.091 256.284 206.98C256.394 206.869 256.456 206.719 256.456 206.562C256.456 206.405 256.394 206.254 256.284 206.143C256.174 206.032 256.024 205.97 255.868 205.97ZM255.868 200.109H253.348C253.192 200.109 253.043 200.171 252.932 200.282C252.822 200.393 252.76 200.543 252.76 200.7C252.76 200.857 252.822 201.008 252.932 201.119C253.043 201.23 253.192 201.292 253.348 201.292H255.868C256.024 201.292 256.174 201.23 256.284 201.119C256.394 201.008 256.456 200.857 256.456 200.7C256.456 200.543 256.394 200.393 256.284 200.282C256.174 200.171 256.024 200.109 255.868 200.109ZM255.868 194.246H253.348C253.192 194.246 253.043 194.308 252.932 194.419C252.822 194.53 252.76 194.681 252.76 194.838C252.76 194.995 252.822 195.145 252.932 195.256C253.043 195.367 253.192 195.429 253.348 195.429H255.868C256.024 195.429 256.174 195.367 256.284 195.256C256.394 195.145 256.456 194.995 256.456 194.838C256.456 194.681 256.394 194.53 256.284 194.419C256.174 194.308 256.024 194.246 255.868 194.246ZM239.491 190.63H255.864C256.02 190.63 256.169 190.567 256.279 190.456C256.39 190.345 256.452 190.195 256.452 190.038V184.582C256.452 184.425 256.39 184.275 256.279 184.164C256.169 184.053 256.02 183.991 255.864 183.991H239.491C239.335 183.991 239.185 184.053 239.075 184.164C238.964 184.275 238.902 184.425 238.902 184.582V190.038C238.902 190.195 238.964 190.345 239.075 190.456C239.185 190.567 239.335 190.63 239.491 190.63ZM240.079 185.174H255.275V189.446H240.079V185.174ZM306.439 181.249C306.283 181.249 306.133 181.311 306.023 181.422C305.913 181.533 305.851 181.683 305.851 181.84V192.858C305.851 193.015 305.913 193.165 306.023 193.276C306.133 193.387 306.283 193.45 306.439 193.45C306.595 193.45 306.744 193.387 306.855 193.276C306.965 193.165 307.027 193.015 307.027 192.858V181.84C307.027 181.683 306.965 181.533 306.855 181.422C306.744 181.311 306.595 181.249 306.439 181.249ZM306.439 173.171C306.283 173.171 306.133 173.233 306.023 173.344C305.913 173.455 305.851 173.606 305.851 173.762V177.19C305.851 177.347 305.913 177.497 306.023 177.608C306.133 177.719 306.283 177.781 306.439 177.781C306.595 177.781 306.744 177.719 306.855 177.608C306.965 177.497 307.027 177.347 307.027 177.19V173.762C307.027 173.606 306.965 173.455 306.855 173.344C306.744 173.233 306.595 173.171 306.439 173.171Z"/>
</mask>
<path d="M284.933 171.481C284.626 171.481 284.332 171.358 284.116 171.14C283.899 170.922 283.777 170.626 283.776 170.318C283.776 170.161 283.714 170.01 283.604 169.899C283.494 169.788 283.344 169.726 283.188 169.726C283.032 169.726 282.883 169.788 282.772 169.899C282.662 170.01 282.6 170.161 282.6 170.318C282.6 171.406 283.345 172.315 284.345 172.579V172.822C284.345 172.979 284.407 173.129 284.517 173.24C284.627 173.351 284.777 173.413 284.933 173.413C285.089 173.413 285.239 173.351 285.349 173.24C285.459 173.129 285.521 172.979 285.521 172.822V172.579C286.019 172.449 286.461 172.157 286.776 171.748C287.092 171.339 287.264 170.836 287.266 170.319C287.266 169.024 286.219 167.971 284.933 167.971C284.704 167.971 284.481 167.902 284.291 167.774C284.101 167.646 283.953 167.464 283.866 167.252C283.779 167.039 283.756 166.805 283.801 166.58C283.846 166.355 283.957 166.148 284.119 165.985C284.281 165.823 284.487 165.713 284.711 165.668C284.936 165.624 285.168 165.648 285.379 165.736C285.59 165.825 285.77 165.974 285.896 166.166C286.023 166.357 286.09 166.582 286.089 166.812C286.089 166.969 286.151 167.12 286.262 167.231C286.372 167.342 286.522 167.404 286.678 167.404C286.834 167.404 286.983 167.342 287.094 167.231C287.204 167.12 287.266 166.969 287.266 166.812C287.266 165.724 286.522 164.815 285.521 164.552V164.308C285.521 164.151 285.459 164.001 285.349 163.89C285.239 163.779 285.089 163.717 284.933 163.717C284.777 163.717 284.627 163.779 284.517 163.89C284.407 164.001 284.345 164.151 284.345 164.308V164.551C283.846 164.681 283.405 164.974 283.089 165.383C282.774 165.792 282.602 166.294 282.6 166.812C282.6 168.105 283.647 169.155 284.933 169.155C285.228 169.172 285.506 169.302 285.71 169.518C285.913 169.734 286.027 170.02 286.027 170.318C286.027 170.616 285.913 170.902 285.71 171.119C285.506 171.335 285.228 171.464 284.933 171.481ZM280.327 168.567C280.326 168.462 280.305 168.358 280.264 168.261C280.223 168.164 280.164 168.076 280.089 168.002C280.015 167.928 279.926 167.87 279.829 167.83C279.732 167.791 279.628 167.771 279.524 167.772C279.314 167.772 279.112 167.856 278.964 168.006C278.815 168.155 278.731 168.357 278.731 168.569C278.731 169.002 279.093 169.365 279.524 169.365C279.735 169.365 279.937 169.281 280.087 169.132C280.238 168.983 280.324 168.78 280.327 168.567ZM290.342 169.365C290.552 169.362 290.752 169.278 290.9 169.129C291.048 168.98 291.133 168.779 291.135 168.569C291.135 168.357 291.051 168.155 290.902 168.006C290.754 167.856 290.552 167.772 290.342 167.772C290.238 167.771 290.134 167.791 290.036 167.831C289.939 167.87 289.851 167.929 289.776 168.003C289.702 168.077 289.642 168.165 289.601 168.262C289.561 168.359 289.539 168.463 289.539 168.569C289.539 169.002 289.901 169.365 290.342 169.365ZM242.012 205.97H239.491C239.335 205.97 239.185 206.032 239.075 206.143C238.964 206.254 238.902 206.405 238.902 206.562C238.902 206.719 238.964 206.869 239.075 206.98C239.185 207.091 239.335 207.153 239.491 207.153H242.012C242.168 207.153 242.317 207.091 242.428 206.98C242.538 206.869 242.6 206.719 242.6 206.562C242.6 206.405 242.538 206.254 242.428 206.143C242.317 206.032 242.168 205.97 242.012 205.97ZM242.012 200.109H239.491C239.335 200.109 239.185 200.171 239.075 200.282C238.964 200.393 238.902 200.543 238.902 200.7C238.902 200.857 238.964 201.008 239.075 201.119C239.185 201.23 239.335 201.292 239.491 201.292H242.012C242.168 201.292 242.317 201.23 242.428 201.119C242.538 201.008 242.6 200.857 242.6 200.7C242.6 200.543 242.538 200.393 242.428 200.282C242.317 200.171 242.168 200.109 242.012 200.109ZM242.012 194.246H239.491C239.335 194.246 239.185 194.308 239.075 194.419C238.964 194.53 238.902 194.681 238.902 194.838C238.902 194.995 238.964 195.145 239.075 195.256C239.185 195.367 239.335 195.429 239.491 195.429H242.012C242.168 195.429 242.317 195.367 242.428 195.256C242.538 195.145 242.6 194.995 242.6 194.838C242.6 194.681 242.538 194.53 242.428 194.419C242.317 194.308 242.168 194.246 242.012 194.246ZM248.94 205.97H246.42C246.264 205.97 246.114 206.032 246.004 206.143C245.894 206.254 245.832 206.405 245.832 206.562C245.832 206.719 245.894 206.869 246.004 206.98C246.114 207.091 246.264 207.153 246.42 207.153H248.94C249.096 207.153 249.246 207.091 249.356 206.98C249.466 206.869 249.528 206.719 249.528 206.562C249.528 206.405 249.466 206.254 249.356 206.143C249.246 206.032 249.096 205.97 248.94 205.97ZM248.94 200.109H246.42C246.264 200.109 246.114 200.171 246.004 200.282C245.894 200.393 245.832 200.543 245.832 200.7C245.832 200.857 245.894 201.008 246.004 201.119C246.114 201.23 246.264 201.292 246.42 201.292H248.94C249.096 201.292 249.246 201.23 249.356 201.119C249.466 201.008 249.528 200.857 249.528 200.7C249.528 200.543 249.466 200.393 249.356 200.282C249.246 200.171 249.096 200.109 248.94 200.109ZM248.94 194.246H246.42C246.264 194.246 246.114 194.308 246.004 194.419C245.894 194.53 245.832 194.681 245.832 194.838C245.832 194.995 245.894 195.145 246.004 195.256C246.114 195.367 246.264 195.429 246.42 195.429H248.94C249.096 195.429 249.246 195.367 249.356 195.256C249.466 195.145 249.528 194.995 249.528 194.838C249.528 194.681 249.466 194.53 249.356 194.419C249.246 194.308 249.096 194.246 248.94 194.246ZM255.868 205.97H253.348C253.192 205.97 253.043 206.032 252.932 206.143C252.822 206.254 252.76 206.405 252.76 206.562C252.76 206.719 252.822 206.869 252.932 206.98C253.043 207.091 253.192 207.153 253.348 207.153H255.868C256.024 207.153 256.174 207.091 256.284 206.98C256.394 206.869 256.456 206.719 256.456 206.562C256.456 206.405 256.394 206.254 256.284 206.143C256.174 206.032 256.024 205.97 255.868 205.97ZM255.868 200.109H253.348C253.192 200.109 253.043 200.171 252.932 200.282C252.822 200.393 252.76 200.543 252.76 200.7C252.76 200.857 252.822 201.008 252.932 201.119C253.043 201.23 253.192 201.292 253.348 201.292H255.868C256.024 201.292 256.174 201.23 256.284 201.119C256.394 201.008 256.456 200.857 256.456 200.7C256.456 200.543 256.394 200.393 256.284 200.282C256.174 200.171 256.024 200.109 255.868 200.109ZM255.868 194.246H253.348C253.192 194.246 253.043 194.308 252.932 194.419C252.822 194.53 252.76 194.681 252.76 194.838C252.76 194.995 252.822 195.145 252.932 195.256C253.043 195.367 253.192 195.429 253.348 195.429H255.868C256.024 195.429 256.174 195.367 256.284 195.256C256.394 195.145 256.456 194.995 256.456 194.838C256.456 194.681 256.394 194.53 256.284 194.419C256.174 194.308 256.024 194.246 255.868 194.246ZM239.491 190.63H255.864C256.02 190.63 256.169 190.567 256.279 190.456C256.39 190.345 256.452 190.195 256.452 190.038V184.582C256.452 184.425 256.39 184.275 256.279 184.164C256.169 184.053 256.02 183.991 255.864 183.991H239.491C239.335 183.991 239.185 184.053 239.075 184.164C238.964 184.275 238.902 184.425 238.902 184.582V190.038C238.902 190.195 238.964 190.345 239.075 190.456C239.185 190.567 239.335 190.63 239.491 190.63ZM240.079 185.174H255.275V189.446H240.079V185.174ZM306.439 181.249C306.283 181.249 306.133 181.311 306.023 181.422C305.913 181.533 305.851 181.683 305.851 181.84V192.858C305.851 193.015 305.913 193.165 306.023 193.276C306.133 193.387 306.283 193.45 306.439 193.45C306.595 193.45 306.744 193.387 306.855 193.276C306.965 193.165 307.027 193.015 307.027 192.858V181.84C307.027 181.683 306.965 181.533 306.855 181.422C306.744 181.311 306.595 181.249 306.439 181.249ZM306.439 173.171C306.283 173.171 306.133 173.233 306.023 173.344C305.913 173.455 305.851 173.606 305.851 173.762V177.19C305.851 177.347 305.913 177.497 306.023 177.608C306.133 177.719 306.283 177.781 306.439 177.781C306.595 177.781 306.744 177.719 306.855 177.608C306.965 177.497 307.027 177.347 307.027 177.19V173.762C307.027 173.606 306.965 173.455 306.855 173.344C306.744 173.233 306.595 173.171 306.439 173.171Z" fill="#11AFB4"/>
<path d="M284.933 171.481C284.626 171.481 284.332 171.358 284.116 171.14C283.899 170.922 283.777 170.626 283.776 170.318C283.776 170.161 283.714 170.01 283.604 169.899C283.494 169.788 283.344 169.726 283.188 169.726C283.032 169.726 282.883 169.788 282.772 169.899C282.662 170.01 282.6 170.161 282.6 170.318C282.6 171.406 283.345 172.315 284.345 172.579V172.822C284.345 172.979 284.407 173.129 284.517 173.24C284.627 173.351 284.777 173.413 284.933 173.413C285.089 173.413 285.239 173.351 285.349 173.24C285.459 173.129 285.521 172.979 285.521 172.822V172.579C286.019 172.449 286.461 172.157 286.776 171.748C287.092 171.339 287.264 170.836 287.266 170.319C287.266 169.024 286.219 167.971 284.933 167.971C284.704 167.971 284.481 167.902 284.291 167.774C284.101 167.646 283.953 167.464 283.866 167.252C283.779 167.039 283.756 166.805 283.801 166.58C283.846 166.355 283.957 166.148 284.119 165.985C284.281 165.823 284.487 165.713 284.711 165.668C284.936 165.624 285.168 165.648 285.379 165.736C285.59 165.825 285.77 165.974 285.896 166.166C286.023 166.357 286.09 166.582 286.089 166.812C286.089 166.969 286.151 167.12 286.262 167.231C286.372 167.342 286.522 167.404 286.678 167.404C286.834 167.404 286.983 167.342 287.094 167.231C287.204 167.12 287.266 166.969 287.266 166.812C287.266 165.724 286.522 164.815 285.521 164.552V164.308C285.521 164.151 285.459 164.001 285.349 163.89C285.239 163.779 285.089 163.717 284.933 163.717C284.777 163.717 284.627 163.779 284.517 163.89C284.407 164.001 284.345 164.151 284.345 164.308V164.551C283.846 164.681 283.405 164.974 283.089 165.383C282.774 165.792 282.602 166.294 282.6 166.812C282.6 168.105 283.647 169.155 284.933 169.155C285.228 169.172 285.506 169.302 285.71 169.518C285.913 169.734 286.027 170.02 286.027 170.318C286.027 170.616 285.913 170.902 285.71 171.119C285.506 171.335 285.228 171.464 284.933 171.481ZM280.327 168.567C280.326 168.462 280.305 168.358 280.264 168.261C280.223 168.164 280.164 168.076 280.089 168.002C280.015 167.928 279.926 167.87 279.829 167.83C279.732 167.791 279.628 167.771 279.524 167.772C279.314 167.772 279.112 167.856 278.964 168.006C278.815 168.155 278.731 168.357 278.731 168.569C278.731 169.002 279.093 169.365 279.524 169.365C279.735 169.365 279.937 169.281 280.087 169.132C280.238 168.983 280.324 168.78 280.327 168.567ZM290.342 169.365C290.552 169.362 290.752 169.278 290.9 169.129C291.048 168.98 291.133 168.779 291.135 168.569C291.135 168.357 291.051 168.155 290.902 168.006C290.754 167.856 290.552 167.772 290.342 167.772C290.238 167.771 290.134 167.791 290.036 167.831C289.939 167.87 289.851 167.929 289.776 168.003C289.702 168.077 289.642 168.165 289.601 168.262C289.561 168.359 289.539 168.463 289.539 168.569C289.539 169.002 289.901 169.365 290.342 169.365ZM242.012 205.97H239.491C239.335 205.97 239.185 206.032 239.075 206.143C238.964 206.254 238.902 206.405 238.902 206.562C238.902 206.719 238.964 206.869 239.075 206.98C239.185 207.091 239.335 207.153 239.491 207.153H242.012C242.168 207.153 242.317 207.091 242.428 206.98C242.538 206.869 242.6 206.719 242.6 206.562C242.6 206.405 242.538 206.254 242.428 206.143C242.317 206.032 242.168 205.97 242.012 205.97ZM242.012 200.109H239.491C239.335 200.109 239.185 200.171 239.075 200.282C238.964 200.393 238.902 200.543 238.902 200.7C238.902 200.857 238.964 201.008 239.075 201.119C239.185 201.23 239.335 201.292 239.491 201.292H242.012C242.168 201.292 242.317 201.23 242.428 201.119C242.538 201.008 242.6 200.857 242.6 200.7C242.6 200.543 242.538 200.393 242.428 200.282C242.317 200.171 242.168 200.109 242.012 200.109ZM242.012 194.246H239.491C239.335 194.246 239.185 194.308 239.075 194.419C238.964 194.53 238.902 194.681 238.902 194.838C238.902 194.995 238.964 195.145 239.075 195.256C239.185 195.367 239.335 195.429 239.491 195.429H242.012C242.168 195.429 242.317 195.367 242.428 195.256C242.538 195.145 242.6 194.995 242.6 194.838C242.6 194.681 242.538 194.53 242.428 194.419C242.317 194.308 242.168 194.246 242.012 194.246ZM248.94 205.97H246.42C246.264 205.97 246.114 206.032 246.004 206.143C245.894 206.254 245.832 206.405 245.832 206.562C245.832 206.719 245.894 206.869 246.004 206.98C246.114 207.091 246.264 207.153 246.42 207.153H248.94C249.096 207.153 249.246 207.091 249.356 206.98C249.466 206.869 249.528 206.719 249.528 206.562C249.528 206.405 249.466 206.254 249.356 206.143C249.246 206.032 249.096 205.97 248.94 205.97ZM248.94 200.109H246.42C246.264 200.109 246.114 200.171 246.004 200.282C245.894 200.393 245.832 200.543 245.832 200.7C245.832 200.857 245.894 201.008 246.004 201.119C246.114 201.23 246.264 201.292 246.42 201.292H248.94C249.096 201.292 249.246 201.23 249.356 201.119C249.466 201.008 249.528 200.857 249.528 200.7C249.528 200.543 249.466 200.393 249.356 200.282C249.246 200.171 249.096 200.109 248.94 200.109ZM248.94 194.246H246.42C246.264 194.246 246.114 194.308 246.004 194.419C245.894 194.53 245.832 194.681 245.832 194.838C245.832 194.995 245.894 195.145 246.004 195.256C246.114 195.367 246.264 195.429 246.42 195.429H248.94C249.096 195.429 249.246 195.367 249.356 195.256C249.466 195.145 249.528 194.995 249.528 194.838C249.528 194.681 249.466 194.53 249.356 194.419C249.246 194.308 249.096 194.246 248.94 194.246ZM255.868 205.97H253.348C253.192 205.97 253.043 206.032 252.932 206.143C252.822 206.254 252.76 206.405 252.76 206.562C252.76 206.719 252.822 206.869 252.932 206.98C253.043 207.091 253.192 207.153 253.348 207.153H255.868C256.024 207.153 256.174 207.091 256.284 206.98C256.394 206.869 256.456 206.719 256.456 206.562C256.456 206.405 256.394 206.254 256.284 206.143C256.174 206.032 256.024 205.97 255.868 205.97ZM255.868 200.109H253.348C253.192 200.109 253.043 200.171 252.932 200.282C252.822 200.393 252.76 200.543 252.76 200.7C252.76 200.857 252.822 201.008 252.932 201.119C253.043 201.23 253.192 201.292 253.348 201.292H255.868C256.024 201.292 256.174 201.23 256.284 201.119C256.394 201.008 256.456 200.857 256.456 200.7C256.456 200.543 256.394 200.393 256.284 200.282C256.174 200.171 256.024 200.109 255.868 200.109ZM255.868 194.246H253.348C253.192 194.246 253.043 194.308 252.932 194.419C252.822 194.53 252.76 194.681 252.76 194.838C252.76 194.995 252.822 195.145 252.932 195.256C253.043 195.367 253.192 195.429 253.348 195.429H255.868C256.024 195.429 256.174 195.367 256.284 195.256C256.394 195.145 256.456 194.995 256.456 194.838C256.456 194.681 256.394 194.53 256.284 194.419C256.174 194.308 256.024 194.246 255.868 194.246ZM239.491 190.63H255.864C256.02 190.63 256.169 190.567 256.279 190.456C256.39 190.345 256.452 190.195 256.452 190.038V184.582C256.452 184.425 256.39 184.275 256.279 184.164C256.169 184.053 256.02 183.991 255.864 183.991H239.491C239.335 183.991 239.185 184.053 239.075 184.164C238.964 184.275 238.902 184.425 238.902 184.582V190.038C238.902 190.195 238.964 190.345 239.075 190.456C239.185 190.567 239.335 190.63 239.491 190.63ZM240.079 185.174H255.275V189.446H240.079V185.174ZM306.439 181.249C306.283 181.249 306.133 181.311 306.023 181.422C305.913 181.533 305.851 181.683 305.851 181.84V192.858C305.851 193.015 305.913 193.165 306.023 193.276C306.133 193.387 306.283 193.45 306.439 193.45C306.595 193.45 306.744 193.387 306.855 193.276C306.965 193.165 307.027 193.015 307.027 192.858V181.84C307.027 181.683 306.965 181.533 306.855 181.422C306.744 181.311 306.595 181.249 306.439 181.249ZM306.439 173.171C306.283 173.171 306.133 173.233 306.023 173.344C305.913 173.455 305.851 173.606 305.851 173.762V177.19C305.851 177.347 305.913 177.497 306.023 177.608C306.133 177.719 306.283 177.781 306.439 177.781C306.595 177.781 306.744 177.719 306.855 177.608C306.965 177.497 307.027 177.347 307.027 177.19V173.762C307.027 173.606 306.965 173.455 306.855 173.344C306.744 173.233 306.595 173.171 306.439 173.171Z" stroke="#11AFB4" stroke-width="0.8" mask="url(#path-14-outside-2_506_13)"/>
<g filter="url(#filter0_d_506_13)">
<rect x="323" y="26" width="178" height="65" rx="10" fill="white"/>
<path d="M375.912 42.432V54H374.344V42.432H375.912ZM378.888 48.896H375.48V47.536H378.76C379.411 47.536 379.912 47.3707 380.264 47.04C380.616 46.7093 380.792 46.24 380.792 45.632C380.792 45.056 380.605 44.6133 380.232 44.304C379.869 43.984 379.347 43.824 378.664 43.824H375.208V42.432H378.76C379.891 42.432 380.776 42.704 381.416 43.248C382.067 43.792 382.392 44.5387 382.392 45.488C382.392 46.2027 382.216 46.8 381.864 47.28C381.523 47.7493 381.016 48.0907 380.344 48.304V48.096C381.091 48.2773 381.651 48.608 382.024 49.088C382.408 49.5573 382.6 50.1653 382.6 50.912C382.6 51.552 382.451 52.1067 382.152 52.576C381.864 53.0347 381.443 53.3867 380.888 53.632C380.333 53.8773 379.677 54 378.92 54H375.208V52.608H378.888C379.56 52.608 380.077 52.4427 380.44 52.112C380.803 51.7813 380.984 51.3173 380.984 50.72C380.984 50.144 380.797 49.696 380.424 49.376C380.061 49.056 379.549 48.896 378.888 48.896ZM387.683 54.192C386.925 54.192 386.253 54.0213 385.667 53.68C385.08 53.328 384.621 52.848 384.291 52.24C383.96 51.6213 383.795 50.9067 383.795 50.096C383.795 49.2747 383.955 48.5547 384.275 47.936C384.605 47.3173 385.053 46.832 385.619 46.48C386.195 46.128 386.861 45.952 387.619 45.952C388.365 45.952 389.011 46.112 389.555 46.432C390.109 46.752 390.536 47.2 390.835 47.776C391.144 48.352 391.299 49.0293 391.299 49.808V50.368L384.595 50.384L384.627 49.376H389.795C389.795 48.7253 389.597 48.2027 389.203 47.808C388.808 47.4133 388.28 47.216 387.619 47.216C387.117 47.216 386.685 47.328 386.323 47.552C385.971 47.7653 385.699 48.0853 385.507 48.512C385.325 48.928 385.235 49.4293 385.235 50.016C385.235 50.9547 385.448 51.68 385.875 52.192C386.301 52.6933 386.915 52.944 387.715 52.944C388.301 52.944 388.781 52.8267 389.155 52.592C389.528 52.3573 389.779 52.016 389.907 51.568H391.315C391.123 52.4 390.712 53.0453 390.083 53.504C389.453 53.9627 388.653 54.192 387.683 54.192ZM392.069 46.176H396.645V47.44H392.069V46.176ZM395.109 54H393.605V43.728H395.109V54ZM397.303 46.176H401.879V47.44H397.303V46.176ZM400.343 54H398.839V43.728H400.343V54ZM406.527 54.192C405.769 54.192 405.097 54.0213 404.511 53.68C403.924 53.328 403.465 52.848 403.135 52.24C402.804 51.6213 402.639 50.9067 402.639 50.096C402.639 49.2747 402.799 48.5547 403.118 47.936C403.449 47.3173 403.897 46.832 404.463 46.48C405.039 46.128 405.705 45.952 406.463 45.952C407.209 45.952 407.855 46.112 408.399 46.432C408.953 46.752 409.38 47.2 409.679 47.776C409.988 48.352 410.142 49.0293 410.142 49.808V50.368L403.439 50.384L403.471 49.376H408.639C408.639 48.7253 408.441 48.2027 408.047 47.808C407.652 47.4133 407.124 47.216 406.463 47.216C405.961 47.216 405.529 47.328 405.167 47.552C404.815 47.7653 404.543 48.0853 404.351 48.512C404.169 48.928 404.079 49.4293 404.079 50.016C404.079 50.9547 404.292 51.68 404.719 52.192C405.145 52.6933 405.759 52.944 406.559 52.944C407.145 52.944 407.625 52.8267 407.999 52.592C408.372 52.3573 408.623 52.016 408.751 51.568H410.159C409.967 52.4 409.556 53.0453 408.927 53.504C408.297 53.9627 407.497 54.192 406.527 54.192ZM416.302 46.112V47.488H415.63C414.916 47.488 414.35 47.696 413.934 48.112C413.529 48.5173 413.326 49.0987 413.326 49.856V54H411.822V46.192H413.23L413.358 47.76H413.214C413.321 47.248 413.577 46.832 413.982 46.512C414.388 46.1813 414.894 46.016 415.502 46.016C415.641 46.016 415.769 46.0267 415.886 46.048C416.014 46.0587 416.153 46.08 416.302 46.112ZM374.824 75H373.192L377.416 63.432H379.16L383.4 75H381.752L380.712 72.12H375.848L374.824 75ZM378.088 65.928L376.328 70.76H380.248L378.472 65.928C378.44 65.8107 378.403 65.6933 378.36 65.576C378.317 65.448 378.291 65.3413 378.28 65.256C378.259 65.3413 378.232 65.448 378.2 65.576C378.168 65.6933 378.131 65.8107 378.088 65.928ZM383.857 71.096C383.857 70.2747 384.017 69.5547 384.337 68.936C384.668 68.3173 385.121 67.832 385.697 67.48C386.273 67.128 386.94 66.952 387.697 66.952C388.679 66.952 389.495 67.2133 390.145 67.736C390.796 68.2587 391.185 68.952 391.313 69.816H389.809C389.681 69.3147 389.431 68.936 389.057 68.68C388.684 68.424 388.247 68.296 387.745 68.296C387.276 68.296 386.86 68.4133 386.497 68.648C386.135 68.872 385.852 69.192 385.649 69.608C385.447 70.024 385.345 70.5147 385.345 71.08C385.345 71.6453 385.441 72.136 385.633 72.552C385.825 72.9573 386.097 73.2773 386.449 73.512C386.801 73.736 387.212 73.848 387.681 73.848C388.215 73.848 388.673 73.7147 389.057 73.448C389.441 73.1813 389.697 72.8187 389.825 72.36H391.329C391.233 72.9253 391.015 73.4213 390.673 73.848C390.343 74.264 389.916 74.5947 389.393 74.84C388.881 75.0747 388.311 75.192 387.681 75.192C386.913 75.192 386.241 75.0213 385.665 74.68C385.1 74.3387 384.657 73.864 384.337 73.256C384.017 72.6373 383.857 71.9173 383.857 71.096ZM392.404 71.096C392.404 70.2747 392.564 69.5547 392.884 68.936C393.215 68.3173 393.668 67.832 394.244 67.48C394.82 67.128 395.487 66.952 396.244 66.952C397.225 66.952 398.041 67.2133 398.692 67.736C399.343 68.2587 399.732 68.952 399.86 69.816H398.356C398.228 69.3147 397.977 68.936 397.604 68.68C397.231 68.424 396.793 68.296 396.292 68.296C395.823 68.296 395.407 68.4133 395.044 68.648C394.681 68.872 394.399 69.192 394.196 69.608C393.993 70.024 393.892 70.5147 393.892 71.08C393.892 71.6453 393.988 72.136 394.18 72.552C394.372 72.9573 394.644 73.2773 394.996 73.512C395.348 73.736 395.759 73.848 396.228 73.848C396.761 73.848 397.22 73.7147 397.604 73.448C397.988 73.1813 398.244 72.8187 398.372 72.36H399.876C399.78 72.9253 399.561 73.4213 399.22 73.848C398.889 74.264 398.463 74.5947 397.94 74.84C397.428 75.0747 396.857 75.192 396.228 75.192C395.46 75.192 394.788 75.0213 394.212 74.68C393.647 74.3387 393.204 73.864 392.884 73.256C392.564 72.6373 392.404 71.9173 392.404 71.096ZM406.871 67.176H408.359V75H407.015L406.855 73.816C406.631 74.2213 406.279 74.552 405.799 74.808C405.319 75.064 404.791 75.192 404.215 75.192C403.308 75.192 402.604 74.9093 402.103 74.344C401.612 73.768 401.367 73 401.367 72.04V67.176H402.871V71.544C402.871 72.376 403.036 72.9733 403.367 73.336C403.708 73.688 404.167 73.864 404.743 73.864C405.436 73.864 405.964 73.6507 406.327 73.224C406.69 72.7867 406.871 72.1467 406.871 71.304V67.176ZM415.021 67.112V68.488H414.349C413.634 68.488 413.069 68.696 412.653 69.112C412.248 69.5173 412.045 70.0987 412.045 70.856V75H410.541V67.192H411.949L412.077 68.76H411.933C412.04 68.248 412.296 67.832 412.701 67.512C413.106 67.1813 413.613 67.016 414.221 67.016C414.36 67.016 414.488 67.0267 414.605 67.048C414.733 67.0587 414.872 67.08 415.021 67.112ZM418.407 75.192C417.575 75.192 416.919 74.9733 416.439 74.536C415.97 74.0987 415.735 73.528 415.735 72.824C415.735 72.1093 415.991 71.5387 416.503 71.112C417.015 70.6747 417.73 70.4187 418.647 70.344L421.111 70.152V69.928C421.111 69.4907 421.031 69.144 420.871 68.888C420.711 68.6213 420.493 68.4347 420.215 68.328C419.938 68.2107 419.623 68.152 419.271 68.152C418.642 68.152 418.151 68.2853 417.799 68.552C417.458 68.808 417.287 69.176 417.287 69.656H415.975C415.975 69.112 416.114 68.6373 416.391 68.232C416.669 67.8267 417.058 67.512 417.559 67.288C418.071 67.064 418.663 66.952 419.335 66.952C419.986 66.952 420.551 67.0693 421.031 67.304C421.522 67.528 421.901 67.8747 422.167 68.344C422.445 68.8027 422.583 69.384 422.583 70.088V75H421.303L421.143 73.736C420.941 74.184 420.589 74.5413 420.087 74.808C419.597 75.064 419.037 75.192 418.407 75.192ZM418.839 74.024C419.554 74.024 420.114 73.8107 420.519 73.384C420.925 72.9467 421.127 72.36 421.127 71.624V71.208L419.127 71.368C418.466 71.432 417.986 71.5867 417.687 71.832C417.399 72.0773 417.255 72.392 417.255 72.776C417.255 73.192 417.394 73.5067 417.671 73.72C417.959 73.9227 418.349 74.024 418.839 74.024ZM424.154 71.096C424.154 70.2747 424.314 69.5547 424.634 68.936C424.965 68.3173 425.418 67.832 425.994 67.48C426.57 67.128 427.237 66.952 427.994 66.952C428.975 66.952 429.791 67.2133 430.442 67.736C431.093 68.2587 431.482 68.952 431.61 69.816H430.106C429.978 69.3147 429.727 68.936 429.354 68.68C428.981 68.424 428.543 68.296 428.042 68.296C427.573 68.296 427.157 68.4133 426.794 68.648C426.431 68.872 426.149 69.192 425.946 69.608C425.743 70.024 425.642 70.5147 425.642 71.08C425.642 71.6453 425.738 72.136 425.93 72.552C426.122 72.9573 426.394 73.2773 426.746 73.512C427.098 73.736 427.509 73.848 427.978 73.848C428.511 73.848 428.97 73.7147 429.354 73.448C429.738 73.1813 429.994 72.8187 430.122 72.36H431.626C431.53 72.9253 431.311 73.4213 430.97 73.848C430.639 74.264 430.213 74.5947 429.69 74.84C429.178 75.0747 428.607 75.192 427.978 75.192C427.21 75.192 426.538 75.0213 425.962 74.68C425.397 74.3387 424.954 73.864 424.634 73.256C424.314 72.6373 424.154 71.9173 424.154 71.096ZM433.681 67.176L436.433 74.792L435.505 76.072L432.097 67.176H433.681ZM432.305 78.504V77.272H433.313C433.558 77.272 433.782 77.2453 433.985 77.192C434.187 77.1493 434.374 77.048 434.545 76.888C434.715 76.7387 434.859 76.4987 434.977 76.168L438.273 67.176H439.825L436.129 76.76C435.862 77.432 435.526 77.9173 435.121 78.216C434.715 78.5147 434.214 78.664 433.617 78.664C433.371 78.664 433.142 78.648 432.929 78.616C432.715 78.5947 432.507 78.5573 432.305 78.504Z" fill="#064446"/>
<g clip-path="url(#clip0_506_13)">
<path fill-rule="evenodd" clip-rule="evenodd" d="M349.502 68.219C344.148 68.219 339.781 63.8546 339.781 58.5014C339.781 53.1481 344.148 48.7808 349.502 48.7808C354.855 48.7808 359.219 53.1481 359.219 58.5014C359.219 63.8546 354.855 68.219 349.502 68.219ZM348.226 59.3569L346.054 57.1848C345.491 56.6222 344.578 56.6222 344.015 57.1848C343.452 57.7503 343.452 58.6609 344.015 59.2234L347.208 62.4192C347.77 62.9817 348.684 62.9817 349.247 62.4192C351.172 60.4936 353.074 58.5478 354.991 56.6135C355.551 56.0481 355.548 55.1375 354.985 54.5778C354.423 54.0181 353.509 54.021 352.95 54.5836L348.226 59.3569ZM361.847 60.5596C361.891 60.2948 362.141 60.1156 362.406 60.1595C362.671 60.2033 362.85 60.454 362.806 60.7187C361.866 66.3869 357.387 70.8661 351.719 71.806C351.454 71.8499 351.204 71.6706 351.16 71.4058C351.116 71.1411 351.295 70.8904 351.56 70.8466C356.819 69.9745 360.975 65.8186 361.847 60.5596ZM347.441 70.8466C347.705 70.8904 347.885 71.1411 347.841 71.4058C347.797 71.6706 347.546 71.8499 347.281 71.806C341.613 70.8661 337.134 66.3869 336.194 60.7187C336.15 60.454 336.33 60.2033 336.594 60.1595C336.859 60.1156 337.11 60.2948 337.154 60.5596C338.026 65.8186 342.182 69.9745 347.441 70.8466ZM337.154 56.4403C337.11 56.705 336.859 56.8843 336.594 56.8404C336.33 56.7965 336.15 56.5459 336.194 56.2811C337.134 50.613 341.613 46.1338 347.281 45.1939C347.546 45.1499 347.797 45.3292 347.841 45.594C347.885 45.8588 347.705 46.1094 347.441 46.1533C342.182 47.0254 338.026 51.1813 337.154 56.4403ZM351.56 46.1533C351.295 46.1094 351.116 45.8588 351.16 45.594C351.204 45.3292 351.454 45.1499 351.719 45.1939C357.387 46.1338 361.866 50.613 362.806 56.2811C362.85 56.5459 362.671 56.7965 362.406 56.8404C362.141 56.8843 361.891 56.705 361.847 56.4403C360.975 51.1813 356.819 47.0254 351.56 46.1533ZM349.987 47.0845C349.987 47.3529 349.769 47.5708 349.5 47.5708C349.232 47.5708 349.014 47.3529 349.014 47.0845V43.9117C349.014 43.6433 349.232 43.4254 349.5 43.4254C349.769 43.4254 349.987 43.6433 349.987 43.9117V47.0845ZM360.916 58.9862C360.647 58.9862 360.429 58.7683 360.429 58.4999C360.429 58.2316 360.647 58.0137 360.916 58.0137H364.089C364.357 58.0137 364.575 58.2316 364.575 58.4999C364.575 58.7683 364.357 58.9862 364.089 58.9862H360.916ZM349.014 69.9153C349.014 69.647 349.232 69.4291 349.5 69.4291C349.769 69.4291 349.987 69.647 349.987 69.9153V73.0882C349.987 73.3565 349.769 73.5744 349.5 73.5744C349.232 73.5744 349.014 73.3565 349.014 73.0882V69.9153ZM338.085 58.0137C338.353 58.0137 338.571 58.2316 338.571 58.4999C338.571 58.7683 338.353 58.9862 338.085 58.9862H334.912C334.644 58.9862 334.426 58.7683 334.426 58.4999C334.426 58.2316 334.644 58.0137 334.912 58.0137H338.085Z" fill="#EB8674"/>
</g>
</g>
<g filter="url(#filter1_d_506_13)">
<rect x="30" y="73" width="178" height="65" rx="10" fill="white"/>
<path d="M88.912 89.432V101H87.344V89.432H88.912ZM91.888 95.896H88.48V94.536H91.76C92.4107 94.536 92.912 94.3707 93.264 94.04C93.616 93.7093 93.792 93.24 93.792 92.632C93.792 92.056 93.6053 91.6133 93.232 91.304C92.8693 90.984 92.3467 90.824 91.664 90.824H88.208V89.432H91.76C92.8907 89.432 93.776 89.704 94.416 90.248C95.0667 90.792 95.392 91.5387 95.392 92.488C95.392 93.2027 95.216 93.8 94.864 94.28C94.5227 94.7493 94.016 95.0907 93.344 95.304V95.096C94.0907 95.2773 94.6507 95.608 95.024 96.088C95.408 96.5573 95.6 97.1653 95.6 97.912C95.6 98.552 95.4507 99.1067 95.152 99.576C94.864 100.035 94.4427 100.387 93.888 100.632C93.3333 100.877 92.6773 101 91.92 101H88.208V99.608H91.888C92.56 99.608 93.0773 99.4427 93.44 99.112C93.8027 98.7813 93.984 98.3173 93.984 97.72C93.984 97.144 93.7973 96.696 93.424 96.376C93.0613 96.056 92.5493 95.896 91.888 95.896ZM100.683 101.192C99.9254 101.192 99.2534 101.021 98.6668 100.68C98.0801 100.328 97.6214 99.848 97.2908 99.24C96.9601 98.6213 96.7948 97.9067 96.7948 97.096C96.7948 96.2747 96.9548 95.5547 97.2747 94.936C97.6054 94.3173 98.0534 93.832 98.6188 93.48C99.1948 93.128 99.8614 92.952 100.619 92.952C101.365 92.952 102.011 93.112 102.555 93.432C103.109 93.752 103.536 94.2 103.835 94.776C104.144 95.352 104.299 96.0293 104.299 96.808V97.368L97.5948 97.384L97.6268 96.376H102.795C102.795 95.7253 102.597 95.2027 102.203 94.808C101.808 94.4133 101.28 94.216 100.619 94.216C100.117 94.216 99.6854 94.328 99.3228 94.552C98.9708 94.7653 98.6988 95.0853 98.5068 95.512C98.3254 95.928 98.2348 96.4293 98.2348 97.016C98.2348 97.9547 98.4481 98.68 98.8748 99.192C99.3014 99.6933 99.9148 99.944 100.715 99.944C101.301 99.944 101.781 99.8267 102.155 99.592C102.528 99.3573 102.779 99.016 102.907 98.568H104.315C104.123 99.4 103.712 100.045 103.083 100.504C102.453 100.963 101.653 101.192 100.683 101.192ZM105.069 93.176H109.645V94.44H105.069V93.176ZM108.109 101H106.605V90.728H108.109V101ZM110.303 93.176H114.879V94.44H110.303V93.176ZM113.343 101H111.839V90.728H113.343V101ZM119.527 101.192C118.769 101.192 118.097 101.021 117.511 100.68C116.924 100.328 116.465 99.848 116.135 99.24C115.804 98.6213 115.639 97.9067 115.639 97.096C115.639 96.2747 115.799 95.5547 116.118 94.936C116.449 94.3173 116.897 93.832 117.463 93.48C118.039 93.128 118.705 92.952 119.463 92.952C120.209 92.952 120.855 93.112 121.399 93.432C121.953 93.752 122.38 94.2 122.679 94.776C122.988 95.352 123.142 96.0293 123.142 96.808V97.368L116.439 97.384L116.471 96.376H121.639C121.639 95.7253 121.441 95.2027 121.047 94.808C120.652 94.4133 120.124 94.216 119.463 94.216C118.961 94.216 118.529 94.328 118.167 94.552C117.815 94.7653 117.543 95.0853 117.351 95.512C117.169 95.928 117.079 96.4293 117.079 97.016C117.079 97.9547 117.292 98.68 117.719 99.192C118.145 99.6933 118.759 99.944 119.559 99.944C120.145 99.944 120.625 99.8267 120.999 99.592C121.372 99.3573 121.623 99.016 121.751 98.568H123.159C122.967 99.4 122.556 100.045 121.927 100.504C121.297 100.963 120.497 101.192 119.527 101.192ZM129.302 93.112V94.488H128.63C127.916 94.488 127.35 94.696 126.934 95.112C126.529 95.5173 126.326 96.0987 126.326 96.856V101H124.822V93.192H126.23L126.358 94.76H126.214C126.321 94.248 126.577 93.832 126.982 93.512C127.388 93.1813 127.894 93.016 128.502 93.016C128.641 93.016 128.769 93.0267 128.886 93.048C129.014 93.0587 129.153 93.08 129.302 93.112ZM88.912 110.432V122H87.344V110.432H88.912ZM94.32 111.872H87.456V110.432H94.32V111.872ZM93.456 117.088H87.424V115.664H93.456V117.088ZM98.7296 122.192C97.9723 122.192 97.3003 122.021 96.7136 121.68C96.127 121.328 95.6683 120.848 95.3376 120.24C95.007 119.621 94.8416 118.907 94.8416 118.096C94.8416 117.275 95.0016 116.555 95.3216 115.936C95.6523 115.317 96.1003 114.832 96.6656 114.48C97.2416 114.128 97.9083 113.952 98.6656 113.952C99.4123 113.952 100.058 114.112 100.602 114.432C101.156 114.752 101.583 115.2 101.882 115.776C102.191 116.352 102.346 117.029 102.346 117.808V118.368L95.6416 118.384L95.6736 117.376H100.842C100.842 116.725 100.644 116.203 100.25 115.808C99.855 115.413 99.327 115.216 98.6656 115.216C98.1643 115.216 97.7323 115.328 97.3696 115.552C97.0176 115.765 96.7456 116.085 96.5536 116.512C96.3723 116.928 96.2816 117.429 96.2816 118.016C96.2816 118.955 96.495 119.68 96.9216 120.192C97.3483 120.693 97.9616 120.944 98.7616 120.944C99.3483 120.944 99.8283 120.827 100.202 120.592C100.575 120.357 100.826 120.016 100.954 119.568H102.362C102.17 120.4 101.759 121.045 101.13 121.504C100.5 121.963 99.7003 122.192 98.7296 122.192ZM105.562 122H104.058V110.224H105.562V122ZM108.576 122H106.848L109.584 118.128L106.864 114.176H108.608L110.592 117.088L112.528 114.176H114.24L111.52 118.128L114.192 122H112.448L110.496 119.136L108.576 122ZM115.494 122V114.176H116.998V122H115.494ZM116.23 112.32C115.964 112.32 115.729 112.224 115.526 112.032C115.334 111.829 115.238 111.595 115.238 111.328C115.238 111.051 115.334 110.816 115.526 110.624C115.729 110.432 115.964 110.336 116.23 110.336C116.508 110.336 116.742 110.432 116.934 110.624C117.126 110.816 117.222 111.051 117.222 111.328C117.222 111.595 117.126 111.829 116.934 112.032C116.742 112.224 116.508 112.32 116.23 112.32ZM120.542 122H119.182V110.224H120.686V115.52C120.942 115.008 121.32 114.619 121.822 114.352C122.323 114.085 122.894 113.952 123.534 113.952C124.28 113.952 124.92 114.133 125.454 114.496C125.987 114.848 126.398 115.339 126.686 115.968C126.974 116.597 127.118 117.317 127.118 118.128C127.118 118.907 126.968 119.605 126.67 120.224C126.371 120.843 125.944 121.328 125.39 121.68C124.846 122.021 124.195 122.192 123.438 122.192C122.83 122.192 122.275 122.053 121.774 121.776C121.283 121.499 120.91 121.099 120.654 120.576L120.542 122ZM120.702 118.064C120.702 118.608 120.798 119.088 120.99 119.504C121.192 119.92 121.475 120.245 121.838 120.48C122.211 120.715 122.654 120.832 123.166 120.832C123.678 120.832 124.115 120.715 124.478 120.48C124.84 120.245 125.118 119.92 125.31 119.504C125.512 119.088 125.614 118.608 125.614 118.064C125.614 117.531 125.512 117.061 125.31 116.656C125.118 116.24 124.84 115.915 124.478 115.68C124.115 115.435 123.678 115.312 123.166 115.312C122.654 115.312 122.211 115.429 121.838 115.664C121.475 115.899 121.192 116.224 120.99 116.64C120.798 117.045 120.702 117.52 120.702 118.064ZM128.776 122V114.176H130.28V122H128.776ZM129.512 112.32C129.245 112.32 129.01 112.224 128.808 112.032C128.616 111.829 128.52 111.595 128.52 111.328C128.52 111.051 128.616 110.816 128.808 110.624C129.01 110.432 129.245 110.336 129.512 110.336C129.789 110.336 130.024 110.432 130.216 110.624C130.408 110.816 130.504 111.051 130.504 111.328C130.504 111.595 130.408 111.829 130.216 112.032C130.024 112.224 129.789 112.32 129.512 112.32ZM133.999 122H132.495V110.224H133.999V122ZM136.213 122V114.176H137.717V122H136.213ZM136.949 112.32C136.682 112.32 136.448 112.224 136.245 112.032C136.053 111.829 135.957 111.595 135.957 111.328C135.957 111.051 136.053 110.816 136.245 110.624C136.448 110.432 136.682 110.336 136.949 110.336C137.226 110.336 137.461 110.432 137.653 110.624C137.845 110.816 137.941 111.051 137.941 111.328C137.941 111.595 137.845 111.829 137.653 112.032C137.461 112.224 137.226 112.32 136.949 112.32ZM139.069 114.176H143.645V115.44H139.069V114.176ZM142.109 122H140.605V111.728H142.109V122ZM145.618 114.176L148.37 121.792L147.442 123.072L144.034 114.176H145.618ZM144.242 125.504V124.272H145.25C145.496 124.272 145.72 124.245 145.922 124.192C146.125 124.149 146.312 124.048 146.482 123.888C146.653 123.739 146.797 123.499 146.914 123.168L150.21 114.176H151.762L148.066 123.76C147.8 124.432 147.464 124.917 147.058 125.216C146.653 125.515 146.152 125.664 145.554 125.664C145.309 125.664 145.08 125.648 144.866 125.616C144.653 125.595 144.445 125.557 144.242 125.504Z" fill="#064446"/>
<path d="M74.2555 96.8953L66.1047 88.7446C65.5797 88.2196 64.7313 88.2196 64.2063 88.7446L60.7805 92.1756C61.061 92.1109 61.3533 92.1189 61.6298 92.1987C61.9063 92.2785 62.1579 92.4275 62.3608 92.6317C63.1032 93.3741 63.0184 94.6203 62.1116 95.2514C61.5494 95.6385 60.7752 95.6438 60.2131 95.262C59.9248 95.0708 59.7014 94.7965 59.5726 94.4754C59.4438 94.1544 59.4156 93.8017 59.4919 93.4643L56.0661 96.89C55.5411 97.415 55.5411 98.2635 56.0661 98.7885L59.4919 102.22C59.3699 101.673 59.5184 101.069 59.9479 100.639C60.1263 100.461 60.3421 100.324 60.5797 100.239C60.8173 100.154 61.0708 100.123 61.3219 100.148C61.573 100.173 61.8155 100.253 62.0318 100.383C62.2481 100.513 62.433 100.689 62.5729 100.899C62.9547 101.461 62.9547 102.235 62.5729 102.798C62.3817 103.083 62.1086 103.303 61.7896 103.43C61.4706 103.557 61.1206 103.584 60.7858 103.508L64.2116 106.934C64.7366 107.459 65.585 107.459 66.11 106.934L69.5358 103.508C69.382 104.16 69.626 104.876 70.257 105.306C70.8191 105.688 71.5934 105.682 72.1555 105.295C72.3637 105.154 72.5381 104.969 72.6663 104.753C72.7945 104.536 72.8733 104.294 72.8971 104.044C72.9209 103.794 72.8892 103.541 72.804 103.305C72.7189 103.068 72.5826 102.853 72.4047 102.676C72.2019 102.471 71.9503 102.322 71.6737 102.243C71.3972 102.163 71.1049 102.155 70.8244 102.22L74.2502 98.7938C74.7805 98.2688 74.7805 97.4203 74.2555 96.8953ZM57.5085 106.78C58.1502 106.929 58.8714 106.69 59.2956 106.07C59.6775 105.507 59.6775 104.733 59.2956 104.171C59.1561 103.961 58.9714 103.784 58.7551 103.654C58.5387 103.523 58.2961 103.443 58.0448 103.418C57.7935 103.393 57.5399 103.425 57.3022 103.51C57.0645 103.595 56.8488 103.732 56.6706 103.911C56.2411 104.341 56.0926 104.945 56.2146 105.492L52.7888 102.066C52.2638 101.541 51.4153 101.541 50.8903 102.066L47.4646 105.492C47.5293 105.211 47.5214 104.919 47.4416 104.642C47.3617 104.366 47.2127 104.114 47.0085 103.911C46.8308 103.733 46.6159 103.597 46.3793 103.512C46.1428 103.427 45.8903 103.395 45.64 103.419C45.3897 103.443 45.1477 103.522 44.9314 103.65C44.7152 103.778 44.5299 103.952 44.3888 104.16C44.0017 104.723 43.9964 105.497 44.3782 106.059C44.8025 106.685 45.5237 106.929 46.176 106.78L42.7502 110.211C42.2252 110.736 42.2252 111.585 42.7502 112.11L50.901 120.26C51.426 120.785 52.2744 120.785 52.7994 120.26L56.2252 116.835C56.0714 117.487 56.3153 118.203 56.9464 118.632C57.5085 119.014 58.2828 119.009 58.8449 118.622C59.053 118.481 59.2275 118.296 59.3557 118.079C59.4839 117.863 59.5627 117.621 59.5865 117.371C59.6103 117.12 59.5785 116.868 59.4934 116.631C59.4083 116.395 59.272 116.18 59.0941 116.002C58.8913 115.798 58.6397 115.649 58.3631 115.569C58.0866 115.489 57.7943 115.481 57.5138 115.546L60.9396 112.12C61.4646 111.595 61.4646 110.747 60.9396 110.222L57.5085 106.78ZM66.7199 111.972C66.6708 111.923 66.6125 111.884 66.5484 111.857C66.4842 111.831 66.4155 111.817 66.346 111.817C66.2766 111.817 66.2078 111.831 66.1437 111.857C66.0795 111.884 66.0213 111.923 65.9722 111.972C65.9231 112.021 65.8841 112.079 65.8576 112.143C65.831 112.208 65.8173 112.276 65.8173 112.346C65.8173 112.415 65.831 112.484 65.8576 112.548C65.8841 112.612 65.9231 112.67 65.9722 112.72L67.6108 114.358C67.7169 114.464 67.8494 114.512 67.9873 114.512C68.1252 114.512 68.2578 114.459 68.3638 114.358C68.413 114.309 68.452 114.251 68.4786 114.187C68.5052 114.123 68.5189 114.054 68.5189 113.984C68.5189 113.915 68.5052 113.846 68.4786 113.782C68.452 113.718 68.413 113.66 68.3638 113.61L66.7199 111.972ZM70.3737 110.964L67.929 110.529C67.6426 110.476 67.3669 110.673 67.3138 110.959C67.2608 111.245 67.457 111.521 67.7434 111.574L70.1881 112.009C70.2199 112.014 70.2517 112.02 70.2835 112.02C70.5381 112.02 70.7608 111.839 70.8032 111.579C70.851 111.293 70.66 111.017 70.3737 110.964ZM64.9593 113.314C64.6729 113.367 64.4767 113.642 64.5297 113.929L64.9646 116.373C65.0123 116.628 65.235 116.814 65.4843 116.814C65.5161 116.814 65.5479 116.814 65.5797 116.803C65.8661 116.75 66.0623 116.474 66.0093 116.188L65.5744 113.743C65.5267 113.457 65.251 113.266 64.9593 113.314ZM50.2805 97.0279C50.3866 97.134 50.5191 97.1817 50.657 97.1817C50.7949 97.1817 50.9275 97.1287 51.0335 97.0279C51.0827 96.9789 51.1217 96.9206 51.1483 96.8564C51.1749 96.7923 51.1886 96.7235 51.1886 96.654C51.1886 96.5846 51.1749 96.5158 51.1483 96.4517C51.1217 96.3875 51.0827 96.3292 51.0335 96.2802L49.3949 94.6415C49.3458 94.5925 49.2875 94.5535 49.2234 94.5269C49.1592 94.5004 49.0905 94.4867 49.021 94.4867C48.9516 94.4867 48.8828 94.5004 48.8187 94.5269C48.7545 94.5535 48.6963 94.5925 48.6472 94.6415C48.5981 94.6906 48.5591 94.7489 48.5326 94.8131C48.506 94.8772 48.4923 94.946 48.4923 95.0154C48.4923 95.0848 48.506 95.1536 48.5326 95.2177C48.5591 95.2819 48.5981 95.3402 48.6472 95.3893L50.2805 97.0279ZM51.9456 95.6915C51.9775 95.6915 52.0093 95.6915 52.0411 95.6809C52.3275 95.6279 52.5237 95.3522 52.4706 95.0658L52.0358 92.6211C51.9828 92.3347 51.707 92.1385 51.4206 92.1915C51.1343 92.2446 50.9381 92.5203 50.9911 92.8067L51.426 95.2514C51.4684 95.5112 51.6911 95.6915 51.9456 95.6915ZM46.6267 98.0355L49.0714 98.4703C49.1032 98.4756 49.135 98.4809 49.1669 98.4809C49.4214 98.4809 49.6441 98.3006 49.6866 98.0408C49.7396 97.7544 49.5434 97.4787 49.257 97.4256L46.8123 96.9908C46.526 96.9378 46.2502 97.134 46.1972 97.4203C46.1494 97.7067 46.3403 97.9825 46.6267 98.0355Z" fill="#F5AD42"/>
</g>
<g filter="url(#filter2_d_506_13)">
<rect x="287" y="251" width="178" height="65" rx="10" fill="white"/>
<path d="M344.912 267.432V279H343.344V267.432H344.912ZM347.888 273.896H344.48V272.536H347.76C348.411 272.536 348.912 272.371 349.264 272.04C349.616 271.709 349.792 271.24 349.792 270.632C349.792 270.056 349.605 269.613 349.232 269.304C348.869 268.984 348.347 268.824 347.664 268.824H344.208V267.432H347.76C348.891 267.432 349.776 267.704 350.416 268.248C351.067 268.792 351.392 269.539 351.392 270.488C351.392 271.203 351.216 271.8 350.864 272.28C350.523 272.749 350.016 273.091 349.344 273.304V273.096C350.091 273.277 350.651 273.608 351.024 274.088C351.408 274.557 351.6 275.165 351.6 275.912C351.6 276.552 351.451 277.107 351.152 277.576C350.864 278.035 350.443 278.387 349.888 278.632C349.333 278.877 348.677 279 347.92 279H344.208V277.608H347.888C348.56 277.608 349.077 277.443 349.44 277.112C349.803 276.781 349.984 276.317 349.984 275.72C349.984 275.144 349.797 274.696 349.424 274.376C349.061 274.056 348.549 273.896 347.888 273.896ZM356.683 279.192C355.925 279.192 355.253 279.021 354.667 278.68C354.08 278.328 353.621 277.848 353.291 277.24C352.96 276.621 352.795 275.907 352.795 275.096C352.795 274.275 352.955 273.555 353.275 272.936C353.605 272.317 354.053 271.832 354.619 271.48C355.195 271.128 355.861 270.952 356.619 270.952C357.365 270.952 358.011 271.112 358.555 271.432C359.109 271.752 359.536 272.2 359.835 272.776C360.144 273.352 360.299 274.029 360.299 274.808V275.368L353.595 275.384L353.627 274.376H358.795C358.795 273.725 358.597 273.203 358.203 272.808C357.808 272.413 357.28 272.216 356.619 272.216C356.117 272.216 355.685 272.328 355.323 272.552C354.971 272.765 354.699 273.085 354.507 273.512C354.325 273.928 354.235 274.429 354.235 275.016C354.235 275.955 354.448 276.68 354.875 277.192C355.301 277.693 355.915 277.944 356.715 277.944C357.301 277.944 357.781 277.827 358.155 277.592C358.528 277.357 358.779 277.016 358.907 276.568H360.315C360.123 277.4 359.712 278.045 359.083 278.504C358.453 278.963 357.653 279.192 356.683 279.192ZM361.069 271.176H365.645V272.44H361.069V271.176ZM364.109 279H362.605V268.728H364.109V279ZM366.303 271.176H370.879V272.44H366.303V271.176ZM369.343 279H367.839V268.728H369.343V279ZM375.527 279.192C374.769 279.192 374.097 279.021 373.511 278.68C372.924 278.328 372.465 277.848 372.135 277.24C371.804 276.621 371.639 275.907 371.639 275.096C371.639 274.275 371.799 273.555 372.118 272.936C372.449 272.317 372.897 271.832 373.463 271.48C374.039 271.128 374.705 270.952 375.463 270.952C376.209 270.952 376.855 271.112 377.399 271.432C377.953 271.752 378.38 272.2 378.679 272.776C378.988 273.352 379.142 274.029 379.142 274.808V275.368L372.439 275.384L372.471 274.376H377.639C377.639 273.725 377.441 273.203 377.047 272.808C376.652 272.413 376.124 272.216 375.463 272.216C374.961 272.216 374.529 272.328 374.167 272.552C373.815 272.765 373.543 273.085 373.351 273.512C373.169 273.928 373.079 274.429 373.079 275.016C373.079 275.955 373.292 276.68 373.719 277.192C374.145 277.693 374.759 277.944 375.559 277.944C376.145 277.944 376.625 277.827 376.999 277.592C377.372 277.357 377.623 277.016 377.751 276.568H379.159C378.967 277.4 378.556 278.045 377.927 278.504C377.297 278.963 376.497 279.192 375.527 279.192ZM385.302 271.112V272.488H384.63C383.916 272.488 383.35 272.696 382.934 273.112C382.529 273.517 382.326 274.099 382.326 274.856V279H380.822V271.192H382.23L382.358 272.76H382.214C382.321 272.248 382.577 271.832 382.982 271.512C383.388 271.181 383.894 271.016 384.502 271.016C384.641 271.016 384.769 271.027 384.886 271.048C385.014 271.059 385.153 271.08 385.302 271.112ZM344.912 300H343.344V288.432H347.712C348.949 288.432 349.915 288.741 350.608 289.36C351.312 289.968 351.664 290.816 351.664 291.904C351.664 292.704 351.467 293.381 351.072 293.936C350.688 294.491 350.139 294.885 349.424 295.12L351.776 300H350.032L347.872 295.424H344.912V300ZM344.912 289.84V294.032H347.728C348.453 294.032 349.013 293.845 349.408 293.472C349.813 293.099 350.016 292.581 350.016 291.92C350.016 291.248 349.808 290.736 349.392 290.384C348.987 290.021 348.427 289.84 347.712 289.84H344.912ZM356.37 300.192C355.613 300.192 354.941 300.021 354.354 299.68C353.768 299.328 353.309 298.848 352.978 298.24C352.648 297.621 352.482 296.907 352.482 296.096C352.482 295.275 352.642 294.555 352.962 293.936C353.293 293.317 353.741 292.832 354.306 292.48C354.882 292.128 355.549 291.952 356.306 291.952C357.053 291.952 357.698 292.112 358.242 292.432C358.797 292.752 359.224 293.2 359.522 293.776C359.832 294.352 359.986 295.029 359.986 295.808V296.368L353.282 296.384L353.314 295.376H358.482C358.482 294.725 358.285 294.203 357.89 293.808C357.496 293.413 356.968 293.216 356.306 293.216C355.805 293.216 355.373 293.328 355.01 293.552C354.658 293.765 354.386 294.085 354.194 294.512C354.013 294.928 353.922 295.429 353.922 296.016C353.922 296.955 354.136 297.68 354.562 298.192C354.989 298.693 355.602 298.944 356.402 298.944C356.989 298.944 357.469 298.827 357.842 298.592C358.216 298.357 358.466 298.016 358.594 297.568H360.002C359.81 298.4 359.4 299.045 358.77 299.504C358.141 299.963 357.341 300.192 356.37 300.192ZM361.666 303.504V292.176H363.026L363.138 293.584C363.394 293.04 363.773 292.635 364.274 292.368C364.786 292.091 365.351 291.952 365.97 291.952C366.717 291.952 367.362 292.128 367.906 292.48C368.45 292.821 368.866 293.301 369.154 293.92C369.453 294.528 369.602 295.232 369.602 296.032C369.602 296.832 369.458 297.547 369.17 298.176C368.893 298.805 368.482 299.301 367.938 299.664C367.405 300.027 366.749 300.208 365.97 300.208C365.341 300.208 364.781 300.08 364.29 299.824C363.799 299.568 363.426 299.2 363.17 298.72V303.504H361.666ZM363.186 296.096C363.186 296.619 363.282 297.093 363.474 297.52C363.677 297.936 363.959 298.261 364.322 298.496C364.695 298.731 365.138 298.848 365.65 298.848C366.162 298.848 366.599 298.731 366.962 298.496C367.325 298.251 367.602 297.92 367.794 297.504C367.997 297.088 368.098 296.619 368.098 296.096C368.098 295.552 367.997 295.072 367.794 294.656C367.602 294.24 367.325 293.915 366.962 293.68C366.599 293.445 366.162 293.328 365.65 293.328C365.138 293.328 364.695 293.445 364.322 293.68C363.959 293.915 363.677 294.24 363.474 294.656C363.282 295.072 363.186 295.552 363.186 296.096ZM370.748 296.08C370.748 295.28 370.924 294.571 371.276 293.952C371.628 293.333 372.108 292.848 372.716 292.496C373.335 292.144 374.039 291.968 374.828 291.968C375.617 291.968 376.316 292.144 376.924 292.496C377.532 292.848 378.012 293.333 378.364 293.952C378.716 294.571 378.892 295.28 378.892 296.08C378.892 296.88 378.716 297.589 378.364 298.208C378.012 298.827 377.532 299.312 376.924 299.664C376.316 300.016 375.617 300.192 374.828 300.192C374.039 300.192 373.335 300.016 372.716 299.664C372.108 299.312 371.628 298.827 371.276 298.208C370.924 297.589 370.748 296.88 370.748 296.08ZM372.268 296.08C372.268 296.624 372.375 297.104 372.588 297.52C372.812 297.936 373.116 298.261 373.5 298.496C373.884 298.731 374.327 298.848 374.828 298.848C375.329 298.848 375.772 298.731 376.156 298.496C376.54 298.261 376.839 297.936 377.052 297.52C377.276 297.104 377.388 296.624 377.388 296.08C377.388 295.525 377.276 295.045 377.052 294.64C376.839 294.224 376.54 293.899 376.156 293.664C375.772 293.429 375.329 293.312 374.828 293.312C374.327 293.312 373.884 293.429 373.5 293.664C373.116 293.899 372.812 294.224 372.588 294.64C372.375 295.045 372.268 295.525 372.268 296.08ZM385.037 292.112V293.488H384.365C383.65 293.488 383.085 293.696 382.669 294.112C382.263 294.517 382.061 295.099 382.061 295.856V300H380.557V292.192H381.965L382.093 293.76H381.949C382.055 293.248 382.311 292.832 382.717 292.512C383.122 292.181 383.629 292.016 384.237 292.016C384.375 292.016 384.503 292.027 384.621 292.048C384.749 292.059 384.887 292.08 385.037 292.112ZM385.928 292.176H390.504V293.44H385.928V292.176ZM388.968 300H387.464V289.728H388.968V300ZM391.854 300V292.176H393.358V300H391.854ZM392.59 290.32C392.323 290.32 392.088 290.224 391.886 290.032C391.694 289.829 391.598 289.595 391.598 289.328C391.598 289.051 391.694 288.816 391.886 288.624C392.088 288.432 392.323 288.336 392.59 288.336C392.867 288.336 393.102 288.432 393.294 288.624C393.486 288.816 393.582 289.051 393.582 289.328C393.582 289.595 393.486 289.829 393.294 290.032C393.102 290.224 392.867 290.32 392.59 290.32ZM397.045 300H395.541V292.176H396.901L397.061 293.376C397.306 292.928 397.658 292.581 398.117 292.336C398.586 292.08 399.098 291.952 399.653 291.952C400.677 291.952 401.434 292.245 401.925 292.832C402.416 293.419 402.661 294.213 402.661 295.216V300H401.157V295.552C401.157 294.763 400.986 294.197 400.645 293.856C400.304 293.504 399.845 293.328 399.269 293.328C398.565 293.328 398.016 293.557 397.621 294.016C397.237 294.475 397.045 295.088 397.045 295.856V300ZM404.248 295.888C404.248 295.152 404.398 294.491 404.696 293.904C404.995 293.307 405.422 292.832 405.976 292.48C406.531 292.128 407.187 291.952 407.944 291.952C408.648 291.952 409.251 292.123 409.752 292.464C410.254 292.795 410.611 293.259 410.824 293.856L410.632 294.064L410.792 292.176H412.136V299.68C412.136 300.501 411.976 301.211 411.656 301.808C411.336 302.416 410.883 302.885 410.296 303.216C409.71 303.547 409.016 303.712 408.216 303.712C407.15 303.712 406.275 303.429 405.592 302.864C404.91 302.299 404.494 301.52 404.344 300.528H405.848C405.944 301.104 406.2 301.552 406.616 301.872C407.032 302.192 407.566 302.352 408.216 302.352C408.952 302.352 409.539 302.128 409.976 301.68C410.424 301.243 410.648 300.651 410.648 299.904V297.696L410.84 297.904C410.638 298.491 410.27 298.955 409.736 299.296C409.203 299.627 408.584 299.792 407.88 299.792C407.134 299.792 406.488 299.621 405.944 299.28C405.4 298.928 404.979 298.459 404.68 297.872C404.392 297.285 404.248 296.624 404.248 295.888ZM405.752 295.856C405.752 296.347 405.848 296.789 406.04 297.184C406.243 297.579 406.52 297.893 406.872 298.128C407.235 298.363 407.656 298.48 408.136 298.48C408.648 298.48 409.086 298.368 409.448 298.144C409.811 297.92 410.088 297.611 410.28 297.216C410.483 296.821 410.584 296.368 410.584 295.856C410.584 295.344 410.488 294.896 410.296 294.512C410.104 294.128 409.827 293.824 409.464 293.6C409.102 293.376 408.664 293.264 408.152 293.264C407.651 293.264 407.219 293.381 406.856 293.616C406.504 293.851 406.232 294.165 406.04 294.56C405.848 294.944 405.752 295.376 405.752 295.856Z" fill="#064446"/>
<g clip-path="url(#clip1_506_13)">
<path fill-rule="evenodd" clip-rule="evenodd" d="M313.594 274.438V283.5C313.594 283.74 313.689 283.971 313.859 284.141C314.029 284.311 314.26 284.406 314.5 284.406H323.562C323.803 284.406 324.033 284.502 324.203 284.672C324.373 284.842 324.469 285.072 324.469 285.312C324.469 291.819 319.194 297.094 312.688 297.094C306.185 297.094 300.906 291.815 300.906 285.312C300.906 278.806 306.181 273.531 312.688 273.531C312.928 273.531 313.158 273.627 313.328 273.797C313.498 273.967 313.594 274.197 313.594 274.438ZM327.188 282.594H318.125C317.404 282.594 316.712 282.307 316.203 281.797C315.693 281.288 315.406 280.596 315.406 279.875V270.812C315.406 270.572 315.502 270.342 315.672 270.172C315.842 270.002 316.072 269.906 316.312 269.906C322.815 269.906 328.094 275.185 328.094 281.688C328.094 281.928 327.998 282.158 327.828 282.328C327.658 282.498 327.428 282.594 327.188 282.594Z" fill="#FDA2C5"/>
</g>
</g>
<path d="M319.333 60C319.333 61.4728 320.527 62.6667 322 62.6667C323.473 62.6667 324.667 61.4728 324.667 60C324.667 58.5272 323.473 57.3333 322 57.3333C320.527 57.3333 319.333 58.5272 319.333 60ZM376.333 247C376.333 248.473 377.527 249.667 379 249.667C380.473 249.667 381.667 248.473 381.667 247C381.667 245.527 380.473 244.333 379 244.333C377.527 244.333 376.333 245.527 376.333 247ZM118.833 139C118.833 140.473 120.027 141.667 121.5 141.667C122.973 141.667 124.167 140.473 124.167 139C124.167 137.527 122.973 136.333 121.5 136.333C120.027 136.333 118.833 137.527 118.833 139ZM278 114V80H277V114H278ZM297.5 60.5H322V59.5H297.5V60.5ZM335.5 182.5H359V181.5H335.5V182.5ZM378.5 202V247H379.5V202H378.5ZM207 181.5H141.5V182.5H207V181.5ZM122 162V139H121V162H122ZM141.5 181.5C130.73 181.5 122 172.77 122 162H121C121 173.322 130.178 182.5 141.5 182.5V181.5ZM359 182.5C369.77 182.5 378.5 191.23 378.5 202H379.5C379.5 190.678 370.322 181.5 359 181.5V182.5ZM278 80C278 69.2304 286.73 60.5 297.5 60.5V59.5C286.178 59.5 277 68.6782 277 80H278Z" fill="#11AFB4"/>
<defs>
<filter id="filter0_d_506_13" x="293.9" y="0.9" width="236.2" height="123.2" filterUnits="userSpaceOnUse" color-interpolation-filters="sRGB">
<feFlood flood-opacity="0" result="BackgroundImageFix"/>
<feColorMatrix in="SourceAlpha" type="matrix" values="0 0 0 0 0 0 0 0 0 0 0 0 0 0 0 0 0 0 127 0" result="hardAlpha"/>
<feOffset dy="4"/>
<feGaussianBlur stdDeviation="14.55"/>
<feComposite in2="hardAlpha" operator="out"/>
<feColorMatrix type="matrix" values="0 0 0 0 0 0 0 0 0 0 0 0 0 0 0 0 0 0 0.04 0"/>
<feBlend mode="normal" in2="BackgroundImageFix" result="effect1_dropShadow_506_13"/>
<feBlend mode="normal" in="SourceGraphic" in2="effect1_dropShadow_506_13" result="shape"/>
</filter>
<filter id="filter1_d_506_13" x="0.9" y="47.9" width="236.2" height="123.2" filterUnits="userSpaceOnUse" color-interpolation-filters="sRGB">
<feFlood flood-opacity="0" result="BackgroundImageFix"/>
<feColorMatrix in="SourceAlpha" type="matrix" values="0 0 0 0 0 0 0 0 0 0 0 0 0 0 0 0 0 0 127 0" result="hardAlpha"/>
<feOffset dy="4"/>
<feGaussianBlur stdDeviation="14.55"/>
<feComposite in2="hardAlpha" operator="out"/>
<feColorMatrix type="matrix" values="0 0 0 0 0 0 0 0 0 0 0 0 0 0 0 0 0 0 0.04 0"/>
<feBlend mode="normal" in2="BackgroundImageFix" result="effect1_dropShadow_506_13"/>
<feBlend mode="normal" in="SourceGraphic" in2="effect1_dropShadow_506_13" result="shape"/>
</filter>
<filter id="filter2_d_506_13" x="257.9" y="225.9" width="236.2" height="123.2" filterUnits="userSpaceOnUse" color-interpolation-filters="sRGB">
<feFlood flood-opacity="0" result="BackgroundImageFix"/>
<feColorMatrix in="SourceAlpha" type="matrix" values="0 0 0 0 0 0 0 0 0 0 0 0 0 0 0 0 0 0 127 0" result="hardAlpha"/>
<feOffset dy="4"/>
<feGaussianBlur stdDeviation="14.55"/>
<feComposite in2="hardAlpha" operator="out"/>
<feColorMatrix type="matrix" values="0 0 0 0 0 0 0 0 0 0 0 0 0 0 0 0 0 0 0.04 0"/>
<feBlend mode="normal" in2="BackgroundImageFix" result="effect1_dropShadow_506_13"/>
<feBlend mode="normal" in="SourceGraphic" in2="effect1_dropShadow_506_13" result="shape"/>
</filter>
<clipPath id="clip0_506_13">
<rect width="31" height="31" fill="white" transform="translate(334 43)"/>
</clipPath>
<clipPath id="clip1_506_13">
<rect width="29" height="29" fill="white" transform="translate(300 269)"/>
</clipPath>
</defs>
</svg>
