<svg width="494" height="292" viewBox="0 0 494 292" fill="none" xmlns="http://www.w3.org/2000/svg">
<circle cx="249.263" cy="146" r="146" fill="#F9F9D4"/>
<rect x="103.263" width="292" height="292" rx="146" fill="#F9F9D4"/>
<g filter="url(#filter0_d_246_1795)">
<g clip-path="url(#clip0_246_1795)">
<rect x="191.982" y="65.0405" width="140.16" height="198.518" rx="7.13542" fill="white"/>
<rect width="140.16" height="31.5997" transform="translate(191.982 65.0405)" fill="#DAFEF1"/>
<path d="M205.662 76.2779H207.497V84.8404H205.662V76.2779ZM208.78 76.2779H210.614L213.758 81.1585V76.2779H215.593V84.8404H214.052L210.614 79.4949V84.8404H208.78V76.2779ZM220.41 84.9994C219.423 84.9994 218.616 84.8078 217.988 84.4245C217.368 84.0412 216.928 83.5356 216.667 82.9077L218.441 82.0025C218.62 82.4021 218.869 82.7038 219.187 82.9077C219.513 83.1034 219.937 83.2013 220.459 83.2013C220.679 83.2013 220.879 83.1768 221.058 83.1279C221.238 83.0708 221.388 83.0015 221.511 82.9199C221.641 82.8302 221.739 82.7365 221.804 82.6386C221.878 82.5326 221.914 82.4307 221.914 82.3328C221.914 82.1942 221.878 82.0759 221.804 81.9781C221.731 81.8802 221.613 81.7946 221.45 81.7212C221.295 81.6396 221.091 81.5663 220.838 81.501C220.585 81.4276 220.279 81.342 219.921 81.2441C219.554 81.1463 219.199 81.0321 218.856 80.9016C218.514 80.7712 218.208 80.604 217.939 80.4001C217.678 80.1963 217.466 79.9516 217.303 79.6662C217.148 79.3808 217.071 79.0383 217.071 78.6387C217.071 78.2391 217.156 77.8844 217.327 77.5745C217.499 77.2646 217.727 77.0037 218.012 76.7916C218.306 76.5715 218.64 76.4043 219.015 76.2901C219.391 76.176 219.782 76.1189 220.19 76.1189C220.981 76.1189 221.662 76.286 222.232 76.6204C222.811 76.9466 223.264 77.4114 223.59 78.0149L221.78 78.92C221.6 78.5775 221.38 78.3288 221.119 78.1739C220.867 78.0108 220.557 77.9292 220.19 77.9292C219.831 77.9292 219.537 78.0067 219.309 78.1616C219.089 78.3084 218.979 78.4797 218.979 78.6754C218.979 78.814 219.007 78.9282 219.064 79.0179C219.13 79.0994 219.232 79.1769 219.37 79.2503C219.517 79.3155 219.705 79.3808 219.933 79.446C220.161 79.5113 220.443 79.5887 220.777 79.6784C221.152 79.7844 221.523 79.9068 221.89 80.0454C222.257 80.1759 222.587 80.343 222.881 80.5469C223.174 80.7508 223.411 80.9995 223.59 81.2931C223.77 81.5866 223.859 81.9495 223.859 82.3817C223.859 82.7813 223.77 83.1442 223.59 83.4704C223.419 83.7884 223.178 84.0616 222.869 84.2899C222.559 84.5183 222.192 84.6936 221.768 84.8159C221.352 84.9383 220.899 84.9994 220.41 84.9994ZM224.868 76.2779H226.703V81.9536C226.703 82.1493 226.744 82.3246 226.825 82.4796C226.907 82.6264 227.017 82.7528 227.156 82.8588C227.294 82.9566 227.453 83.0341 227.633 83.0912C227.812 83.1401 228 83.1646 228.195 83.1646C228.636 83.1646 228.999 83.0627 229.284 82.8588C229.57 82.6468 229.712 82.345 229.712 81.9536V76.2779H231.547V81.9536C231.547 82.4103 231.461 82.8262 231.29 83.2013C231.119 83.5764 230.882 83.8985 230.581 84.1676C230.279 84.4286 229.924 84.6324 229.517 84.7792C229.109 84.926 228.668 84.9994 228.195 84.9994C227.722 84.9994 227.282 84.926 226.874 84.7792C226.475 84.6324 226.124 84.4286 225.822 84.1676C225.529 83.8985 225.296 83.5764 225.125 83.2013C224.954 82.8262 224.868 82.4103 224.868 81.9536V76.2779ZM232.932 76.2779H236.479C236.871 76.2779 237.238 76.3513 237.58 76.4981C237.931 76.6449 238.233 76.8487 238.485 77.1097C238.746 77.3625 238.95 77.6642 239.097 78.0149C239.252 78.3574 239.329 78.7284 239.329 79.128C239.329 79.6499 239.203 80.1269 238.95 80.5591C238.697 80.9832 238.363 81.3216 237.947 81.5744L239.782 84.8404H237.678L236.076 81.9781H234.779V84.8404H232.932V76.2779ZM236.479 80.2289C236.789 80.2289 237.05 80.1229 237.262 79.9108C237.474 79.6907 237.58 79.4297 237.58 79.128C237.58 78.8181 237.474 78.5571 237.262 78.3451C237.05 78.1331 236.789 78.0271 236.479 78.0271H234.779V80.2289H236.479ZM243.602 76.2779H245.572L248.728 84.8404H246.771L246.171 83.2257H243.003L242.404 84.8404H240.434L243.602 76.2779ZM245.523 81.4888L244.581 78.9445L243.651 81.4888H245.523ZM249.382 76.2779H251.217L254.361 81.1585V76.2779H256.195V84.8404H254.654L251.217 79.4949V84.8404H249.382V76.2779ZM257.238 80.5836C257.238 79.972 257.352 79.4012 257.581 78.8711C257.817 78.3329 258.135 77.864 258.535 77.4644C258.934 77.0648 259.399 76.7509 259.929 76.5225C260.467 76.286 261.042 76.1678 261.654 76.1678C262.07 76.1678 262.469 76.2249 262.853 76.3391C263.244 76.4532 263.607 76.6122 263.941 76.8161C264.276 77.0118 264.577 77.2524 264.847 77.5378C265.116 77.8232 265.344 78.1372 265.532 78.4797L263.917 79.3482C263.697 78.9486 263.387 78.6265 262.987 78.3818C262.588 78.1372 262.143 78.0149 261.654 78.0149C261.303 78.0149 260.969 78.0842 260.651 78.2228C260.341 78.3533 260.068 78.5368 259.831 78.7732C259.603 79.0016 259.42 79.2707 259.281 79.5806C259.151 79.8905 259.085 80.2248 259.085 80.5836C259.085 80.9343 259.151 81.2686 259.281 81.5866C259.42 81.8965 259.603 82.1697 259.831 82.4062C260.068 82.6427 260.341 82.8302 260.651 82.9689C260.969 83.0994 261.303 83.1646 261.654 83.1646C262.143 83.1646 262.588 83.0423 262.987 82.7976C263.395 82.5448 263.709 82.2105 263.929 81.7946L265.556 82.6753C265.369 83.0178 265.136 83.3358 264.859 83.6294C264.59 83.9148 264.284 84.1595 263.941 84.3633C263.607 84.5672 263.244 84.7262 262.853 84.8404C262.469 84.9546 262.07 85.0116 261.654 85.0116C261.042 85.0116 260.467 84.8975 259.929 84.6691C259.399 84.4327 258.934 84.1146 258.535 83.715C258.135 83.3073 257.817 82.8384 257.581 82.3083C257.352 81.7701 257.238 81.1952 257.238 80.5836ZM266.439 76.2779H271.687V78.0149H268.286L268.274 79.605H271.381V81.3542H268.286V83.0912H271.748V84.8404H266.439V76.2779ZM277.999 81.9781V84.8404H276.164V76.2779H279.356C279.748 76.2779 280.119 76.3513 280.47 76.4981C280.82 76.6449 281.122 76.8487 281.375 77.1097C281.636 77.3625 281.84 77.6642 281.986 78.0149C282.141 78.3574 282.219 78.7284 282.219 79.128C282.219 79.5194 282.141 79.8905 281.986 80.2411C281.84 80.5836 281.636 80.8853 281.375 81.1463C281.122 81.3991 280.82 81.603 280.47 81.7579C280.119 81.9047 279.748 81.9781 279.356 81.9781H277.999ZM279.356 80.2289C279.666 80.2289 279.927 80.1229 280.139 79.9108C280.359 79.6907 280.47 79.4297 280.47 79.128C280.47 78.8181 280.359 78.5571 280.139 78.3451C279.927 78.1331 279.666 78.0271 279.356 78.0271H277.999V80.2289H279.356ZM287.373 85.0116C286.761 85.0116 286.186 84.8975 285.648 84.6691C285.118 84.4327 284.653 84.1146 284.253 83.715C283.854 83.3073 283.536 82.8384 283.299 82.3083C283.071 81.7701 282.957 81.1952 282.957 80.5836C282.957 79.972 283.071 79.4012 283.299 78.8711C283.536 78.3329 283.854 77.864 284.253 77.4644C284.653 77.0648 285.118 76.7509 285.648 76.5225C286.186 76.286 286.761 76.1678 287.373 76.1678C287.984 76.1678 288.555 76.286 289.085 76.5225C289.623 76.7509 290.092 77.0648 290.492 77.4644C290.891 77.864 291.205 78.3329 291.434 78.8711C291.67 79.4012 291.788 79.972 291.788 80.5836C291.788 81.1952 291.67 81.7701 291.434 82.3083C291.205 82.8384 290.891 83.3073 290.492 83.715C290.092 84.1146 289.623 84.4327 289.085 84.6691C288.555 84.8975 287.984 85.0116 287.373 85.0116ZM287.373 83.1646C287.731 83.1646 288.066 83.0994 288.376 82.9689C288.685 82.8302 288.959 82.6427 289.195 82.4062C289.432 82.1697 289.615 81.8965 289.746 81.5866C289.884 81.2686 289.954 80.9343 289.954 80.5836C289.954 80.2248 289.884 79.8905 289.746 79.5806C289.615 79.2707 289.432 79.0016 289.195 78.7732C288.959 78.5368 288.685 78.3533 288.376 78.2228C288.066 78.0842 287.731 78.0149 287.373 78.0149C287.022 78.0149 286.688 78.0842 286.37 78.2228C286.06 78.3533 285.786 78.5368 285.55 78.7732C285.322 79.0016 285.138 79.2707 285 79.5806C284.869 79.8905 284.804 80.2248 284.804 80.5836C284.804 80.9343 284.869 81.2686 285 81.5866C285.138 81.8965 285.322 82.1697 285.55 82.4062C285.786 82.6427 286.06 82.8302 286.37 82.9689C286.688 83.0994 287.022 83.1646 287.373 83.1646ZM292.947 76.2779H294.782V83.0912H298.256V84.8404H292.947V76.2779ZM299.159 76.2779H300.994V84.8404H299.159V76.2779ZM302.046 80.5836C302.046 79.972 302.16 79.4012 302.388 78.8711C302.625 78.3329 302.943 77.864 303.342 77.4644C303.742 77.0648 304.207 76.7509 304.737 76.5225C305.275 76.286 305.85 76.1678 306.461 76.1678C306.877 76.1678 307.277 76.2249 307.66 76.3391C308.052 76.4532 308.414 76.6122 308.749 76.8161C309.083 77.0118 309.385 77.2524 309.654 77.5378C309.923 77.8232 310.151 78.1372 310.339 78.4797L308.724 79.3482C308.504 78.9486 308.194 78.6265 307.795 78.3818C307.395 78.1372 306.951 78.0149 306.461 78.0149C306.111 78.0149 305.776 78.0842 305.458 78.2228C305.148 78.3533 304.875 78.5368 304.639 78.7732C304.41 79.0016 304.227 79.2707 304.088 79.5806C303.958 79.8905 303.893 80.2248 303.893 80.5836C303.893 80.9343 303.958 81.2686 304.088 81.5866C304.227 81.8965 304.41 82.1697 304.639 82.4062C304.875 82.6427 305.148 82.8302 305.458 82.9689C305.776 83.0994 306.111 83.1646 306.461 83.1646C306.951 83.1646 307.395 83.0423 307.795 82.7976C308.202 82.5448 308.516 82.2105 308.737 81.7946L310.363 82.6753C310.176 83.0178 309.943 83.3358 309.666 83.6294C309.397 83.9148 309.091 84.1595 308.749 84.3633C308.414 84.5672 308.052 84.7262 307.66 84.8404C307.277 84.9546 306.877 85.0116 306.461 85.0116C305.85 85.0116 305.275 84.8975 304.737 84.6691C304.207 84.4327 303.742 84.1146 303.342 83.715C302.943 83.3073 302.625 82.8384 302.388 82.3083C302.16 81.7701 302.046 81.1952 302.046 80.5836ZM313.492 81.868L310.422 76.2779H312.502L314.41 79.7274L316.318 76.2779H318.41L315.327 81.8557V84.8404H313.492V81.868Z" fill="#9DB9CB"/>
<rect x="202.176" y="115.498" width="11.7225" height="5.09673" rx="2.03869" fill="#8D866B" fill-opacity="0.29"/>
<rect x="216.447" y="115.498" width="7.64509" height="5.09673" rx="2.03869" fill="#8D866B" fill-opacity="0.29"/>
<rect x="226.64" y="115.498" width="28.5417" height="5.09673" rx="2.03869" fill="#8D866B" fill-opacity="0.29"/>
<rect x="257.73" y="115.498" width="6.11607" height="5.09673" rx="2.03869" fill="#8D866B" fill-opacity="0.29"/>
<rect x="266.394" y="115.498" width="27.0127" height="5.09673" rx="2.03869" fill="#8D866B" fill-opacity="0.29"/>
<rect x="295.956" y="115.498" width="11.7225" height="5.09673" rx="2.03869" fill="#8D866B" fill-opacity="0.29"/>
<rect x="310.226" y="115.498" width="11.7225" height="5.09673" rx="2.03869" fill="#8D866B" fill-opacity="0.29"/>
<rect x="202.176" y="123.653" width="22.4256" height="5.09673" rx="2.03869" fill="#8D866B" fill-opacity="0.29"/>
<rect x="227.15" y="123.653" width="20.1321" height="5.09673" rx="2.03869" fill="#8D866B" fill-opacity="0.29"/>
<rect x="249.83" y="123.653" width="15.2902" height="5.09673" rx="2.03869" fill="#8D866B" fill-opacity="0.29"/>
<rect x="267.668" y="123.653" width="13.2515" height="5.09673" rx="2.03869" fill="#8D866B" fill-opacity="0.29"/>
<rect x="283.468" y="123.653" width="15.7999" height="5.09673" rx="2.03869" fill="#8D866B" fill-opacity="0.29"/>
<rect x="301.817" y="123.653" width="20.1321" height="5.09673" rx="2.03869" fill="#8D866B" fill-opacity="0.29"/>
<rect x="202.176" y="131.808" width="24.974" height="5.09673" rx="2.03869" fill="#8D866B" fill-opacity="0.29"/>
<rect x="229.698" y="131.808" width="15.2902" height="5.09673" rx="2.03869" fill="#8D866B" fill-opacity="0.29"/>
<rect x="247.536" y="131.808" width="22.4256" height="5.09673" rx="2.03869" fill="#8D866B" fill-opacity="0.29"/>
<rect x="202.176" y="145.569" width="44.8512" height="5.09673" rx="2.54836" fill="#8D866B" fill-opacity="0.29"/>
<mask id="path-22-inside-1_246_1795" fill="white">
<rect x="202.176" y="159.33" width="14.2708" height="14.2708" rx="2.54836"/>
</mask>
<rect x="202.176" y="159.33" width="14.2708" height="14.2708" rx="2.54836" stroke="#8D866B" stroke-opacity="0.29" stroke-width="6.11607" mask="url(#path-22-inside-1_246_1795)"/>
<rect x="220.524" y="159.33" width="44.3415" height="5.09673" rx="2.54836" fill="#8D866B" fill-opacity="0.29"/>
<rect x="267.414" y="159.33" width="24.974" height="5.09673" rx="2.54836" fill="#8D866B" fill-opacity="0.29"/>
<rect x="294.936" y="159.33" width="27.0127" height="5.09673" rx="2.54836" fill="#8D866B" fill-opacity="0.29"/>
<rect x="220.524" y="168.504" width="24.4643" height="5.09673" rx="2.54836" fill="#8D866B" fill-opacity="0.29"/>
<rect x="247.536" y="168.504" width="24.4643" height="5.09673" rx="2.54836" fill="#8D866B" fill-opacity="0.29"/>
<mask id="path-28-inside-2_246_1795" fill="white">
<rect x="202.176" y="180.736" width="14.2708" height="14.2708" rx="2.54836"/>
</mask>
<rect x="202.176" y="180.736" width="14.2708" height="14.2708" rx="2.54836" stroke="#8D866B" stroke-opacity="0.29" stroke-width="6.11607" mask="url(#path-28-inside-2_246_1795)"/>
<rect x="220.524" y="180.736" width="44.3415" height="5.09673" rx="2.54836" fill="#8D866B" fill-opacity="0.29"/>
<rect x="267.414" y="180.736" width="24.974" height="5.09673" rx="2.54836" fill="#8D866B" fill-opacity="0.29"/>
<rect x="294.936" y="180.736" width="27.0127" height="5.09673" rx="2.54836" fill="#8D866B" fill-opacity="0.29"/>
<rect x="220.524" y="189.91" width="24.4643" height="5.09673" rx="2.54836" fill="#8D866B" fill-opacity="0.29"/>
<rect x="247.536" y="189.91" width="24.4643" height="5.09673" rx="2.54836" fill="#8D866B" fill-opacity="0.29"/>
<mask id="path-34-inside-3_246_1795" fill="white">
<rect x="202.176" y="202.142" width="14.2708" height="14.2708" rx="2.54836"/>
</mask>
<rect x="202.176" y="202.142" width="14.2708" height="14.2708" rx="2.54836" stroke="#8D866B" stroke-opacity="0.29" stroke-width="6.11607" mask="url(#path-34-inside-3_246_1795)"/>
<rect x="220.524" y="202.142" width="44.3415" height="5.09673" rx="2.54836" fill="#8D866B" fill-opacity="0.29"/>
<rect x="267.414" y="202.142" width="24.974" height="5.09673" rx="2.54836" fill="#8D866B" fill-opacity="0.29"/>
<rect x="294.936" y="202.142" width="27.0127" height="5.09673" rx="2.54836" fill="#8D866B" fill-opacity="0.29"/>
<rect x="220.524" y="211.317" width="24.4643" height="5.09673" rx="2.54836" fill="#8D866B" fill-opacity="0.29"/>
<rect x="247.536" y="211.317" width="24.4643" height="5.09673" rx="2.54836" fill="#8D866B" fill-opacity="0.29"/>
<path d="M202.176 243.171L205.179 236.9C206.547 234.042 210.84 235.017 210.84 238.185V238.185C210.84 238.45 210.805 238.713 210.735 238.969L207.151 252.112C207.067 252.42 206.846 252.674 206.552 252.8V252.8C205.9 253.079 205.164 252.643 205.096 251.937L204.593 246.744C204.512 245.907 204.662 245.064 205.028 244.308L206.885 240.461C207.524 239.138 209.107 238.574 210.438 239.195L211.382 239.636C211.677 239.773 211.875 240.059 211.9 240.383V240.383C211.967 241.256 213.113 241.53 213.568 240.783L214.441 239.349C215.005 238.422 216.352 238.426 216.91 239.356L216.992 239.493C217.135 239.732 217.211 240.006 217.211 240.284V241.789C217.211 242.187 217.067 242.572 216.806 242.874L216.039 243.759C215.3 244.612 213.898 244.089 213.898 242.96V242.96C213.898 242.608 214.05 242.274 214.315 242.042L216.846 239.827C217.574 239.19 218.509 238.839 219.476 238.839H220.601C221.038 238.839 221.453 239.027 221.741 239.356L221.904 239.542C222.488 240.209 223.549 240.129 224.025 239.381V239.381C224.462 238.694 225.408 238.558 226.021 239.094L227.294 240.207C228.257 241.05 229.67 241.126 230.719 240.393L238.511 234.938C238.919 234.652 239.37 234.435 239.848 234.295L241.55 233.794C242.743 233.443 244.033 233.71 244.988 234.507V234.507" stroke="#FFC846" stroke-width="1.01935" stroke-linecap="round"/>
<rect x="269.962" y="244.19" width="44.3415" height="2.54836" rx="1.27418" fill="#8D866B" fill-opacity="0.29"/>
<rect x="269.962" y="250.816" width="24.4643" height="2.54836" rx="1.27418" fill="#8D866B" fill-opacity="0.29"/>
<rect x="296.975" y="250.816" width="24.4643" height="2.54836" rx="1.27418" fill="#8D866B" fill-opacity="0.29"/>
</g>
</g>
<g filter="url(#filter1_d_246_1795)">
<g clip-path="url(#clip1_246_1795)">
<rect x="146.815" y="43.36" width="140.16" height="198.518" rx="7.13542" fill="white"/>
<rect width="140.16" height="31.5997" transform="translate(146.815 43.36)" fill="#BFE5FC" fill-opacity="0.15"/>
<path d="M160.494 54.5973H162.329V63.1599H160.494V54.5973ZM163.612 54.5973H165.447L168.59 59.478V54.5973H170.425V63.1599H168.884L165.447 57.8144V63.1599H163.612V54.5973ZM175.242 63.3189C174.255 63.3189 173.448 63.1272 172.82 62.744C172.2 62.3607 171.76 61.8551 171.499 61.2272L173.273 60.322C173.452 60.7216 173.701 61.0233 174.019 61.2272C174.345 61.4229 174.769 61.5207 175.291 61.5207C175.511 61.5207 175.711 61.4963 175.89 61.4474C176.07 61.3903 176.221 61.321 176.343 61.2394C176.474 61.1497 176.571 61.0559 176.637 60.9581C176.71 60.8521 176.747 60.7501 176.747 60.6523C176.747 60.5136 176.71 60.3954 176.637 60.2975C176.563 60.1997 176.445 60.114 176.282 60.0407C176.127 59.9591 175.923 59.8857 175.67 59.8205C175.418 59.7471 175.112 59.6615 174.753 59.5636C174.386 59.4657 174.031 59.3516 173.689 59.2211C173.346 59.0906 173.04 58.9235 172.771 58.7196C172.51 58.5157 172.298 58.2711 172.135 57.9857C171.98 57.7002 171.903 57.3577 171.903 56.9582C171.903 56.5586 171.988 56.2038 172.16 55.894C172.331 55.5841 172.559 55.3231 172.845 55.1111C173.138 54.8909 173.473 54.7237 173.848 54.6096C174.223 54.4954 174.614 54.4383 175.022 54.4383C175.813 54.4383 176.494 54.6055 177.065 54.9398C177.644 55.266 178.096 55.7309 178.423 56.3343L176.612 57.2395C176.433 56.897 176.213 56.6483 175.952 56.4933C175.699 56.3302 175.389 56.2487 175.022 56.2487C174.663 56.2487 174.37 56.3262 174.141 56.4811C173.921 56.6279 173.811 56.7991 173.811 56.9948C173.811 57.1335 173.84 57.2476 173.897 57.3373C173.962 57.4189 174.064 57.4964 174.202 57.5698C174.349 57.635 174.537 57.7002 174.765 57.7655C174.993 57.8307 175.275 57.9082 175.609 57.9979C175.984 58.1039 176.355 58.2262 176.722 58.3648C177.089 58.4953 177.419 58.6625 177.713 58.8664C178.007 59.0702 178.243 59.319 178.423 59.6125C178.602 59.9061 178.692 60.269 178.692 60.7012C178.692 61.1008 178.602 61.4637 178.423 61.7899C178.251 62.1079 178.011 62.3811 177.701 62.6094C177.391 62.8377 177.024 63.0131 176.6 63.1354C176.184 63.2577 175.731 63.3189 175.242 63.3189ZM179.701 54.5973H181.535V60.2731C181.535 60.4688 181.576 60.6441 181.658 60.799C181.739 60.9458 181.849 61.0722 181.988 61.1782C182.127 61.2761 182.286 61.3536 182.465 61.4107C182.644 61.4596 182.832 61.484 183.028 61.484C183.468 61.484 183.831 61.3821 184.116 61.1782C184.402 60.9662 184.545 60.6645 184.545 60.2731V54.5973H186.379V60.2731C186.379 60.7297 186.294 61.1456 186.122 61.5207C185.951 61.8959 185.715 62.218 185.413 62.4871C185.111 62.748 184.757 62.9519 184.349 63.0987C183.941 63.2455 183.501 63.3189 183.028 63.3189C182.555 63.3189 182.114 63.2455 181.707 63.0987C181.307 62.9519 180.956 62.748 180.655 62.4871C180.361 62.218 180.129 61.8959 179.957 61.5207C179.786 61.1456 179.701 60.7297 179.701 60.2731V54.5973ZM187.764 54.5973H191.312C191.703 54.5973 192.07 54.6707 192.413 54.8175C192.763 54.9643 193.065 55.1682 193.318 55.4291C193.579 55.6819 193.783 55.9837 193.929 56.3343C194.084 56.6768 194.162 57.0479 194.162 57.4474C194.162 57.9693 194.035 58.4464 193.783 58.8786C193.53 59.3026 193.195 59.6411 192.78 59.8939L194.614 63.1599H192.51L190.908 60.2975H189.611V63.1599H187.764V54.5973ZM191.312 58.5483C191.622 58.5483 191.883 58.4423 192.095 58.2303C192.307 58.0101 192.413 57.7492 192.413 57.4474C192.413 57.1376 192.307 56.8766 192.095 56.6646C191.883 56.4526 191.622 56.3465 191.312 56.3465H189.611V58.5483H191.312ZM198.435 54.5973H200.404L203.56 63.1599H201.603L201.003 61.5452H197.835L197.236 63.1599H195.267L198.435 54.5973ZM200.355 59.8082L199.413 57.264L198.484 59.8082H200.355ZM204.214 54.5973H206.049L209.193 59.478V54.5973H211.028V63.1599H209.486L206.049 57.8144V63.1599H204.214V54.5973ZM212.07 58.9031C212.07 58.2915 212.185 57.7206 212.413 57.1906C212.649 56.6523 212.968 56.1835 213.367 55.7839C213.767 55.3843 214.231 55.0703 214.762 54.842C215.3 54.6055 215.875 54.4873 216.486 54.4873C216.902 54.4873 217.302 54.5443 217.685 54.6585C218.076 54.7727 218.439 54.9317 218.774 55.1356C219.108 55.3313 219.41 55.5718 219.679 55.8573C219.948 56.1427 220.176 56.4566 220.364 56.7991L218.749 57.6676C218.529 57.268 218.219 56.9459 217.82 56.7013C217.42 56.4566 216.976 56.3343 216.486 56.3343C216.136 56.3343 215.801 56.4036 215.483 56.5423C215.173 56.6727 214.9 56.8562 214.664 57.0927C214.435 57.321 214.252 57.5901 214.113 57.9C213.983 58.2099 213.918 58.5443 213.918 58.9031C213.918 59.2537 213.983 59.5881 214.113 59.9061C214.252 60.216 214.435 60.4892 214.664 60.7257C214.9 60.9621 215.173 61.1497 215.483 61.2883C215.801 61.4188 216.136 61.484 216.486 61.484C216.976 61.484 217.42 61.3617 217.82 61.1171C218.227 60.8643 218.541 60.5299 218.761 60.114L220.388 60.9948C220.201 61.3373 219.968 61.6553 219.691 61.9489C219.422 62.2343 219.116 62.4789 218.774 62.6828C218.439 62.8867 218.076 63.0457 217.685 63.1599C217.302 63.274 216.902 63.3311 216.486 63.3311C215.875 63.3311 215.3 63.2169 214.762 62.9886C214.231 62.7521 213.767 62.4341 213.367 62.0345C212.968 61.6268 212.649 61.1579 212.413 60.6278C212.185 60.0896 212.07 59.5147 212.07 58.9031ZM221.271 54.5973H226.519V56.3343H223.118L223.106 57.9245H226.213V59.6737H223.118V61.4107H226.58V63.1599H221.271V54.5973ZM232.831 60.2975V63.1599H230.996V54.5973H234.189C234.58 54.5973 234.951 54.6707 235.302 54.8175C235.652 54.9643 235.954 55.1682 236.207 55.4291C236.468 55.6819 236.672 55.9837 236.819 56.3343C236.974 56.6768 237.051 57.0479 237.051 57.4474C237.051 57.8389 236.974 58.2099 236.819 58.5606C236.672 58.9031 236.468 59.2048 236.207 59.4657C235.954 59.7185 235.652 59.9224 235.302 60.0774C234.951 60.2241 234.58 60.2975 234.189 60.2975H232.831ZM234.189 58.5483C234.499 58.5483 234.76 58.4423 234.972 58.2303C235.192 58.0101 235.302 57.7492 235.302 57.4474C235.302 57.1376 235.192 56.8766 234.972 56.6646C234.76 56.4526 234.499 56.3465 234.189 56.3465H232.831V58.5483H234.189ZM242.205 63.3311C241.593 63.3311 241.018 63.2169 240.48 62.9886C239.95 62.7521 239.485 62.4341 239.086 62.0345C238.686 61.6268 238.368 61.1579 238.132 60.6278C237.903 60.0896 237.789 59.5147 237.789 58.9031C237.789 58.2915 237.903 57.7206 238.132 57.1906C238.368 56.6523 238.686 56.1835 239.086 55.7839C239.485 55.3843 239.95 55.0703 240.48 54.842C241.018 54.6055 241.593 54.4873 242.205 54.4873C242.816 54.4873 243.387 54.6055 243.917 54.842C244.456 55.0703 244.924 55.3843 245.324 55.7839C245.724 56.1835 246.038 56.6523 246.266 57.1906C246.502 57.7206 246.621 58.2915 246.621 58.9031C246.621 59.5147 246.502 60.0896 246.266 60.6278C246.038 61.1579 245.724 61.6268 245.324 62.0345C244.924 62.4341 244.456 62.7521 243.917 62.9886C243.387 63.2169 242.816 63.3311 242.205 63.3311ZM242.205 61.484C242.564 61.484 242.898 61.4188 243.208 61.2883C243.518 61.1497 243.791 60.9621 244.027 60.7257C244.264 60.4892 244.447 60.216 244.578 59.9061C244.717 59.5881 244.786 59.2537 244.786 58.9031C244.786 58.5443 244.717 58.2099 244.578 57.9C244.447 57.5901 244.264 57.321 244.027 57.0927C243.791 56.8562 243.518 56.6727 243.208 56.5423C242.898 56.4036 242.564 56.3343 242.205 56.3343C241.854 56.3343 241.52 56.4036 241.202 56.5423C240.892 56.6727 240.619 56.8562 240.382 57.0927C240.154 57.321 239.97 57.5901 239.832 57.9C239.701 58.2099 239.636 58.5443 239.636 58.9031C239.636 59.2537 239.701 59.5881 239.832 59.9061C239.97 60.216 240.154 60.4892 240.382 60.7257C240.619 60.9621 240.892 61.1497 241.202 61.2883C241.52 61.4188 241.854 61.484 242.205 61.484ZM247.779 54.5973H249.614V61.4107H253.088V63.1599H247.779V54.5973ZM253.991 54.5973H255.826V63.1599H253.991V54.5973ZM256.878 58.9031C256.878 58.2915 256.992 57.7206 257.22 57.1906C257.457 56.6523 257.775 56.1835 258.174 55.7839C258.574 55.3843 259.039 55.0703 259.569 54.842C260.107 54.6055 260.682 54.4873 261.294 54.4873C261.71 54.4873 262.109 54.5443 262.492 54.6585C262.884 54.7727 263.247 54.9317 263.581 55.1356C263.915 55.3313 264.217 55.5718 264.486 55.8573C264.755 56.1427 264.984 56.4566 265.171 56.7991L263.557 57.6676C263.336 57.268 263.027 56.9459 262.627 56.7013C262.227 56.4566 261.783 56.3343 261.294 56.3343C260.943 56.3343 260.609 56.4036 260.291 56.5423C259.981 56.6727 259.708 56.8562 259.471 57.0927C259.243 57.321 259.059 57.5901 258.921 57.9C258.79 58.2099 258.725 58.5443 258.725 58.9031C258.725 59.2537 258.79 59.5881 258.921 59.9061C259.059 60.216 259.243 60.4892 259.471 60.7257C259.708 60.9621 259.981 61.1497 260.291 61.2883C260.609 61.4188 260.943 61.484 261.294 61.484C261.783 61.484 262.227 61.3617 262.627 61.1171C263.035 60.8643 263.349 60.5299 263.569 60.114L265.196 60.9948C265.008 61.3373 264.776 61.6553 264.499 61.9489C264.229 62.2343 263.924 62.4789 263.581 62.6828C263.247 62.8867 262.884 63.0457 262.492 63.1599C262.109 63.274 261.71 63.3311 261.294 63.3311C260.682 63.3311 260.107 63.2169 259.569 62.9886C259.039 62.7521 258.574 62.4341 258.174 62.0345C257.775 61.6268 257.457 61.1579 257.22 60.6278C256.992 60.0896 256.878 59.5147 256.878 58.9031ZM268.325 60.1874L265.254 54.5973H267.334L269.242 58.0468L271.15 54.5973H273.242L270.16 60.1752V63.1599H268.325V60.1874Z" fill="#9DB9CB"/>
<rect x="157.008" y="93.8176" width="11.7225" height="5.09673" rx="2.03869" fill="#8D866B" fill-opacity="0.29"/>
<rect x="171.279" y="93.8176" width="7.64509" height="5.09673" rx="2.03869" fill="#8D866B" fill-opacity="0.29"/>
<rect x="181.472" y="93.8176" width="28.5417" height="5.09673" rx="2.03869" fill="#8D866B" fill-opacity="0.29"/>
<rect x="212.562" y="93.8176" width="6.11607" height="5.09673" rx="2.03869" fill="#8D866B" fill-opacity="0.29"/>
<rect x="221.227" y="93.8176" width="27.0127" height="5.09673" rx="2.03869" fill="#8D866B" fill-opacity="0.29"/>
<rect x="250.788" y="93.8176" width="11.7225" height="5.09673" rx="2.03869" fill="#8D866B" fill-opacity="0.29"/>
<rect x="265.059" y="93.8176" width="11.7225" height="5.09673" rx="2.03869" fill="#8D866B" fill-opacity="0.29"/>
<rect x="157.008" y="101.972" width="22.4256" height="5.09673" rx="2.03869" fill="#8D866B" fill-opacity="0.29"/>
<rect x="181.982" y="101.972" width="20.1321" height="5.09673" rx="2.03869" fill="#8D866B" fill-opacity="0.29"/>
<rect x="204.662" y="101.972" width="15.2902" height="5.09673" rx="2.03869" fill="#8D866B" fill-opacity="0.29"/>
<rect x="222.501" y="101.972" width="13.2515" height="5.09673" rx="2.03869" fill="#8D866B" fill-opacity="0.29"/>
<rect x="238.301" y="101.972" width="15.7999" height="5.09673" rx="2.03869" fill="#8D866B" fill-opacity="0.29"/>
<rect x="256.649" y="101.972" width="20.1321" height="5.09673" rx="2.03869" fill="#8D866B" fill-opacity="0.29"/>
<rect x="157.008" y="110.127" width="24.974" height="5.09673" rx="2.03869" fill="#8D866B" fill-opacity="0.29"/>
<rect x="184.531" y="110.127" width="15.2902" height="5.09673" rx="2.03869" fill="#8D866B" fill-opacity="0.29"/>
<rect x="202.369" y="110.127" width="22.4256" height="5.09673" rx="2.03869" fill="#8D866B" fill-opacity="0.29"/>
<rect x="157.008" y="123.888" width="44.8512" height="5.09673" rx="2.54836" fill="#8D866B" fill-opacity="0.29"/>
<mask id="path-63-inside-4_246_1795" fill="white">
<rect x="157.008" y="137.649" width="14.2708" height="14.2708" rx="2.54836"/>
</mask>
<rect x="157.008" y="137.649" width="14.2708" height="14.2708" rx="2.54836" stroke="#8D866B" stroke-opacity="0.29" stroke-width="6.11607" mask="url(#path-63-inside-4_246_1795)"/>
<rect x="175.356" y="137.649" width="44.3415" height="5.09673" rx="2.54836" fill="#8D866B" fill-opacity="0.29"/>
<rect x="222.246" y="137.649" width="24.974" height="5.09673" rx="2.54836" fill="#8D866B" fill-opacity="0.29"/>
<rect x="249.768" y="137.649" width="27.0127" height="5.09673" rx="2.54836" fill="#8D866B" fill-opacity="0.29"/>
<rect x="175.356" y="146.824" width="24.4643" height="5.09673" rx="2.54836" fill="#8D866B" fill-opacity="0.29"/>
<rect x="202.369" y="146.824" width="24.4643" height="5.09673" rx="2.54836" fill="#8D866B" fill-opacity="0.29"/>
<mask id="path-69-inside-5_246_1795" fill="white">
<rect x="157.008" y="159.056" width="14.2708" height="14.2708" rx="2.54836"/>
</mask>
<rect x="157.008" y="159.056" width="14.2708" height="14.2708" rx="2.54836" stroke="#8D866B" stroke-opacity="0.29" stroke-width="6.11607" mask="url(#path-69-inside-5_246_1795)"/>
<rect x="175.356" y="159.056" width="44.3415" height="5.09673" rx="2.54836" fill="#8D866B" fill-opacity="0.29"/>
<rect x="222.246" y="159.056" width="24.974" height="5.09673" rx="2.54836" fill="#8D866B" fill-opacity="0.29"/>
<rect x="249.768" y="159.056" width="27.0127" height="5.09673" rx="2.54836" fill="#8D866B" fill-opacity="0.29"/>
<rect x="175.356" y="168.23" width="24.4643" height="5.09673" rx="2.54836" fill="#8D866B" fill-opacity="0.29"/>
<rect x="202.369" y="168.23" width="24.4643" height="5.09673" rx="2.54836" fill="#8D866B" fill-opacity="0.29"/>
<mask id="path-75-inside-6_246_1795" fill="white">
<rect x="157.008" y="180.462" width="14.2708" height="14.2708" rx="2.54836"/>
</mask>
<rect x="157.008" y="180.462" width="14.2708" height="14.2708" rx="2.54836" stroke="#8D866B" stroke-opacity="0.29" stroke-width="6.11607" mask="url(#path-75-inside-6_246_1795)"/>
<rect x="175.356" y="180.462" width="44.3415" height="5.09673" rx="2.54836" fill="#8D866B" fill-opacity="0.29"/>
<rect x="222.246" y="180.462" width="24.974" height="5.09673" rx="2.54836" fill="#8D866B" fill-opacity="0.29"/>
<rect x="249.768" y="180.462" width="27.0127" height="5.09673" rx="2.54836" fill="#8D866B" fill-opacity="0.29"/>
<rect x="175.356" y="189.636" width="24.4643" height="5.09673" rx="2.54836" fill="#8D866B" fill-opacity="0.29"/>
<rect x="202.369" y="189.636" width="24.4643" height="5.09673" rx="2.54836" fill="#8D866B" fill-opacity="0.29"/>
<path d="M157.008 221.491L160.011 215.219C161.38 212.361 165.672 213.336 165.672 216.505V216.505C165.672 216.769 165.637 217.033 165.567 217.288L161.983 230.431C161.899 230.74 161.678 230.993 161.384 231.119V231.119C160.732 231.399 159.996 230.963 159.928 230.256L159.425 225.063C159.344 224.227 159.495 223.384 159.86 222.627L161.717 218.78C162.356 217.457 163.939 216.893 165.27 217.514L166.215 217.955C166.509 218.093 166.707 218.378 166.732 218.703V218.703C166.799 219.575 167.945 219.85 168.4 219.102L169.273 217.668C169.837 216.741 171.184 216.746 171.742 217.676L171.824 217.812C171.967 218.051 172.043 218.325 172.043 218.604V220.108C172.043 220.507 171.9 220.892 171.639 221.193L170.871 222.078C170.132 222.931 168.73 222.408 168.73 221.279V221.279C168.73 220.928 168.882 220.593 169.147 220.362L171.678 218.147C172.406 217.51 173.341 217.158 174.308 217.158H175.434C175.87 217.158 176.286 217.347 176.573 217.675L176.736 217.862C177.32 218.529 178.381 218.448 178.857 217.7V217.7C179.294 217.013 180.241 216.877 180.853 217.413L182.126 218.527C183.089 219.369 184.503 219.446 185.551 218.712L193.344 213.257C193.751 212.972 194.203 212.755 194.68 212.614L196.382 212.114C197.575 211.763 198.865 212.03 199.82 212.826V212.826" stroke="#FFC846" stroke-width="1.01935" stroke-linecap="round"/>
<rect x="224.794" y="222.51" width="44.3415" height="2.54836" rx="1.27418" fill="#8D866B" fill-opacity="0.29"/>
<rect x="224.794" y="229.136" width="24.4643" height="2.54836" rx="1.27418" fill="#8D866B" fill-opacity="0.29"/>
<rect x="251.807" y="229.136" width="24.4643" height="2.54836" rx="1.27418" fill="#8D866B" fill-opacity="0.29"/>
</g>
</g>
<path d="M92.7908 203.904C91.6762 201.27 74.3498 150.168 124.399 98.5383C139.677 82.7782 179.189 47.4358 259.269 27.4161C268.966 24.9917 379.221 -0.141874 402.566 43.7479C415.737 68.5088 404.147 100.645 387.815 122.245C378.88 134.063 359.85 144.187 354.625 145.953C334.079 152.897 318.984 150.101 315.64 141.738C311.427 131.202 324.594 122.245 334.079 118.031C356.91 107.885 397.403 112.523 414.685 141.738C436.812 179.143 398.88 254.48 253.474 265.543C119.867 275.709 98.5873 217.602 92.7908 203.904Z" stroke="#FED28F" stroke-width="3.61342"/>
<defs>
<filter id="filter0_d_246_1795" x="183.039" y="56.0973" width="165.273" height="223.631" filterUnits="userSpaceOnUse" color-interpolation-filters="sRGB">
<feFlood flood-opacity="0" result="BackgroundImageFix"/>
<feColorMatrix in="SourceAlpha" type="matrix" values="0 0 0 0 0 0 0 0 0 0 0 0 0 0 0 0 0 0 127 0" result="hardAlpha"/>
<feOffset dx="3.61342" dy="3.61342"/>
<feGaussianBlur stdDeviation="6.27832"/>
<feComposite in2="hardAlpha" operator="out"/>
<feColorMatrix type="matrix" values="0 0 0 0 0.613883 0 0 0 0 0.613883 0 0 0 0 0.613883 0 0 0 0.25 0"/>
<feBlend mode="normal" in2="BackgroundImageFix" result="effect1_dropShadow_246_1795"/>
<feBlend mode="normal" in="SourceGraphic" in2="effect1_dropShadow_246_1795" result="shape"/>
</filter>
<filter id="filter1_d_246_1795" x="137.871" y="34.4168" width="165.273" height="223.631" filterUnits="userSpaceOnUse" color-interpolation-filters="sRGB">
<feFlood flood-opacity="0" result="BackgroundImageFix"/>
<feColorMatrix in="SourceAlpha" type="matrix" values="0 0 0 0 0 0 0 0 0 0 0 0 0 0 0 0 0 0 127 0" result="hardAlpha"/>
<feOffset dx="3.61342" dy="3.61342"/>
<feGaussianBlur stdDeviation="6.27832"/>
<feComposite in2="hardAlpha" operator="out"/>
<feColorMatrix type="matrix" values="0 0 0 0 0.613883 0 0 0 0 0.613883 0 0 0 0 0.613883 0 0 0 0.25 0"/>
<feBlend mode="normal" in2="BackgroundImageFix" result="effect1_dropShadow_246_1795"/>
<feBlend mode="normal" in="SourceGraphic" in2="effect1_dropShadow_246_1795" result="shape"/>
</filter>
<clipPath id="clip0_246_1795">
<rect x="191.982" y="65.0405" width="140.16" height="198.518" rx="7.13542" fill="white"/>
</clipPath>
<clipPath id="clip1_246_1795">
<rect x="146.815" y="43.36" width="140.16" height="198.518" rx="7.13542" fill="white"/>
</clipPath>
</defs>
</svg>
