<svg width="173" height="179" viewBox="0 0 173 179" fill="none" xmlns="http://www.w3.org/2000/svg">
<circle cx="34.0179" cy="146.35" r="14.5567" fill="#FA91B7"/>
<path d="M29.1657 146.034L31.9353 148.804L38.0285 142.711" stroke="white" stroke-width="4" stroke-linecap="round" stroke-linejoin="round"/>
<path d="M69.9807 172.296C84.9861 177.824 101.367 178.405 116.726 173.954C132.086 169.502 145.617 160.252 155.341 147.557C165.066 134.862 170.472 119.388 170.769 103.4C171.066 87.4111 166.238 71.747 156.993 58.6993C147.747 45.6517 134.568 35.9054 119.385 30.8865C104.202 25.8675 87.8105 25.8394 72.61 30.8062C57.4095 35.773 44.1975 45.474 34.907 58.4898C25.6166 71.5057 20.7354 87.1531 20.9776 103.143" stroke="#12A9AE" stroke-width="4" stroke-linecap="round"/>
<path d="M89.5154 26.5604V14.7331M89.5154 14.7331H103.162M89.5154 14.7331H79.5076C76.4928 14.7331 74.0489 12.2892 74.0489 9.27436V8.0613C74.0489 5.04651 76.4928 2.60254 79.5076 2.60254H112.563C115.578 2.60254 118.022 5.04651 118.022 8.0613V9.27436C118.022 12.2892 115.578 14.7331 112.563 14.7331H103.162M103.162 14.7331V26.5604" stroke="#12A9AE" stroke-width="4"/>
<path d="M47.2755 44.5259L42.0007 36.9927M42.0007 36.9927L50.6928 30.9064M42.0007 36.9927L35.6265 41.456C33.7063 42.8006 31.0596 42.3339 29.7151 40.4137L29.1741 39.641C27.8295 37.7208 28.2962 35.0742 30.2164 33.7297L51.2707 18.9873C53.1909 17.6427 55.8375 18.1094 57.1821 20.0296L57.7231 20.8023C59.0677 22.7225 58.601 25.3691 56.6808 26.7136L50.6928 30.9064M50.6928 30.9064L55.9676 38.4396" stroke="#12A9AE" stroke-width="4"/>
<path d="M144.974 44.5259L150.249 36.9927M150.249 36.9927L141.557 30.9064M150.249 36.9927L156.623 41.456C158.543 42.8006 161.19 42.3339 162.534 40.4137L163.075 39.641C164.42 37.7208 163.953 35.0742 162.033 33.7297L140.979 18.9873C139.058 17.6427 136.412 18.1094 135.067 20.0296L134.526 20.8023C133.182 22.7225 133.648 25.3691 135.569 26.7136L141.557 30.9064M141.557 30.9064L136.282 38.4396" stroke="#12A9AE" stroke-width="4"/>
<path d="M34.0179 176.676C41.0341 176.676 47.8332 174.244 53.2568 169.793C58.6804 165.342 62.3929 159.148 63.7617 152.266C65.1305 145.385 64.0709 138.242 60.7635 132.054C57.4561 125.867 52.1055 121.017 45.6234 118.332C39.1413 115.647 31.9287 115.293 25.2146 117.329C18.5006 119.366 12.7004 123.668 8.8024 129.502C4.90442 135.335 3.1498 142.34 3.8375 149.323C4.5252 156.305 7.61269 162.833 12.5739 167.794M12.5739 167.794L14.0025 159.087M12.5739 167.794L2.78168 166.669" stroke="#12A9AE" stroke-width="4" stroke-linecap="round"/>
<path d="M114.686 101.77C114.686 112.322 106.132 120.876 95.5807 120.876C85.0289 120.876 76.475 112.322 76.475 101.77C76.475 91.2183 85.0289 82.6644 95.5807 82.6644M114.686 101.77C114.686 91.2183 106.132 82.6644 95.5807 82.6644M114.686 101.77H128.333M95.5807 82.6644V62.9522M95.5807 35.9617V42.9368M155.627 101.77H162.905M37.0506 101.77H28.2559M95.5807 157.571V168.185M47.0583 55.9771L54.3367 61.7392M148.349 55.9771L141.07 61.7392M148.349 149.989L141.07 143.317" stroke="#FCCA7F" stroke-width="4"/>
</svg>
