<svg width="225" height="225" viewBox="0 0 225 225" fill="none" xmlns="http://www.w3.org/2000/svg">
<path d="M35.2615 98.4789L46.1303 112.902M66.4596 97.583L53.8704 80.8765M43.3493 88.0509L56.3008 105.238M86.939 103.632L64.2143 73.4756C62.0892 70.6554 57.9761 69.9967 55.1759 72.1467C52.4573 74.234 51.8897 78.0961 53.8701 80.8771L52.1702 78.6197C50.0202 75.7666 45.9326 75.2346 43.1213 77.4764C40.4117 79.6372 40.005 83.6123 42.0908 86.3803L43.3496 88.0507L43.3174 88.0326C41.1674 85.1795 37.0798 84.6476 34.2685 86.8894C31.5589 89.0501 31.1522 93.0252 33.2383 95.7935L35.2617 98.4787C33.147 95.774 29.2612 95.2338 26.4908 97.2678C23.6349 99.3643 23.1269 103.507 25.2595 106.337L31.2657 114.307L38.0465 123.306L49.3467 138.302C53.0247 143.183 58.9104 145.415 64.5652 144.662L75.1893 158.761L103.141 137.698L93.3982 124.768C100.376 114.665 97.726 104.751 95.9249 96.861L86.939 103.632ZM105.817 199.406L110.472 205.583C112.684 208.518 116.856 209.105 119.791 206.894L137.116 193.839C140.05 191.627 140.636 187.455 138.424 184.52L133.771 178.344L105.817 199.406Z" stroke="#FA91B7" stroke-width="4" stroke-miterlimit="10" stroke-linecap="round" stroke-linejoin="round"/>
<path d="M87.5709 181.284L85.9008 182.542C83.133 184.628 79.1582 184.221 76.9971 181.511C74.7554 178.699 75.2864 174.611 78.139 172.461L80.3962 170.762C77.6158 172.742 73.7535 172.173 71.666 169.455C69.5154 166.654 70.1737 162.54 72.9933 160.416L103.145 137.694L96.3727 128.707C104.262 126.907 114.175 124.258 124.279 131.238L137.157 121.533L158.225 149.49L144.177 160.076C144.93 165.731 142.699 171.616 137.819 175.294L105.859 199.377C103.03 201.51 98.8877 201.001 96.7906 198.145C94.7561 195.374 95.2954 191.488 97.9998 189.373M87.5709 181.284L87.5529 181.316C84.7003 183.466 84.1692 187.553 86.4112 190.365C88.5723 193.075 92.5471 193.482 95.3149 191.397L97.9998 189.373M87.5709 181.284L104.755 168.334M97.9998 189.373L112.421 178.506M97.0991 158.174L80.3954 170.761M198.861 118.868L205.088 114.176C208.023 111.964 208.609 107.792 206.397 104.857L193.34 87.5296C191.128 84.5943 186.956 84.0076 184.021 86.219L177.798 90.9084L198.861 118.868Z" stroke="#12A9AE" stroke-width="4" stroke-miterlimit="10" stroke-linecap="round" stroke-linejoin="round"/>
<path d="M180.723 137.083L181.981 138.753C184.067 141.521 183.661 145.496 180.951 147.657C178.14 149.899 174.052 149.367 171.902 146.514L170.202 144.256C172.183 147.037 171.615 150.9 168.896 152.987C166.096 155.137 161.983 154.478 159.858 151.658L137.133 121.501L128.147 128.272C126.346 120.382 123.696 110.468 130.674 100.365L120.955 87.4685L148.907 66.4051L159.507 80.4711C165.162 79.7185 171.047 81.95 174.725 86.8312L198.813 118.797C200.945 121.627 200.437 125.769 197.581 127.865C194.811 129.899 190.925 129.359 188.81 126.655M180.723 137.083L180.755 137.101C182.905 139.954 186.992 140.486 189.804 138.244C192.513 136.083 192.92 132.108 190.834 129.34L188.81 126.655M180.723 137.083L167.771 119.895M188.81 126.655L177.942 112.231M157.612 127.55L170.202 144.257M118.279 25.7602L113.6 19.5503C111.388 16.6149 107.216 16.0281 104.281 18.2397L86.9566 31.2945C84.0217 33.5061 83.4358 37.6783 85.6478 40.6137L90.3259 46.8218" stroke="#FCCA7F" stroke-width="4" stroke-miterlimit="10" stroke-linecap="round" stroke-linejoin="round"/>
<path d="M86.939 103.632L99.8179 93.9278C109.921 100.908 119.834 98.2591 127.724 96.4588M120.951 87.4716L151.103 64.7504C153.923 62.6256 154.581 58.5125 152.431 55.7115C150.343 52.9927 146.481 52.4242 143.7 54.4043L145.958 52.7046C148.81 50.555 149.341 46.4672 147.1 43.6555C144.938 40.9454 140.964 40.5381 138.196 42.6237L136.526 43.8823L136.544 43.8501C139.396 41.7005 139.927 37.6128 137.685 34.8012C135.524 32.0911 131.549 31.684 128.782 33.7694L126.097 35.7927C128.801 33.6781 129.34 29.7924 127.306 27.0213C125.209 24.1651 121.067 23.6565 118.237 25.7886L86.2773 49.8723C81.3969 53.5499 79.1663 59.4355 79.9198 65.0904L65.8721 75.6762M25.2591 106.337C25.25 106.325 25.2429 106.312 25.2336 106.299L19.0086 110.99C16.0737 113.202 15.4878 117.374 17.6998 120.31L30.7565 137.636C32.9685 140.572 37.1408 141.158 40.0754 138.947L46.2984 134.258" stroke="#12A9AE" stroke-width="4" stroke-miterlimit="10" stroke-linecap="round" stroke-linejoin="round"/>
</svg>
