<svg width="116" height="116" viewBox="0 0 116 116" fill="none" xmlns="http://www.w3.org/2000/svg">
<g filter="url(#filter0_d_70_3825)">
<rect x="30" y="26" width="56" height="56" rx="16" fill="white"/>
<path d="M47 53C46.4477 53 46 53.4477 46 54C46 54.5523 46.4477 55 47 55V53ZM68.7071 54.7071C69.0976 54.3166 69.0976 53.6834 68.7071 53.2929L62.3431 46.9289C61.9526 46.5384 61.3195 46.5384 60.9289 46.9289C60.5384 47.3195 60.5384 47.9526 60.9289 48.3431L66.5858 54L60.9289 59.6569C60.5384 60.0474 60.5384 60.6805 60.9289 61.0711C61.3195 61.4616 61.9526 61.4616 62.3431 61.0711L68.7071 54.7071ZM47 55H68V53H47V55Z" fill="url(#paint0_linear_70_3825)"/>
</g>
<defs>
<filter id="filter0_d_70_3825" x="0" y="0" width="116" height="116" filterUnits="userSpaceOnUse" color-interpolation-filters="sRGB">
<feFlood flood-opacity="0" result="BackgroundImageFix"/>
<feColorMatrix in="SourceAlpha" type="matrix" values="0 0 0 0 0 0 0 0 0 0 0 0 0 0 0 0 0 0 127 0" result="hardAlpha"/>
<feOffset dy="4"/>
<feGaussianBlur stdDeviation="15"/>
<feComposite in2="hardAlpha" operator="out"/>
<feColorMatrix type="matrix" values="0 0 0 0 0.894043 0 0 0 0 0.894043 0 0 0 0 0.894043 0 0 0 0.25 0"/>
<feBlend mode="normal" in2="BackgroundImageFix" result="effect1_dropShadow_70_3825"/>
<feBlend mode="normal" in="SourceGraphic" in2="effect1_dropShadow_70_3825" result="shape"/>
</filter>
<linearGradient id="paint0_linear_70_3825" x1="46.5133" y1="53.8785" x2="48.7283" y2="60.9025" gradientUnits="userSpaceOnUse">
<stop stop-color="#11AFB4"/>
<stop offset="1" stop-color="#095F62"/>
</linearGradient>
</defs>
</svg>
