<svg width="494" height="292" viewBox="0 0 494 292" fill="none" xmlns="http://www.w3.org/2000/svg">
<g clip-path="url(#clip0_246_1724)">
<g clip-path="url(#clip1_246_1724)">
<path d="M264.991 384.991C341.201 384.991 402.982 323.211 402.982 247C402.982 170.79 341.201 109.01 264.991 109.01C188.781 109.01 127 170.79 127 247C127 323.211 188.781 384.991 264.991 384.991Z" fill="#F2ECF6"/>
<path d="M197.93 362.793C197.904 362.845 197.87 362.879 197.844 362.931C198.051 362.983 198.25 363.052 198.457 363.095L197.93 362.793ZM189.25 168.305L188.973 167.743C191.279 167.398 191.435 165.774 193.188 165.178C195.183 164.522 194.501 165.239 196.462 165.178C198.051 165.109 199.018 166.266 200.832 165.42C200.392 166.197 199.675 166.733 198.958 167.26C197.464 168.322 195.935 169.41 194.156 169.825C192.376 170.231 190.286 169.799 189.25 168.305Z" fill="white"/>
<path d="M216.855 291.301C216.82 292.519 216.103 293.581 215.481 294.609C212.709 299.135 211.024 304.378 210.653 309.69C210.282 314.778 210.506 321.048 206.075 323.553C203.544 324.961 199.986 324.711 198.302 327.086C197.775 327.803 197.524 328.71 197.274 329.556C196.185 333.521 195.088 337.485 194 341.45C192.585 341.323 191.171 341.179 189.759 341.018C191.418 341.545 192.566 343.791 191.573 345.328C189.984 344.49 187.893 345.483 187.012 347.081C186.175 348.671 186.296 350.605 186.762 352.359C188.204 357.541 192.635 361.722 197.852 362.966C196.945 364.684 194.173 363.933 192.48 362.784C180.396 354.613 171.275 342.167 167.112 328.183C165.644 323.251 164.702 318.008 161.826 313.767C159.425 310.182 155.797 307.557 153.396 303.972C150.027 298.824 149.397 292.148 145.493 287.44C143.307 284.754 139.93 281.455 141.865 278.578C142.642 277.395 144.301 276.272 143.644 275.02C143.428 274.614 142.988 274.363 142.642 274.018C141.329 272.61 142.236 270.399 142.893 268.585C143.981 265.432 143.981 262.064 143.515 258.695C140.232 255.758 137.641 252.113 136.017 248.019C135.05 245.523 133.763 242.405 131.085 242.37C130.394 240.436 129.678 238.501 128.987 236.566C128.736 237.257 128.054 237.689 127.302 237.784C129.375 206.163 142.124 177.469 161.964 155.237C162.405 155.046 162.836 154.796 163.277 154.546C167.984 151.799 171.733 147.679 176.285 144.682C177.218 144.06 178.28 143.464 179.437 143.585C180.56 143.68 181.623 144.828 181.217 145.891C181.061 146.331 180.69 146.677 180.31 146.953C174.964 151.502 169.136 155.453 162.931 158.735C162.189 159.106 161.403 159.547 161.066 160.298C160.435 161.576 161.498 163.166 162.845 163.632C164.184 164.098 165.687 163.822 167.06 163.511C165.903 165.161 165.557 167.381 166.153 169.315C167.432 169.436 167.837 167.692 168.218 166.474C169.772 161.637 177.485 159.667 176.984 154.571C179.075 155.66 181.2 153.224 182.478 151.229C183.756 149.199 186.598 147.204 188.161 148.983C188.248 149.976 188.369 150.978 188.464 151.98C191.21 151.289 193.991 150.572 196.738 149.881C195.175 150.978 194.648 153.319 195.546 155.003C196.453 156.688 198.699 157.534 200.478 156.843C200.452 158.311 199.139 159.434 197.947 160.307C194.924 162.587 191.677 164.928 188.153 166.051L188.965 167.735C188.878 167.769 188.783 167.804 188.688 167.804C186.442 168.02 184.067 166.405 181.666 166.716C180.198 166.906 178.392 166.906 177.546 168.4C177.425 168.59 176.898 171.207 177.27 170.991C178.582 170.24 179.887 169.488 181.174 168.745C181.571 169.808 181.666 170.991 181.45 172.149C183.039 171.993 184.698 172.33 186.106 173.176C184.637 176.579 180.863 178.86 177.149 178.575C177.114 177.452 177.054 176.329 177.019 175.206C173.961 174.956 171.465 177.581 169.936 180.207C168.382 182.859 167.198 185.891 164.633 187.575C163.078 188.637 161.169 189.043 159.485 189.916C157.835 190.823 156.307 192.541 156.652 194.381C156.808 195.254 157.369 196.065 157.343 196.972C157.248 198.657 155.287 199.443 153.974 200.531C151.729 202.405 151.167 205.843 148.766 207.493C147.021 208.711 144.707 208.685 142.677 209.307C140.647 209.928 138.617 211.958 139.438 213.928C138.436 214.273 137.218 213.522 137.123 212.459C133.538 219.516 131.172 227.195 130.204 235.063C131.984 236.307 133.789 233.465 134.134 231.315C134.506 229.164 136.38 226.348 138.125 227.626C137.719 230.719 137.313 233.776 136.916 236.868C136.821 237.464 136.76 238.086 137.045 238.613C137.391 239.27 138.134 239.546 138.704 240.012C140.293 241.386 140.077 243.822 140.172 245.912C140.267 248.468 141.113 250.965 142.452 253.15C142.323 252.709 142.236 252.277 142.141 251.837C144.577 252.148 147.108 251.362 148.948 249.738C149.915 248.866 150.727 247.743 151.945 247.302C153.197 246.836 154.57 247.173 155.849 247.518C159.813 248.607 164.028 249.824 166.68 252.943C168.019 254.532 168.865 256.536 170.463 257.84C174.082 260.898 180.206 259.55 183.514 262.953C186.166 265.7 185.674 270.131 184.957 273.906C183.143 272.912 180.716 275.408 181.778 277.188C182.746 276.125 183.868 275.002 185.276 275.002C186.71 274.968 187.963 276.937 186.9 277.844C189.396 274.657 195.512 275.97 196.479 279.934C199.977 280.185 203.501 280.427 206.999 280.712C206.326 285.842 217.071 286.145 216.855 291.301ZM195.581 146.893C194.233 147.558 192.376 146.806 191.875 145.39C191.366 143.973 192.324 142.22 193.793 141.883C194.717 141.667 196.004 141.771 196.289 140.864C196.375 140.588 196.324 140.285 196.324 140C196.289 138.29 197.818 136.873 199.468 136.442C201.117 136.018 202.862 136.347 204.538 136.675C205.135 137.921 205.305 139.33 205.021 140.683C203.873 140.734 202.724 140.778 201.575 140.829C201.679 142.738 201.489 145.139 199.718 145.848C198.129 146.478 196.056 145.304 194.734 146.375M213.469 127.83C216.604 126.327 219.256 123.961 222.348 122.371C227.669 119.642 233.879 119.4 239.856 119.21L280.668 117.94C277.515 119.668 274.362 121.404 271.201 123.131C268.627 124.548 265.699 125.999 262.875 125.196C262.814 127.467 264.878 129.575 267.159 129.558C261.57 133.013 253.814 129.48 247.915 132.382C245.444 133.6 243.449 135.897 240.728 136.329C239.156 136.58 237.524 136.157 235.961 136.502C233.343 137.072 231.694 139.551 229.759 141.399C227.53 143.533 224.257 144.993 221.346 143.973C218.435 142.954 216.915 138.627 219.247 136.606C220.396 135.612 222.037 135.448 223.393 134.749C224.749 134.058 225.82 132.201 224.801 131.069C224.361 130.577 223.635 130.387 223.229 129.86C222.788 129.29 222.832 128.478 222.469 127.856C221.087 125.429 217.243 128.694 214.626 127.718M254.781 139.309C256.621 138.886 258.219 137.798 259.938 137.003C261.657 136.208 263.704 135.742 265.388 136.58C265.889 137.832 264.447 138.972 263.177 139.421C260.731 140.279 258.108 140.508 255.55 140.087M366.005 153.034C365.482 153.096 364.953 153.064 364.442 152.939C362.101 152.438 360.322 150.633 358.318 149.32C353.697 146.262 347.391 145.865 342.399 148.361C343.582 146.642 344.178 144.518 344.049 142.427L343.332 142.678C335.152 137.936 325.565 133.013 316.642 136.2C314.578 136.951 312.712 138.074 310.622 138.791C308.402 139.568 305.941 139.888 304.04 141.261C302.106 142.635 301.078 145.666 302.736 147.316C304.144 148.724 306.39 148.344 308.359 148.534C310.294 148.724 312.514 150.65 311.451 152.308C302.9 156.308 294.323 160.341 285.772 164.375C289.702 165.653 292.302 170.11 291.456 174.17C288.579 174.671 285.807 172.926 282.905 172.736C278.69 172.52 274.665 176.234 274.578 180.449C274.457 184.664 278.327 188.56 282.542 188.499C285.695 188.465 288.787 186.564 291.844 187.368C291.965 184.491 293.935 182.056 295.956 180C299.886 176.061 305.5 172.503 310.752 174.437C312.47 175.059 313.939 176.217 315.373 177.365C318.525 179.862 321.678 182.384 324.839 184.915C325.841 183.887 326.834 182.85 327.836 181.857C329.555 183.671 331.274 185.476 333.019 187.316C333.891 186.72 334.798 186.158 335.67 185.562C336.292 187.186 336.949 188.775 337.579 190.399C337.83 188.62 338.046 186.875 338.262 185.122C340.326 185.182 342.511 185.243 344.377 184.31C346.251 183.403 347.625 181.157 346.839 179.223C346.433 178.195 345.465 177.383 345.275 176.286C344.869 174.101 347.987 172.606 350.017 173.6C352.012 174.567 353.014 176.847 353.861 178.937C354.327 176.813 354.759 174.722 355.234 172.598C357.195 177.735 359.988 182.515 363.5 186.746C357.1 185.528 350.354 186.227 344.368 188.689C346.277 191.375 349.551 192.965 352.833 192.835C354.301 192.8 355.925 192.464 357.048 193.396C357.894 194.113 358.11 195.271 358.266 196.333C358.767 199.33 359.268 202.293 359.734 205.256C356.357 202.483 351.494 202.794 347.089 202.708C342.684 202.587 337.536 201.369 335.912 197.283C334.168 199.253 333.39 202.06 333.891 204.686C329.331 203.597 324.088 201.852 322.775 197.352C319.216 198.665 314.785 196.394 313.818 192.74C313.472 191.462 313.377 189.898 312.255 189.216C311.572 188.81 310.691 188.87 309.879 188.965C303.108 189.751 296.362 190.503 289.625 191.289C285.945 191.729 282.136 192.17 278.888 193.975C275.641 195.754 273.058 199.253 273.429 202.941C267.219 206.629 261.95 211.967 258.392 218.246C257.269 220.181 256.302 222.401 256.742 224.586C257.053 226.27 258.176 227.704 258.521 229.363C259.117 232.204 257.493 234.951 256.811 237.758C254.876 245.748 260.94 253.271 266.563 259.317C269.214 262.124 272.281 265.182 276.15 265.337C278.551 265.432 280.832 264.37 283.077 263.489C289.504 260.958 296.5 259.801 303.393 260.077C301.829 261.295 303.453 263.947 305.396 264.353C307.331 264.759 309.421 264.128 311.296 264.784C315.571 266.313 314.984 272.584 313.049 276.678C314.017 276.488 315.018 276.298 316.012 276.117C315.488 277.481 314.958 278.843 314.422 280.202C320.287 280.945 322.507 288.658 321.142 294.428C319.804 300.206 316.375 305.51 316.28 311.444C316.254 314.691 317.247 317.844 318.249 320.927C320.754 328.762 323.25 336.596 325.755 344.456C332.751 345.293 336.767 336.397 343.263 333.616C345.698 332.553 348.566 332.337 350.475 330.524C352.315 328.779 351.719 324.685 349.352 324.685C352.565 324.339 355.312 321.402 355.407 318.155C355.441 317.248 355.312 316.341 355.433 315.443C355.649 314.164 356.461 313.041 357.238 311.945C362.196 304.827 365.409 296.674 368.622 288.624C369.46 286.464 370.306 284.348 371.144 282.189C374.323 274.165 377.475 266.175 380.654 258.151C381.898 254.998 383.15 251.88 384.394 248.719C382.675 251.561 378.184 251.189 375.618 249.064C373.027 246.948 371.68 243.726 369.65 241.075C367.931 238.795 365.616 236.773 364.804 233.992C364.338 232.403 364.424 230.684 364.148 229.026C363.517 225.433 361.151 222.444 359.527 219.196C357.903 215.949 357.057 211.742 359.337 208.892C365.901 220.345 371.87 232.135 377.268 244.219C377.864 242.345 379.237 240.721 380.982 239.814C382.26 239.123 383.694 238.846 385.042 238.285C388.6 236.722 391.062 232.947 391.062 229.077C391.027 225.208 388.566 221.433 384.973 219.905C383.193 219.153 381.164 218.911 379.479 217.875C377.795 216.882 376.577 214.601 377.639 212.943C378.633 211.38 381.043 211.414 382.692 212.286C384.351 213.193 385.569 214.722 387.123 215.75C388.246 216.501 389.559 216.994 390.777 217.685C397.367 221.459 398.991 230.045 400.373 237.533C401.125 241.559 401.971 245.558 402.973 249.488C403.007 248.641 402.999 247.769 402.999 246.931C402.964 210.637 388.929 177.651 366.005 153.034ZM378.641 198.38C377.734 198.32 376.897 197.724 376.171 197.162C374.988 196.23 373.796 195.133 373.45 193.664C373.044 191.919 373.882 189.916 372.949 188.361C372.509 187.609 371.732 187.143 371.075 186.616C369.356 185.243 368.104 183.273 367.637 181.157C367.231 179.283 367.819 176.787 369.728 176.476C370.635 176.32 371.628 176.821 372.034 177.659L370.755 178.35C372.906 178.601 373.908 181.848 372.258 183.248C372.042 183.463 371.757 183.654 371.757 183.964C371.757 184.154 371.878 184.336 372.042 184.465C373.381 185.934 375.385 186.461 377.13 187.393C378.875 188.3 380.593 189.985 380.317 191.919C379.756 192.135 379.229 192.325 378.667 192.541C378.071 193.137 378.546 194.2 379.168 194.787C379.79 195.374 380.602 195.97 380.637 196.843C380.637 197.784 379.574 198.441 378.641 198.38ZM379.54 294.411L377.285 296.009C378.071 298.773 376.499 302.012 373.83 303.091C372.423 303.661 370.548 303.912 370.073 305.354C369.676 306.581 370.626 307.825 370.755 309.103C370.963 311.228 368.976 312.817 367.542 314.398C366.109 315.978 365.348 318.949 367.257 319.9C367.698 320.124 368.207 320.167 368.7 320.21C370.773 320.392 373.044 320.452 374.737 319.243C379.592 315.78 374.979 306.382 379.773 302.823C380.455 302.322 381.31 301.96 381.682 301.2C382.813 298.963 378.641 296.743 379.54 294.411Z" fill="white"/>
<rect x="245" y="193" width="54" height="54" rx="27" fill="white"/>
<rect x="245.5" y="193.5" width="53" height="53" rx="26.5" stroke="url(#paint0_linear_246_1724)" stroke-opacity="0.5"/>
<path fill-rule="evenodd" clip-rule="evenodd" d="M258 226.832V213.167C258 212.394 258.413 211.679 259.083 211.293L270.918 204.46C271.587 204.073 272.413 204.073 273.082 204.46L280.443 208.71V214.461C280.443 214.587 280.388 214.707 280.292 214.789L276.106 218.377C275.826 218.618 275.392 218.418 275.392 218.048V210.763C275.392 210.524 275.198 210.33 274.959 210.33L272.938 210.33C272.699 210.33 272.505 210.524 272.505 210.763V214.461C272.505 214.587 272.45 214.707 272.354 214.789L268.168 218.377C267.887 218.618 267.454 218.418 267.454 218.048V215.093C267.454 214.854 267.26 214.66 267.021 214.66H265C264.761 214.66 264.567 214.854 264.567 215.093V225.773C264.567 226.012 264.761 226.206 265 226.206H267.021C267.26 226.206 267.454 226.012 267.454 225.773V222.727C267.454 222.599 267.51 222.478 267.608 222.396L271.793 218.868C272.075 218.631 272.505 218.831 272.505 219.199V230.103C272.505 230.342 272.699 230.536 272.938 230.536H274.959C275.198 230.536 275.392 230.342 275.392 230.103V222.797C275.392 222.671 275.447 222.55 275.543 222.468L279.728 218.881C280.009 218.64 280.443 218.839 280.443 219.209V231.29L273.082 235.54C272.413 235.927 271.587 235.927 270.918 235.54L259.083 228.707C258.413 228.321 258 227.606 258 226.832ZM283.33 229.624L284.917 228.707C285.587 228.321 286 227.606 286 226.832V213.167C286 212.394 285.587 211.679 284.917 211.293L283.33 210.376V229.624Z" fill="url(#paint1_linear_246_1724)"/>
</g>
<circle cx="265" cy="292" r="217.422" stroke="#F2ECF6" stroke-width="1.1565" stroke-dasharray="8 8"/>
<rect x="122" y="73" width="60" height="60" rx="30" fill="#F2ECF6"/>
<g clip-path="url(#clip2_246_1724)">
<path d="M152 132C167.972 132 181 118.973 181 103C181 87.0275 167.973 74.0002 152 74.0002C136.027 74.0002 123 87.0275 123 103C123 118.973 136.027 132 152 132Z" fill="#5DDDD3"/>
<path d="M142.316 108.211C139.897 102.11 134.818 96.5881 141.21 85.466C143.842 80.8854 147.864 77.8644 152.018 78.8872C156.172 77.8645 160.194 80.8855 162.826 85.466C169.218 96.5881 164.139 102.11 161.72 108.211L152.018 108.235L142.316 108.211H142.316Z" fill="#666666"/>
<path d="M135.677 117.748C135.374 118.238 134.617 122.403 133.78 125.56C138.76 129.587 145.098 132 152 132C158.902 132 165.24 129.587 170.22 125.56C169.382 122.403 168.626 118.238 168.322 117.748C163.663 110.226 156.482 113.51 155.993 104.902C155.993 104.902 153.682 106.626 151.918 106.641C150.154 106.657 148.004 105.01 148.004 105.01C147.516 113.611 140.333 110.232 135.677 117.748Z" fill="#FED198"/>
<path d="M156.118 106.117C156.057 105.714 156.015 105.309 155.993 104.902C155.993 104.902 153.682 106.626 151.918 106.642C150.154 106.657 148.004 105.01 148.004 105.01C147.98 105.453 147.936 105.863 147.876 106.245C147.921 106.281 147.966 106.317 148.012 106.352L148.012 106.359C148.147 106.477 150.212 108.252 151.918 108.235C153.624 108.252 155.688 106.476 155.824 106.359L155.824 106.352C155.923 106.276 156.021 106.198 156.117 106.118L156.118 106.117Z" fill="#F0B97D"/>
<path d="M148.012 105.016C148.148 105.119 150.213 106.657 151.918 106.641C153.624 106.657 155.689 105.118 155.825 105.016C158.403 103.513 160.518 99.082 160.04 94.2797C159.649 90.3459 155.394 96.1139 152.43 87.9973C148.235 96.7848 144.251 91.5867 143.796 94.917C143.296 98.5863 145.356 103.203 148.012 105.016V105.016Z" fill="#FED198"/>
<path d="M144.627 111.169C142.088 112.525 137.444 112.566 135.677 115.407C135.369 115.902 134.597 121.962 133.747 125.534C138.731 129.576 145.082 132 151.999 132C158.917 132 165.268 129.576 170.252 125.534C169.402 121.962 168.537 115.949 168.322 115.407C167.148 112.448 161.717 112.324 159.175 110.959C155.224 125.295 149.335 126.272 144.627 111.17L144.627 111.169H144.627V111.169Z" fill="#FBB429"/>
<path d="M146.32 109.744C146.155 114.204 146.913 120.523 151.918 122.137C147.206 122.334 144.149 115.546 140.666 113.768L146.32 109.745L146.32 109.744ZM157.796 109.744C157.969 114.204 157.173 120.523 151.918 122.137C156.865 122.334 160.076 115.546 163.732 113.768L157.796 109.745L157.796 109.744Z" fill="white"/>
</g>
<rect x="29" y="192" width="60" height="60" rx="30" fill="#F2ECF6"/>
<g clip-path="url(#clip3_246_1724)">
<path d="M59 251C75.0163 251 88 238.016 88 222C88 205.984 75.0163 193 59 193C42.9837 193 30 205.984 30 222C30 238.016 42.9837 251 59 251Z" fill="#DECFE9"/>
<path d="M59.137 234.422C59.0913 234.422 59.0457 234.468 59 234.468C58.9543 234.468 58.9086 234.422 58.863 234.422H59.137Z" fill="#84DBFF"/>
<path d="M81.515 240.268C76.2173 246.798 68.0882 251 59 251C49.9118 251 41.7827 246.798 36.485 240.268C40.2756 235.198 46.0756 232.687 50.8252 231.453C50.4598 234.468 52.0126 238.487 52.0583 238.395C53.6567 234.742 59 234.422 59 234.422C59 234.422 64.3433 234.742 65.8961 238.395C65.9417 238.487 67.5402 234.468 67.1291 231.453C71.9244 232.687 77.7701 235.198 81.515 240.268Z" fill="#84DBFF"/>
<path d="M65.5307 228.622V228.668C65.5307 229.124 65.3024 232.047 59.137 234.376H58.863C52.6976 232.047 52.4693 229.124 52.4693 228.668V228.622C52.4693 228.028 52.6063 227.435 52.7433 226.841C54.5244 229.079 56.6709 230.586 59 230.586C61.3291 230.586 63.4756 229.079 65.2567 226.841C65.3937 227.435 65.5307 228.028 65.5307 228.622Z" fill="white"/>
<path d="M65.5307 228.622C65.5307 228.622 65.8504 231.91 59 234.468C59 234.468 64.3433 234.787 65.896 238.441C65.9874 238.532 69.0472 230.586 65.5307 228.622ZM52.4693 228.622C48.9527 230.586 52.0126 238.532 52.1039 238.395C53.7023 234.742 59 234.422 59 234.422C52.1496 231.91 52.4693 228.622 52.4693 228.622Z" fill="#54C0EB"/>
<path d="M68.5906 217.068C68.1795 219.899 66.9465 222.548 64.8913 224.557C64.4803 224.968 64.115 225.288 63.6583 225.608L62.9276 223.279H55.0724L54.3417 225.608C52.8803 224.512 49.8205 221.452 49.7748 218.575C48.4961 202.179 61.0551 205.65 61.0551 205.65C69.5039 205.057 69.2299 212.501 68.5906 217.068ZM70.2803 220.036C69.6409 221.087 68.7732 221.817 67.9512 222.091C68.2709 221.361 68.5449 220.584 68.7732 219.808V219.762L69.3213 217.707H69.2756C69.4583 217.022 69.6409 216.337 69.778 215.652C69.9606 215.652 70.1433 215.743 70.326 215.835C71.3307 216.474 71.285 218.346 70.2803 220.036ZM50.0488 222.091C49.2268 221.817 48.3591 221.087 47.7197 220.036C46.6693 218.346 46.6693 216.474 47.674 215.88C47.7654 215.835 47.811 215.789 47.9024 215.789C48.4504 217.935 49.0898 219.534 49.2268 219.854C49.4551 220.584 49.7291 221.361 50.0488 222.091Z" fill="white"/>
<path d="M63.978 201.083C64.3433 196.882 57.6756 197.156 57.6756 197.156C47.5827 198.617 46.4866 208.025 46.4866 208.025L47.8567 206.381C45.7103 211.085 48.9528 219.168 49.2268 219.808C50.9166 225.425 54.6614 230.586 59 230.586C63.3386 230.586 67.0835 225.425 68.7732 219.808V219.762C68.9559 219.077 69.1386 218.392 69.2756 217.707H69.2299C70.1433 214.054 71.1481 210.354 71.1481 210.354C73.7512 197.247 63.978 201.083 63.978 201.083ZM68.5906 217.068C68.1795 219.899 66.9465 222.548 64.8914 224.557C64.4803 224.968 64.0693 225.288 63.6583 225.608L62.9276 223.324H55.0725L54.3418 225.654C52.8803 224.557 51.6473 223.05 50.6425 221.315C50.1858 220.402 49.9118 219.442 49.7748 218.62C48.4961 202.225 61.0551 205.696 61.0551 205.696C69.504 205.057 69.2299 212.501 68.5906 217.068Z" fill="#324A5E"/>
<path d="M63.978 201.083C64.3433 196.882 57.6756 197.156 57.6756 197.156C47.5827 198.617 46.4866 208.025 46.4866 208.025L47.8567 206.381C45.7103 211.085 48.9528 219.168 49.2268 219.808C50.9166 225.425 54.6614 230.586 59 230.586C63.3386 230.586 67.0835 225.425 68.7732 219.808V219.762C68.9559 219.077 69.1386 218.392 69.2756 217.707H69.2299C70.1433 214.054 71.1481 210.354 71.1481 210.354C73.7512 197.247 63.978 201.083 63.978 201.083ZM68.5906 217.068C68.1795 219.899 66.9465 222.548 64.8914 224.557C64.4803 224.968 64.0693 225.288 63.6583 225.608L62.9276 223.324H55.0725L54.3418 225.654C52.8803 224.557 51.6473 223.05 50.6425 221.315C50.1858 220.402 49.9118 219.442 49.7748 218.62C48.4961 202.225 61.0551 205.696 61.0551 205.696C69.504 205.057 69.2299 212.501 68.5906 217.068Z" fill="#324A5E"/>
<path d="M63.978 201.083C64.3433 196.882 57.6756 197.156 57.6756 197.156C47.5827 198.617 46.4866 208.025 46.4866 208.025L47.8567 206.381C45.7103 211.085 48.9528 219.168 49.2268 219.808C50.9166 225.425 54.6614 230.586 59 230.586C63.3386 230.586 67.0835 225.425 68.7732 219.808V219.762C68.9559 219.077 69.1386 218.392 69.2756 217.707H69.2299C70.1433 214.054 71.1481 210.354 71.1481 210.354C73.7512 197.247 63.978 201.083 63.978 201.083ZM68.5906 217.068C68.1795 219.899 66.9465 222.548 64.8914 224.557C64.4803 224.968 64.0693 225.288 63.6583 225.608L62.9276 223.324H55.0725L54.3418 225.654C52.8803 224.557 49.8205 221.498 49.7748 218.62C48.4961 202.225 61.0551 205.696 61.0551 205.696C69.504 205.057 69.2299 212.501 68.5906 217.068Z" fill="#324A5E"/>
<path d="M55.8032 224.877C56.5795 225.745 57.7213 226.339 59 226.339C60.2788 226.339 61.4205 225.791 62.1969 224.877H55.8032Z" fill="white"/>
</g>
<rect x="367.5" y="75.5" width="59" height="59" rx="29.5" fill="#FFE8EC"/>
<rect x="367.5" y="75.5" width="59" height="59" rx="29.5" stroke="#F2ECF6"/>
<path d="M390.509 113.485H388.595L387.858 113.564C386.85 113.677 385.887 113.972 384.992 114.448C384.097 114.912 383.27 115.547 382.557 116.328C381.05 117.959 380.121 120.146 379.94 122.468L379.543 127.77C380.11 128.291 380.699 128.789 381.311 129.254C379.94 128.37 378.648 127.362 377.459 126.263L377.912 120.327C378.116 117.722 379.147 115.275 380.835 113.44C381.639 112.567 382.568 111.865 383.565 111.332C384.562 110.811 385.638 110.472 386.771 110.347L387.609 110.245L387.564 110.268C388.538 111.355 389.523 112.409 390.509 113.485ZM412.701 129.254C413.312 128.789 413.902 128.291 414.468 127.77L414.071 122.468C413.89 120.146 412.961 117.959 411.443 116.328C410.73 115.547 409.914 114.924 409.008 114.448C408.113 113.983 407.15 113.677 406.153 113.564L405.405 113.485L405.439 113.496H403.491C404.465 112.42 405.462 111.355 406.459 110.29L406.414 110.268L407.252 110.37C408.373 110.494 409.45 110.834 410.446 111.355C411.466 111.888 412.372 112.59 413.177 113.462C414.864 115.297 415.907 117.744 416.111 120.35L416.552 126.286C415.352 127.362 414.071 128.37 412.701 129.254Z" fill="#ED6485"/>
<path d="M414.457 127.77C413.89 128.291 413.301 128.789 412.689 129.254C412.678 129.265 412.667 129.265 412.667 129.276C408.158 132.188 402.789 133.887 397.011 133.887C391.223 133.887 385.842 132.188 381.333 129.276C381.322 129.265 381.311 129.265 381.311 129.254C380.699 128.789 380.11 128.291 379.543 127.77L379.94 122.468C380.121 120.146 381.05 117.959 382.557 116.328C383.27 115.547 384.097 114.924 384.992 114.448C385.887 113.983 386.85 113.677 387.858 113.564L388.595 113.485H390.509C390.86 113.87 391.211 114.255 391.574 114.629C391.087 115.082 390.622 115.535 390.135 115.988C392.333 120.565 394.519 125.142 396.694 129.707C396.796 129.922 396.898 130.126 397.011 130.341C397.102 130.137 397.215 129.933 397.306 129.707C399.504 125.142 401.69 120.565 403.888 115.988C403.4 115.535 402.925 115.082 402.449 114.629C402.8 114.244 403.14 113.87 403.502 113.496H405.451L405.417 113.485L406.164 113.564C407.161 113.677 408.124 113.972 409.019 114.448C409.925 114.912 410.741 115.547 411.455 116.328C412.961 117.959 413.902 120.146 414.083 122.468L414.457 127.77Z" fill="#FF7186"/>
<path d="M397.295 129.707C397.204 129.922 397.102 130.126 397 130.33C396.887 130.126 396.796 129.922 396.694 129.707C394.508 125.13 392.31 120.565 390.124 115.988C390.611 115.535 391.075 115.082 391.562 114.629C390.226 113.179 388.878 111.74 387.541 110.29L387.586 110.279L392.401 108.195C392.537 108.138 392.695 108.24 392.707 108.41L392.786 109.667V109.724L397 128.359L397.295 129.707Z" fill="#FF4155"/>
<path d="M402.438 114.629C402.902 115.082 403.389 115.535 403.876 115.988C401.679 120.565 399.492 125.142 397.295 129.707L397 128.359L401.214 109.701V109.645L401.282 108.387C401.293 108.217 401.441 108.115 401.588 108.172L406.414 110.256L406.459 110.268C405.111 111.729 403.774 113.179 402.438 114.629Z" fill="#FF4155"/>
<path d="M406.448 95.3485V101.171C406.448 105.034 404.137 107.107 400.818 107.911L399.934 103.856C400.025 103.811 400.104 103.754 400.195 103.709C402.936 102.032 404.816 99.0981 404.986 95.6883C404.998 95.5184 404.998 95.3485 404.998 95.1786V94.7141L406.448 95.3485ZM394.123 103.879L393.205 107.911C389.897 107.096 387.586 105.034 387.586 101.171V97.2743C387.586 97.0817 387.586 96.8891 387.575 96.6965L389.104 96.4247C389.127 96.5946 389.161 96.7758 389.184 96.9571C389.682 99.8344 391.438 102.281 393.862 103.743C393.941 103.799 394.032 103.845 394.123 103.879Z" fill="#1C2E7A"/>
<path d="M406.448 94.1363V95.3484L404.998 94.7141C403.434 93.9891 401.701 92.9469 400.036 91.4855C399.741 91.2363 399.47 90.9871 399.198 90.7379C399.096 90.6359 398.994 90.534 398.892 90.4434H398.711C399.311 89.5824 399.934 88.5629 400.5 87.3734C400.772 86.7844 401.01 86.2293 401.214 85.6855C401.475 85.8102 401.735 85.9574 401.984 86.1047C402.607 86.4898 403.174 86.943 403.684 87.4527C405.405 89.1746 406.448 91.5309 406.448 94.1363Z" fill="#2A428C"/>
<path d="M401.214 85.6969C401.01 86.2407 400.772 86.7958 400.5 87.3848C399.934 88.5856 399.311 89.6051 398.711 90.4547C398.201 90.9985 397.646 91.5309 397.045 92.052C395.335 93.5247 393.409 94.7254 391.347 95.609C390.634 95.9149 389.897 96.1868 389.15 96.402C388.651 96.5493 388.119 96.5946 387.609 96.6852C387.598 96.6852 387.586 96.6852 387.575 96.6965C387.564 95.5977 387.507 94.4989 387.609 93.4114C387.926 90.0356 390.045 87.0223 393.114 85.5723C394.213 85.0512 395.403 84.768 396.615 84.7114C396.751 84.6887 396.875 84.6887 397.011 84.6887C398.529 84.7 399.957 85.0512 401.214 85.6969Z" fill="#335296"/>
<path d="M401.214 109.713L400.557 112.601L397 128.359L396.252 125.051L398.609 114.584L399.266 111.684L399.209 111.423C398.393 111.91 397.057 112.511 395.346 112.613C394.655 112.658 394.009 112.613 393.42 112.499L392.786 109.701L392.797 109.679C393.839 110.211 395.391 110.755 397.295 110.641C399.016 110.54 400.342 109.939 401.157 109.452L401.214 109.713Z" fill="#FFDD40"/>
<path d="M399.266 111.684L398.609 114.572L396.252 125.051L393.432 112.601L393.409 112.511C393.998 112.624 394.644 112.669 395.335 112.624C397.057 112.522 398.382 111.922 399.198 111.434L399.266 111.684Z" fill="#FFE98D"/>
<path d="M401.157 109.452C400.342 109.939 399.005 110.54 397.295 110.642C395.391 110.755 393.839 110.222 392.797 109.679L393.205 107.911L394.123 103.879C394.417 104.06 394.723 104.207 395.04 104.343C395.391 104.49 395.743 104.615 396.105 104.728C396.694 104.909 397.329 104.909 397.929 104.728C398.291 104.615 398.643 104.502 398.971 104.343C399.311 104.207 399.628 104.037 399.945 103.856L400.829 107.911L401.157 109.452Z" fill="#FD995B"/>
<path d="M404.998 94.7255V95.1899C404.998 95.3598 404.986 95.5298 404.986 95.6997C404.816 99.0981 402.936 102.043 400.195 103.72C400.104 103.777 400.025 103.822 399.934 103.867C399.617 104.049 399.3 104.207 398.96 104.354C398.631 104.502 398.28 104.626 397.918 104.74C397.329 104.921 396.694 104.921 396.094 104.74C396.082 104.74 396.071 104.728 396.071 104.728C396.082 104.728 396.082 104.717 396.094 104.717C396.49 104.604 396.864 104.468 397.215 104.309C397.578 104.15 397.929 103.981 398.269 103.788C398.371 103.731 398.45 103.686 398.552 103.629C401.52 101.817 403.559 98.6337 403.74 94.9407C403.752 94.7594 403.752 94.5782 403.752 94.3969V94.1024C404.182 94.329 404.601 94.5329 404.998 94.7255Z" fill="#FCAD6D"/>
<path d="M403.763 94.1024V94.3969C403.763 94.5781 403.752 94.7594 403.752 94.9406C403.57 98.6223 401.531 101.805 398.563 103.629C398.461 103.686 398.382 103.743 398.28 103.788C397.94 103.98 397.589 104.15 397.227 104.309C396.875 104.468 396.502 104.604 396.105 104.717C396.094 104.717 396.094 104.728 396.082 104.728C395.731 104.615 395.38 104.502 395.04 104.354C394.723 104.218 394.417 104.071 394.123 103.89C394.032 103.856 393.953 103.799 393.862 103.754C391.438 102.304 389.682 99.8457 389.184 96.9684C389.15 96.7985 389.116 96.6172 389.104 96.436C389.308 96.3793 389.535 96.3114 389.761 96.2321C393.103 95.0879 396.184 93.1395 398.609 90.568C398.643 90.534 398.677 90.4887 398.722 90.4547H398.903C399.005 90.5567 399.107 90.6473 399.209 90.7492C399.481 90.9985 399.753 91.2477 400.047 91.4969C400.546 91.9274 401.033 92.3239 401.531 92.675C402.279 93.2301 403.038 93.6946 403.763 94.1024Z" fill="#F9BA8F"/>
<rect x="434" y="192" width="60" height="60" rx="30" fill="#F2ECF6"/>
<g clip-path="url(#clip4_246_1724)">
<path d="M464 250.989C480.013 250.989 492.994 238.007 492.994 221.994C492.994 205.981 480.013 193 464 193C447.987 193 435.006 205.981 435.006 221.994C435.006 238.007 447.987 250.989 464 250.989Z" fill="#90DFAA"/>
<path d="M470.339 228.436C470.706 229.217 470.947 230.044 471.177 230.871C471.452 231.847 471.739 232.823 472.015 233.799C472.486 235.464 472.957 237.278 472.302 238.874C471.923 239.793 471.223 240.528 470.488 241.205C469.684 241.94 468.834 242.629 467.939 243.261C467.158 243.812 466.331 244.317 465.412 244.593C464.425 244.88 463.38 244.88 462.346 244.857C461.68 244.845 460.991 244.822 460.394 244.524C459.901 244.283 459.51 243.858 459.2 243.398C458.063 241.699 458.029 239.517 458.029 237.473C458.04 234.338 458.052 231.204 458.052 228.057C458.052 227.483 458.052 226.897 458.201 226.335C458.66 224.624 460.417 223.556 462.163 223.246C462.852 223.12 463.575 223.085 464.264 223.234C464.907 223.372 465.504 223.682 466.078 224.015C467.858 225.083 469.454 226.564 470.339 228.436Z" fill="#E6E9EE"/>
<path d="M464 213.428C461.612 213.428 459.682 218.102 459.682 221.133C459.682 222.901 460.348 224.486 461.382 225.485C461.508 225.474 461.703 225.451 461.749 225.451C461.945 225.451 462.163 225.474 462.346 225.531C462.53 225.588 462.725 225.657 462.898 225.749C462.932 225.772 463.047 225.841 463.127 225.898C463.162 225.91 463.196 225.933 463.242 225.956C463.368 226.013 463.472 226.082 463.587 226.162C463.678 226.231 463.759 226.289 463.851 226.346C463.908 226.381 463.954 226.415 464 226.45H464.011C464.126 226.346 464.299 226.254 464.425 226.174C464.505 226.128 464.574 226.082 464.666 226.048C464.781 226.002 464.85 225.956 464.907 225.933C464.953 225.841 465.47 225.669 465.504 225.657C465.814 225.554 466.101 225.577 466.423 225.623C466.434 225.623 466.446 225.623 466.457 225.634C467.594 224.647 468.341 222.993 468.341 221.122C468.318 218.113 466.388 213.428 464 213.428Z" fill="#F9B54C"/>
<path d="M451.346 247.096C451.403 247.429 451.438 247.773 451.472 248.152C449.072 247.004 446.856 245.534 444.881 243.789C445.983 231.008 448.188 227.414 448.188 227.414L448.2 227.437L452.529 234.442L450.772 245.213V245.224C451.036 245.695 451.22 246.338 451.346 247.096Z" fill="#324A5E"/>
<path d="M465.137 250.966C464.758 250.977 464.379 250.989 464 250.989C463.621 250.989 463.242 250.977 462.863 250.966C458.844 250.816 455.043 249.84 451.61 248.21C451.53 247.796 451.438 247.429 451.346 247.096C451.059 246.005 450.806 245.305 450.772 245.213V245.201C451.61 236.084 448.383 227.874 448.211 227.426C448.211 227.414 448.2 227.403 448.2 227.403C449.107 226.346 453.355 225.313 456.054 224.739C457.386 224.463 458.35 224.291 458.35 224.291L458.282 225.761L458.327 226.002L459.235 231.766C459.235 231.766 461.52 237.209 463.277 241.733C463.277 241.745 463.288 241.756 463.288 241.756C463.541 242.434 463.793 243.088 464.023 243.708C464.046 243.766 464.057 243.823 464.08 243.881C464.161 244.122 464.253 244.363 464.333 244.593C464.356 244.662 464.379 244.719 464.402 244.788C464.448 244.926 464.505 245.063 464.54 245.201C464.746 245.787 464.884 246.591 464.988 247.544C465.056 248.164 465.091 248.864 465.125 249.599C465.125 250.047 465.137 250.495 465.137 250.966Z" fill="#2B3B4E"/>
<path d="M459.304 221.891C459.304 221.891 462.335 241.423 464.528 245.213C464.528 245.213 458.178 241.515 455.686 229.55L457.558 228.907L454.837 226.645C454.837 226.645 456.261 223.579 459.304 221.891Z" fill="#324A5E"/>
<path d="M464 226.45C464 226.45 460.877 224.314 459.453 228.31C459.453 228.31 458.752 221.523 459.763 220.272C459.763 220.283 460.773 223.74 464 226.45Z" fill="white"/>
<path d="M477.24 245.213L475.483 234.43L479.812 227.426C479.812 227.414 479.823 227.403 479.823 227.403C479.823 227.403 482.028 230.997 483.13 243.777C481.155 245.511 478.939 246.981 476.539 248.141C476.574 247.773 476.608 247.417 476.666 247.084C476.78 246.338 476.964 245.695 477.24 245.213Z" fill="#2B3B4E"/>
<path d="M479.8 227.437C479.628 227.885 476.401 236.095 477.24 245.213V245.224C477.205 245.316 476.941 246.005 476.666 247.107C476.585 247.44 476.493 247.819 476.401 248.221C472.968 249.852 469.167 250.816 465.148 250.977C464.769 250.989 464.39 251 464.011 251C463.633 251 463.254 250.989 462.875 250.977C462.898 248.531 463.07 246.418 463.483 245.224C463.518 245.109 463.564 244.994 463.61 244.88C463.633 244.799 463.667 244.707 463.701 244.627C463.782 244.397 463.862 244.168 463.954 243.915L464.023 243.743C464.253 243.123 464.505 242.457 464.758 241.779V241.768C466.503 237.232 468.8 231.801 468.8 231.801L469.546 227.093L469.753 225.795L469.684 224.325C469.684 224.325 470.649 224.498 471.992 224.773C474.702 225.347 478.928 226.381 479.846 227.437C479.812 227.414 479.812 227.426 479.8 227.437Z" fill="#324A5E"/>
<path d="M468.696 221.891C468.696 221.891 465.665 241.423 463.472 245.213C463.472 245.213 469.822 241.515 472.314 229.55L470.442 228.907L473.163 226.645C473.163 226.645 471.739 223.579 468.696 221.891Z" fill="#2B3B4E"/>
<path d="M464 226.45C464 226.45 467.123 224.314 468.547 228.31C468.547 228.31 469.248 221.523 468.237 220.272C468.237 220.283 467.227 223.74 464 226.45Z" fill="white"/>
<path d="M465.493 249.679C466.114 249.679 466.618 249.176 466.618 248.554C466.618 247.933 466.114 247.429 465.493 247.429C464.871 247.429 464.367 247.933 464.367 248.554C464.367 249.176 464.871 249.679 465.493 249.679Z" fill="#2B3B4E"/>
<path d="M472.555 211.798C471.969 213.244 470.534 214.772 469.638 214.507C468.742 214.243 468.731 212.303 469.328 210.856C469.914 209.409 470.89 209.019 471.774 209.271C472.67 209.535 473.152 210.351 472.555 211.798ZM455.445 211.798C456.031 213.244 457.466 214.772 458.362 214.507C459.258 214.243 459.269 212.303 458.672 210.856C458.086 209.409 457.11 209.019 456.226 209.271C455.33 209.535 454.848 210.351 455.445 211.798Z" fill="#F9B54C"/>
<path d="M464 220.88C467.843 220.88 470.959 216.845 470.959 211.866C470.959 206.888 467.843 202.852 464 202.852C460.157 202.852 457.041 206.888 457.041 211.866C457.041 216.845 460.157 220.88 464 220.88Z" fill="#FFD05B"/>
<path d="M467.583 209.122L466.239 203.702C466.239 203.702 468.008 201.589 468.49 201.658C468.961 201.727 471.648 204.575 471.648 204.575V210.282L470.913 211.763L468.019 210.5L467.583 209.122ZM462.358 204.299L457.994 203.472L456.525 204.931L456.272 208.134L457.11 211.66L462.702 210.144L462.358 204.299Z" fill="#FFD05B"/>
<path d="M462.875 199.063C462.875 199.063 465.102 195.343 469.271 199.063C469.271 199.063 468.122 198.891 467.571 199.063C467.571 199.063 474.518 199.534 472.716 207.526C472.716 207.526 472.784 209.719 470.913 211.775C470.913 211.775 473.071 202.6 467.399 204.827C467.399 204.827 463.713 206.906 461.072 204.736C461.072 204.736 455.996 203.266 457.11 211.648C457.11 211.648 451.208 201.038 457.73 199.695C457.73 199.695 459.43 196.009 465.654 196.973C465.654 196.973 463.472 196.973 462.875 199.063Z" fill="#324A5E"/>
</g>
<path d="M100 211.5L112.71 202.813C147.681 178.912 192.959 176.171 230.559 195.677L236 198.5M309 198.5L315.091 195.387C351.885 176.581 396.542 183.04 426.5 211.5V211.5M286.5 181V181C295.199 148.304 323.481 124.583 357.192 121.708L365.5 121M258.5 181V181C250.877 147.765 224.656 121.978 191.299 114.911L187 114" stroke="#400567" stroke-width="1.5" stroke-dasharray="4 4"/>
</g>
<defs>
<linearGradient id="paint0_linear_246_1724" x1="256.838" y1="197.408" x2="286.005" y2="245.397" gradientUnits="userSpaceOnUse">
<stop stop-color="#DEACFF"/>
<stop offset="1" stop-color="#BF60FE"/>
</linearGradient>
<linearGradient id="paint1_linear_246_1724" x1="264.138" y1="206.755" x2="282.123" y2="232.924" gradientUnits="userSpaceOnUse">
<stop stop-color="#DEACFF"/>
<stop offset="1" stop-color="#BF60FE"/>
</linearGradient>
<clipPath id="clip0_246_1724">
<rect width="494" height="292" fill="white"/>
</clipPath>
<clipPath id="clip1_246_1724">
<rect width="276" height="276" fill="white" transform="translate(127 109)"/>
</clipPath>
<clipPath id="clip2_246_1724">
<rect width="58" height="58" fill="white" transform="translate(123 74)"/>
</clipPath>
<clipPath id="clip3_246_1724">
<rect width="58" height="58" fill="white" transform="translate(30 193)"/>
</clipPath>
<clipPath id="clip4_246_1724">
<rect width="58" height="58" fill="white" transform="translate(435 193)"/>
</clipPath>
</defs>
</svg>
