<svg width="70" height="70" viewBox="0 0 70 70" fill="none" xmlns="http://www.w3.org/2000/svg">
<g filter="url(#filter0_d_506_51)">
<rect x="9" y="5" width="52" height="52" rx="12" fill="url(#paint0_linear_506_51)"/>
<path d="M32.9084 32.3009C32.9084 31.0501 33.592 29.9301 34.6974 29.3774L37.6063 27.8939C38.0717 27.6612 38.5808 27.5448 39.0899 27.5448H43.0896V20.9998C43.0896 18.789 41.3006 17 39.0899 17H25.9998C23.789 17 22 18.789 22 20.9998V39.9077C22 42.1185 23.789 43.9074 25.9998 43.9074H35.9773C34.0046 41.785 32.9082 38.9947 32.9084 36.097V32.3009ZM25.9998 21.3634H36.181C36.4703 21.3634 36.7477 21.4783 36.9523 21.6829C37.1569 21.8874 37.2718 22.1649 37.2718 22.4542C37.2718 22.7435 37.1569 23.021 36.9523 23.2256C36.7477 23.4301 36.4703 23.5451 36.181 23.5451H25.9998C25.7104 23.5451 25.433 23.4301 25.2284 23.2256C25.0238 23.021 24.9089 22.7435 24.9089 22.4542C24.9089 22.1649 25.0238 21.8874 25.2284 21.6829C25.433 21.4783 25.7104 21.3634 25.9998 21.3634ZM30.3631 32.2718H25.9998C25.7104 32.2718 25.433 32.1569 25.2284 31.9523C25.0238 31.7477 24.9089 31.4703 24.9089 31.181C24.9089 30.8916 25.0238 30.6142 25.2284 30.4096C25.433 30.205 25.7104 30.0901 25.9998 30.0901H30.3631C30.6524 30.0901 30.9299 30.205 31.1345 30.4096C31.339 30.6142 31.454 30.8916 31.454 31.181C31.454 31.4703 31.339 31.7477 31.1345 31.9523C30.9299 32.1569 30.6524 32.2718 30.3631 32.2718ZM31.8176 27.9084H25.9998C25.7104 27.9084 25.433 27.7935 25.2284 27.5889C25.0238 27.3844 24.9089 27.1069 24.9089 26.8176C24.9089 26.5283 25.0238 26.2508 25.2284 26.0462C25.433 25.8417 25.7104 25.7267 25.9998 25.7267H31.8176C32.1069 25.7267 32.3844 25.8417 32.5889 26.0462C32.7935 26.2508 32.9084 26.5283 32.9084 26.8176C32.9084 27.1069 32.7935 27.3844 32.5889 27.5889C32.3844 27.7935 32.1069 27.9084 31.8176 27.9084ZM48.3111 31.3206L45.4022 29.8443C45.2488 29.7669 45.0795 29.7266 44.9077 29.7265H39.0899C38.9181 29.7268 38.7488 29.7672 38.5954 29.8443L35.6864 31.3206C35.5069 31.4119 35.3561 31.5511 35.2509 31.7229C35.1456 31.8946 35.09 32.0922 35.0901 32.2936V36.1014C35.0901 39.9659 37.5045 43.4755 41.1028 44.8354C41.6815 45.0554 42.3208 45.0549 42.8991 44.8339C46.493 43.4755 48.9074 39.9659 48.9074 36.1014V32.2936C48.9076 32.0922 48.8519 31.8946 48.7467 31.7229C48.6414 31.5511 48.4907 31.4119 48.3111 31.3206ZM44.995 35.8905L42.3769 38.8212C42.2742 38.9355 42.1486 39.0268 42.0083 39.0894C41.868 39.1519 41.7161 39.1842 41.5624 39.1842C41.4088 39.1842 41.2569 39.1519 41.1166 39.0894C40.9762 39.0268 40.8507 38.9355 40.7479 38.8212L39.0026 36.8664C38.9072 36.7595 38.8338 36.6348 38.7866 36.4994C38.7394 36.3641 38.7193 36.2208 38.7274 36.0777C38.7356 35.9346 38.7719 35.7945 38.8342 35.6654C38.8965 35.5364 38.9836 35.4208 39.0906 35.3254C39.1976 35.23 39.3223 35.1566 39.4576 35.1094C39.5929 35.0622 39.7362 35.0421 39.8793 35.0503C40.0224 35.0584 40.1625 35.0947 40.2916 35.157C40.4206 35.2193 40.5362 35.3065 40.6316 35.4134L41.5639 36.4563L43.3674 34.436C43.5601 34.22 43.8307 34.0894 44.1197 34.0729C44.4087 34.0564 44.6924 34.1553 44.9084 34.348C45.1244 34.5407 45.2551 34.8113 45.2716 35.1003C45.2881 35.3893 45.1891 35.673 44.9964 35.889L44.995 35.8905Z" fill="url(#paint1_linear_506_51)"/>
</g>
<defs>
<filter id="filter0_d_506_51" x="0.2" y="0.2" width="69.6" height="69.6" filterUnits="userSpaceOnUse" color-interpolation-filters="sRGB">
<feFlood flood-opacity="0" result="BackgroundImageFix"/>
<feColorMatrix in="SourceAlpha" type="matrix" values="0 0 0 0 0 0 0 0 0 0 0 0 0 0 0 0 0 0 127 0" result="hardAlpha"/>
<feOffset dy="4"/>
<feGaussianBlur stdDeviation="4.4"/>
<feComposite in2="hardAlpha" operator="out"/>
<feColorMatrix type="matrix" values="0 0 0 0 0.981875 0 0 0 0 0.911572 0 0 0 0 0.836875 0 0 0 1 0"/>
<feBlend mode="normal" in2="BackgroundImageFix" result="effect1_dropShadow_506_51"/>
<feBlend mode="normal" in="SourceGraphic" in2="effect1_dropShadow_506_51" result="shape"/>
</filter>
<linearGradient id="paint0_linear_506_51" x1="35" y1="5" x2="35" y2="57" gradientUnits="userSpaceOnUse">
<stop stop-color="white"/>
<stop offset="1" stop-color="#FDF2E5"/>
</linearGradient>
<linearGradient id="paint1_linear_506_51" x1="35" y1="9" x2="35" y2="44.5" gradientUnits="userSpaceOnUse">
<stop stop-color="#E69137"/>
<stop offset="1" stop-color="#EAC49D"/>
</linearGradient>
</defs>
</svg>
