<svg width="494" height="310" viewBox="0 0 494 310" fill="none" xmlns="http://www.w3.org/2000/svg">
<g filter="url(#filter0_d_506_62)">
<path d="M304.777 205.733C304.777 207.711 306.381 209.315 308.36 209.315C310.338 209.315 311.942 207.711 311.942 205.733C311.942 203.754 310.338 202.15 308.36 202.15C306.381 202.15 304.777 203.754 304.777 205.733ZM380.013 74.5182L379.67 73.9403L379.66 73.9463L380.013 74.5182ZM187.445 200.359C187.445 202.337 189.049 203.941 191.028 203.941C193.007 203.941 194.611 202.337 194.611 200.359C194.611 198.38 193.007 196.776 191.028 196.776C189.049 196.776 187.445 198.38 187.445 200.359ZM145.349 227.228L145.687 227.809L145.69 227.807L145.349 227.228ZM106.473 201.875L106.106 202.437L106.473 201.875ZM121.274 248.684L120.899 249.241L121.274 248.684ZM121.522 241.098L121.184 240.518L121.522 241.098ZM339.224 231.127L339.56 231.708L339.224 231.127ZM132.411 114.037L132.051 114.604L132.411 114.037ZM127.774 113.938L127.439 113.356L127.774 113.938ZM136.211 74.005L136.577 73.4421L136.211 74.005ZM136.401 66.3828L136.063 65.8024L136.401 66.3828ZM411.973 55.5647L411.631 54.9869L411.973 55.5647ZM411.944 47.8434L412.282 47.263L411.944 47.8434ZM308.026 206.316L338.874 223.943L339.541 222.777L308.693 205.149L308.026 206.316ZM338.888 230.545L290.558 258.443L291.23 259.606L339.56 231.708L338.888 230.545ZM336.03 102.408L380.365 75.0901L379.66 73.9463L335.325 101.264L336.03 102.408ZM379.678 75.1008L458.496 120.332L459.165 119.166L380.347 73.9355L379.678 75.1008ZM380.355 75.0959L412.316 56.1425L411.631 54.9869L379.67 73.9404L380.355 75.0959ZM412.282 47.263L361.99 17.9589L361.313 19.1197L411.605 48.4238L412.282 47.263ZM198.56 113.812L136.577 73.4421L135.844 74.5679L197.827 114.938L198.56 113.812ZM136.739 66.9633L176.588 43.7504L175.911 42.5896L136.063 65.8024L136.739 66.9633ZM163.623 133.065L132.771 113.47L132.051 114.604L162.902 134.199L163.623 133.065ZM127.439 113.356L38.8778 164.398L39.5487 165.562L128.11 114.52L127.439 113.356ZM120.899 249.241L162.887 277.495L163.637 276.38L121.649 248.127L120.899 249.241ZM190.687 199.78L145.009 226.649L145.69 227.807L191.368 200.938L190.687 199.78ZM145.011 226.648L121.184 240.518L121.86 241.679L145.687 227.809L145.011 226.648ZM145.716 226.666L106.84 201.312L106.106 202.437L144.982 227.791L145.716 226.666ZM101.416 201.187L58.1294 226.649L58.8106 227.807L102.097 202.345L101.416 201.187ZM106.84 201.312C105.203 200.244 103.101 200.195 101.416 201.187L102.097 202.345C103.343 201.612 104.896 201.648 106.106 202.437L106.84 201.312ZM121.649 248.127C119.319 246.558 119.432 243.092 121.86 241.679L121.184 240.518C117.899 242.43 117.746 247.119 120.899 249.241L121.649 248.127ZM338.874 223.943C341.425 225.401 341.433 229.076 338.888 230.545L339.56 231.708C343.003 229.721 342.992 224.749 339.541 222.777L338.874 223.943ZM132.771 113.47C131.154 112.443 129.099 112.398 127.439 113.356L128.11 114.52C129.337 113.812 130.855 113.845 132.051 114.604L132.771 113.47ZM136.577 73.4421C134.203 71.8956 134.29 68.3896 136.739 66.9633L136.063 65.8024C132.75 67.7321 132.632 72.4755 135.844 74.5679L136.577 73.4421ZM412.316 56.1425C415.695 54.1385 415.676 49.2409 412.282 47.263L411.605 48.4238C414.114 49.8857 414.128 53.5057 411.631 54.9869L412.316 56.1425Z" fill="#F5AD42"/>
</g>
<g filter="url(#filter1_d_506_62)">
<g clip-path="url(#clip0_506_62)">
<rect width="148.68" height="175.55" rx="10.7479" transform="matrix(0.866025 0.5 -0.866025 0.5 277.907 68.2485)" fill="white"/>
<path d="M265.196 90.419C265.817 90.0607 266.512 89.7932 267.281 89.6165C268.067 89.4398 268.866 89.3514 269.677 89.3514C270.487 89.3514 271.278 89.4398 272.047 89.6165C272.833 89.7932 273.536 90.0607 274.157 90.419C274.579 90.6626 274.926 90.9301 275.199 91.2215C275.481 91.5177 275.688 91.8234 275.82 92.1387C275.961 92.4492 276.023 92.7668 276.006 93.0917C275.989 93.4165 275.903 93.7341 275.745 94.0446L273.226 93.6076C273.408 93.2445 273.42 92.8743 273.263 92.4969C273.106 92.1196 272.779 91.7876 272.283 91.501C271.927 91.2956 271.518 91.1403 271.054 91.0352C270.607 90.9301 270.144 90.8776 269.664 90.8776C269.201 90.8776 268.742 90.9277 268.287 91.0281C267.84 91.1331 267.434 91.2908 267.07 91.501C266.715 91.7064 266.442 91.9404 266.251 92.2032C266.078 92.4659 265.987 92.7334 265.978 93.0057C265.978 93.2827 266.065 93.5526 266.239 93.8154C266.429 94.0781 266.702 94.3121 267.058 94.5176C267.554 94.8042 268.129 94.9929 268.783 95.0836C269.453 95.1744 270.111 95.1624 270.756 95.0478L271.513 96.5167C270.976 96.6074 270.417 96.6576 269.838 96.6671C269.275 96.6767 268.717 96.6409 268.163 96.5597C267.616 96.4832 267.087 96.3638 266.574 96.2014C266.069 96.0438 265.606 95.8431 265.184 95.5995C264.563 95.2412 264.096 94.8376 263.782 94.3886C263.484 93.9396 263.335 93.481 263.335 93.0128C263.343 92.5399 263.496 92.079 263.794 91.6299C264.108 91.1809 264.576 90.7773 265.196 90.419ZM275.14 101.347C274.519 100.989 274.052 100.586 273.737 100.136C273.439 99.6875 273.29 99.2289 273.29 98.7608C273.299 98.2878 273.452 97.8269 273.75 97.3779C274.064 96.9288 274.532 96.5252 275.152 96.1669C275.773 95.8087 276.468 95.5411 277.237 95.3644C278.023 95.1877 278.821 95.0993 279.632 95.0993C280.443 95.0993 281.233 95.1877 282.003 95.3644C282.789 95.5411 283.492 95.8087 284.113 96.1669C284.733 96.5252 285.192 96.9288 285.49 97.3778C285.805 97.8269 285.962 98.2855 285.962 98.7536C285.962 99.2217 285.805 99.6803 285.49 100.129C285.192 100.578 284.733 100.982 284.113 101.34C283.492 101.699 282.789 101.966 282.003 102.143C281.233 102.32 280.439 102.41 279.62 102.415C278.809 102.415 278.011 102.327 277.225 102.15C276.455 101.973 275.76 101.706 275.14 101.347ZM277.014 100.265C277.378 100.476 277.783 100.633 278.23 100.738C278.685 100.839 279.152 100.889 279.632 100.889C280.112 100.889 280.575 100.836 281.022 100.731C281.486 100.626 281.895 100.471 282.251 100.265C282.615 100.055 282.884 99.8188 283.058 99.5561C283.24 99.2981 283.327 99.033 283.318 98.7608C283.318 98.4837 283.227 98.2162 283.045 97.9582C282.871 97.6955 282.603 97.4591 282.239 97.2489C281.883 97.0435 281.473 96.8882 281.01 96.7831C280.563 96.678 280.1 96.6255 279.62 96.6255C279.157 96.6255 278.697 96.6757 278.242 96.776C277.796 96.8811 277.39 97.0387 277.026 97.2489C276.67 97.4543 276.397 97.6883 276.207 97.9511C276.033 98.2138 275.942 98.4813 275.934 98.7536C275.934 99.0306 276.021 99.3005 276.195 99.5633C276.385 99.826 276.658 100.06 277.014 100.265ZM290.637 104.763L297.128 103.81L297.14 103.832L297.153 103.825L299.027 104.907L290.339 109.922L288.465 108.84L293.727 105.802L287.82 106.662L287.361 106.397L288.85 102.972L283.576 106.017L281.714 104.942L290.401 99.9268L292.263 101.002L292.251 101.009L292.288 101.016L290.637 104.763ZM297.138 110.494L294.234 112.171L292.373 111.096L301.06 106.081L304.299 107.951C304.696 108.18 304.998 108.44 305.205 108.732C305.412 109.023 305.511 109.319 305.503 109.62C305.511 109.921 305.412 110.217 305.205 110.509C305.015 110.8 304.717 111.063 304.312 111.297C303.914 111.526 303.459 111.698 302.946 111.813C302.45 111.927 301.937 111.985 301.408 111.985C300.895 111.985 300.382 111.927 299.869 111.813C299.364 111.693 298.913 111.519 298.516 111.29L297.138 110.494ZM300.291 110.265C300.605 110.447 300.977 110.537 301.408 110.537C301.854 110.537 302.231 110.449 302.537 110.272C302.851 110.091 303.004 109.873 302.996 109.62C302.996 109.372 302.839 109.157 302.525 108.975L301.147 108.18L298.913 109.47L300.291 110.265ZM309.125 110.737L310.987 111.812L304.074 115.803L307.599 117.838L305.824 118.862L300.438 115.753L309.125 110.737ZM316.172 114.805L318.034 115.88L309.346 120.896L307.484 119.821L316.172 114.805ZM322.663 118.553L324.661 119.707L319.176 126.571L317.19 125.425L318.22 124.128L315.006 122.272L312.76 122.867L310.761 121.713L322.663 118.553ZM319.325 122.731L320.951 120.688L317.426 121.634L319.325 122.731ZM329.272 122.369L331.134 123.444L329.371 128.144L334.323 125.285L336.185 126.36L327.497 131.375L325.934 130.473L327.87 125.328L322.446 128.459L320.585 127.384L329.272 122.369ZM333.619 129.923C334.239 129.564 334.934 129.297 335.704 129.12C336.49 128.943 337.288 128.855 338.099 128.855C338.91 128.855 339.7 128.943 340.469 129.12C341.255 129.297 341.959 129.564 342.579 129.923C343.001 130.166 343.349 130.434 343.622 130.725C343.903 131.021 344.11 131.327 344.242 131.642C344.383 131.953 344.445 132.271 344.428 132.595C344.412 132.92 344.325 133.238 344.168 133.548L341.648 133.111C341.831 132.748 341.843 132.378 341.686 132.001C341.529 131.623 341.202 131.291 340.705 131.005C340.35 130.799 339.94 130.644 339.477 130.539C339.03 130.434 338.567 130.381 338.087 130.381C337.623 130.381 337.164 130.431 336.709 130.532C336.262 130.637 335.857 130.794 335.493 131.005C335.137 131.21 334.864 131.444 334.674 131.707C334.5 131.97 334.409 132.237 334.401 132.509C334.401 132.786 334.488 133.056 334.661 133.319C334.852 133.582 335.125 133.816 335.48 134.021C335.977 134.308 336.552 134.497 337.205 134.587C337.876 134.678 338.533 134.666 339.179 134.552L339.936 136.02C339.398 136.111 338.84 136.161 338.26 136.171C337.698 136.18 337.139 136.145 336.585 136.063C336.039 135.987 335.509 135.868 334.996 135.705C334.492 135.547 334.028 135.347 333.606 135.103C332.986 134.745 332.518 134.341 332.204 133.892C331.906 133.443 331.757 132.985 331.757 132.517C331.765 132.044 331.919 131.583 332.216 131.134C332.531 130.685 332.998 130.281 333.619 129.923ZM348.067 133.22L353.391 136.294L351.629 137.311L348.179 135.32L346.553 136.244L349.705 138.064L347.931 139.088L344.791 137.276L343.028 138.293L346.541 140.321L344.766 141.346L339.38 138.236L348.067 133.22Z" fill="#173E58"/>
<path d="M250.334 108.739C251.398 109.353 251.432 110.336 250.437 110.975L250.334 111.038L243.457 115.008C242.393 115.623 240.689 115.642 239.583 115.068L239.475 115.008L232.597 111.038C232.088 110.743 231.793 110.347 231.774 109.931C231.754 109.515 232.012 109.111 232.494 108.801L232.597 108.739L239.475 104.768C240.539 104.154 242.242 104.134 243.348 104.708L243.457 104.768L250.334 108.739ZM244.948 110.202C244.948 110.084 244.867 109.971 244.723 109.888C244.579 109.805 244.384 109.758 244.181 109.758L240.605 109.758L240.605 108.948L240.599 108.892C240.574 108.78 240.476 108.678 240.326 108.607C240.176 108.535 239.983 108.499 239.789 108.506C239.594 108.513 239.411 108.563 239.278 108.645C239.144 108.727 239.069 108.835 239.069 108.948L239.069 110.202L239.075 110.257C239.098 110.364 239.189 110.463 239.329 110.534C239.469 110.605 239.65 110.645 239.837 110.645L244.181 110.645L244.277 110.641C244.462 110.628 244.633 110.576 244.756 110.495C244.88 110.414 244.948 110.309 244.948 110.202Z" fill="#F5AD42"/>
<rect width="68.966" height="12.5393" rx="1.79132" transform="matrix(0.866025 0.5 -0.866025 0.5 258.53 113.471)" fill="#F5AD42" fill-opacity="0.08"/>
<path d="M231.718 119.486C232.782 120.101 232.816 121.084 231.821 121.723L231.718 121.786L224.841 125.756C223.777 126.37 222.073 126.39 220.967 125.816L220.859 125.756L213.981 121.786C213.472 121.491 213.177 121.095 213.158 120.679C213.138 120.263 213.396 119.859 213.878 119.549L213.981 119.486L220.859 115.516C221.923 114.901 223.626 114.882 224.732 115.456L224.841 115.516L231.718 119.486ZM226.332 120.949C226.332 120.832 226.251 120.719 226.107 120.636C225.963 120.553 225.768 120.506 225.565 120.506L221.989 120.506L221.989 119.696L221.983 119.64C221.958 119.528 221.86 119.426 221.71 119.354C221.56 119.283 221.368 119.247 221.173 119.254C220.978 119.261 220.795 119.31 220.662 119.393C220.528 119.475 220.453 119.583 220.453 119.696L220.453 120.949L220.459 121.005C220.482 121.112 220.573 121.211 220.713 121.282C220.853 121.353 221.034 121.393 221.221 121.393L225.565 121.393L225.661 121.389C225.846 121.376 226.017 121.324 226.14 121.243C226.264 121.162 226.332 121.057 226.332 120.949Z" fill="#F5AD42"/>
<rect width="38.5135" height="12.5393" rx="1.79132" transform="matrix(0.866025 0.5 -0.866025 0.5 239.914 124.219)" fill="#F5AD42" fill-opacity="0.08"/>
<rect x="-4.00392e-08" y="0.671746" width="11.1958" height="11.1958" rx="2.9109" transform="matrix(0.866025 0.5 -0.866025 0.5 204.816 125.45)" stroke="#F5AD42" stroke-width="1.34349"/>
<rect width="51.9484" height="12.5393" rx="1.79132" transform="matrix(0.866025 0.5 -0.866025 0.5 221.298 134.967)" fill="#F5AD42" fill-opacity="0.08"/>
<path d="M194.486 140.982C195.55 141.597 195.584 142.58 194.589 143.219L194.486 143.281L187.609 147.252C186.545 147.866 184.841 147.886 183.735 147.311L183.627 147.252L176.75 143.281C176.24 142.987 175.945 142.591 175.926 142.175C175.907 141.759 176.164 141.355 176.646 141.045L176.75 140.982L183.627 137.012C184.691 136.397 186.394 136.378 187.5 136.952L187.609 137.012L194.486 140.982ZM189.1 142.445C189.1 142.328 189.019 142.215 188.875 142.132C188.732 142.049 188.536 142.002 188.333 142.002L184.757 142.002L184.757 141.191L184.751 141.136C184.726 141.024 184.628 140.922 184.478 140.85C184.328 140.779 184.136 140.743 183.941 140.75C183.746 140.757 183.563 140.806 183.43 140.888C183.296 140.97 183.221 141.079 183.221 141.191L183.221 142.445L183.227 142.501C183.251 142.608 183.341 142.706 183.481 142.778C183.621 142.849 183.802 142.889 183.989 142.889L188.333 142.889L188.429 142.885C188.614 142.872 188.785 142.819 188.908 142.738C189.032 142.657 189.1 142.553 189.1 142.445Z" fill="#F5AD42"/>
<rect width="80.6096" height="12.5393" rx="1.79132" transform="matrix(0.866025 0.5 -0.866025 0.5 202.682 145.714)" fill="#F5AD42" fill-opacity="0.08"/>
<rect x="-4.00392e-08" y="0.671746" width="11.1958" height="11.1958" rx="2.9109" transform="matrix(0.866025 0.5 -0.866025 0.5 167.584 146.946)" stroke="#F5AD42" stroke-width="1.34349"/>
<rect width="45.6787" height="12.5393" rx="1.79132" transform="matrix(0.866025 0.5 -0.866025 0.5 184.067 156.463)" fill="#F5AD42" fill-opacity="0.08"/>
</g>
</g>
<g filter="url(#filter2_d_506_62)">
<circle cx="20.6074" cy="20.6074" r="20.6074" transform="matrix(0.866025 0.5 -0.866025 0.5 184.625 16.7479)" fill="white"/>
</g>
<g filter="url(#filter3_d_506_62)">
<circle cx="20.6074" cy="20.6074" r="20.6074" transform="matrix(0.866025 0.5 -0.866025 0.5 46.693 142.141)" fill="white"/>
</g>
<g filter="url(#filter4_d_506_62)">
<circle cx="20.6074" cy="20.6074" r="20.6074" transform="matrix(0.866025 0.5 -0.866025 0.5 61.0237 207.524)" fill="white"/>
</g>
<g filter="url(#filter5_d_506_62)">
<circle cx="20.6074" cy="20.6074" r="20.6074" transform="matrix(0.866025 0.5 -0.866025 0.5 163.129 256.785)" fill="white"/>
</g>
<g filter="url(#filter6_d_506_62)">
<circle cx="20.6074" cy="20.6074" r="20.6074" transform="matrix(0.866025 0.5 -0.866025 0.5 293 240.663)" fill="white"/>
</g>
<g filter="url(#filter7_d_506_62)">
<circle cx="20.6074" cy="20.6074" r="20.6074" transform="matrix(0.866025 0.5 -0.866025 0.5 447.949 94.6705)" fill="white"/>
</g>
<g filter="url(#filter8_d_506_62)">
<circle cx="20.6074" cy="20.6074" r="20.6074" transform="matrix(0.866025 0.5 -0.866025 0.5 381.67 6)" fill="white"/>
</g>
<g clip-path="url(#clip1_506_62)">
<path d="M195.712 34.4349C195.704 34.4023 195.628 34.1031 195.311 33.6747C194.903 33.1228 194.266 32.5874 193.467 32.1265C192.669 31.6655 191.742 31.2975 190.786 31.062C190.044 30.8792 189.526 30.8353 189.469 30.8309C189.329 30.82 189.186 30.8279 189.052 30.854C188.918 30.8801 188.797 30.9238 188.697 30.9815L187.677 31.57L187.979 32.1457L188.977 32.3202L189.628 31.9441C190.167 32.0449 191.16 32.2947 192.168 32.8766C193.176 33.4586 193.609 34.0321 193.783 34.343L193.132 34.7191L193.434 35.2949L194.431 35.4694L195.451 34.8809C195.551 34.8231 195.626 34.7529 195.671 34.6755C195.717 34.5982 195.73 34.5158 195.712 34.4349Z" fill="#E8834D"/>
<path d="M187.677 31.5701L186.96 31.9842L187.262 32.56L188.259 32.7345L188.977 32.3203L187.677 31.5701ZM194.431 35.4695L193.132 34.7192L192.414 35.1334L192.717 35.7092L193.714 35.8836L194.431 35.4695Z" fill="#D66E41"/>
<path d="M173.817 32.6492L168.045 35.9816C167.36 36.3772 167.36 37.0186 168.045 37.4142L184.309 46.8043C184.994 47.1999 186.105 47.1999 186.791 46.8043L192.562 43.4719L173.817 32.6492Z" fill="#365E7D"/>
<path d="M174.534 32.235L173.817 32.6492C174.029 33.7168 175.165 36.2068 180.782 39.4503C186.4 42.6937 190.713 43.3493 192.562 43.4719L193.28 43.0577L174.534 32.235L174.534 32.235Z" fill="#2B4D66"/>
<path d="M174.894 31.9653C175.077 33 176.151 35.521 181.87 38.8225C187.588 42.124 191.955 42.7442 193.747 42.8502C194.272 42.8813 195.141 42.5737 195.514 42.3581L198.98 40.3569C199.666 39.9613 199.666 39.3199 198.98 38.9243L181.693 28.9436C181.008 28.548 179.897 28.548 179.212 28.9436L175.746 30.9448C175.372 31.1604 174.84 31.662 174.894 31.9653Z" fill="#407093"/>
<path d="M194.094 42.6496C192.302 42.5436 187.936 41.9233 182.217 38.6218C176.499 35.3203 175.425 32.7993 175.241 31.7647C175.214 31.615 175.246 31.4637 175.333 31.3219C175.421 31.1801 175.562 31.0512 175.746 30.9448L175.028 31.359C174.844 31.4654 174.703 31.5943 174.616 31.7361C174.528 31.8779 174.497 32.0292 174.524 32.1789C174.707 33.2135 175.781 35.7345 181.5 39.036C187.218 42.3375 191.585 42.9577 193.377 43.0638C193.636 43.0791 193.898 43.0609 194.144 43.0105C194.389 42.9601 194.612 42.8787 194.797 42.7723L195.514 42.3581C195.33 42.4645 195.107 42.5459 194.861 42.5963C194.616 42.6467 194.354 42.6649 194.094 42.6496Z" fill="#365E7D"/>
<path d="M180.306 39.7254C180.948 40.096 181.944 40.1212 182.978 39.5248L183.682 39.1179C183.911 38.9861 183.911 38.7723 183.682 38.6404L182.185 37.776C181.956 37.6441 181.586 37.6441 181.358 37.776L180.653 38.1829C179.62 38.7792 179.664 39.3548 180.306 39.7254Z" fill="#FFE27A"/>
<path d="M180.653 39.5247C180.011 39.1541 180.011 38.5533 180.653 38.1827L179.936 38.5969C179.294 38.9675 179.294 39.5683 179.936 39.9389C180.578 40.3095 181.618 40.3095 182.26 39.9389L182.978 39.5247C182.336 39.8952 181.295 39.8953 180.653 39.5247Z" fill="#F9CF58"/>
</g>
<g clip-path="url(#clip2_506_62)">
<path d="M447.14 118.718L447.14 119.31L447.143 120L447.142 120.268L449.533 120.267L449.535 118.718L447.14 118.718Z" fill="#5D6D7E"/>
<path d="M450.76 120.967L450.761 125.73C450.762 126.088 450.525 126.447 450.051 126.719C449.577 126.993 448.957 127.13 448.336 127.13C447.717 127.13 447.098 126.993 446.625 126.719C446.399 126.59 446.22 126.436 446.098 126.266C445.976 126.096 445.914 125.914 445.914 125.731L445.914 120.967L450.76 120.967Z" fill="#FF8E31"/>
<path d="M449.621 120.967L450.292 120.967L450.292 125.731C450.292 126.032 450.088 126.315 449.719 126.528C449.349 126.741 448.858 126.859 448.337 126.86C448.248 126.859 448.163 126.838 448.1 126.802C448.037 126.766 448.001 126.716 448.001 126.665C448.002 126.558 448.151 126.472 448.335 126.472C448.679 126.472 449.003 126.394 449.245 126.253C449.365 126.185 449.46 126.104 449.524 126.014C449.589 125.924 449.622 125.828 449.621 125.731L449.621 120.967Z" fill="#FECE59"/>
<path d="M445.914 120.967L450.761 120.966L450.761 120.758C450.762 120.693 450.74 120.629 450.697 120.57C450.655 120.511 450.592 120.457 450.513 120.411C450.346 120.315 450.13 120.267 449.913 120.267L446.761 120.268C446.65 120.268 446.54 120.28 446.437 120.305C446.334 120.329 446.24 120.365 446.162 120.411C446.083 120.456 446.021 120.51 445.978 120.57C445.936 120.629 445.914 120.692 445.915 120.757L445.914 120.967ZM440.592 108.099C444.869 105.63 451.805 105.63 456.084 108.099C460.362 110.57 460.361 114.574 456.084 117.044C451.806 119.514 444.87 119.514 440.591 117.044C436.314 114.574 436.313 110.569 440.592 108.099Z" fill="#34495E"/>
<path d="M441.43 116.56C445.244 118.762 451.43 118.762 455.246 116.559C459.059 114.358 459.059 110.786 455.245 108.584C451.43 106.381 445.244 106.381 441.43 108.583C437.615 110.786 437.615 114.357 441.43 116.56Z" fill="#5D6D7E"/>
<path d="M441.983 116.24C445.492 118.266 451.182 118.267 454.692 116.24C458.201 114.215 458.201 110.928 454.692 108.903C451.183 106.877 445.491 106.877 441.983 108.902C438.473 110.929 438.473 114.214 441.983 116.24Z" fill="#CEE2F2"/>
<path d="M453.816 109.601C453.868 109.446 453.783 109.281 453.567 109.169C452.636 108.694 451.56 108.358 450.363 108.174C449.94 108.11 449.505 108.256 449.392 108.5C449.283 108.743 449.533 108.996 449.956 109.059C450.909 109.206 451.769 109.474 452.512 109.854C452.837 110.022 453.339 110.006 453.628 109.817C453.731 109.754 453.791 109.677 453.816 109.601ZM448.376 108.588C448.391 108.545 448.393 108.498 448.386 108.453C448.342 108.201 447.951 108.019 447.516 108.046C446.241 108.121 445.004 108.38 443.933 108.798C442.661 109.295 441.677 109.987 441.086 110.8C440.917 111.035 441.109 111.303 441.513 111.4C441.916 111.498 442.379 111.388 442.55 111.154C443.022 110.506 443.808 109.954 444.824 109.559C445.676 109.223 446.663 109.016 447.681 108.956C448.035 108.935 448.313 108.779 448.376 108.588Z" fill="white"/>
</g>
<g clip-path="url(#clip3_506_62)">
<path d="M303.051 266.315L298.13 263.474C297.972 263.383 297.944 263.241 298.061 263.131C299.163 262.096 299.159 260.777 298.05 259.744C297.932 259.634 297.96 259.492 298.118 259.401L303.038 256.56C303.241 256.443 303.575 256.454 303.755 256.583C305.677 257.956 306.722 259.653 306.723 261.443C306.722 263.228 305.682 264.922 303.769 266.292C303.589 266.422 303.255 266.433 303.051 266.315Z" fill="#FF7258"/>
<path d="M298.118 259.401L299.131 258.816C301.207 260.353 301.212 262.52 299.145 264.06L298.13 263.474C297.972 263.383 297.944 263.241 298.061 263.131C299.163 262.096 299.159 260.777 298.05 259.744C297.932 259.634 297.96 259.492 298.118 259.401Z" fill="#F95D48"/>
<path d="M301.737 267.469C299.731 268.408 297.325 268.986 294.758 269.145C294.472 269.163 294.222 269.034 294.222 268.868L294.222 265.687L294.222 264.85C294.222 264.72 294.377 264.609 294.596 264.579C295.185 264.498 295.748 264.363 296.261 264.178C296.452 264.109 296.7 264.124 296.859 264.216L301.776 267.055C301.979 267.173 301.96 267.365 301.737 267.469Z" fill="#FFDC65"/>
<path d="M297.873 264.802C296.791 265.296 295.524 265.591 294.222 265.687L294.222 264.85C294.222 264.72 294.377 264.609 294.596 264.579C295.185 264.498 295.748 264.363 296.261 264.178C296.452 264.109 296.7 264.124 296.859 264.216L297.873 264.802L297.873 264.802Z" fill="#FFC846"/>
<path d="M292.414 268.87C292.414 269.036 292.165 269.164 291.879 269.147C288.833 268.963 286.01 268.189 283.814 266.921C281.28 265.458 279.884 263.512 279.883 261.443C279.883 259.385 281.264 257.45 283.771 255.989C286.289 254.523 289.727 253.695 293.303 253.695C296.403 253.695 299.343 254.298 301.721 255.408C301.944 255.513 301.962 255.705 301.759 255.822L296.84 258.663C296.681 258.754 296.434 258.77 296.243 258.702C294.09 257.931 291.22 258.085 289.353 259.163C287.176 260.42 287.176 262.466 289.353 263.723C290.119 264.165 291.054 264.451 292.038 264.582C292.258 264.612 292.414 264.723 292.414 264.854L292.414 268.87Z" fill="#00ABE0"/>
<path d="M292.414 264.854L292.414 265.692C290.817 265.584 289.269 265.176 288.043 264.469C285.14 262.793 285.133 260.106 288.028 258.426C290.708 256.87 294.942 256.754 297.855 258.076L296.84 258.663C296.681 258.754 296.434 258.77 296.244 258.702C294.09 257.931 291.221 258.085 289.354 259.163C287.177 260.42 287.176 262.466 289.354 263.723C290.119 264.165 291.054 264.451 292.038 264.582C292.258 264.612 292.414 264.723 292.414 264.854Z" fill="#099DD1"/>
</g>
<g clip-path="url(#clip4_506_62)">
<path d="M152.866 281.864C158.006 284.832 166.341 284.832 171.482 281.864C176.622 278.896 176.622 274.084 171.482 271.116C166.341 268.148 158.006 268.148 152.866 271.116C147.725 274.084 147.725 278.896 152.866 281.864Z" fill="#11AFB4"/>
<path d="M165.828 280.848L165.828 276.206L168.544 276.206C168.707 276.206 168.864 276.168 168.98 276.102C169.095 276.035 169.16 275.944 169.161 275.85L169.16 273.568C169.161 273.371 168.884 273.212 168.543 273.212L158.554 273.212C158.39 273.212 158.233 273.249 158.118 273.316C158.002 273.383 157.937 273.474 157.937 273.568L157.937 275.85C157.937 275.948 158.006 276.037 158.118 276.102C158.229 276.166 158.384 276.206 158.554 276.206L161.269 276.206L161.269 280.848C161.269 281.199 161.506 281.528 161.935 281.775L161.94 281.779C162.371 282.026 162.944 282.162 163.552 282.162C164.159 282.162 164.73 282.025 165.161 281.777C165.591 281.528 165.828 281.198 165.828 280.848ZM159.171 275.493L159.171 273.924L167.926 273.924L167.926 275.493L159.171 275.493ZM163.552 281.449C163.272 281.449 163.008 281.387 162.81 281.273L162.807 281.272C162.711 281.216 162.634 281.15 162.582 281.077C162.53 281.005 162.503 280.927 162.504 280.848L162.503 276.206L164.594 276.206L164.594 280.848C164.594 281.008 164.485 281.159 164.288 281.273C164.091 281.387 163.829 281.449 163.552 281.449ZM157.256 278.57C157.015 278.71 156.624 278.71 156.383 278.57L151.841 275.948C151.6 275.809 151.6 275.583 151.841 275.444C152.082 275.305 152.473 275.305 152.714 275.444L157.256 278.067C157.497 278.206 157.497 278.431 157.256 278.57Z" fill="white"/>
</g>
<g clip-path="url(#clip5_506_62)">
<path d="M63.8446 222.464C64.2534 222.228 64.2534 221.846 63.8446 221.61L60.6858 219.786C60.277 219.55 59.6143 219.55 59.2056 219.786L46.1063 227.349C45.6976 227.585 45.6976 227.967 46.1063 228.203L49.2652 230.027C49.674 230.263 50.3366 230.263 50.7453 230.027L51.4371 230.426L64.5364 222.864L63.8446 222.464Z" fill="#0E80AC"/>
<path d="M63.8447 221.61L62.8346 221.026C63.2433 221.262 63.2433 221.645 62.8346 221.881L49.7353 229.444C49.3266 229.68 48.6639 229.68 48.2552 229.444L49.2653 230.027C49.6741 230.263 50.3367 230.263 50.7454 230.027L63.8447 222.464C64.2534 222.228 64.2534 221.846 63.8447 221.61Z" fill="#057195"/>
<path d="M68.4835 225.143C68.8922 224.907 68.8922 224.524 68.4835 224.288L65.3246 222.464C64.9159 222.228 64.2533 222.228 63.8445 222.464L50.7453 230.027C50.3365 230.263 50.3365 230.646 50.7453 230.882L53.9041 232.705C54.3129 232.941 54.9755 232.941 55.3842 232.705L56.076 233.105L69.1753 225.542L68.4835 225.143Z" fill="#FD7E42"/>
<path d="M68.4836 224.288L67.4735 223.705C67.8822 223.941 67.8822 224.323 67.4735 224.559L54.3742 232.122C53.9655 232.358 53.3028 232.358 52.8941 232.122L53.9042 232.705C54.313 232.941 54.9756 232.941 55.3843 232.705L68.4836 225.143C68.8923 224.907 68.8923 224.524 68.4836 224.288Z" fill="#FA6931"/>
<path d="M58.8703 226.503L64.277 223.381C64.459 223.276 64.7539 223.276 64.9358 223.381L66.8958 224.513C67.0777 224.618 67.0777 224.788 66.8958 224.893L61.489 228.015C61.3071 228.12 61.0122 228.12 60.8302 228.015L58.8703 226.883C58.6883 226.778 58.6883 226.608 58.8703 226.503Z" fill="#F1FAFF"/>
<path d="M58.5431 235.384L55.3843 233.56C54.9755 233.324 54.9756 232.941 55.3843 232.705L68.4836 225.143C68.8923 224.907 69.5549 224.907 69.9637 225.143L73.1226 226.966C73.5313 227.202 73.5313 227.585 73.1226 227.821L60.0233 235.384C59.6145 235.62 58.9519 235.62 58.5431 235.384Z" fill="#FDCB82"/>
<path d="M73.1227 226.966L72.1125 226.383C72.5213 226.619 72.5213 227.002 72.1125 227.238L59.0133 234.801C58.6045 235.037 57.9419 235.037 57.5332 234.801L58.5433 235.384C58.952 235.62 59.6147 235.62 60.0234 235.384L73.1227 227.821C73.5314 227.585 73.5314 227.202 73.1227 226.966Z" fill="#FBBE66"/>
<path d="M63.5092 229.181L68.916 226.059C69.0979 225.954 69.3928 225.954 69.5748 226.059L71.5347 227.191C71.7166 227.296 71.7166 227.466 71.5347 227.571L66.1279 230.693C65.946 230.798 65.6511 230.798 65.4691 230.693L63.5092 229.561C63.3273 229.456 63.3273 229.286 63.5092 229.181Z" fill="#F1FAFF"/>
<path d="M49.0811 228.31C49.8039 228.727 50.9759 228.727 51.6987 228.31C52.4215 227.892 52.4215 227.216 51.6987 226.798C50.9759 226.381 49.8039 226.381 49.0811 226.798C48.3582 227.216 48.3582 227.892 49.0811 228.31Z" fill="#F1FAFF"/>
<path d="M49.8043 227.892C49.4814 227.706 49.4814 227.402 49.8043 227.216C50.1272 227.029 50.6526 227.029 50.9755 227.216C51.2984 227.402 51.2984 227.706 50.9755 227.892C50.6525 228.079 50.1272 228.079 49.8043 227.892Z" fill="#3C5959"/>
<path d="M54.2311 223.824L59.6379 220.703C59.8198 220.598 60.1148 220.598 60.2967 220.703L62.2566 221.834C62.4386 221.939 62.4386 222.11 62.2566 222.215L56.8499 225.336C56.6679 225.441 56.373 225.441 56.191 225.336L54.2311 224.205C54.0492 224.1 54.0492 223.929 54.2311 223.824Z" fill="#F1FAFF"/>
<path d="M60.3283 222.371L59.3676 221.816C59.3093 221.782 59.2765 221.737 59.2765 221.689C59.2765 221.641 59.3093 221.596 59.3676 221.562C59.426 221.528 59.5051 221.509 59.5876 221.509C59.6702 221.509 59.7493 221.528 59.8076 221.562L60.7683 222.117C60.8266 222.15 60.8594 222.196 60.8594 222.244C60.8594 222.291 60.8266 222.337 60.7683 222.371C60.7099 222.404 60.6308 222.423 60.5483 222.423C60.4658 222.423 60.3866 222.404 60.3283 222.371ZM59.1565 223.047L58.1959 222.493C58.1375 222.459 58.1048 222.413 58.1048 222.366C58.1048 222.318 58.1375 222.272 58.1959 222.239C58.2542 222.205 58.3334 222.186 58.4159 222.186C58.4984 222.186 58.5775 222.205 58.6359 222.239L59.5965 222.793C59.6549 222.827 59.6877 222.873 59.6877 222.92C59.6877 222.968 59.6549 223.014 59.5965 223.047C59.5382 223.081 59.459 223.1 59.3765 223.1C59.294 223.1 59.2149 223.081 59.1565 223.047ZM64.9673 225.049L64.0067 224.494C63.9483 224.461 63.9156 224.415 63.9156 224.367C63.9156 224.32 63.9483 224.274 64.0067 224.24C64.065 224.207 64.1442 224.188 64.2267 224.188C64.3092 224.188 64.3883 224.207 64.4467 224.24L65.4073 224.795C65.4657 224.829 65.4984 224.874 65.4984 224.922C65.4984 224.97 65.4657 225.015 65.4073 225.049C65.349 225.083 65.2698 225.102 65.1873 225.102C65.1048 225.102 65.0257 225.083 64.9673 225.049ZM63.7955 225.726L62.8349 225.171C62.7766 225.137 62.7438 225.092 62.7438 225.044C62.7438 224.996 62.7766 224.951 62.8349 224.917C62.8933 224.883 62.9724 224.864 63.0549 224.864C63.1374 224.864 63.2166 224.883 63.2749 224.917L64.2355 225.472C64.2939 225.505 64.3267 225.551 64.3267 225.599C64.3267 225.646 64.2939 225.692 64.2355 225.726C64.1772 225.759 64.0981 225.778 64.0155 225.778C63.933 225.778 63.8539 225.759 63.7955 225.726ZM69.6063 227.727L68.6457 227.173C68.5873 227.139 68.5545 227.093 68.5545 227.046C68.5545 226.998 68.5873 226.952 68.6457 226.919C68.704 226.885 68.7832 226.866 68.8657 226.866C68.9482 226.866 69.0273 226.885 69.0857 226.919L70.0463 227.473C70.1046 227.507 70.1374 227.553 70.1374 227.6C70.1374 227.648 70.1046 227.694 70.0463 227.727C69.9879 227.761 69.9088 227.78 69.8263 227.78C69.7438 227.78 69.6646 227.761 69.6063 227.727ZM68.4345 228.404L67.4739 227.849C67.4156 227.816 67.3828 227.77 67.3828 227.722C67.3828 227.675 67.4156 227.629 67.4739 227.595C67.5323 227.562 67.6114 227.543 67.6939 227.543C67.7764 227.543 67.8556 227.562 67.9139 227.595L68.8745 228.15C68.9329 228.184 68.9657 228.229 68.9657 228.277C68.9657 228.325 68.9329 228.37 68.8745 228.404C68.8162 228.438 68.737 228.457 68.6545 228.457C68.572 228.457 68.4929 228.438 68.4345 228.404Z" fill="#0E80AC"/>
<path d="M48.8999 228.414C49.7228 228.889 51.057 228.889 51.8799 228.414C52.7028 227.939 52.7028 227.169 51.8799 226.694C51.057 226.219 49.7228 226.219 48.8999 226.694C48.077 227.169 48.077 227.939 48.8999 228.414Z" fill="#F1FAFF"/>
<path d="M49.7126 227.945C49.3392 227.729 49.3392 227.379 49.7126 227.163C50.0861 226.947 50.6937 226.947 51.0672 227.163C51.4406 227.379 51.4406 227.729 51.0672 227.945C50.6937 228.161 50.0861 228.161 49.7126 227.945Z" fill="#3C5959"/>
<path d="M53.5388 231.093C54.3617 231.568 55.6959 231.568 56.5188 231.093C57.3417 230.617 57.3417 229.847 56.5188 229.372C55.6959 228.897 54.3617 228.897 53.5388 229.372C52.7159 229.847 52.7159 230.617 53.5388 231.093Z" fill="#F1FAFF"/>
<path d="M54.3515 230.623C53.9781 230.408 53.9781 230.057 54.3515 229.841C54.725 229.626 55.3326 229.626 55.7061 229.841C56.0795 230.057 56.0795 230.408 55.7061 230.623C55.3326 230.839 54.725 230.839 54.3515 230.623Z" fill="#3C5959"/>
<path d="M58.1778 233.771C59.0007 234.246 60.3349 234.246 61.1579 233.771C61.9808 233.296 61.9808 232.526 61.1579 232.05C60.3349 231.575 59.0007 231.575 58.1778 232.05C57.3549 232.526 57.3549 233.296 58.1778 233.771Z" fill="#F1FAFF"/>
<path d="M58.9906 233.302C58.6172 233.086 58.6171 232.735 58.9906 232.52C59.364 232.304 59.9717 232.304 60.3451 232.52C60.7185 232.735 60.7186 233.086 60.3451 233.302C59.9716 233.517 59.364 233.517 58.9906 233.302Z" fill="#3C5959"/>
</g>
<g clip-path="url(#clip6_506_62)">
<path d="M383.007 30.3649C382.929 30.3221 382.827 30.2965 382.72 30.2926C380.934 30.2256 379.217 29.8731 377.758 29.2745C377.702 29.2515 377.637 29.2361 377.569 29.2294C377.501 29.2228 377.431 29.2251 377.365 29.2362C377.298 29.2473 377.237 29.2669 377.186 29.2935C377.134 29.3201 377.094 29.3531 377.068 29.39L374.357 33.2179C374.323 33.2665 374.315 33.3198 374.334 33.371C374.352 33.4223 374.397 33.4692 374.461 33.506C374.526 33.5427 374.608 33.5675 374.697 33.5774C374.786 33.5873 374.878 33.5817 374.962 33.5615L378.1 32.7871L379.46 34.6256C379.496 34.6734 379.556 34.714 379.632 34.7424C379.707 34.7708 379.796 34.7857 379.886 34.7853C379.977 34.7848 380.065 34.769 380.139 34.7399C380.214 34.7107 380.273 34.6695 380.307 34.6213L383.116 30.6575C383.151 30.608 383.159 30.5536 383.14 30.5014C383.12 30.4492 383.074 30.4016 383.007 30.3649ZM373.114 24.887L366.252 26.508C366.168 26.5279 366.097 26.5616 366.046 26.6049C365.995 26.6483 365.968 26.6993 365.967 26.7516C365.966 26.8039 365.993 26.8551 366.042 26.8988C366.092 26.9426 366.163 26.9769 366.246 26.9975L369.43 27.7818L368.089 29.5933C367.928 29.8123 368.305 30.0326 368.685 29.9433L375.321 28.3762C375.385 28.361 375.442 28.3377 375.489 28.3079C375.535 28.2782 375.569 28.2429 375.588 28.2046C375.607 28.1663 375.611 28.1259 375.6 28.0866C375.588 28.0472 375.561 28.0099 375.521 27.9773C374.482 27.1368 373.867 26.1458 373.747 25.1151C373.742 25.0731 373.72 25.0324 373.683 24.9963C373.645 24.9602 373.594 24.9297 373.532 24.9074C373.47 24.8852 373.4 24.8717 373.327 24.8681C373.254 24.8646 373.181 24.871 373.114 24.887Z" fill="#FF5757"/>
<path d="M390.827 20.4343C386.707 18.0552 380.01 18.0545 375.89 20.4336C371.769 22.8126 371.772 26.6766 375.892 29.0556C380.013 31.4346 386.705 31.436 390.826 29.057C394.947 26.678 394.948 22.8133 390.827 20.4343Z" fill="#FFCB3C"/>
<path d="M389.205 21.3709C387.654 20.4771 385.551 19.9753 383.36 19.9755C381.168 19.9758 379.066 20.4781 377.516 21.3723C374.292 23.2334 374.292 26.2586 377.516 28.1197C380.739 29.9809 385.979 29.9809 389.202 28.1197C390.752 27.2245 391.622 26.0109 391.623 24.7454C391.624 23.4799 390.753 22.2667 389.205 21.3709Z" fill="#FFEA54"/>
<path d="M387.086 22.5916C387.019 22.5584 386.937 22.5369 386.85 22.5297C386.763 22.5226 386.674 22.53 386.594 22.5512L383.456 23.3709L380.944 22.0057C380.875 21.969 380.789 21.9453 380.696 21.9378C380.604 21.9302 380.509 21.9392 380.425 21.9634C380.342 21.9877 380.273 22.0261 380.228 22.0735C380.183 22.1209 380.165 22.1751 380.175 22.2289L380.546 24.2062L377.528 25.164C377.446 25.1903 377.379 25.2304 377.338 25.279C377.296 25.3277 377.281 25.3825 377.295 25.4361C377.309 25.4897 377.352 25.5396 377.416 25.579C377.481 25.6184 377.565 25.6454 377.657 25.6564L381.029 26.0588L381.674 28.0142C381.692 28.0674 381.738 28.1161 381.805 28.1539C381.872 28.1917 381.958 28.2166 382.05 28.2255C382.143 28.2344 382.238 28.2267 382.323 28.2035C382.407 28.1803 382.478 28.1427 382.525 28.0957L384.238 26.3684L387.653 26.6185C387.746 26.6256 387.841 26.6161 387.924 26.591C388.008 26.566 388.076 26.5268 388.12 26.4787C388.164 26.4306 388.181 26.3758 388.169 26.3219C388.157 26.268 388.117 26.2174 388.054 26.1771L385.73 24.7049L387.2 22.904C387.242 22.8518 387.255 22.793 387.234 22.7365C387.214 22.68 387.161 22.6296 387.086 22.5916Z" fill="#FEAA2B"/>
</g>
<g clip-path="url(#clip7_506_62)">
<path d="M58.3199 165.591L42.726 156.588C42.3348 156.362 41.6996 156.362 41.3084 156.588L32.831 161.482C31.6587 162.159 31.6587 163.261 32.831 163.938L45.5896 171.304C46.762 171.981 48.6701 171.981 49.8425 171.304L58.3199 166.41C58.7111 166.184 58.7111 165.817 58.3199 165.591Z" fill="#ECEFF1"/>
<path d="M60.4745 162.71L47.7159 155.344C46.5415 154.666 44.6375 154.666 43.463 155.344L41.3083 156.588L58.3198 166.41L60.4745 165.165C61.649 164.487 61.649 163.388 60.4745 162.71Z" fill="#2196F3"/>
<path d="M51.9688 155.344L51.26 154.935C50.8688 154.709 50.2335 154.709 49.8424 154.935L47.007 156.572C46.6159 156.797 46.6159 157.164 47.0072 157.39L47.7159 157.799C48.1072 158.025 48.7423 158.025 49.1335 157.799L51.9688 156.162C52.36 155.936 52.3601 155.57 51.9688 155.344ZM61.1833 160.664L60.4745 160.255C60.0833 160.029 59.4482 160.029 59.057 160.255L56.2217 161.892C55.8305 162.117 55.8304 162.484 56.2217 162.71L56.9304 163.119C57.3217 163.345 57.9569 163.345 58.3481 163.119L61.1834 161.482C61.5746 161.257 61.5746 160.89 61.1833 160.664Z" fill="#1976D2"/>
<path d="M44.349 159.948L42.577 158.925C42.2836 158.755 41.8072 158.755 41.5138 158.925L39.7418 159.948C39.4484 160.117 39.4484 160.392 39.7418 160.562L41.5138 161.585C41.8072 161.754 42.2836 161.754 42.577 161.585L44.349 160.562C44.6424 160.392 44.6424 160.117 44.349 159.948ZM40.0961 162.403L38.3242 161.38C38.0307 161.211 37.5544 161.211 37.2609 161.38L35.489 162.403C35.1955 162.573 35.1955 162.848 35.489 163.017L37.2609 164.04C37.5544 164.209 38.0307 164.209 38.3242 164.04L40.0961 163.017C40.3896 162.848 40.3896 162.573 40.0961 162.403ZM49.3108 162.812L47.5387 161.789C47.2452 161.62 46.7689 161.62 46.4754 161.789L44.7035 162.812C44.41 162.982 44.41 163.257 44.7035 163.426L46.4756 164.449C46.769 164.619 47.2453 164.619 47.5388 164.449L49.3108 163.426C49.6042 163.257 49.6042 162.982 49.3108 162.812Z" fill="#2196F3"/>
<path d="M45.0579 165.268L43.2858 164.245C42.9923 164.075 42.516 164.075 42.2225 164.245L40.4506 165.268C40.1571 165.437 40.1571 165.712 40.4506 165.882L42.2227 166.905C42.5161 167.074 42.9924 167.074 43.2859 166.905L45.0579 165.882C45.3513 165.712 45.3513 165.437 45.0579 165.268Z" fill="#90CAF9"/>
<path d="M54.2725 165.677L52.5005 164.654C52.207 164.485 51.7307 164.485 51.4373 164.654L49.6653 165.677C49.3718 165.847 49.3718 166.122 49.6653 166.291L51.4373 167.314C51.7307 167.483 52.207 167.483 52.5005 167.314L54.2725 166.291C54.5659 166.122 54.5659 165.847 54.2725 165.677Z" fill="#2196F3"/>
</g>
<defs>
<filter id="filter0_d_506_62" x="32.429" y="12.4058" width="433.185" height="272.434" filterUnits="userSpaceOnUse" color-interpolation-filters="sRGB">
<feFlood flood-opacity="0" result="BackgroundImageFix"/>
<feColorMatrix in="SourceAlpha" type="matrix" values="0 0 0 0 0 0 0 0 0 0 0 0 0 0 0 0 0 0 127 0" result="hardAlpha"/>
<feOffset dy="0.895662"/>
<feGaussianBlur stdDeviation="3.22438"/>
<feComposite in2="hardAlpha" operator="out"/>
<feColorMatrix type="matrix" values="0 0 0 0 0 0 0 0 0 0 0 0 0 0 0 0 0 0 0.25 0"/>
<feBlend mode="normal" in2="BackgroundImageFix" result="effect1_dropShadow_506_62"/>
<feBlend mode="normal" in="SourceGraphic" in2="effect1_dropShadow_506_62" result="shape"/>
</filter>
<filter id="filter1_d_506_62" x="125.876" y="68.2485" width="282.582" height="173.758" filterUnits="userSpaceOnUse" color-interpolation-filters="sRGB">
<feFlood flood-opacity="0" result="BackgroundImageFix"/>
<feColorMatrix in="SourceAlpha" type="matrix" values="0 0 0 0 0 0 0 0 0 0 0 0 0 0 0 0 0 0 127 0" result="hardAlpha"/>
<feOffset dx="1.79132" dy="11.6436"/>
<feComposite in2="hardAlpha" operator="out"/>
<feColorMatrix type="matrix" values="0 0 0 0 0.732747 0 0 0 0 0.732747 0 0 0 0 0.732747 0 0 0 0.25 0"/>
<feBlend mode="normal" in2="BackgroundImageFix" result="effect1_dropShadow_506_62"/>
<feBlend mode="normal" in="SourceGraphic" in2="effect1_dropShadow_506_62" result="shape"/>
</filter>
<filter id="filter2_d_506_62" x="148.328" y="11.726" width="78.736" height="57.4018" filterUnits="userSpaceOnUse" color-interpolation-filters="sRGB">
<feFlood flood-opacity="0" result="BackgroundImageFix"/>
<feColorMatrix in="SourceAlpha" type="matrix" values="0 0 0 0 0 0 0 0 0 0 0 0 0 0 0 0 0 0 127 0" result="hardAlpha"/>
<feOffset dx="3.07157" dy="3.07157"/>
<feGaussianBlur stdDeviation="7.06461"/>
<feComposite in2="hardAlpha" operator="out"/>
<feColorMatrix type="matrix" values="0 0 0 0 0.732747 0 0 0 0 0.732747 0 0 0 0 0.732747 0 0 0 0.25 0"/>
<feBlend mode="normal" in2="BackgroundImageFix" result="effect1_dropShadow_506_62"/>
<feBlend mode="normal" in="SourceGraphic" in2="effect1_dropShadow_506_62" result="shape"/>
</filter>
<filter id="filter3_d_506_62" x="10.3966" y="137.119" width="78.736" height="57.4018" filterUnits="userSpaceOnUse" color-interpolation-filters="sRGB">
<feFlood flood-opacity="0" result="BackgroundImageFix"/>
<feColorMatrix in="SourceAlpha" type="matrix" values="0 0 0 0 0 0 0 0 0 0 0 0 0 0 0 0 0 0 127 0" result="hardAlpha"/>
<feOffset dx="3.07157" dy="3.07157"/>
<feGaussianBlur stdDeviation="7.06461"/>
<feComposite in2="hardAlpha" operator="out"/>
<feColorMatrix type="matrix" values="0 0 0 0 0.732747 0 0 0 0 0.732747 0 0 0 0 0.732747 0 0 0 0.25 0"/>
<feBlend mode="normal" in2="BackgroundImageFix" result="effect1_dropShadow_506_62"/>
<feBlend mode="normal" in="SourceGraphic" in2="effect1_dropShadow_506_62" result="shape"/>
</filter>
<filter id="filter4_d_506_62" x="24.7273" y="202.502" width="78.736" height="57.4018" filterUnits="userSpaceOnUse" color-interpolation-filters="sRGB">
<feFlood flood-opacity="0" result="BackgroundImageFix"/>
<feColorMatrix in="SourceAlpha" type="matrix" values="0 0 0 0 0 0 0 0 0 0 0 0 0 0 0 0 0 0 127 0" result="hardAlpha"/>
<feOffset dx="3.07157" dy="3.07157"/>
<feGaussianBlur stdDeviation="7.06461"/>
<feComposite in2="hardAlpha" operator="out"/>
<feColorMatrix type="matrix" values="0 0 0 0 0.732747 0 0 0 0 0.732747 0 0 0 0 0.732747 0 0 0 0.25 0"/>
<feBlend mode="normal" in2="BackgroundImageFix" result="effect1_dropShadow_506_62"/>
<feBlend mode="normal" in="SourceGraphic" in2="effect1_dropShadow_506_62" result="shape"/>
</filter>
<filter id="filter5_d_506_62" x="126.832" y="251.763" width="78.736" height="57.4018" filterUnits="userSpaceOnUse" color-interpolation-filters="sRGB">
<feFlood flood-opacity="0" result="BackgroundImageFix"/>
<feColorMatrix in="SourceAlpha" type="matrix" values="0 0 0 0 0 0 0 0 0 0 0 0 0 0 0 0 0 0 127 0" result="hardAlpha"/>
<feOffset dx="3.07157" dy="3.07157"/>
<feGaussianBlur stdDeviation="7.06461"/>
<feComposite in2="hardAlpha" operator="out"/>
<feColorMatrix type="matrix" values="0 0 0 0 0.732747 0 0 0 0 0.732747 0 0 0 0 0.732747 0 0 0 0.25 0"/>
<feBlend mode="normal" in2="BackgroundImageFix" result="effect1_dropShadow_506_62"/>
<feBlend mode="normal" in="SourceGraphic" in2="effect1_dropShadow_506_62" result="shape"/>
</filter>
<filter id="filter6_d_506_62" x="256.703" y="235.641" width="78.736" height="57.4018" filterUnits="userSpaceOnUse" color-interpolation-filters="sRGB">
<feFlood flood-opacity="0" result="BackgroundImageFix"/>
<feColorMatrix in="SourceAlpha" type="matrix" values="0 0 0 0 0 0 0 0 0 0 0 0 0 0 0 0 0 0 127 0" result="hardAlpha"/>
<feOffset dx="3.07157" dy="3.07157"/>
<feGaussianBlur stdDeviation="7.06461"/>
<feComposite in2="hardAlpha" operator="out"/>
<feColorMatrix type="matrix" values="0 0 0 0 0.732747 0 0 0 0 0.732747 0 0 0 0 0.732747 0 0 0 0.25 0"/>
<feBlend mode="normal" in2="BackgroundImageFix" result="effect1_dropShadow_506_62"/>
<feBlend mode="normal" in="SourceGraphic" in2="effect1_dropShadow_506_62" result="shape"/>
</filter>
<filter id="filter7_d_506_62" x="411.653" y="89.6486" width="78.736" height="57.4018" filterUnits="userSpaceOnUse" color-interpolation-filters="sRGB">
<feFlood flood-opacity="0" result="BackgroundImageFix"/>
<feColorMatrix in="SourceAlpha" type="matrix" values="0 0 0 0 0 0 0 0 0 0 0 0 0 0 0 0 0 0 127 0" result="hardAlpha"/>
<feOffset dx="3.07157" dy="3.07157"/>
<feGaussianBlur stdDeviation="7.06461"/>
<feComposite in2="hardAlpha" operator="out"/>
<feColorMatrix type="matrix" values="0 0 0 0 0.732747 0 0 0 0 0.732747 0 0 0 0 0.732747 0 0 0 0.25 0"/>
<feBlend mode="normal" in2="BackgroundImageFix" result="effect1_dropShadow_506_62"/>
<feBlend mode="normal" in="SourceGraphic" in2="effect1_dropShadow_506_62" result="shape"/>
</filter>
<filter id="filter8_d_506_62" x="345.374" y="0.978109" width="78.736" height="57.4018" filterUnits="userSpaceOnUse" color-interpolation-filters="sRGB">
<feFlood flood-opacity="0" result="BackgroundImageFix"/>
<feColorMatrix in="SourceAlpha" type="matrix" values="0 0 0 0 0 0 0 0 0 0 0 0 0 0 0 0 0 0 127 0" result="hardAlpha"/>
<feOffset dx="3.07157" dy="3.07157"/>
<feGaussianBlur stdDeviation="7.06461"/>
<feComposite in2="hardAlpha" operator="out"/>
<feColorMatrix type="matrix" values="0 0 0 0 0.732747 0 0 0 0 0.732747 0 0 0 0 0.732747 0 0 0 0.25 0"/>
<feBlend mode="normal" in2="BackgroundImageFix" result="effect1_dropShadow_506_62"/>
<feBlend mode="normal" in="SourceGraphic" in2="effect1_dropShadow_506_62" result="shape"/>
</filter>
<clipPath id="clip0_506_62">
<rect width="148.68" height="175.55" rx="10.7479" transform="matrix(0.866025 0.5 -0.866025 0.5 277.907 68.2485)" fill="white"/>
</clipPath>
<clipPath id="clip1_506_62">
<rect width="22.8265" height="22.8265" fill="white" transform="matrix(0.866025 0.5 -0.866025 0.5 184.822 25.7046)"/>
</clipPath>
<clipPath id="clip2_506_62">
<rect width="24.0813" height="24.0813" fill="white" transform="matrix(0.866025 0.5 -0.866025 0.5 448.338 103.627)"/>
</clipPath>
<clipPath id="clip3_506_62">
<rect width="21.8552" height="21.8552" fill="white" transform="matrix(0.866025 0.5 -0.866025 0.5 293.251 250.516)"/>
</clipPath>
<clipPath id="clip4_506_62">
<rect width="21.4959" height="21.4959" fill="white" transform="matrix(0.866025 0.5 -0.866025 0.5 162.174 265.742)"/>
</clipPath>
<clipPath id="clip5_506_62">
<rect width="16.8349" height="16.8349" fill="white" transform="matrix(0.866025 0.5 -0.866025 0.5 59.6145 219.167)"/>
</clipPath>
<clipPath id="clip6_506_62">
<rect width="23.9929" height="23.9929" fill="white" transform="matrix(0.866025 0.5 -0.866025 0.5 381.086 14.0609)"/>
</clipPath>
<clipPath id="clip7_506_62">
<rect width="19.6432" height="19.6432" fill="white" transform="matrix(0.866025 0.5 -0.866025 0.5 47.7159 152.889)"/>
</clipPath>
</defs>
</svg>
