<svg width="564" height="175" viewBox="0 0 564 175" fill="none" xmlns="http://www.w3.org/2000/svg">
<path d="M455.224 174.809H184.776C175.939 174.809 168.776 167.646 168.776 158.809V129.009C168.776 120.172 161.612 113.009 152.775 113.009H70C61.1634 113.009 54 105.845 54 97.0089V58.6252C54 49.7886 61.1635 42.6252 70 42.6252H312.531C321.367 42.6252 328.531 35.4618 328.531 26.6252V20C328.531 11.1634 335.694 4 344.531 4H494C502.837 4 510 11.1634 510 20V58.3837C510 67.2202 502.837 74.3837 494 74.3837H487.224C478.388 74.3837 471.224 81.5471 471.224 90.3837V158.809C471.224 167.646 464.061 174.809 455.224 174.809Z" fill="#F8F8FD"/>
<line x1="102.607" y1="113.012" x2="102.607" y2="42.6228" stroke="#EAEAF8" stroke-width="0.5"/>
<line x1="149.913" y1="113.014" x2="149.913" y2="42.6253" stroke="#EAEAF8" stroke-width="0.5"/>
<line x1="197.607" y1="174.81" x2="197.607" y2="42.6274" stroke="#EAEAF8" stroke-width="0.5"/>
<line x1="246.077" y1="174.807" x2="246.077" y2="42.6252" stroke="#EAEAF8" stroke-width="0.5"/>
<line x1="294.546" y1="174.805" x2="294.546" y2="42.6228" stroke="#EAEAF8" stroke-width="0.5"/>
<line x1="343.403" y1="174.803" x2="343.403" y2="5.71647" stroke="#EAEAF8" stroke-width="0.5"/>
<line x1="392.26" y1="174.801" x2="392.26" y2="5.71427" stroke="#EAEAF8" stroke-width="0.5"/>
<line x1="441.117" y1="174.799" x2="441.117" y2="5.71208" stroke="#EAEAF8" stroke-width="0.5"/>
<path d="M489.837 74.3838L489.837 5.71017" stroke="#EAEAF8" stroke-width="0.5"/>
<path d="M392.122 4H440.98V152.509C440.98 159.137 435.607 164.509 428.98 164.509H404.122C397.495 164.509 392.122 159.137 392.122 152.509V4Z" fill="url(#paint0_linear_161_11480)"/>
<path d="M392.122 36.6001C392.122 29.9727 397.495 24.6001 404.122 24.6001H429.755C436.383 24.6001 441.755 29.9727 441.755 36.6001V152.509C441.755 159.137 436.383 164.509 429.755 164.509H404.122C397.495 164.509 392.122 159.137 392.122 152.509V36.6001Z" fill="url(#paint1_linear_161_11480)"/>
<path d="M54.7754 100.134L95.4213 75.1007C100.056 72.2464 105.823 71.9439 110.731 74.2977L142.634 89.5988C146.914 91.6513 151.884 91.6979 156.201 89.7258L187.998 75.2018C194.144 72.3944 201.391 73.7506 206.106 78.5904L236.425 109.712C242.075 115.512 251.167 116.176 257.601 111.26L285.619 89.8477C291.283 85.5187 299.128 85.4598 304.857 89.7033L334.208 111.444C340.707 116.257 349.775 115.465 355.34 109.597L413.009 48.7921C416.889 44.7018 422.634 42.9548 428.134 44.1935L485.959 57.2169" stroke="#75E589" stroke-width="1.5"/>
<g filter="url(#filter0_d_161_11480)">
<circle cx="417.5" cy="43.5" r="8.5" fill="white"/>
<circle cx="417.5" cy="43.5" r="9.25" stroke="#75E589" stroke-width="1.5"/>
</g>
<line x1="417.214" y1="162.788" x2="417.214" y2="47.7735" stroke="url(#paint2_linear_161_11480)"/>
<g filter="url(#filter1_d_161_11480)">
<rect x="85" y="61" width="27" height="27" rx="13.5" fill="white" shape-rendering="crispEdges"/>
<path d="M98.5007 67.2007C96.5651 67.2017 94.7091 67.9709 93.3404 69.3395C91.9716 70.7081 91.2021 72.564 91.2009 74.4995C91.2019 76.4352 91.9713 78.2914 93.3401 79.6602C94.7088 81.0289 96.565 81.7983 98.5007 81.7993C99.7316 81.798 100.942 81.4856 102.02 80.8911C103.098 80.2966 104.008 79.4393 104.666 78.3989C105.324 77.3585 105.708 76.1687 105.783 74.94C105.858 73.7113 105.621 72.4837 105.094 71.3711L104.37 72.0948C104.303 72.1631 104.222 72.2174 104.133 72.2545C104.044 72.2916 103.949 72.3107 103.853 72.3109H103.65C103.938 72.9831 104.097 73.7234 104.097 74.4995C104.096 75.9836 103.506 77.4065 102.457 78.4559C101.408 79.5053 99.9847 80.0952 98.5007 80.0962C95.4127 80.0962 92.904 77.5875 92.904 74.4995C92.9051 73.5752 93.1349 72.6654 93.573 71.8515C94.0112 71.0376 94.6439 70.3447 95.4149 69.8348C96.1859 69.3249 97.0711 69.0137 97.9916 68.9291C98.9121 68.8445 99.8392 68.989 100.69 69.3498V69.1475C100.69 68.9534 100.767 68.7668 100.905 68.6297L101.63 67.9051C100.652 67.4404 99.5832 67.1991 98.5007 67.2007ZM103.117 67.2007C103.055 67.2025 102.996 67.2282 102.952 67.2724L101.248 68.9746C101.226 68.9973 101.208 69.0242 101.195 69.0539C101.183 69.0835 101.177 69.1154 101.177 69.1475V70.7503L97.9636 73.9634C97.8221 74.1063 97.7427 74.2993 97.7427 74.5004C97.7427 74.7016 97.8221 74.8946 97.9636 75.0375C98.2579 75.3318 98.7425 75.3308 99.0368 75.0357L102.249 71.8235H103.853C103.885 71.8235 103.917 71.8172 103.946 71.8049C103.976 71.7926 104.003 71.7745 104.026 71.7518L105.728 70.0487C105.761 70.0145 105.784 69.9713 105.793 69.9244C105.802 69.8776 105.797 69.8291 105.778 69.785C105.76 69.741 105.729 69.7032 105.69 69.6765C105.65 69.6498 105.604 69.6354 105.556 69.6349H104.439L104.633 69.4399C104.774 69.2974 104.854 69.1049 104.854 68.9042C104.854 68.7034 104.775 68.5106 104.634 68.3677C104.487 68.2205 104.291 68.147 104.096 68.147C103.901 68.147 103.707 68.2205 103.559 68.3677L103.366 68.5608V67.4425C103.366 67.4101 103.36 67.3781 103.347 67.3483C103.334 67.3185 103.316 67.2914 103.293 67.2688C103.269 67.2462 103.242 67.2285 103.212 67.2166C103.182 67.2048 103.149 67.2 103.117 67.2007ZM98.5007 70.606C96.3534 70.606 94.6062 72.3532 94.6062 74.4995C94.6062 76.6459 96.3534 78.3922 98.5007 78.3922C99.5327 78.3912 100.522 77.9807 101.252 77.2509C101.981 76.5211 102.392 75.5315 102.392 74.4995C102.392 73.8806 102.243 73.2958 101.986 72.7753L100.653 74.1087C100.709 74.4239 100.696 74.7477 100.614 75.0573C100.532 75.367 100.384 75.6549 100.179 75.9009C99.9734 76.1468 99.7169 76.3449 99.427 76.481C99.1372 76.6172 98.821 76.6882 98.5007 76.6891C97.9204 76.6884 97.364 76.4576 96.9536 76.0473C96.5431 75.637 96.3121 75.0808 96.3111 74.5004C96.3119 73.9201 96.5427 73.3638 96.9529 72.9533C97.3632 72.5429 97.9194 72.3119 98.4998 72.3109C98.634 72.3109 98.7646 72.3247 98.8915 72.3477L100.225 71.0143C99.6896 70.7464 99.0993 70.6066 98.5007 70.606Z" fill="#6FB2E0"/>
</g>
<g filter="url(#filter2_d_161_11480)">
<rect x="205" y="78" width="27" height="27" rx="13.5" fill="white" shape-rendering="crispEdges"/>
<g clip-path="url(#clip0_161_11480)">
<path d="M225.432 90.6721C225.199 91.8644 224.689 93.0123 223.962 94.0015C223.879 94.1143 223.703 94.0892 223.655 93.9578C223.563 93.7071 223.62 93.8205 221.65 91.0103C221.579 90.9085 221.633 90.768 221.753 90.7371C222.103 90.6471 222.411 90.4811 222.668 90.2401C222.763 90.1511 222.768 90.002 222.679 89.9068C222.59 89.8119 222.441 89.8072 222.345 89.8962C222.065 90.1594 221.709 90.3073 221.285 90.3393C221.223 90.344 221.163 90.315 221.127 90.2643L220.409 89.2385C220.246 89.0058 219.923 89.1932 219.93 89.4536C219.932 89.5346 219.887 89.6129 219.811 89.656C217.547 90.9508 217.708 90.8606 217.663 90.8828C217.325 91.0482 216.93 91.0741 216.571 90.9562C215.565 90.623 215.262 89.3937 215.936 88.6096C216.016 88.5168 215.838 88.6794 218.151 86.6615C218.405 86.44 218.6 86.2598 218.954 86.0353C221.847 84.1786 226.431 85.544 225.432 90.6721Z" fill="#FC8FB9"/>
<path d="M222.718 95.3862C222.633 95.4324 222.528 95.4205 222.454 95.3581L218.652 92.1428C218.552 92.0583 218.409 92.0762 218.329 92.1605C218.24 92.2532 218.242 92.4142 218.347 92.5029C219.074 93.1131 216.981 91.3472 221.73 95.363C221.801 95.4235 221.831 95.5208 221.804 95.6104C221.717 95.8972 221.513 96.136 221.256 96.2707C221.174 96.3135 221.074 96.3028 221.002 96.2453C219.948 95.4076 217.395 93.3725 217.343 93.3439C217.255 93.2953 217.14 93.3088 217.064 93.384C217.041 93.4075 217.022 93.4357 217.01 93.4667C216.998 93.4978 216.993 93.5311 216.995 93.5643C216.997 93.5975 217.006 93.63 217.021 93.6596C217.036 93.6891 217.058 93.7151 217.084 93.7359C220.543 96.4844 220.391 96.3601 220.389 96.3653C220.341 96.6766 220.141 96.9638 219.872 97.125C219.83 97.1503 219.782 97.1619 219.733 97.1582C219.684 97.1546 219.637 97.1358 219.599 97.1045L216.356 94.4109C216.31 94.3725 216.251 94.3533 216.191 94.3573C216.182 94.3573 216.159 94.3607 216.148 94.3641C215.965 94.4026 215.905 94.6487 216.055 94.7737L218.707 96.9761C218.79 97.0452 218.816 97.1625 218.769 97.2599C218.556 97.6985 218.004 97.9407 217.486 97.5787C215.995 96.5365 212.509 94.7373 211.602 90.6782C210.507 85.7744 214.826 84.2346 217.834 85.8926C217.977 85.9718 217.999 86.1695 217.875 86.2772C217.261 86.8122 215.706 88.1684 215.678 88.1955C214.96 88.914 214.91 90.0715 215.564 90.8308C216.161 91.5233 217.176 91.7082 217.983 91.2463C220.228 89.9609 220.062 90.0569 220.102 90.0291C220.208 89.9547 220.354 89.9823 220.429 90.0882C223.267 94.1386 223.153 93.9476 223.221 94.1363C223.398 94.6277 223.143 95.1547 222.718 95.3862Z" fill="#FC8FB9"/>
</g>
</g>
<g filter="url(#filter3_d_161_11480)">
<rect x="311" y="90" width="27" height="27" rx="13.5" fill="white" shape-rendering="crispEdges"/>
<path d="M319.403 108.873V109.844H318.548L317.429 111.786H324.258L323.138 109.844H322.316V108.873H321.345V98.0379C321.909 97.8368 322.316 97.3029 322.316 96.6708C322.316 95.8677 321.663 95.2144 320.859 95.2144C320.056 95.2144 319.403 95.8677 319.403 96.6708C319.403 97.3029 319.81 97.8368 320.374 98.0379V108.873H319.403Z" fill="#11A6AB"/>
<path d="M328.267 97.2634C326.744 97.5825 325.863 98.059 325.155 98.442C324.448 98.8246 323.918 99.103 323.032 99.0968C322.803 99.0948 322.559 99.0339 322.316 98.9514V104.884C322.75 104.939 323.198 104.973 323.653 104.973C325.272 104.973 326.954 104.602 328.185 103.658C329.238 102.767 329.62 102.911 330.465 103.255L331.266 103.582L331.127 102.728C330.958 101.685 330.66 100.85 330.2 100.137C330.802 99.6046 331.772 99.1476 332.808 98.7754L334 98.3463L332.827 97.8688C331.228 97.2174 329.582 97.0126 328.267 97.2634Z" fill="#11A6AB"/>
</g>
<g filter="url(#filter4_d_161_11480)">
<rect x="463" y="42" width="27" height="27" rx="13.5" fill="white" shape-rendering="crispEdges"/>
<path d="M480.851 57.6946C481.137 57.6051 481.392 57.4363 481.586 57.2078C481.952 56.7043 481.74 55.8843 481.936 55.2792C482.126 54.6958 482.786 54.1604 482.786 53.5129C482.786 52.8655 482.126 52.3301 481.936 51.7467C481.739 51.141 481.952 50.3216 481.586 49.8181C481.215 49.3096 480.367 49.2599 479.859 48.8896C479.355 48.5227 479.048 47.7296 478.443 47.5336C477.859 47.3439 477.147 47.7987 476.5 47.7987C475.853 47.7987 475.141 47.3439 474.557 47.5336C473.952 47.7302 473.645 48.5227 473.141 48.8896C472.633 49.2599 471.785 49.309 471.414 49.8181C471.048 50.3216 471.26 51.141 471.064 51.7467C470.874 52.3301 470.214 52.8655 470.214 53.5129C470.214 54.1604 470.874 54.6958 471.064 55.2792C471.261 55.8849 471.048 56.7043 471.414 57.2078C471.608 57.4363 471.863 57.6051 472.149 57.6946L470.29 60.9431C470.234 61.0403 470.208 61.1518 470.216 61.2635C470.223 61.3753 470.263 61.4825 470.33 61.5718C470.398 61.6611 470.49 61.7286 470.596 61.7659C470.701 61.8031 470.815 61.8085 470.924 61.7814L472.656 61.3489L473.089 63.0803C473.116 63.1903 473.176 63.2896 473.26 63.3656C473.344 63.4416 473.449 63.4908 473.561 63.507C473.674 63.5232 473.788 63.5056 473.89 63.4565C473.993 63.4073 474.078 63.3289 474.136 63.2311L476.5 59.21L478.865 63.2311C478.922 63.3289 479.007 63.4073 479.11 63.4564C479.212 63.5055 479.327 63.523 479.439 63.5068C479.551 63.4906 479.656 63.4413 479.74 63.3652C479.824 63.2891 479.884 63.1898 479.911 63.0797L480.345 61.3483L482.076 61.7814C482.185 61.8085 482.299 61.8031 482.405 61.7659C482.51 61.7286 482.602 61.6611 482.67 61.5718C482.738 61.4825 482.777 61.3753 482.785 61.2635C482.792 61.1518 482.766 61.0403 482.71 60.9431L480.851 57.6946ZM476.5 56.0843C475.991 56.0843 475.494 55.9335 475.071 55.651C474.649 55.3684 474.319 54.9668 474.124 54.497C473.93 54.0271 473.879 53.5101 473.978 53.0113C474.077 52.5125 474.322 52.0543 474.682 51.6947C475.041 51.3351 475.5 51.0902 475.998 50.991C476.497 50.8917 477.014 50.9427 477.484 51.1373C477.954 51.3319 478.356 51.6615 478.638 52.0844C478.921 52.5072 479.071 53.0044 479.071 53.5129C479.071 54.1949 478.801 54.849 478.318 55.3312C477.836 55.8134 477.182 56.0843 476.5 56.0843Z" fill="#F5AD42"/>
</g>
<defs>
<filter id="filter0_d_161_11480" x="403.5" y="33.5" width="28" height="28" filterUnits="userSpaceOnUse" color-interpolation-filters="sRGB">
<feFlood flood-opacity="0" result="BackgroundImageFix"/>
<feColorMatrix in="SourceAlpha" type="matrix" values="0 0 0 0 0 0 0 0 0 0 0 0 0 0 0 0 0 0 127 0" result="hardAlpha"/>
<feOffset dy="4"/>
<feGaussianBlur stdDeviation="2"/>
<feComposite in2="hardAlpha" operator="out"/>
<feColorMatrix type="matrix" values="0 0 0 0 0.531927 0 0 0 0 0.450299 0 0 0 0 0.450299 0 0 0 0.25 0"/>
<feBlend mode="normal" in2="BackgroundImageFix" result="effect1_dropShadow_161_11480"/>
<feBlend mode="normal" in="SourceGraphic" in2="effect1_dropShadow_161_11480" result="shape"/>
</filter>
<filter id="filter1_d_161_11480" x="73.6856" y="50.846" width="49.6288" height="49.6288" filterUnits="userSpaceOnUse" color-interpolation-filters="sRGB">
<feFlood flood-opacity="0" result="BackgroundImageFix"/>
<feColorMatrix in="SourceAlpha" type="matrix" values="0 0 0 0 0 0 0 0 0 0 0 0 0 0 0 0 0 0 127 0" result="hardAlpha"/>
<feMorphology radius="3.19124" operator="erode" in="SourceAlpha" result="effect1_dropShadow_161_11480"/>
<feOffset dy="1.16045"/>
<feGaussianBlur stdDeviation="7.25282"/>
<feComposite in2="hardAlpha" operator="out"/>
<feColorMatrix type="matrix" values="0 0 0 0 0.608366 0 0 0 0 0.608366 0 0 0 0 0.608366 0 0 0 0.2 0"/>
<feBlend mode="normal" in2="BackgroundImageFix" result="effect1_dropShadow_161_11480"/>
<feBlend mode="normal" in="SourceGraphic" in2="effect1_dropShadow_161_11480" result="shape"/>
</filter>
<filter id="filter2_d_161_11480" x="193.686" y="67.846" width="49.6288" height="49.6288" filterUnits="userSpaceOnUse" color-interpolation-filters="sRGB">
<feFlood flood-opacity="0" result="BackgroundImageFix"/>
<feColorMatrix in="SourceAlpha" type="matrix" values="0 0 0 0 0 0 0 0 0 0 0 0 0 0 0 0 0 0 127 0" result="hardAlpha"/>
<feMorphology radius="3.19124" operator="erode" in="SourceAlpha" result="effect1_dropShadow_161_11480"/>
<feOffset dy="1.16045"/>
<feGaussianBlur stdDeviation="7.25282"/>
<feComposite in2="hardAlpha" operator="out"/>
<feColorMatrix type="matrix" values="0 0 0 0 0 0 0 0 0 0 0 0 0 0 0 0 0 0 0.2 0"/>
<feBlend mode="normal" in2="BackgroundImageFix" result="effect1_dropShadow_161_11480"/>
<feBlend mode="normal" in="SourceGraphic" in2="effect1_dropShadow_161_11480" result="shape"/>
</filter>
<filter id="filter3_d_161_11480" x="299.686" y="79.846" width="49.6288" height="49.6288" filterUnits="userSpaceOnUse" color-interpolation-filters="sRGB">
<feFlood flood-opacity="0" result="BackgroundImageFix"/>
<feColorMatrix in="SourceAlpha" type="matrix" values="0 0 0 0 0 0 0 0 0 0 0 0 0 0 0 0 0 0 127 0" result="hardAlpha"/>
<feMorphology radius="3.19124" operator="erode" in="SourceAlpha" result="effect1_dropShadow_161_11480"/>
<feOffset dy="1.16045"/>
<feGaussianBlur stdDeviation="7.25282"/>
<feComposite in2="hardAlpha" operator="out"/>
<feColorMatrix type="matrix" values="0 0 0 0 0 0 0 0 0 0 0 0 0 0 0 0 0 0 0.2 0"/>
<feBlend mode="normal" in2="BackgroundImageFix" result="effect1_dropShadow_161_11480"/>
<feBlend mode="normal" in="SourceGraphic" in2="effect1_dropShadow_161_11480" result="shape"/>
</filter>
<filter id="filter4_d_161_11480" x="451.686" y="31.846" width="49.6288" height="49.6288" filterUnits="userSpaceOnUse" color-interpolation-filters="sRGB">
<feFlood flood-opacity="0" result="BackgroundImageFix"/>
<feColorMatrix in="SourceAlpha" type="matrix" values="0 0 0 0 0 0 0 0 0 0 0 0 0 0 0 0 0 0 127 0" result="hardAlpha"/>
<feMorphology radius="3.19124" operator="erode" in="SourceAlpha" result="effect1_dropShadow_161_11480"/>
<feOffset dy="1.16045"/>
<feGaussianBlur stdDeviation="7.25282"/>
<feComposite in2="hardAlpha" operator="out"/>
<feColorMatrix type="matrix" values="0 0 0 0 0 0 0 0 0 0 0 0 0 0 0 0 0 0 0.2 0"/>
<feBlend mode="normal" in2="BackgroundImageFix" result="effect1_dropShadow_161_11480"/>
<feBlend mode="normal" in="SourceGraphic" in2="effect1_dropShadow_161_11480" result="shape"/>
</filter>
<linearGradient id="paint0_linear_161_11480" x1="416.939" y1="4" x2="416.939" y2="164.509" gradientUnits="userSpaceOnUse">
<stop stop-color="#D9D9D9" stop-opacity="0.1"/>
<stop offset="1" stop-color="white" stop-opacity="0.2"/>
</linearGradient>
<linearGradient id="paint1_linear_161_11480" x1="417.333" y1="24.6001" x2="417.333" y2="164.509" gradientUnits="userSpaceOnUse">
<stop stop-color="#98EAB9"/>
<stop offset="1" stop-color="#73E586"/>
</linearGradient>
<linearGradient id="paint2_linear_161_11480" x1="418.214" y1="47.7735" x2="418.214" y2="162.788" gradientUnits="userSpaceOnUse">
<stop stop-color="white" stop-opacity="0.2"/>
<stop offset="1" stop-color="white"/>
</linearGradient>
<clipPath id="clip0_161_11480">
<rect width="14.1431" height="14.1431" fill="white" transform="translate(211.428 84.4285)"/>
</clipPath>
</defs>
</svg>
