<svg width="41" height="209" viewBox="0 0 41 209" fill="none" xmlns="http://www.w3.org/2000/svg">
<path d="M38.4817 1.74686C38.3764 1.2047 37.8515 0.850552 37.3094 0.95584L28.4744 2.67161C27.9323 2.7769 27.5781 3.30176 27.6834 3.84391C27.7887 4.38607 28.3135 4.74022 28.8557 4.63493L36.709 3.1098L38.2341 10.9631C38.3394 11.5052 38.8643 11.8594 39.4064 11.7541C39.9486 11.6488 40.3027 11.124 40.1974 10.5818L38.4817 1.74686ZM34.1175 6.9504L33.2886 6.39106L34.1175 6.9504ZM34.9464 7.50973L38.3289 2.49683L36.6711 1.37817L33.2886 6.39106L34.9464 7.50973ZM26.8713 207.447C-8.49341 144.644 -5.36786 67.2561 34.9464 7.50973L33.2886 6.39106C-7.44918 66.765 -10.6076 144.966 25.1287 208.428L26.8713 207.447Z" fill="#11A0A5"/>
</svg>
