<svg width="1440" height="1022" viewBox="0 0 1440 1022" fill="none" xmlns="http://www.w3.org/2000/svg">
<g clip-path="url(#clip0_246_2836)">
<rect width="1440" height="1022" fill="#F5F9F9"/>
<path d="M520.5 1057L451 1096.5M451 1096.5V1177.5M451 1096.5L381 1057L312 1096.5M312 1096.5V1177.5L243 1217.5L174 1177.5M312 1096.5L243 1057M174 1177.5V1096.5L243 1057M174 1177.5L104 1217M243 1057V977.5M243 977.5L173.5 937M243 977.5L309 937M173.5 937L104 977.5M173.5 937V860M104 977.5V1056.5L35 1096.5M104 977.5L35 937L-35 977.5V1056.5M35 1096.5V1177.5M35 1096.5L-35 1056.5M35 1177.5L104 1217M35 1177.5L-32 1217M104 1217V1293M104 1293L174 1334.5M104 1293L35 1334.5M174 1334.5L242 1292M174 1334.5V1413.5M35 1334.5V1412L-35 1453.5L-103.5 1412M35 1334.5L-35 1293L-103.5 1331V1412M-103.5 1412L-173 1453.5M-173 1453.5V1513M-173 1453.5L-243 1412V1331M-35 1056.5L-104 1096.5L-173 1056.5M-173 1056.5V977.5M-173 1056.5L-241 1096.5M-657 1176L-587.5 1136.5M-587.5 1136.5V1055.5M-587.5 1136.5L-517.5 1176L-448.5 1136.5M-448.5 1136.5V1055.5L-379.5 1015.5L-310.5 1055.5M-448.5 1136.5L-379.5 1176M-310.5 1055.5V1136.5L-379.5 1176M-310.5 1055.5L-240.5 1016M-379.5 1176V1255.5M-379.5 1255.5L-310 1296M-379.5 1255.5L-445.5 1296M-310 1296L-240.5 1255.5M-310 1296V1373M-240.5 1255.5V1176.5L-171.5 1136.5M-240.5 1255.5L-171.5 1296L-101.5 1255.5V1176.5M-171.5 1136.5V1055.5M-171.5 1136.5L-101.5 1176.5M-171.5 1055.5L-240.5 1016M-171.5 1055.5L-104.5 1016M-240.5 1016V940M-240.5 940L-310.5 898.5M-240.5 940L-171.5 898.5M-310.5 898.5L-378.5 941M-310.5 898.5V819.5M-171.5 898.5V821L-101.5 779.5L-33 821M-171.5 898.5L-101.5 940L-33 902V821M-33 821L36.5 779.5M36.5 779.5V720M36.5 779.5L106.5 821V902M-101.5 1176.5L-32.5 1136.5L36.5 1176.5M36.5 1176.5V1255.5M36.5 1176.5L104.5 1136.5" stroke="#0C7377" stroke-opacity="0.1" stroke-width="2"/>
<circle cx="104" cy="977.5" r="5.5" transform="rotate(180 104 977.5)" fill="#0C7377"/>
<circle cx="174" cy="938.5" r="5.5" transform="rotate(180 174 938.5)" fill="#0C7377"/>
<circle cx="243" cy="976.5" r="5.5" transform="rotate(180 243 976.5)" fill="#0C7377"/>
<circle cx="36" cy="781.5" r="5.5" transform="rotate(180 36 781.5)" fill="#0C7377"/>
<path d="M906 -49L975.5 -88.5M975.5 -88.5V-169.5M975.5 -88.5L1045.5 -49L1114.5 -88.5M1114.5 -88.5V-169.5L1183.5 -209.5L1252.5 -169.5M1114.5 -88.5L1183.5 -49M1252.5 -169.5V-88.5L1183.5 -49M1252.5 -169.5L1322.5 -209M1183.5 -49V30.5M1183.5 30.5L1253 71M1183.5 30.5L1117.5 71M1253 71L1322.5 30.5M1253 71V148M1322.5 30.5V-48.5L1391.5 -88.5M1322.5 30.5L1391.5 71L1461.5 30.5V-48.5M1391.5 -88.5V-169.5M1391.5 -88.5L1461.5 -48.5M1391.5 -169.5L1322.5 -209M1391.5 -169.5L1458.5 -209M1322.5 -209V-285M1322.5 -285L1252.5 -326.5M1322.5 -285L1391.5 -326.5M1252.5 -326.5L1184.5 -284M1252.5 -326.5V-405.5M1391.5 -326.5V-404L1461.5 -445.5L1530 -404M1391.5 -326.5L1461.5 -285L1530 -323V-404M1530 -404L1599.5 -445.5M1599.5 -445.5V-505M1599.5 -445.5L1669.5 -404V-323M1461.5 -48.5L1530.5 -88.5L1599.5 -48.5M1599.5 -48.5V30.5M1599.5 -48.5L1667.5 -88.5M2083.5 -168L2014 -128.5M2014 -128.5V-47.5M2014 -128.5L1944 -168L1875 -128.5M1875 -128.5V-47.5L1806 -7.5L1737 -47.5M1875 -128.5L1806 -168M1737 -47.5V-128.5L1806 -168M1737 -47.5L1667 -8M1806 -168V-247.5M1806 -247.5L1736.5 -288M1806 -247.5L1872 -288M1736.5 -288L1667 -247.5M1736.5 -288V-365M1667 -247.5V-168.5L1598 -128.5M1667 -247.5L1598 -288L1528 -247.5V-168.5M1598 -128.5V-47.5M1598 -128.5L1528 -168.5M1598 -47.5L1667 -8M1598 -47.5L1531 -8M1667 -8V68M1667 68L1737 109.5M1667 68L1598 109.5M1737 109.5L1805 67M1737 109.5V188.5M1598 109.5V187L1528 228.5L1459.5 187M1598 109.5L1528 68L1459.5 106V187M1459.5 187L1390 228.5M1390 228.5V288M1390 228.5L1320 187V106M1528 -168.5L1459 -128.5L1390 -168.5M1390 -168.5V-247.5M1390 -168.5L1322 -128.5" stroke="#0C7377" stroke-opacity="0.1" stroke-width="2"/>
<circle cx="1322.5" cy="30.5" r="5.5" fill="#0C7377"/>
<circle cx="1252.5" cy="69.5" r="5.5" fill="#0C7377"/>
<circle cx="1183.5" cy="31.5" r="5.5" fill="#0C7377"/>
<circle cx="1390.5" cy="226.5" r="5.5" fill="#0C7377"/>
</g>
<defs>
<clipPath id="clip0_246_2836">
<rect width="1440" height="1022" fill="white"/>
</clipPath>
</defs>
</svg>
