<svg width="224" height="155" viewBox="0 0 224 155" fill="none" xmlns="http://www.w3.org/2000/svg">
<path d="M71.3164 32.8014L51.8822 62.836L71.3164 92.8707H103.118L121.845 63.1894L102.764 32.8014H71.3164Z" fill="#C4F4F6" fill-opacity="0.28"/>
<path d="M172.727 92.8707L153.647 123.612L172.727 152.94H205.589L223.61 123.612L204.176 92.8707H172.727Z" fill="#C4F4F6" fill-opacity="0.28"/>
<path d="M51.8822 62.836H20.4342L1 93.224L20.7875 123.612H52.2356M51.8822 62.836L71.3164 32.8014H102.764M51.8822 62.836L71.3164 92.8707M102.764 32.8014L121.845 63.1894M102.764 32.8014L121.845 1H154.353L172.727 32.8014L153.647 63.1894M121.845 63.1894L103.118 92.8707M121.845 63.1894H153.647M103.118 92.8707H71.3164M103.118 92.8707L121.845 123.612M71.3164 92.8707L52.2356 123.612M52.2356 123.612L71.3164 154H103.118L121.845 123.612M121.845 123.612H153.647M153.647 123.612L172.727 92.8707M153.647 123.612L172.727 152.94H205.589L223.61 123.612L204.176 92.8707H172.727M172.727 92.8707L153.647 63.1894" stroke="#08A6AC" stroke-opacity="0.16" stroke-width="0.5"/>
</svg>
