<svg width="352" height="176" viewBox="0 0 352 176" fill="none" xmlns="http://www.w3.org/2000/svg">
<circle cx="193.5" cy="49.5" r="22.5" transform="rotate(-90 193.5 49.5)" fill="#F44C8D" fill-opacity="0.1"/>
<path d="M323.5 119.5V85.5H346.5V119.5H323.5Z" fill="url(#paint0_linear_67_3595)" stroke="url(#paint1_linear_67_3595)"/>
<circle cx="335" cy="85" r="11.5" transform="rotate(-90 335 85)" fill="#FEEDD2" stroke="#F5AD42"/>
<circle cx="193.5" cy="50.5" r="16.5" transform="rotate(-90 193.5 50.5)" fill="#F44C8D" fill-opacity="0.1"/>
<circle cx="193.5" cy="50.5" r="9.5" transform="rotate(-90 193.5 50.5)" fill="#F44C8D" fill-opacity="0.1"/>
<circle cx="335" cy="159" r="11.5" transform="rotate(-90 335 159)" fill="#E3EBFD" stroke="#9CB9F7"/>
<path d="M1.5 4.5H35.5V27.5H1.5V4.5Z" fill="url(#paint2_linear_67_3595)" stroke="url(#paint3_linear_67_3595)"/>
<circle cx="36" cy="16" r="11.5" fill="#F3E3FD" stroke="#D79EF9"/>
<path d="M226.217 84.4672C226.217 86.244 227.657 87.6844 229.434 87.6844C231.211 87.6844 232.651 86.244 232.651 84.4672C232.651 82.6903 231.211 81.2499 229.434 81.2499C227.657 81.2499 226.217 82.6903 226.217 84.4672ZM156.241 83.2607C156.241 85.0375 157.682 86.478 159.459 86.478C161.235 86.478 162.676 85.0375 162.676 83.2607C162.676 81.4839 161.235 80.0434 159.459 80.0434C157.682 80.0434 156.241 81.4839 156.241 83.2607ZM17.5734 51.4659C17.3379 51.7015 17.3379 52.0835 17.5734 52.319L21.4124 56.158C21.648 56.3936 22.0299 56.3936 22.2655 56.158C22.5011 55.9224 22.5011 55.5405 22.2655 55.3049L18.8531 51.8925L22.2655 48.4801C22.5011 48.2445 22.5011 47.8625 22.2655 47.627C22.0299 47.3914 21.648 47.3914 21.4124 47.627L17.5734 51.4659ZM14.7827 159.268C14.7827 161.045 16.2232 162.486 18 162.486C19.7768 162.486 21.2173 161.045 21.2173 159.268C21.2173 157.491 19.7768 156.051 18 156.051C16.2232 156.051 14.7827 157.491 14.7827 159.268ZM87.8386 122.471L84.3559 118.988L80.8731 122.471L84.3559 125.954L87.8386 122.471ZM153.828 159.268C153.828 161.045 155.269 162.486 157.046 162.486C158.823 162.486 160.263 161.045 160.263 159.268C160.263 157.491 158.823 156.051 157.046 156.051C155.269 156.051 153.828 157.491 153.828 159.268ZM266.356 15.5734C266.121 15.3379 265.739 15.3379 265.503 15.5734L261.664 19.4124C261.428 19.648 261.428 20.0299 261.664 20.2655C261.9 20.5011 262.282 20.5011 262.517 20.2655L265.93 16.8531L269.342 20.2655C269.578 20.5011 269.96 20.5011 270.195 20.2655C270.431 20.0299 270.431 19.648 270.195 19.4124L266.356 15.5734ZM262.712 86.8801C262.712 88.657 264.153 90.0974 265.93 90.0974C267.706 90.0974 269.147 88.657 269.147 86.8801C269.147 85.1033 267.706 83.6629 265.93 83.6629C264.153 83.6629 262.712 85.1033 262.712 86.8801ZM331.783 159.268C331.783 161.045 333.223 162.486 335 162.486C336.777 162.486 338.217 161.045 338.217 159.268C338.217 157.491 336.777 156.051 335 156.051C333.223 156.051 331.783 157.491 331.783 159.268ZM331.783 84.7688C331.783 86.5456 333.223 87.986 335 87.986C336.777 87.986 338.217 86.5456 338.217 84.7688C338.217 82.992 336.777 81.5515 335 81.5515C333.223 81.5515 331.783 82.992 331.783 84.7688ZM299.887 15.5734C299.652 15.809 299.652 16.191 299.887 16.4266L303.726 20.2655C303.962 20.5011 304.344 20.5011 304.579 20.2655C304.815 20.0299 304.815 19.648 304.579 19.4124L301.167 16L304.579 12.5876C304.815 12.352 304.815 11.9701 304.579 11.7345C304.344 11.4989 303.962 11.4989 303.726 11.7345L299.887 15.5734ZM228.831 84.4672V107.993H230.037V84.4672H228.831ZM214.956 121.868H173.936V123.074H214.956V121.868ZM160.062 107.993V85.6736H158.855V107.993H160.062ZM160.062 83.2607V66.3701H158.855V83.2607H160.062ZM144.981 51.2892H18V52.4957H144.981V51.2892ZM18.6032 159.268V136.949H17.3968V159.268H18.6032ZM32.4776 123.074H84.3559V121.868H32.4776V123.074ZM83.7526 124.582V144.791H84.9591V124.582H83.7526ZM98.8335 159.872H157.046V158.665H98.8335V159.872ZM266.533 84.4672V16H265.326V84.4672H266.533ZM265.93 87.4833H285.836V86.2769H265.93V87.4833ZM299.711 101.358V153.839H300.917V101.358H299.711ZM305.743 159.872H335V158.665H305.743V159.872ZM335.603 84.7688V30.4776H334.397V84.7688H335.603ZM320.522 15.3968H300.314V16.6032H320.522V15.3968ZM335.603 30.4776C335.603 22.1487 328.851 15.3968 320.522 15.3968V16.6032C328.185 16.6032 334.397 22.815 334.397 30.4776H335.603ZM299.711 153.839C299.711 157.171 302.412 159.872 305.743 159.872V158.665C303.078 158.665 300.917 156.504 300.917 153.839H299.711ZM18.6032 136.949C18.6032 129.286 24.815 123.074 32.4776 123.074V121.868C24.1487 121.868 17.3968 128.62 17.3968 136.949H18.6032ZM285.836 87.4833C293.499 87.4833 299.711 93.6951 299.711 101.358H300.917C300.917 93.0288 294.165 86.2769 285.836 86.2769V87.4833ZM160.062 66.3701C160.062 58.0412 153.31 51.2892 144.981 51.2892V52.4957C152.644 52.4957 158.855 58.7075 158.855 66.3701H160.062ZM173.936 121.868C166.274 121.868 160.062 115.656 160.062 107.993H158.855C158.855 116.322 165.607 123.074 173.936 123.074V121.868ZM83.7526 144.791C83.7526 153.12 90.5046 159.872 98.8335 159.872V158.665C91.1709 158.665 84.9591 152.453 84.9591 144.791H83.7526ZM228.831 107.993C228.831 115.656 222.619 121.868 214.956 121.868V123.074C223.285 123.074 230.037 116.322 230.037 107.993H228.831Z" fill="#11AFB4"/>
<path d="M21.1167 86.8799C21.1167 88.6567 22.5571 90.0971 24.334 90.0971C26.1108 90.0971 27.5512 88.6567 27.5512 86.8799C27.5512 85.103 26.1108 83.6626 24.334 83.6626C22.5571 83.6626 21.1167 85.103 21.1167 86.8799ZM123.441 122.897C123.677 123.133 124.059 123.133 124.294 122.897L128.133 119.058C128.369 118.823 128.369 118.441 128.133 118.205C127.898 117.97 127.516 117.97 127.28 118.205L123.868 121.618L120.455 118.205C120.22 117.97 119.838 117.97 119.602 118.205C119.367 118.441 119.367 118.823 119.602 119.058L123.441 122.897ZM24.334 87.4831H25.5153V86.2766H24.334V87.4831ZM27.878 87.4831H30.2407V86.2766H27.878V87.4831ZM32.6033 87.4831H34.966V86.2766H32.6033V87.4831ZM37.3287 87.4831H39.6913V86.2766H37.3287V87.4831ZM42.054 87.4831H44.4167V86.2766H42.054V87.4831ZM46.7794 87.4831H49.142V86.2766H46.7794V87.4831ZM51.5047 87.4831H53.8674V86.2766H51.5047V87.4831ZM56.23 87.4831H58.5927V86.2766H56.23V87.4831ZM60.9554 87.4831H63.3181V86.2766H60.9554V87.4831ZM65.6807 87.4831H68.0434V86.2766H65.6807V87.4831ZM70.4061 87.4831H72.7687V86.2766H70.4061V87.4831ZM75.1314 87.4831H77.4941V86.2766H75.1314V87.4831ZM79.8567 87.4831H82.2194V86.2766H79.8567V87.4831ZM84.5821 87.4831H86.9448V86.2766H84.5821V87.4831ZM89.3074 87.4831H91.6701V86.2766H89.3074V87.4831ZM94.0328 87.4831H96.3954V86.2766H94.0328V87.4831ZM98.7581 87.4831H101.121V86.2766H98.7581V87.4831ZM103.483 87.4831H105.846V86.2766H103.483V87.4831ZM108.209 87.4831H109.39V86.2766H108.209V87.4831ZM109.39 87.4831C109.757 87.4831 110.121 87.4974 110.48 87.5253L110.574 86.3225C110.183 86.2921 109.788 86.2766 109.39 86.2766V87.4831ZM112.631 87.8635C113.344 88.0341 114.035 88.2597 114.701 88.5357L115.163 87.4212C114.439 87.1211 113.687 86.8757 112.912 86.6902L112.631 87.8635ZM116.64 89.5255C117.261 89.9068 117.849 90.3356 118.401 90.8069L119.185 89.8898C118.586 89.3778 117.946 88.9118 117.271 88.4974L116.64 89.5255ZM119.941 92.3469C120.412 92.8982 120.841 93.4869 121.222 94.1078L122.25 93.4764C121.836 92.8016 121.37 92.1619 120.858 91.563L119.941 92.3469ZM122.212 96.0467C122.488 96.7122 122.714 97.4037 122.884 98.1167L124.057 97.836C123.872 97.0605 123.627 96.3083 123.326 95.5846L122.212 96.0467ZM123.222 100.267C123.25 100.627 123.265 100.99 123.265 101.358H124.471C124.471 100.959 124.456 100.564 124.425 100.174L123.222 100.267ZM123.265 101.358V102.677H124.471V101.358H123.265ZM123.265 105.316V107.955H124.471V105.316H123.265ZM123.265 110.595V113.234H124.471V110.595H123.265ZM123.265 115.873V118.512H124.471V115.873H123.265ZM123.265 121.151V122.471H124.471V121.151H123.265Z" fill="#FBAC85"/>
<path d="M32.7827 16C32.7827 17.7768 34.2232 19.2173 36 19.2173C37.7768 19.2173 39.2173 17.7768 39.2173 16C39.2173 14.2232 37.7768 12.7827 36 12.7827C34.2232 12.7827 32.7827 14.2232 32.7827 16ZM36 16.6032H37.1932V15.3968H36V16.6032ZM39.5797 16.6032H41.9661V15.3968H39.5797V16.6032ZM44.3525 16.6032H46.739V15.3968H44.3525V16.6032ZM49.1254 16.6032H51.5118V15.3968H49.1254V16.6032ZM53.8983 16.6032H56.2847V15.3968H53.8983V16.6032ZM58.6711 16.6032H61.0576V15.3968H58.6711V16.6032ZM63.444 16.6032H65.8305V15.3968H63.444V16.6032ZM68.2169 16.6032H70.6033V15.3968H68.2169V16.6032ZM72.9898 16.6032H75.3762V15.3968H72.9898V16.6032ZM77.7626 16.6032H80.1491V15.3968H77.7626V16.6032ZM82.5355 16.6032H84.922V15.3968H82.5355V16.6032ZM87.3084 16.6032H89.6948V15.3968H87.3084V16.6032ZM92.0813 16.6032H94.4677V15.3968H92.0813V16.6032ZM96.8541 16.6032H99.2406V15.3968H96.8541V16.6032ZM101.627 16.6032H104.013V15.3968H101.627V16.6032ZM106.4 16.6032H108.786V15.3968H106.4V16.6032ZM111.173 16.6032H113.559V15.3968H111.173V16.6032ZM115.946 16.6032H118.332V15.3968H115.946V16.6032ZM120.718 16.6032H123.105V15.3968H120.718V16.6032ZM125.491 16.6032H127.878V15.3968H125.491V16.6032ZM130.264 16.6032H132.651V15.3968H130.264V16.6032ZM135.037 16.6032H137.424V15.3968H135.037V16.6032ZM139.81 16.6032H142.196V15.3968H139.81V16.6032ZM144.583 16.6032H146.969V15.3968H144.583V16.6032ZM149.356 16.6032H151.742V15.3968H149.356V16.6032ZM154.129 16.6032H156.515V15.3968H154.129V16.6032ZM158.901 16.6032H161.288V15.3968H158.901V16.6032ZM163.674 16.6032H166.061V15.3968H163.674V16.6032ZM168.447 16.6032H170.834V15.3968H168.447V16.6032ZM173.22 16.6032H175.607V15.3968H173.22V16.6032ZM177.993 16.6032H180.379V15.3968H177.993V16.6032ZM182.766 16.6032H185.152V15.3968H182.766V16.6032ZM187.539 16.6032H189.925V15.3968H187.539V16.6032ZM192.312 16.6032H194.698V15.3968H192.312V16.6032ZM197.085 16.6032H199.471V15.3968H197.085V16.6032ZM201.857 16.6032H204.244V15.3968H201.857V16.6032ZM206.63 16.6032H209.017V15.3968H206.63V16.6032ZM211.403 16.6032H213.79V15.3968H211.403V16.6032ZM216.176 16.6032H217.369V15.3968H216.176V16.6032ZM217.369 16.6032C217.749 16.6032 218.124 16.6217 218.494 16.6577L218.611 15.4569C218.202 15.4171 217.788 15.3968 217.369 15.3968V16.6032ZM220.698 17.0938C221.422 17.3134 222.116 17.6027 222.773 17.9542L223.342 16.8907C222.617 16.5021 221.849 16.182 221.048 15.9392L220.698 17.0938ZM224.64 19.2043C225.22 19.681 225.753 20.2136 226.23 20.7938L227.162 20.0279C226.635 19.387 226.047 18.7987 225.406 18.2721L224.64 19.2043ZM227.48 22.6613C227.831 23.3174 228.121 24.0117 228.34 24.7362L229.495 24.3864C229.252 23.5849 228.932 22.8171 228.543 22.0916L227.48 22.6613ZM228.776 26.9401C228.812 27.31 228.831 27.6851 228.831 28.0647H230.037C230.037 27.646 230.017 27.2319 229.977 26.8233L228.776 26.9401ZM228.831 28.0647V29.3152H230.037V28.0647H228.831ZM228.831 31.8161V34.317H230.037V31.8161H228.831ZM228.831 36.8179V39.3188H230.037V36.8179H228.831ZM228.831 41.8197V44.3206H230.037V41.8197H228.831ZM228.831 46.8215V49.3225H230.037V46.8215H228.831ZM228.831 51.8234V54.3243H230.037V51.8234H228.831ZM228.831 56.8252V59.3261H230.037V56.8252H228.831ZM228.831 61.827V64.3279H230.037V61.827H228.831ZM228.831 66.8288V69.3297H230.037V66.8288H228.831ZM228.831 71.8307V74.3316H230.037V71.8307H228.831ZM228.831 76.8325V79.3334H230.037V76.8325H228.831ZM228.831 81.8343V84.3352H230.037V81.8343H228.831ZM228.831 86.8361V88.0866H230.037V86.8361H228.831Z" fill="#FBAC85"/>
<path d="M166.999 159.268H251.452C259.448 159.268 265.93 152.786 265.93 144.79V89.896" stroke="#FBAC85" stroke-width="1.20647" stroke-dasharray="2.41 2.41"/>
<path d="M193.5 47.3333C192.027 47.3333 190.833 48.5272 190.833 50C190.833 51.4728 192.027 52.6667 193.5 52.6667C194.973 52.6667 196.167 51.4728 196.167 50C196.167 48.5272 194.973 47.3333 193.5 47.3333ZM193.146 99.3536C193.342 99.5488 193.658 99.5488 193.854 99.3536L197.036 96.1716C197.231 95.9763 197.231 95.6597 197.036 95.4645C196.84 95.2692 196.524 95.2692 196.328 95.4645L193.5 98.2929L190.672 95.4645C190.476 95.2692 190.16 95.2692 189.964 95.4645C189.769 95.6597 189.769 95.9763 189.964 96.1716L193.146 99.3536ZM193 50V99H194V50H193Z" fill="#11AFB4"/>
<defs>
<linearGradient id="paint0_linear_67_3595" x1="335" y1="84.5" x2="334.5" y2="120.5" gradientUnits="userSpaceOnUse">
<stop stop-color="#FEEDD2"/>
<stop offset="1" stop-color="white"/>
</linearGradient>
<linearGradient id="paint1_linear_67_3595" x1="334" y1="83" x2="334" y2="120" gradientUnits="userSpaceOnUse">
<stop stop-color="#F5AD42"/>
<stop offset="1" stop-color="white"/>
</linearGradient>
<linearGradient id="paint2_linear_67_3595" x1="36.5" y1="16" x2="0.500001" y2="15.5" gradientUnits="userSpaceOnUse">
<stop stop-color="#FAF3FE"/>
<stop offset="1" stop-color="white"/>
</linearGradient>
<linearGradient id="paint3_linear_67_3595" x1="38" y1="15" x2="0.999999" y2="15" gradientUnits="userSpaceOnUse">
<stop stop-color="#D79EF9"/>
<stop offset="1" stop-color="white"/>
</linearGradient>
</defs>
</svg>
